<svg width="73" height="100" viewBox="0 0 73 100" fill="none" xmlns="http://www.w3.org/2000/svg">
<g filter="url(#filter0_i_12254_69467)">
<path d="M26.0006 54.5595C12.5016 29.5586 56.0005 23.5614 48.0006 54.5595" stroke="#DBBFFF" stroke-width="3"/>
</g>
<g filter="url(#filter1_i_12254_69467)">
<path d="M9.44835 89.6032C10.6457 95.1216 15.5286 99.0586 21.1755 99.0586H52.6441C58.3725 99.0586 63.3021 95.0098 64.4154 89.3906L70.1606 60.3906C71.6305 52.9712 65.9531 46.0586 58.3894 46.0586H14.883C7.23062 46.0586 1.53323 53.1248 3.1559 60.6032L9.44835 89.6032Z" fill="url(#paint0_radial_12254_69467)"/>
</g>
<g filter="url(#filter2_i_12254_69467)">
<path d="M28.0449 54.5C17.501 39.1124 51.4744 32.8177 45.2265 54.5" stroke="#ECDDFF" stroke-width="3"/>
</g>
<g filter="url(#filter3_i_12254_69467)">
<path d="M8.91182 89.1032C10.1319 94.5936 15.0017 98.5 20.6261 98.5H52.1624C57.8825 98.5 62.8075 94.4625 63.9293 88.8534L68.1293 67.8534C69.6144 60.4279 63.9349 53.5 56.3624 53.5H15.9594C8.28242 53.5 2.57978 60.609 4.24515 68.1032L8.91182 89.1032Z" fill="#C89DFF"/>
</g>
<g clip-path="url(#clip0_12254_69467)">
<g clip-path="url(#clip1_12254_69467)">
<path d="M57.3363 1H13.6637C12.7449 1 12 1.71634 12 2.6V9.4C12 10.2837 12.7449 11 13.6637 11H57.3363C58.2551 11 59 10.2837 59 9.4V2.6C59 1.71634 58.2551 1 57.3363 1Z" fill="#A663FF" fill-opacity="0.7"/>
<path d="M20.7349 6.0001C20.7349 4.12233 19.152 2.6001 17.1995 2.6001C15.2469 2.6001 13.6641 4.12233 13.6641 6.0001C13.6641 7.87787 15.2469 9.4001 17.1995 9.4001C19.152 9.4001 20.7349 7.87787 20.7349 6.0001Z" fill="white" fill-opacity="0.24"/>
<g opacity="0.2">
<path d="M56.2967 3.2002H23.4383C22.864 3.2002 22.3984 3.64791 22.3984 4.2002C22.3984 4.75248 22.864 5.2002 23.4383 5.2002H56.2967C56.8709 5.2002 57.3365 4.75248 57.3365 4.2002C57.3365 3.64791 56.8709 3.2002 56.2967 3.2002Z" fill="white"/>
<path d="M47.5622 6.80029H23.4383C22.864 6.80029 22.3984 7.24801 22.3984 7.80029C22.3984 8.35258 22.864 8.80029 23.4383 8.80029H47.5622C48.1364 8.80029 48.602 8.35258 48.602 7.80029C48.602 7.24801 48.1364 6.80029 47.5622 6.80029Z" fill="white"/>
</g>
</g>
<rect x="11.9" y="0.9" width="47.2" height="10.2" rx="4.1" stroke="#A663FF" stroke-opacity="0.4" stroke-width="0.2" stroke-linecap="round"/>
<path d="M20.7349 6.0001C20.7349 4.12233 19.152 2.6001 17.1995 2.6001C15.2469 2.6001 13.6641 4.12233 13.6641 6.0001C13.6641 7.87787 15.2469 9.4001 17.1995 9.4001C19.152 9.4001 20.7349 7.87787 20.7349 6.0001Z" fill="white" fill-opacity="0.24"/>
<g opacity="0.2">
<path d="M56.2967 3.2002H23.4383C22.864 3.2002 22.3984 3.64791 22.3984 4.2002C22.3984 4.75248 22.864 5.2002 23.4383 5.2002H56.2967C56.8709 5.2002 57.3365 4.75248 57.3365 4.2002C57.3365 3.64791 56.8709 3.2002 56.2967 3.2002Z" fill="white"/>
<path d="M47.5622 6.80029H23.4383C22.864 6.80029 22.3984 7.24801 22.3984 7.80029C22.3984 8.35258 22.864 8.80029 23.4383 8.80029H47.5622C48.1364 8.80029 48.602 8.35258 48.602 7.80029C48.602 7.24801 48.1364 6.80029 47.5622 6.80029Z" fill="white"/>
</g>
</g>
<rect x="11.9" y="0.9" width="47.2" height="10.2" rx="4.1" stroke="#A663FF" stroke-opacity="0.4" stroke-width="0.2" stroke-linecap="round"/>
<g clip-path="url(#clip2_12254_69467)">
<g clip-path="url(#clip3_12254_69467)">
<path d="M57.3363 17H13.6637C12.7449 17 12 17.7163 12 18.6V25.4C12 26.2837 12.7449 27 13.6637 27H57.3363C58.2551 27 59 26.2837 59 25.4V18.6C59 17.7163 58.2551 17 57.3363 17Z" fill="#A663FF" fill-opacity="0.7"/>
<path d="M20.7349 22.0001C20.7349 20.1223 19.152 18.6001 17.1995 18.6001C15.2469 18.6001 13.6641 20.1223 13.6641 22.0001C13.6641 23.8779 15.2469 25.4001 17.1995 25.4001C19.152 25.4001 20.7349 23.8779 20.7349 22.0001Z" fill="white" fill-opacity="0.24"/>
<g opacity="0.2">
<path d="M56.2967 19.2002H23.4383C22.864 19.2002 22.3984 19.6479 22.3984 20.2002C22.3984 20.7525 22.864 21.2002 23.4383 21.2002H56.2967C56.8709 21.2002 57.3365 20.7525 57.3365 20.2002C57.3365 19.6479 56.8709 19.2002 56.2967 19.2002Z" fill="white"/>
<path d="M47.5622 22.8003H23.4383C22.864 22.8003 22.3984 23.248 22.3984 23.8003C22.3984 24.3526 22.864 24.8003 23.4383 24.8003H47.5622C48.1364 24.8003 48.602 24.3526 48.602 23.8003C48.602 23.248 48.1364 22.8003 47.5622 22.8003Z" fill="white"/>
</g>
</g>
<rect x="11.9" y="16.9" width="47.2" height="10.2" rx="4.1" stroke="#A663FF" stroke-opacity="0.4" stroke-width="0.2" stroke-linecap="round"/>
<path d="M20.7349 22.0001C20.7349 20.1223 19.152 18.6001 17.1995 18.6001C15.2469 18.6001 13.6641 20.1223 13.6641 22.0001C13.6641 23.8779 15.2469 25.4001 17.1995 25.4001C19.152 25.4001 20.7349 23.8779 20.7349 22.0001Z" fill="white" fill-opacity="0.24"/>
<g opacity="0.2">
<path d="M56.2967 19.2002H23.4383C22.864 19.2002 22.3984 19.6479 22.3984 20.2002C22.3984 20.7525 22.864 21.2002 23.4383 21.2002H56.2967C56.8709 21.2002 57.3365 20.7525 57.3365 20.2002C57.3365 19.6479 56.8709 19.2002 56.2967 19.2002Z" fill="white"/>
<path d="M47.5622 22.8003H23.4383C22.864 22.8003 22.3984 23.248 22.3984 23.8003C22.3984 24.3526 22.864 24.8003 23.4383 24.8003H47.5622C48.1364 24.8003 48.602 24.3526 48.602 23.8003C48.602 23.248 48.1364 22.8003 47.5622 22.8003Z" fill="white"/>
</g>
</g>
<rect x="11.9" y="16.9" width="47.2" height="10.2" rx="4.1" stroke="#A663FF" stroke-opacity="0.4" stroke-width="0.2" stroke-linecap="round"/>
<path d="M66.498 21.4346C66.1075 21.8251 65.4745 21.8251 65.084 21.4346C64.6936 21.044 64.6935 20.411 65.084 20.0205C66.8302 18.2743 67.1794 16.3547 66.9268 14.6221C66.6671 12.8416 65.7641 11.2582 65.0225 10.3682C65.0146 10.3587 65.0075 10.3486 65 10.3389V11.7275C65 12.2798 64.5523 12.7275 64 12.7275C63.4478 12.7275 63 12.2798 63 11.7275V10.002C63.0003 7.95475 65.006 6.50924 66.9482 7.15625L68.8164 7.7793C69.3402 7.95405 69.6228 8.52011 69.4482 9.04395C69.2735 9.5677 68.7074 9.8504 68.1836 9.67578L66.6133 9.15234C67.5265 10.2712 68.5878 12.1565 68.9053 14.333C69.2359 16.6003 68.7518 19.1808 66.498 21.4346Z" fill="url(#paint1_linear_12254_69467)"/>
<path d="M5.00195 8.29297C5.39248 7.90247 6.0255 7.90245 6.41602 8.29297C6.80642 8.68349 6.80647 9.31654 6.41602 9.70703C4.66983 11.4532 4.32063 13.3728 4.57324 15.1055C4.83291 16.8859 5.73591 18.4694 6.47754 19.3594C6.48545 19.3689 6.4925 19.379 6.5 19.3887V18C6.5 17.4477 6.94772 17 7.5 17C8.05222 17.0001 8.5 17.4478 8.5 18V19.7256C8.49967 21.7728 6.49401 23.2183 4.55176 22.5713L2.68359 21.9482C2.15985 21.7735 1.87716 21.2074 2.05176 20.6836C2.22652 20.1598 2.79256 19.8771 3.31641 20.0518L4.88672 20.5752C3.97345 19.4563 2.91221 17.571 2.59473 15.3945C2.26408 13.1272 2.74823 10.5467 5.00195 8.29297Z" fill="url(#paint2_linear_12254_69467)"/>
<defs>
<filter id="filter0_i_12254_69467" x="21.8828" y="32.0005" width="28.6074" height="27.2715" filterUnits="userSpaceOnUse" color-interpolation-filters="sRGB">
<feFlood flood-opacity="0" result="BackgroundImageFix"/>
<feBlend mode="normal" in="SourceGraphic" in2="BackgroundImageFix" result="shape"/>
<feColorMatrix in="SourceAlpha" type="matrix" values="0 0 0 0 0 0 0 0 0 0 0 0 0 0 0 0 0 0 127 0" result="hardAlpha"/>
<feOffset dy="4"/>
<feGaussianBlur stdDeviation="2"/>
<feComposite in2="hardAlpha" operator="arithmetic" k2="-1" k3="1"/>
<feColorMatrix type="matrix" values="0 0 0 0 0.831652 0 0 0 0 0.702916 0 0 0 0 1 0 0 0 1 0"/>
<feBlend mode="normal" in2="shape" result="effect1_innerShadow_12254_69467"/>
</filter>
<filter id="filter1_i_12254_69467" x="2.87891" y="46.0586" width="67.5137" height="57" filterUnits="userSpaceOnUse" color-interpolation-filters="sRGB">
<feFlood flood-opacity="0" result="BackgroundImageFix"/>
<feBlend mode="normal" in="SourceGraphic" in2="BackgroundImageFix" result="shape"/>
<feColorMatrix in="SourceAlpha" type="matrix" values="0 0 0 0 0 0 0 0 0 0 0 0 0 0 0 0 0 0 127 0" result="hardAlpha"/>
<feOffset dy="4"/>
<feGaussianBlur stdDeviation="2"/>
<feComposite in2="hardAlpha" operator="arithmetic" k2="-1" k3="1"/>
<feColorMatrix type="matrix" values="0 0 0 0 0.784314 0 0 0 0 0.615686 0 0 0 0 1 0 0 0 1 0"/>
<feBlend mode="normal" in2="shape" result="effect1_innerShadow_12254_69467"/>
</filter>
<filter id="filter2_i_12254_69467" x="24.5" y="39.0005" width="22.998" height="20.3472" filterUnits="userSpaceOnUse" color-interpolation-filters="sRGB">
<feFlood flood-opacity="0" result="BackgroundImageFix"/>
<feBlend mode="normal" in="SourceGraphic" in2="BackgroundImageFix" result="shape"/>
<feColorMatrix in="SourceAlpha" type="matrix" values="0 0 0 0 0 0 0 0 0 0 0 0 0 0 0 0 0 0 127 0" result="hardAlpha"/>
<feOffset dy="4"/>
<feGaussianBlur stdDeviation="2"/>
<feComposite in2="hardAlpha" operator="arithmetic" k2="-1" k3="1"/>
<feColorMatrix type="matrix" values="0 0 0 0 0.831652 0 0 0 0 0.702916 0 0 0 0 1 0 0 0 1 0"/>
<feBlend mode="normal" in2="shape" result="effect1_innerShadow_12254_69467"/>
</filter>
<filter id="filter3_i_12254_69467" x="3.95508" y="53.5" width="64.4121" height="49" filterUnits="userSpaceOnUse" color-interpolation-filters="sRGB">
<feFlood flood-opacity="0" result="BackgroundImageFix"/>
<feBlend mode="normal" in="SourceGraphic" in2="BackgroundImageFix" result="shape"/>
<feColorMatrix in="SourceAlpha" type="matrix" values="0 0 0 0 0 0 0 0 0 0 0 0 0 0 0 0 0 0 127 0" result="hardAlpha"/>
<feOffset dy="4"/>
<feGaussianBlur stdDeviation="5.8"/>
<feComposite in2="hardAlpha" operator="arithmetic" k2="-1" k3="1"/>
<feColorMatrix type="matrix" values="0 0 0 0 0.652336 0 0 0 0 0.386475 0 0 0 0 1 0 0 0 1 0"/>
<feBlend mode="normal" in2="shape" result="effect1_innerShadow_12254_69467"/>
</filter>
<radialGradient id="paint0_radial_12254_69467" cx="0" cy="0" r="1" gradientUnits="userSpaceOnUse" gradientTransform="translate(36.5 54.3086) rotate(90) scale(27.75 35.3182)">
<stop stop-color="#2C0E53"/>
<stop offset="1" stop-color="#A663FF"/>
</radialGradient>
<linearGradient id="paint1_linear_12254_69467" x1="66" y1="18.501" x2="62.5967" y2="15.4381" gradientUnits="userSpaceOnUse">
<stop stop-color="#B88FED"/>
<stop offset="1" stop-color="#D8BBFF"/>
</linearGradient>
<linearGradient id="paint2_linear_12254_69467" x1="5.5" y1="11.2266" x2="8.90331" y2="14.2894" gradientUnits="userSpaceOnUse">
<stop stop-color="#B88FED"/>
<stop offset="1" stop-color="#D8BBFF"/>
</linearGradient>
<clipPath id="clip0_12254_69467">
<rect x="12" y="1" width="47" height="10" rx="4" fill="white"/>
</clipPath>
<clipPath id="clip1_12254_69467">
<rect x="12" y="1" width="47" height="10" rx="4" fill="white"/>
</clipPath>
<clipPath id="clip2_12254_69467">
<rect x="12" y="17" width="47" height="10" rx="4" fill="white"/>
</clipPath>
<clipPath id="clip3_12254_69467">
<rect x="12" y="17" width="47" height="10" rx="4" fill="white"/>
</clipPath>
</defs>
</svg>
