<svg width="20" height="20" viewBox="0 0 20 20" fill="none" xmlns="http://www.w3.org/2000/svg">
<path d="M9.99984 3.33317C13.6757 3.33317 16.6665 6.324 16.6665 9.99984C16.6665 13.6757 13.6757 16.6665 9.99984 16.6665C6.324 16.6665 3.33317 13.6757 3.33317 9.99984C3.33317 6.324 6.324 3.33317 9.99984 3.33317ZM9.99984 1.6665C5.39734 1.6665 1.6665 5.39734 1.6665 9.99984C1.6665 14.6023 5.39734 18.3332 9.99984 18.3332C14.6023 18.3332 18.3332 14.6023 18.3332 9.99984C18.3332 5.39734 14.6023 1.6665 9.99984 1.6665ZM14.1665 9.1665H10.8332V5.83317H9.1665V9.1665H5.83317V10.8332H9.1665V14.1665H10.8332V10.8332H14.1665V9.1665Z" fill="#CECBFF"/>
</svg>
