<svg width="301" height="301" viewBox="0 0 301 301" fill="none" xmlns="http://www.w3.org/2000/svg">
<path d="M151.485 52.2615C152.72 51.2204 153.531 49.4736 153.531 47.4943C153.531 45.515 152.72 43.7682 151.485 42.7271C150.249 43.7682 149.438 45.515 149.438 47.4943C149.438 49.4736 150.249 51.2204 151.485 52.2615Z" fill="url(#paint0_linear_10233_35259)" fill-opacity="0.32"/>
<path d="M136.318 82.9984C144.638 82.9984 151.21 76.438 151.21 68.1296C151.21 76.438 157.781 82.9984 166.101 82.9984C157.781 82.9984 151.21 89.5588 151.21 97.8672C151.47 89.1542 144.84 82.7605 136.318 82.9984Z" fill="url(#paint1_linear_10233_35259)" fill-opacity="0.32"/>
<path d="M122.185 56.7805C121.389 55.3265 118.644 55.7205 117.943 55.9277C118.648 55.7768 119.115 55.6372 119.497 55.3097C116.168 53.2986 112.902 58.1511 112.921 59.3641C112.786 58.9748 112.656 58.8468 112.298 58.6063C109.514 63.6679 113.981 68.1276 119.614 67.2425C113.004 63.6489 115.92 58.0564 122.185 56.7805Z" fill="url(#paint2_linear_10233_35259)" fill-opacity="0.32"/>
<path d="M102.749 83.6025C101.547 82.7566 102.03 80.5838 102.03 80.5838C102.03 80.5838 102.309 78.6888 103.2 76.4755C102.28 77.2195 101.967 77.9814 101.547 78.6888C100.592 77.8117 100.793 76.6432 101.197 75.4141C104.019 71.0614 107.193 69.8355 110.844 69.939L109.899 68.6209C109.946 67.6512 113.956 68.414 113.956 68.414C113.956 68.414 116.936 69.4173 118.451 70.6653C119.742 71.7292 120.723 73.0012 121.427 74.5121C120.023 74.9369 111.372 70.6018 102.749 83.6025Z" fill="url(#paint3_linear_10233_35259)" fill-opacity="0.32"/>
<path d="M130.492 80.0624C138.852 72.0742 131.006 61.1207 125.887 65.6174C121.551 69.634 113.981 62.1818 120.222 58.7357C134.535 51.061 143.951 74.8252 130.492 80.0624Z" fill="url(#paint4_linear_10233_35259)" fill-opacity="0.32"/>
<path d="M127.872 80.3805C132.813 75.6586 128.175 69.1841 125.149 71.8421C122.587 74.2163 117.773 71.4244 121.801 67.7743C130.261 63.2378 135.827 77.2848 127.872 80.3805Z" fill="url(#paint5_linear_10233_35259)" fill-opacity="0.32"/>
<path d="M150.079 60.4508C147.979 49.0893 134.502 49.6271 135.458 56.3674C136.441 62.1903 128.017 66.3959 126.587 57.3192C128.017 41.1604 153.081 46.3425 150.079 60.4508Z" fill="url(#paint6_linear_10233_35259)" fill-opacity="0.32"/>
<path d="M107.451 98.4769C98.5998 85.2879 113.964 69.7734 126.174 77.5414C110.078 76.8952 111.003 93.4206 114.535 97.367C118.449 100.855 122.031 99.8457 127.126 96.0207C124.791 104.35 115.187 107.989 107.451 98.4769Z" fill="url(#paint7_linear_10233_35259)" fill-opacity="0.32"/>
<path d="M107.451 98.4769C98.5998 85.2879 113.964 69.7734 126.174 77.5414C110.078 76.8952 111.003 93.4206 114.535 97.367C118.449 100.855 122.031 99.8457 127.126 96.0207C124.791 104.35 115.187 107.989 107.451 98.4769Z" fill="url(#paint8_linear_10233_35259)" fill-opacity="0.32"/>
<path d="M99.0036 97.909C94.2753 91.0692 102.483 83.0234 109.005 87.0519C100.407 86.7168 100.901 95.2868 102.788 97.3334C104.878 99.1422 106.792 98.6189 109.514 96.6352C108.266 100.955 103.136 102.842 99.0036 97.909Z" fill="url(#paint9_linear_10233_35259)" fill-opacity="0.32"/>
<path d="M138.197 118.399C141.08 119.243 144.088 115.23 144.72 114.069C144.011 115.163 143.593 115.938 143.523 116.847C150.362 115.165 148.322 104.78 146.742 103.252C147.415 103.577 147.746 103.574 148.512 103.425C145.587 93.3883 134.151 93.3896 128.076 101.721C141.144 97.8725 144.581 108.758 138.197 118.399Z" fill="url(#paint10_linear_10233_35259)" fill-opacity="0.32"/>
<path d="M129.758 107.36C129.125 108.631 130.748 110.364 131.237 110.754C130.786 110.334 130.459 110.074 130.04 109.966C130.257 113.289 135.273 113.202 136.118 112.594C135.911 112.88 135.884 113.034 135.89 113.403C140.818 112.875 141.767 107.554 138.383 104.035C139.094 110.436 133.728 111.131 129.758 107.36Z" fill="url(#paint11_linear_10233_35259)" fill-opacity="0.32"/>
<path d="M135.154 102.502C134.416 102.053 133.28 102.944 133.018 103.22C133.297 102.969 133.471 102.784 133.558 102.537C131.532 102.496 131.324 105.533 131.649 106.076C131.486 105.935 131.394 105.911 131.17 105.896C131.235 108.903 134.413 109.753 136.723 107.889C132.804 107.987 132.661 104.706 135.154 102.502Z" fill="url(#paint12_linear_10233_35259)" fill-opacity="0.32"/>
<path d="M180.235 56.7805C181.031 55.3265 183.776 55.7205 184.477 55.9277C183.772 55.7768 183.305 55.6372 182.922 55.3097C186.252 53.2986 189.518 58.1511 189.499 59.3641C189.634 58.9748 189.764 58.8468 190.122 58.6063C192.906 63.6679 188.438 68.1276 182.806 67.2425C189.416 63.6489 186.5 58.0564 180.235 56.7805Z" fill="url(#paint13_linear_10233_35259)" fill-opacity="0.32"/>
<path d="M199.671 83.6025C200.873 82.7566 200.39 80.5838 200.39 80.5838C200.39 80.5838 200.111 78.6888 199.22 76.4755C200.14 77.2195 200.453 77.9814 200.873 78.6888C201.828 77.8117 201.627 76.6432 201.223 75.4141C198.401 71.0614 195.227 69.8355 191.576 69.939L192.521 68.6209C192.474 67.6512 188.464 68.414 188.464 68.414C188.464 68.414 185.484 69.4173 183.969 70.6653C182.678 71.7292 181.697 73.0012 180.993 74.5121C182.397 74.9369 191.048 70.6018 199.671 83.6025Z" fill="url(#paint14_linear_10233_35259)" fill-opacity="0.32"/>
<path d="M171.928 80.0624C163.568 72.0742 171.414 61.1207 176.533 65.6174C180.868 69.634 188.439 62.1818 182.198 58.7357C167.885 51.061 158.468 74.8252 171.928 80.0624Z" fill="url(#paint15_linear_10233_35259)" fill-opacity="0.32"/>
<path d="M174.548 80.3805C169.607 75.6586 174.245 69.1841 177.271 71.8421C179.833 74.2163 184.647 71.4244 180.619 67.7743C172.159 63.2378 166.593 77.2848 174.548 80.3805Z" fill="url(#paint16_linear_10233_35259)" fill-opacity="0.32"/>
<path d="M152.341 60.4508C154.441 49.0893 167.918 49.6271 166.962 56.3674C165.979 62.1903 174.403 66.3959 175.833 57.3192C174.403 41.1604 149.339 46.3425 152.341 60.4508Z" fill="url(#paint17_linear_10233_35259)" fill-opacity="0.32"/>
<path d="M194.969 98.4769C203.82 85.2879 188.456 69.7734 176.246 77.5414C192.342 76.8952 191.417 93.4206 187.885 97.367C183.971 100.855 180.389 99.8457 175.294 96.0207C177.629 104.35 187.233 107.989 194.969 98.4769Z" fill="url(#paint18_linear_10233_35259)" fill-opacity="0.32"/>
<path d="M194.969 98.4769C203.82 85.2879 188.456 69.7734 176.246 77.5414C192.342 76.8952 191.417 93.4206 187.885 97.367C183.971 100.855 180.389 99.8457 175.294 96.0207C177.629 104.35 187.233 107.989 194.969 98.4769Z" fill="url(#paint19_linear_10233_35259)" fill-opacity="0.32"/>
<path d="M203.416 97.909C208.145 91.0692 199.937 83.0234 193.415 87.0519C202.013 86.7168 201.519 95.2868 199.632 97.3334C197.541 99.1422 195.628 98.6189 192.906 96.6352C194.154 100.955 199.284 102.842 203.416 97.909Z" fill="url(#paint20_linear_10233_35259)" fill-opacity="0.32"/>
<path d="M163.584 118.399C160.702 119.243 157.693 115.23 157.062 114.069C157.77 115.163 158.189 115.938 158.259 116.847C151.419 115.165 153.46 104.78 155.039 103.252C154.366 103.577 154.035 103.574 153.269 103.425C156.195 93.3883 167.63 93.3896 173.705 101.721C160.637 97.8725 157.201 108.758 163.584 118.399Z" fill="url(#paint21_linear_10233_35259)" fill-opacity="0.32"/>
<path d="M172.023 107.36C172.656 108.631 171.033 110.364 170.544 110.754C170.996 110.334 171.323 110.074 171.741 109.966C171.524 113.289 166.508 113.202 165.663 112.594C165.871 112.88 165.897 113.034 165.891 113.403C160.963 112.875 160.014 107.554 163.398 104.035C162.687 110.436 168.054 111.131 172.023 107.36Z" fill="url(#paint22_linear_10233_35259)" fill-opacity="0.32"/>
<path d="M166.628 102.502C167.366 102.053 168.501 102.944 168.763 103.22C168.485 102.969 168.311 102.784 168.223 102.537C170.25 102.496 170.457 105.533 170.132 106.076C170.295 105.935 170.387 105.911 170.611 105.896C170.546 108.903 167.368 109.753 165.059 107.889C168.977 107.987 169.121 104.706 166.628 102.502Z" fill="url(#paint23_linear_10233_35259)" fill-opacity="0.32"/>
<path d="M151.485 248.432C152.72 249.473 153.531 251.22 153.531 253.2C153.531 255.179 152.72 256.926 151.485 257.967C150.249 256.926 149.438 255.179 149.438 253.2C149.438 251.22 150.249 249.473 151.485 248.432Z" fill="url(#paint24_linear_10233_35259)" fill-opacity="0.32"/>
<path d="M136.318 217.696C144.638 217.696 151.21 224.256 151.21 232.565C151.21 224.256 157.781 217.696 166.101 217.696C157.781 217.696 151.21 211.136 151.21 202.827C151.47 211.54 144.84 217.934 136.318 217.696Z" fill="url(#paint25_linear_10233_35259)" fill-opacity="0.32"/>
<path d="M122.185 243.914C121.389 245.368 118.644 244.974 117.943 244.767C118.648 244.918 119.115 245.057 119.497 245.385C116.168 247.396 112.902 242.543 112.921 241.33C112.786 241.72 112.656 241.848 112.298 242.088C109.514 237.026 113.981 232.567 119.614 233.452C113.004 237.045 115.92 242.638 122.185 243.914Z" fill="url(#paint26_linear_10233_35259)" fill-opacity="0.32"/>
<path d="M102.749 217.091C101.547 217.937 102.03 220.11 102.03 220.11C102.03 220.11 102.309 222.005 103.2 224.218C102.28 223.474 101.967 222.712 101.547 222.005C100.592 222.882 100.793 224.051 101.197 225.28C104.019 229.632 107.193 230.858 110.844 230.755L109.899 232.073C109.946 233.043 113.956 232.28 113.956 232.28C113.956 232.28 116.936 231.277 118.451 230.029C119.742 228.965 120.723 227.693 121.427 226.182C120.023 225.757 111.372 230.092 102.749 217.091Z" fill="url(#paint27_linear_10233_35259)" fill-opacity="0.32"/>
<path d="M130.492 220.632C138.852 228.62 131.006 239.574 125.887 235.077C121.551 231.06 113.981 238.513 120.222 241.959C134.535 249.633 143.951 225.869 130.492 220.632Z" fill="url(#paint28_linear_10233_35259)" fill-opacity="0.32"/>
<path d="M127.872 220.314C132.813 225.036 128.175 231.51 125.149 228.852C122.587 226.478 117.773 229.27 121.801 232.92C130.261 237.457 135.827 223.41 127.872 220.314Z" fill="url(#paint29_linear_10233_35259)" fill-opacity="0.32"/>
<path d="M150.079 240.243C147.979 251.605 134.502 251.067 135.458 244.327C136.441 238.504 128.017 234.298 126.587 243.375C128.017 259.534 153.081 254.352 150.079 240.243Z" fill="url(#paint30_linear_10233_35259)" fill-opacity="0.32"/>
<path d="M107.451 202.217C98.5998 215.406 113.964 230.92 126.174 223.152C110.078 223.799 111.003 207.273 114.535 203.327C118.449 199.839 122.031 200.848 127.126 204.673C124.791 196.344 115.187 192.705 107.451 202.217Z" fill="url(#paint31_linear_10233_35259)" fill-opacity="0.32"/>
<path d="M107.451 202.217C98.5998 215.406 113.964 230.92 126.174 223.152C110.078 223.799 111.003 207.273 114.535 203.327C118.449 199.839 122.031 200.848 127.126 204.673C124.791 196.344 115.187 192.705 107.451 202.217Z" fill="url(#paint32_linear_10233_35259)" fill-opacity="0.32"/>
<path d="M99.0036 202.785C94.2753 209.625 102.483 217.67 109.005 213.642C100.407 213.977 100.901 205.407 102.788 203.36C104.878 201.552 106.792 202.075 109.514 204.059C108.266 199.739 103.136 197.852 99.0036 202.785Z" fill="url(#paint33_linear_10233_35259)" fill-opacity="0.32"/>
<path d="M138.197 182.295C141.08 181.451 144.088 185.464 144.72 186.625C144.011 185.531 143.593 184.756 143.523 183.847C150.362 185.528 148.322 195.913 146.742 197.442C147.415 197.117 147.746 197.119 148.512 197.269C145.587 207.306 134.151 207.304 128.076 198.973C141.144 202.821 144.581 191.935 138.197 182.295Z" fill="url(#paint34_linear_10233_35259)" fill-opacity="0.32"/>
<path d="M129.758 193.334C129.125 192.063 130.748 190.33 131.237 189.94C130.786 190.36 130.459 190.619 130.04 190.727C130.257 187.405 135.273 187.492 136.118 188.1C135.911 187.814 135.884 187.66 135.89 187.291C140.818 187.819 141.767 193.14 138.383 196.659C139.094 190.258 133.728 189.563 129.758 193.334Z" fill="url(#paint35_linear_10233_35259)" fill-opacity="0.32"/>
<path d="M135.154 198.192C134.416 198.641 133.28 197.75 133.018 197.474C133.297 197.725 133.471 197.91 133.558 198.157C131.532 198.198 131.324 195.16 131.649 194.618C131.486 194.759 131.394 194.782 131.17 194.798C131.235 191.791 134.413 190.941 136.723 192.805C132.804 192.707 132.661 195.988 135.154 198.192Z" fill="url(#paint36_linear_10233_35259)" fill-opacity="0.32"/>
<path d="M180.235 243.914C181.031 245.368 183.776 244.974 184.477 244.767C183.772 244.918 183.305 245.057 182.922 245.385C186.252 247.396 189.518 242.543 189.499 241.33C189.634 241.72 189.764 241.848 190.122 242.088C192.906 237.026 188.438 232.567 182.806 233.452C189.416 237.045 186.5 242.638 180.235 243.914Z" fill="url(#paint37_linear_10233_35259)" fill-opacity="0.32"/>
<path d="M199.671 217.091C200.873 217.937 200.39 220.11 200.39 220.11C200.39 220.11 200.111 222.005 199.22 224.218C200.14 223.474 200.453 222.712 200.873 222.005C201.828 222.882 201.627 224.051 201.223 225.28C198.401 229.632 195.227 230.858 191.576 230.755L192.521 232.073C192.474 233.043 188.464 232.28 188.464 232.28C188.464 232.28 185.484 231.277 183.969 230.029C182.678 228.965 181.697 227.693 180.993 226.182C182.397 225.757 191.048 230.092 199.671 217.091Z" fill="url(#paint38_linear_10233_35259)" fill-opacity="0.32"/>
<path d="M171.928 220.632C163.568 228.62 171.414 239.574 176.533 235.077C180.868 231.06 188.439 238.513 182.198 241.959C167.885 249.633 158.468 225.869 171.928 220.632Z" fill="url(#paint39_linear_10233_35259)" fill-opacity="0.32"/>
<path d="M174.548 220.314C169.607 225.036 174.245 231.51 177.271 228.852C179.833 226.478 184.647 229.27 180.619 232.92C172.159 237.457 166.593 223.41 174.548 220.314Z" fill="url(#paint40_linear_10233_35259)" fill-opacity="0.32"/>
<path d="M152.341 240.243C154.441 251.605 167.918 251.067 166.962 244.327C165.979 238.504 174.403 234.298 175.833 243.375C174.403 259.534 149.339 254.352 152.341 240.243Z" fill="url(#paint41_linear_10233_35259)" fill-opacity="0.32"/>
<path d="M194.969 202.217C203.82 215.406 188.456 230.92 176.246 223.152C192.342 223.799 191.417 207.273 187.885 203.327C183.971 199.839 180.389 200.848 175.294 204.673C177.629 196.344 187.233 192.705 194.969 202.217Z" fill="url(#paint42_linear_10233_35259)" fill-opacity="0.32"/>
<path d="M194.969 202.217C203.82 215.406 188.456 230.92 176.246 223.152C192.342 223.799 191.417 207.273 187.885 203.327C183.971 199.839 180.389 200.848 175.294 204.673C177.629 196.344 187.233 192.705 194.969 202.217Z" fill="url(#paint43_linear_10233_35259)" fill-opacity="0.32"/>
<path d="M203.416 202.785C208.145 209.625 199.937 217.67 193.415 213.642C202.013 213.977 201.519 205.407 199.632 203.36C197.541 201.552 195.628 202.075 192.906 204.059C194.154 199.739 199.284 197.852 203.416 202.785Z" fill="url(#paint44_linear_10233_35259)" fill-opacity="0.32"/>
<path d="M163.584 182.295C160.702 181.451 157.693 185.464 157.062 186.625C157.77 185.531 158.189 184.756 158.259 183.847C151.419 185.528 153.46 195.913 155.039 197.442C154.366 197.117 154.035 197.119 153.269 197.269C156.195 207.306 167.63 207.304 173.705 198.973C160.637 202.821 157.201 191.935 163.584 182.295Z" fill="url(#paint45_linear_10233_35259)" fill-opacity="0.32"/>
<path d="M172.023 193.334C172.656 192.063 171.033 190.33 170.544 189.94C170.996 190.36 171.323 190.619 171.741 190.727C171.524 187.405 166.508 187.492 165.663 188.1C165.871 187.814 165.897 187.66 165.891 187.291C160.963 187.819 160.014 193.14 163.398 196.659C162.687 190.258 168.054 189.563 172.023 193.334Z" fill="url(#paint46_linear_10233_35259)" fill-opacity="0.32"/>
<path d="M166.628 198.192C167.366 198.641 168.501 197.75 168.763 197.474C168.485 197.725 168.311 197.91 168.223 198.157C170.25 198.198 170.457 195.16 170.132 194.618C170.295 194.759 170.387 194.782 170.611 194.798C170.546 191.791 167.368 190.941 165.059 192.805C168.977 192.707 169.121 195.988 166.628 198.192Z" fill="url(#paint47_linear_10233_35259)" fill-opacity="0.32"/>
<path d="M236.422 101.542C237.943 102.09 239.864 101.917 241.58 100.928C243.297 99.9381 244.407 98.3639 244.692 96.7748C243.171 96.2268 241.251 96.3993 239.534 97.389C237.817 98.3786 236.708 99.9529 236.422 101.542Z" fill="url(#paint48_linear_10233_35259)" fill-opacity="0.32"/>
<path d="M202.18 103.796C206.34 110.99 215.316 113.393 222.522 109.238C215.316 113.393 212.912 122.355 217.072 129.55C212.912 122.355 203.936 119.953 196.729 124.107C204.417 119.976 206.647 111.046 202.18 103.796Z" fill="url(#paint49_linear_10233_35259)" fill-opacity="0.32"/>
<path d="M217.853 78.466C218.716 77.0509 217.002 74.8742 216.472 74.372C216.955 74.9058 217.309 75.2396 217.785 75.4069C217.864 71.5223 212.023 71.1248 210.98 71.7477C211.25 71.4356 211.296 71.2592 211.326 70.8297C205.544 70.9531 203.909 77.0461 207.493 81.4737C207.305 73.9611 213.614 73.6867 217.853 78.466Z" fill="url(#paint50_linear_10233_35259)" fill-opacity="0.32"/>
<path d="M184.871 75.0711C185.004 73.6085 187.13 72.9398 187.13 72.9398C187.13 72.9398 188.913 72.2339 191.278 71.8974C190.173 71.4739 189.356 71.5845 188.532 71.5745C188.815 70.3104 189.929 69.8998 191.198 69.635C196.384 69.8985 199.034 72.0299 200.77 75.2392L201.44 73.7629C202.305 73.3184 203.649 77.1677 203.649 77.1677C203.649 77.1677 204.268 80.246 203.943 82.1796C203.666 83.8281 203.053 85.3127 202.095 86.6765C201.024 85.6754 200.459 76.0271 184.871 75.0711Z" fill="url(#paint51_linear_10233_35259)" fill-opacity="0.32"/>
<path d="M201.813 97.2903C212.922 100.525 218.499 88.2634 212.04 86.0856C206.388 84.345 209.067 74.0727 215.176 77.746C228.989 86.2854 213.086 106.31 201.813 97.2903Z" fill="url(#paint52_linear_10233_35259)" fill-opacity="0.32"/>
<path d="M200.227 95.1832C206.793 97.0951 210.09 89.8474 206.272 88.5601C202.931 87.5313 202.946 81.9727 208.126 83.6306C216.291 88.6782 206.89 100.515 200.227 95.1832Z" fill="url(#paint53_linear_10233_35259)" fill-opacity="0.32"/>
<path d="M228.616 104.421C237.421 96.9245 230.216 85.5402 224.848 89.7367C220.289 93.4986 212.429 88.3172 219.587 82.5421C234.317 75.6989 242.354 99.9628 228.616 104.421Z" fill="url(#paint54_linear_10233_35259)" fill-opacity="0.32"/>
<path d="M174.321 86.574C181.334 72.3256 202.473 77.8536 201.84 92.2956C194.353 78.0543 180.482 87.1171 178.825 92.1444C177.757 97.2727 180.423 99.8654 186.288 102.359C177.896 104.504 169.938 98.0194 174.321 86.574Z" fill="url(#paint55_linear_10233_35259)" fill-opacity="0.32"/>
<path d="M174.321 86.574C181.334 72.3256 202.473 77.8536 201.84 92.2956C194.353 78.0543 180.482 87.1171 178.825 92.1444C177.757 97.2727 180.423 99.8654 186.288 102.359C177.896 104.504 169.938 98.0194 174.321 86.574Z" fill="url(#paint56_linear_10233_35259)" fill-opacity="0.32"/>
<path d="M170.589 78.9855C174.158 71.477 185.24 74.551 185.007 82.2052C180.998 74.6027 173.812 79.3151 172.981 81.9699C172.457 84.6821 173.868 86.075 176.949 87.4367C172.579 88.5179 168.377 85.0254 170.589 78.9855Z" fill="url(#paint57_linear_10233_35259)" fill-opacity="0.32"/>
<path d="M172.415 123.121C173.124 126.035 178.109 126.63 179.431 126.596C178.128 126.53 177.246 126.556 176.423 126.95C181.301 132.023 189.288 125.066 189.825 122.936C189.879 123.681 190.046 123.965 190.559 124.553C197.802 117.005 192.083 107.117 181.82 106.03C191.691 115.406 183.968 123.82 172.415 123.121Z" fill="url(#paint58_linear_10233_35259)" fill-opacity="0.32"/>
<path d="M177.77 110.304C176.35 110.392 175.659 112.662 175.565 113.28C175.704 112.679 175.765 112.267 175.65 111.851C172.876 113.699 175.46 117.994 176.41 118.42C176.058 118.384 175.911 118.438 175.594 118.627C178.516 122.625 183.606 120.785 184.965 116.099C179.769 119.914 176.484 115.621 177.77 110.304Z" fill="url(#paint59_linear_10233_35259)" fill-opacity="0.32"/>
<path d="M184.681 112.541C184.701 111.678 183.36 111.142 182.99 111.053C183.347 111.168 183.594 111.227 183.852 111.179C182.875 109.406 180.137 110.746 179.829 111.298C179.869 111.087 179.844 110.995 179.745 110.794C177.169 112.353 178.021 115.526 180.793 116.591C178.748 113.252 181.522 111.487 184.681 112.541Z" fill="url(#paint60_linear_10233_35259)" fill-opacity="0.32"/>
<path d="M246.878 128.662C248.537 128.623 249.568 131.194 249.738 131.903C249.517 131.219 249.405 130.745 249.497 130.25C252.906 132.124 250.33 137.374 249.269 137.964C249.674 137.887 249.85 137.935 250.238 138.124C247.24 143.062 241.138 141.429 239.089 136.117C245.511 140.035 248.904 134.717 246.878 128.662Z" fill="url(#paint61_linear_10233_35259)" fill-opacity="0.32"/>
<path d="M233.331 158.879C234.666 159.495 236.309 157.991 236.309 157.991C236.309 157.991 237.813 156.802 239.288 154.925C239.102 156.093 238.598 156.744 238.195 157.461C239.433 157.848 240.346 157.091 241.21 156.126C243.574 151.51 243.051 148.153 241.135 145.047L242.751 145.205C243.568 144.68 240.902 141.593 240.902 141.593C240.902 141.593 238.542 139.518 236.702 138.833C235.133 138.248 233.539 138.036 231.877 138.183C232.21 139.609 240.296 144.922 233.331 158.879Z" fill="url(#paint62_linear_10233_35259)" fill-opacity="0.32"/>
<path d="M222.531 133.119C225.28 121.897 238.703 123.205 237.362 129.879C236.046 135.636 246.295 138.456 246.164 131.337C245.664 115.123 220.343 118.862 222.531 133.119Z" fill="url(#paint63_linear_10233_35259)" fill-opacity="0.32"/>
<path d="M223.565 135.544C225.19 128.911 233.125 129.684 232.332 133.629C231.554 137.032 236.383 139.799 237.535 134.491C237.239 124.907 222.273 127.117 223.565 135.544Z" fill="url(#paint64_linear_10233_35259)" fill-opacity="0.32"/>
<path d="M229.747 106.377C240.652 102.512 246.924 114.434 240.6 116.978C235.057 119.039 235.622 128.426 244.209 125.125C257.51 115.809 240.483 96.7271 229.747 106.377Z" fill="url(#paint65_linear_10233_35259)" fill-opacity="0.32"/>
<path d="M218.079 162.251C233.945 163.31 239.719 142.267 226.877 135.593C235.485 149.189 220.689 156.651 215.5 155.57C210.518 153.93 209.602 150.328 210.372 144.01C204.315 150.193 205.961 160.317 218.079 162.251Z" fill="url(#paint66_linear_10233_35259)" fill-opacity="0.32"/>
<path d="M218.079 162.251C233.945 163.31 239.719 142.267 226.877 135.593C235.485 149.189 220.689 156.651 215.5 155.57C210.518 153.93 209.602 150.328 210.372 144.01C204.315 150.193 205.961 160.317 218.079 162.251Z" fill="url(#paint67_linear_10233_35259)" fill-opacity="0.32"/>
<path d="M222.796 169.271C231.092 169.94 233.967 158.82 227.212 155.194C231.802 162.462 224.121 166.319 221.403 165.711C218.789 164.808 218.286 162.892 218.646 159.546C215.523 162.784 216.451 168.164 222.796 169.271Z" fill="url(#paint68_linear_10233_35259)" fill-opacity="0.32"/>
<path d="M185.108 145.073C182.935 143.002 184.911 138.394 185.602 137.268C185.008 138.427 184.544 139.177 183.791 139.692C181.83 132.937 191.857 129.509 193.973 130.11C193.354 129.691 193.191 129.404 192.938 128.667C203.106 126.178 208.823 136.067 204.634 145.485C201.438 132.261 190.278 134.733 185.108 145.073Z" fill="url(#paint69_linear_10233_35259)" fill-opacity="0.32"/>
<path d="M198.902 146.85C198.116 148.034 195.801 147.497 195.218 147.269C195.809 147.449 196.197 147.602 196.5 147.91C193.51 149.384 191.077 145.002 191.182 143.968C191.038 144.291 190.917 144.39 190.595 144.57C188.588 140.045 192.729 136.564 197.473 137.73C191.566 140.316 193.647 145.304 198.902 146.85Z" fill="url(#paint70_linear_10233_35259)" fill-opacity="0.32"/>
<path d="M200.417 139.756C201.176 140.17 200.97 141.598 200.862 141.962C200.941 141.595 201.014 141.353 201.185 141.154C202.234 142.885 199.702 144.583 199.07 144.573C199.273 144.644 199.34 144.712 199.465 144.898C196.825 146.345 194.498 144.022 194.96 141.093C196.835 144.531 199.752 143.014 200.417 139.756Z" fill="url(#paint71_linear_10233_35259)" fill-opacity="0.32"/>
<path d="M66.2728 199.627C65.9876 201.216 64.8778 202.79 63.1611 203.78C61.4443 204.77 59.524 204.942 58.0031 204.394C58.2883 202.805 59.3981 201.231 61.1148 200.241C62.8316 199.252 64.7519 199.079 66.2728 199.627Z" fill="url(#paint72_linear_10233_35259)" fill-opacity="0.32"/>
<path d="M85.3497 171.145C89.5097 178.339 87.1053 187.302 79.899 191.456C87.1053 187.302 96.0811 189.704 100.241 196.898C96.0811 189.704 98.4855 180.741 105.692 176.587C98.2649 181.169 89.4043 178.633 85.3497 171.145Z" fill="url(#paint73_linear_10233_35259)" fill-opacity="0.32"/>
<path d="M55.5424 172.032C53.8834 172.071 52.8526 169.5 52.682 168.791C52.9034 169.476 53.0157 169.949 52.923 170.444C49.514 168.57 52.09 163.32 53.1516 162.73C52.746 162.808 52.57 162.759 52.1826 162.57C55.1807 157.632 61.2826 159.265 63.331 164.578C56.9091 160.659 53.5166 165.977 55.5424 172.032Z" fill="url(#paint74_linear_10233_35259)" fill-opacity="0.32"/>
<path d="M69.0889 141.816C67.754 141.199 66.111 142.703 66.111 142.703C66.111 142.703 64.6071 143.892 63.1327 145.769C63.318 144.602 63.8225 143.95 64.2258 143.233C62.9877 142.846 62.0746 143.604 61.2108 144.568C58.8463 149.184 59.3699 152.542 61.2854 155.647L59.6696 155.489C58.8519 156.014 61.5188 159.101 61.5188 159.101C61.5188 159.101 63.8789 161.176 65.7185 161.861C67.2869 162.446 68.8809 162.659 70.5432 162.512C70.21 161.086 62.1243 155.773 69.0889 141.816Z" fill="url(#paint75_linear_10233_35259)" fill-opacity="0.32"/>
<path d="M79.8897 167.575C77.1409 178.798 63.7173 177.49 65.0582 170.815C66.3743 165.058 56.1254 162.238 56.2567 169.358C56.7567 185.572 82.0769 181.832 79.8897 167.575Z" fill="url(#paint76_linear_10233_35259)" fill-opacity="0.32"/>
<path d="M78.855 165.15C77.2302 171.784 69.2956 171.01 70.0882 167.065C70.8661 163.662 66.0375 160.895 64.8856 166.203C65.1811 175.788 80.1479 173.577 78.855 165.15Z" fill="url(#paint77_linear_10233_35259)" fill-opacity="0.32"/>
<path d="M72.673 194.317C61.7685 198.182 55.4967 186.26 61.8207 183.716C67.363 181.655 66.7987 172.268 58.2109 175.57C44.9104 184.885 61.9371 203.967 72.673 194.317Z" fill="url(#paint78_linear_10233_35259)" fill-opacity="0.32"/>
<path d="M84.341 138.444C68.4758 137.384 62.7013 158.427 75.5438 165.101C66.9354 151.506 81.7313 144.043 86.9203 145.124C91.9024 146.764 92.818 150.366 92.048 156.685C98.1049 150.501 96.4594 140.377 84.341 138.444Z" fill="url(#paint79_linear_10233_35259)" fill-opacity="0.32"/>
<path d="M84.341 138.444C68.4758 137.384 62.7013 158.427 75.5438 165.101C66.9354 151.506 81.7313 144.043 86.9203 145.124C91.9024 146.764 92.818 150.366 92.048 156.685C98.1049 150.501 96.4594 140.377 84.341 138.444Z" fill="url(#paint80_linear_10233_35259)" fill-opacity="0.32"/>
<path d="M79.6246 131.423C71.328 130.755 68.4531 141.874 75.2084 145.5C70.6186 138.233 78.299 134.375 81.0175 134.983C83.6317 135.887 84.1345 137.803 83.7749 141.148C86.8978 137.91 85.9695 132.53 79.6246 131.423Z" fill="url(#paint81_linear_10233_35259)" fill-opacity="0.32"/>
<path d="M116.993 155.069C119.166 157.139 117.19 161.747 116.499 162.873C117.094 161.714 117.557 160.964 118.31 160.45C120.271 167.205 110.244 170.633 108.128 170.031C108.747 170.451 108.91 170.738 109.163 171.475C98.9952 173.964 93.2785 164.075 97.4671 154.656C100.663 167.88 111.823 165.409 116.993 155.069Z" fill="url(#paint82_linear_10233_35259)" fill-opacity="0.32"/>
<path d="M103.199 153.291C103.985 152.108 106.3 152.645 106.883 152.873C106.292 152.693 105.904 152.539 105.601 152.232C108.591 150.758 111.024 155.139 110.919 156.173C111.063 155.851 111.184 155.751 111.507 155.572C113.513 160.097 109.372 163.578 104.628 162.411C110.535 159.826 108.454 154.838 103.199 153.291Z" fill="url(#paint83_linear_10233_35259)" fill-opacity="0.32"/>
<path d="M101.684 160.385C100.925 159.972 101.131 158.544 101.239 158.18C101.16 158.546 101.087 158.789 100.916 158.988C99.8675 157.256 102.399 155.558 103.031 155.568C102.828 155.498 102.762 155.43 102.636 155.244C105.276 153.796 107.603 156.119 107.141 159.048C105.266 155.611 102.349 157.127 101.684 160.385Z" fill="url(#paint84_linear_10233_35259)" fill-opacity="0.32"/>
<path d="M84.568 222.229C83.7048 223.644 85.4192 225.821 85.949 226.323C85.466 225.789 85.1114 225.455 84.636 225.288C84.5565 229.173 90.3981 229.57 91.4407 228.947C91.1709 229.259 91.1249 229.436 91.0952 229.865C96.8773 229.742 98.5116 223.649 94.9279 219.221C95.116 226.734 88.8071 227.008 84.568 222.229Z" fill="url(#paint85_linear_10233_35259)" fill-opacity="0.32"/>
<path d="M117.55 225.624C117.417 227.086 115.291 227.755 115.291 227.755C115.291 227.755 113.508 228.461 111.143 228.797C112.248 229.221 113.065 229.11 113.889 229.12C113.606 230.384 112.492 230.795 111.223 231.06C106.037 230.796 103.387 228.665 101.651 225.456L100.98 226.932C100.116 227.376 98.7724 223.527 98.7724 223.527C98.7724 223.527 98.1527 220.449 98.4778 218.515C98.7551 216.867 99.3676 215.382 100.326 214.018C101.397 215.019 101.962 224.668 117.55 225.624Z" fill="url(#paint86_linear_10233_35259)" fill-opacity="0.32"/>
<path d="M100.607 203.405C89.4991 200.17 83.9218 212.431 90.3813 214.609C96.0328 216.35 93.3543 226.622 87.245 222.949C73.4317 214.409 89.3354 194.385 100.607 203.405Z" fill="url(#paint87_linear_10233_35259)" fill-opacity="0.32"/>
<path d="M102.194 205.512C95.6278 203.6 92.331 210.847 96.1493 212.135C99.4898 213.164 99.4752 218.722 94.2954 217.064C86.1304 212.017 95.531 200.18 102.194 205.512Z" fill="url(#paint88_linear_10233_35259)" fill-opacity="0.32"/>
<path d="M73.8045 196.273C65.0003 203.77 72.205 215.155 77.5733 210.958C82.1321 207.196 89.9918 212.378 82.8343 218.153C68.1042 224.996 60.0668 200.732 73.8045 196.273Z" fill="url(#paint89_linear_10233_35259)" fill-opacity="0.32"/>
<path d="M128.1 214.121C121.086 228.369 99.948 222.841 100.581 208.399C108.068 222.64 121.939 213.578 123.596 208.55C124.664 203.422 121.998 200.829 116.132 198.336C124.524 196.191 132.483 202.675 128.1 214.121Z" fill="url(#paint90_linear_10233_35259)" fill-opacity="0.32"/>
<path d="M128.1 214.121C121.086 228.369 99.948 222.841 100.581 208.399C108.068 222.64 121.939 213.578 123.596 208.55C124.664 203.422 121.998 200.829 116.132 198.336C124.524 196.191 132.483 202.675 128.1 214.121Z" fill="url(#paint91_linear_10233_35259)" fill-opacity="0.32"/>
<path d="M131.831 221.709C128.263 229.218 117.181 226.144 117.414 218.49C121.422 226.092 128.608 221.38 129.44 218.725C129.964 216.013 128.553 214.62 125.472 213.258C129.842 212.177 134.044 215.669 131.831 221.709Z" fill="url(#paint92_linear_10233_35259)" fill-opacity="0.32"/>
<path d="M129.687 177.021C128.978 174.106 123.993 173.511 122.671 173.546C123.973 173.611 124.855 173.586 125.678 173.192C120.8 168.118 112.813 175.075 112.277 177.205C112.222 176.461 112.055 176.176 111.543 175.588C104.3 183.136 110.019 193.024 120.282 194.111C110.41 184.736 118.134 176.321 129.687 177.021Z" fill="url(#paint93_linear_10233_35259)" fill-opacity="0.32"/>
<path d="M124.332 189.838C125.751 189.75 126.443 187.48 126.537 186.862C126.398 187.463 126.337 187.875 126.452 188.291C129.225 186.442 126.641 182.148 125.692 181.722C126.044 181.758 126.191 181.704 126.507 181.514C123.586 177.517 118.496 179.357 117.136 184.042C122.332 180.228 125.618 184.52 124.332 189.838Z" fill="url(#paint94_linear_10233_35259)" fill-opacity="0.32"/>
<path d="M117.421 187.601C117.4 188.463 118.741 189 119.111 189.088C118.754 188.973 118.507 188.915 118.249 188.963C119.226 190.736 121.965 189.396 122.273 188.844C122.232 189.055 122.258 189.146 122.356 189.348C124.932 187.789 124.08 184.616 121.309 183.55C123.353 186.89 120.579 188.654 117.421 187.601Z" fill="url(#paint95_linear_10233_35259)" fill-opacity="0.32"/>
<path d="M236.148 199.627C236.433 201.216 237.543 202.79 239.26 203.78C240.977 204.77 242.897 204.942 244.418 204.394C244.133 202.805 243.023 201.231 241.306 200.241C239.589 199.252 237.669 199.079 236.148 199.627Z" fill="url(#paint96_linear_10233_35259)" fill-opacity="0.32"/>
<path d="M217.071 171.145C212.911 178.339 215.316 187.302 222.522 191.456C215.316 187.302 206.34 189.704 202.18 196.898C206.34 189.704 203.935 180.741 196.729 176.587C204.156 181.169 213.017 178.633 217.071 171.145Z" fill="url(#paint97_linear_10233_35259)" fill-opacity="0.32"/>
<path d="M246.878 172.032C248.537 172.071 249.568 169.5 249.739 168.791C249.517 169.476 249.405 169.949 249.498 170.444C252.907 168.57 250.331 163.32 249.269 162.73C249.675 162.808 249.851 162.759 250.238 162.57C247.24 157.632 241.138 159.265 239.09 164.578C245.512 160.659 248.904 165.977 246.878 172.032Z" fill="url(#paint98_linear_10233_35259)" fill-opacity="0.32"/>
<path d="M233.332 141.816C234.667 141.199 236.31 142.703 236.31 142.703C236.31 142.703 237.814 143.892 239.288 145.769C239.103 144.602 238.598 143.95 238.195 143.233C239.433 142.846 240.346 143.604 241.21 144.568C243.575 149.184 243.051 152.542 241.135 155.647L242.751 155.489C243.569 156.014 240.902 159.101 240.902 159.101C240.902 159.101 238.542 161.176 236.702 161.862C235.134 162.446 233.54 162.659 231.878 162.512C232.211 161.086 240.297 155.773 233.332 141.816Z" fill="url(#paint99_linear_10233_35259)" fill-opacity="0.32"/>
<path d="M222.531 167.575C225.28 178.798 238.704 177.49 237.363 170.815C236.047 165.058 246.296 162.238 246.164 169.358C245.664 185.572 220.344 181.832 222.531 167.575Z" fill="url(#paint100_linear_10233_35259)" fill-opacity="0.32"/>
<path d="M223.566 165.15C225.191 171.784 233.125 171.01 232.333 167.065C231.555 163.662 236.383 160.895 237.535 166.203C237.24 175.788 222.273 173.577 223.566 165.15Z" fill="url(#paint101_linear_10233_35259)" fill-opacity="0.32"/>
<path d="M229.748 194.317C240.652 198.182 246.924 186.26 240.6 183.716C235.058 181.655 235.622 172.268 244.21 175.57C257.51 184.885 240.484 203.967 229.748 194.317Z" fill="url(#paint102_linear_10233_35259)" fill-opacity="0.32"/>
<path d="M218.08 138.444C233.945 137.384 239.72 158.427 226.877 165.101C235.485 151.506 220.69 144.043 215.501 145.124C210.518 146.764 209.603 150.366 210.373 156.685C204.316 150.501 205.962 140.377 218.08 138.444Z" fill="url(#paint103_linear_10233_35259)" fill-opacity="0.32"/>
<path d="M218.08 138.444C233.945 137.384 239.72 158.427 226.877 165.101C235.485 151.506 220.69 144.043 215.501 145.124C210.518 146.764 209.603 150.366 210.373 156.685C204.316 150.501 205.962 140.377 218.08 138.444Z" fill="url(#paint104_linear_10233_35259)" fill-opacity="0.32"/>
<path d="M222.796 131.423C231.093 130.755 233.968 141.874 227.212 145.5C231.802 138.233 224.122 134.375 221.403 134.983C218.789 135.887 218.286 137.803 218.646 141.148C215.523 137.91 216.451 132.53 222.796 131.423Z" fill="url(#paint105_linear_10233_35259)" fill-opacity="0.32"/>
<path d="M185.428 155.069C183.254 157.139 185.231 161.747 185.922 162.873C185.327 161.714 184.864 160.964 184.111 160.45C182.149 167.205 192.177 170.633 194.293 170.031C193.674 170.451 193.511 170.738 193.258 171.475C203.426 173.964 209.142 164.075 204.954 154.656C201.757 167.88 190.597 165.409 185.428 155.069Z" fill="url(#paint106_linear_10233_35259)" fill-opacity="0.32"/>
<path d="M199.222 153.291C198.436 152.108 196.121 152.645 195.538 152.873C196.129 152.693 196.517 152.539 196.82 152.232C193.83 150.758 191.397 155.139 191.502 156.173C191.358 155.851 191.237 155.751 190.914 155.572C188.908 160.097 193.049 163.578 197.793 162.411C191.886 159.826 193.966 154.838 199.222 153.291Z" fill="url(#paint107_linear_10233_35259)" fill-opacity="0.32"/>
<path d="M200.737 160.385C201.496 159.972 201.29 158.544 201.182 158.18C201.261 158.546 201.334 158.789 201.504 158.988C202.553 157.256 200.022 155.558 199.39 155.568C199.593 155.498 199.659 155.43 199.785 155.244C197.145 153.796 194.818 156.119 195.28 159.048C197.154 155.611 200.072 157.127 200.737 160.385Z" fill="url(#paint108_linear_10233_35259)" fill-opacity="0.32"/>
<path d="M217.853 222.229C218.716 223.644 217.002 225.821 216.472 226.323C216.955 225.789 217.309 225.455 217.785 225.288C217.864 229.173 212.023 229.57 210.98 228.947C211.25 229.259 211.296 229.436 211.326 229.865C205.544 229.742 203.909 223.649 207.493 219.221C207.305 226.734 213.614 227.008 217.853 222.229Z" fill="url(#paint109_linear_10233_35259)" fill-opacity="0.32"/>
<path d="M184.871 225.624C185.004 227.086 187.13 227.755 187.13 227.755C187.13 227.755 188.913 228.461 191.278 228.797C190.173 229.221 189.356 229.11 188.532 229.12C188.815 230.384 189.929 230.795 191.198 231.06C196.384 230.796 199.034 228.665 200.77 225.456L201.44 226.932C202.305 227.376 203.649 223.527 203.649 223.527C203.649 223.527 204.268 220.449 203.943 218.515C203.666 216.867 203.053 215.382 202.095 214.018C201.024 215.019 200.459 224.668 184.871 225.624Z" fill="url(#paint110_linear_10233_35259)" fill-opacity="0.32"/>
<path d="M201.813 203.405C212.922 200.17 218.499 212.431 212.04 214.609C206.388 216.35 209.067 226.622 215.176 222.949C228.989 214.409 213.086 194.385 201.813 203.405Z" fill="url(#paint111_linear_10233_35259)" fill-opacity="0.32"/>
<path d="M200.227 205.512C206.793 203.6 210.09 210.847 206.272 212.135C202.931 213.164 202.946 218.722 208.126 217.064C216.291 212.017 206.89 200.18 200.227 205.512Z" fill="url(#paint112_linear_10233_35259)" fill-opacity="0.32"/>
<path d="M228.616 196.273C237.421 203.77 230.216 215.155 224.848 210.958C220.289 207.196 212.429 212.378 219.587 218.153C234.317 224.996 242.354 200.732 228.616 196.273Z" fill="url(#paint113_linear_10233_35259)" fill-opacity="0.32"/>
<path d="M174.321 214.121C181.334 228.369 202.473 222.841 201.84 208.399C194.353 222.64 180.482 213.578 178.825 208.55C177.757 203.422 180.423 200.829 186.288 198.336C177.896 196.191 169.938 202.675 174.321 214.121Z" fill="url(#paint114_linear_10233_35259)" fill-opacity="0.32"/>
<path d="M174.321 214.121C181.334 228.369 202.473 222.841 201.84 208.399C194.353 222.64 180.482 213.578 178.825 208.55C177.757 203.422 180.423 200.829 186.288 198.336C177.896 196.191 169.938 202.675 174.321 214.121Z" fill="url(#paint115_linear_10233_35259)" fill-opacity="0.32"/>
<path d="M170.589 221.709C174.158 229.218 185.24 226.144 185.007 218.49C180.998 226.092 173.812 221.38 172.981 218.725C172.457 216.013 173.868 214.62 176.949 213.258C172.579 212.177 168.377 215.669 170.589 221.709Z" fill="url(#paint116_linear_10233_35259)" fill-opacity="0.32"/>
<path d="M172.734 177.021C173.443 174.106 178.428 173.511 179.75 173.546C178.447 173.611 177.566 173.586 176.743 173.192C181.621 168.118 189.608 175.075 190.144 177.205C190.198 176.461 190.366 176.176 190.878 175.588C198.121 183.136 192.402 193.024 182.139 194.111C192.011 184.736 184.287 176.321 172.734 177.021Z" fill="url(#paint117_linear_10233_35259)" fill-opacity="0.32"/>
<path d="M178.089 189.838C176.67 189.75 175.978 187.48 175.884 186.862C176.023 187.463 176.084 187.875 175.969 188.291C173.196 186.442 175.779 182.148 176.729 181.722C176.377 181.758 176.23 181.704 175.913 181.514C178.835 177.517 183.925 179.357 185.285 184.042C180.089 180.228 176.803 184.52 178.089 189.838Z" fill="url(#paint118_linear_10233_35259)" fill-opacity="0.32"/>
<path d="M185 187.601C185.021 188.463 183.68 189 183.31 189.088C183.667 188.973 183.914 188.915 184.172 188.963C183.194 190.736 180.456 189.396 180.148 188.844C180.188 189.055 180.163 189.146 180.065 189.348C177.489 187.789 178.341 184.616 181.112 183.55C179.068 186.89 181.842 188.654 185 187.601Z" fill="url(#paint119_linear_10233_35259)" fill-opacity="0.32"/>
<path d="M65.9981 101.541C64.4771 102.089 62.5569 101.916 60.8401 100.927C59.1233 99.9371 58.0136 98.3629 57.7284 96.7738C59.2493 96.2258 61.1696 96.3984 62.8863 97.388C64.6031 98.3777 65.7129 99.9519 65.9981 101.541Z" fill="url(#paint120_linear_10233_35259)" fill-opacity="0.32"/>
<path d="M100.24 103.796C96.0802 110.99 87.1044 113.392 79.8981 109.238C87.1044 113.392 89.5088 122.355 85.3488 129.549C89.5088 122.355 98.4847 119.953 105.691 124.107C98.0036 119.975 95.773 111.046 100.24 103.796Z" fill="url(#paint121_linear_10233_35259)" fill-opacity="0.32"/>
<path d="M84.5675 78.4651C83.7043 77.05 85.4187 74.8732 85.9486 74.3711C85.4655 74.9048 85.1109 75.2387 84.6355 75.4059C84.556 71.5213 90.3976 71.1238 91.4402 71.7467C91.1704 71.4346 91.1244 71.2582 91.0947 70.8287C96.8768 70.9522 98.5111 77.0451 94.9274 81.4727C95.1155 73.9601 88.8066 73.6857 84.5675 78.4651Z" fill="url(#paint122_linear_10233_35259)" fill-opacity="0.32"/>
<path d="M117.549 75.0701C117.417 73.6075 115.291 72.9388 115.291 72.9388C115.291 72.9388 113.507 72.2329 111.142 71.8964C112.248 71.4729 113.065 71.5835 113.888 71.5735C113.605 70.3094 112.491 69.8988 111.223 69.634C106.037 69.8975 103.387 72.0289 101.651 75.2382L100.98 73.7619C100.116 73.3174 98.7719 77.1667 98.7719 77.1667C98.7719 77.1667 98.1522 80.2451 98.4774 82.1786C98.7546 83.8271 99.3671 85.3117 100.326 86.6755C101.396 85.6744 101.961 76.0262 117.549 75.0701Z" fill="url(#paint123_linear_10233_35259)" fill-opacity="0.32"/>
<path d="M100.607 97.2893C89.4986 100.524 83.9213 88.2624 90.3808 86.0846C96.0323 84.3441 93.3538 74.0718 87.2445 77.745C73.4312 86.2844 89.3349 106.309 100.607 97.2893Z" fill="url(#paint124_linear_10233_35259)" fill-opacity="0.32"/>
<path d="M102.193 95.1822C95.6273 97.0941 92.3305 89.8464 96.1488 88.5591C99.4894 87.5303 99.4748 81.9717 94.2949 83.6296C86.1299 88.6772 95.5305 100.514 102.193 95.1822Z" fill="url(#paint125_linear_10233_35259)" fill-opacity="0.32"/>
<path d="M73.804 104.42C64.9998 96.9235 72.2046 85.5392 77.5728 89.7357C82.1317 93.4976 89.9913 88.3162 82.8338 82.5411C68.1037 75.6979 60.0663 99.9618 73.804 104.42Z" fill="url(#paint126_linear_10233_35259)" fill-opacity="0.32"/>
<path d="M128.1 86.573C121.086 72.3247 99.9475 77.8527 100.58 92.2946C108.068 78.0534 121.938 87.1162 123.595 92.1435C124.664 97.2717 121.997 99.8644 116.132 102.358C124.524 104.503 132.482 98.0184 128.1 86.573Z" fill="url(#paint127_linear_10233_35259)" fill-opacity="0.32"/>
<path d="M128.1 86.573C121.086 72.3247 99.9475 77.8527 100.58 92.2946C108.068 78.0534 121.938 87.1162 123.595 92.1435C124.664 97.2717 121.997 99.8644 116.132 102.358C124.524 104.503 132.482 98.0184 128.1 86.573Z" fill="url(#paint128_linear_10233_35259)" fill-opacity="0.32"/>
<path d="M131.831 78.9846C128.263 71.4761 117.181 74.55 117.413 82.2042C121.422 74.6017 128.608 79.3141 129.44 81.9689C129.963 84.6812 128.553 86.074 125.471 87.4358C129.841 88.517 134.043 85.0244 131.831 78.9846Z" fill="url(#paint129_linear_10233_35259)" fill-opacity="0.32"/>
<path d="M130.006 123.12C129.297 126.035 124.312 126.63 122.99 126.595C124.292 126.53 125.174 126.555 125.997 126.949C121.119 132.023 113.132 125.066 112.596 122.936C112.541 123.68 112.374 123.965 111.861 124.553C104.619 117.005 110.337 107.117 120.601 106.03C110.729 115.406 118.453 123.82 130.006 123.12Z" fill="url(#paint130_linear_10233_35259)" fill-opacity="0.32"/>
<path d="M124.651 110.303C126.07 110.391 126.762 112.661 126.856 113.279C126.717 112.679 126.655 112.266 126.771 111.85C129.544 113.699 126.96 117.993 126.011 118.42C126.363 118.383 126.509 118.437 126.826 118.627C123.905 122.624 118.815 120.784 117.455 116.099C122.651 119.914 125.937 115.621 124.651 110.303Z" fill="url(#paint131_linear_10233_35259)" fill-opacity="0.32"/>
<path d="M117.739 112.54C117.719 111.678 119.06 111.142 119.43 111.053C119.073 111.168 118.826 111.226 118.568 111.178C119.545 109.405 122.284 110.745 122.592 111.297C122.551 111.086 122.577 110.995 122.675 110.793C125.251 112.352 124.399 115.525 121.628 116.591C123.672 113.251 120.898 111.487 117.739 112.54Z" fill="url(#paint132_linear_10233_35259)" fill-opacity="0.32"/>
<path d="M55.5419 128.662C53.8829 128.623 52.8521 131.194 52.6815 131.903C52.9029 131.218 53.0152 130.745 52.9225 130.25C49.5135 132.124 52.0896 137.374 53.1511 137.964C52.7455 137.886 52.5695 137.935 52.1821 138.124C55.1802 143.062 61.2821 141.429 63.3305 136.116C56.9086 140.035 53.5161 134.717 55.5419 128.662Z" fill="url(#paint133_linear_10233_35259)" fill-opacity="0.32"/>
<path d="M69.0884 158.878C67.7536 159.495 66.1106 157.991 66.1106 157.991C66.1106 157.991 64.6066 156.802 63.1322 154.925C63.3175 156.092 63.822 156.744 64.2253 157.461C62.9872 157.848 62.0741 157.09 61.2103 156.126C58.8458 151.51 59.3694 148.152 61.2849 145.047L59.6691 145.205C58.8514 144.679 61.5183 141.593 61.5183 141.593C61.5183 141.593 63.8784 139.518 65.718 138.832C67.2865 138.248 68.8804 138.035 70.5427 138.182C70.2095 139.608 62.1238 144.921 69.0884 158.878Z" fill="url(#paint134_linear_10233_35259)" fill-opacity="0.32"/>
<path d="M79.8892 133.119C77.1404 121.896 63.7168 123.204 65.0577 129.878C66.3738 135.636 56.1249 138.456 56.2562 131.336C56.7562 115.122 82.0764 118.862 79.8892 133.119Z" fill="url(#paint135_linear_10233_35259)" fill-opacity="0.32"/>
<path d="M78.8545 135.544C77.2297 128.91 69.2951 129.683 70.0877 133.629C70.8656 137.032 66.0371 139.798 64.8851 134.49C65.1807 124.906 80.1474 127.117 78.8545 135.544Z" fill="url(#paint136_linear_10233_35259)" fill-opacity="0.32"/>
<path d="M72.6725 106.376C61.768 102.512 55.4962 114.434 61.8202 116.978C67.3625 119.039 66.7982 128.426 58.2104 125.124C44.9099 115.808 61.9366 96.7266 72.6725 106.376Z" fill="url(#paint137_linear_10233_35259)" fill-opacity="0.32"/>
<path d="M84.3405 162.25C68.4753 163.309 62.7008 142.267 75.5433 135.593C66.9349 149.188 81.7308 156.651 86.9198 155.57C91.9019 153.929 92.8175 150.328 92.0475 144.009C98.1044 150.193 96.4589 160.317 84.3405 162.25Z" fill="url(#paint138_linear_10233_35259)" fill-opacity="0.32"/>
<path d="M84.3405 162.25C68.4753 163.309 62.7008 142.267 75.5433 135.593C66.9349 149.188 81.7308 156.651 86.9198 155.57C91.9019 153.929 92.8175 150.328 92.0475 144.009C98.1044 150.193 96.4589 160.317 84.3405 162.25Z" fill="url(#paint139_linear_10233_35259)" fill-opacity="0.32"/>
<path d="M79.6242 169.271C71.3275 169.939 68.4526 158.82 75.2079 155.194C70.6181 162.461 78.2985 166.319 81.017 165.711C83.6312 164.807 84.134 162.891 83.7744 159.546C86.8973 162.784 85.969 168.164 79.6242 169.271Z" fill="url(#paint140_linear_10233_35259)" fill-opacity="0.32"/>
<path d="M117.312 145.072C119.485 143.002 117.509 138.394 116.818 137.268C117.412 138.427 117.876 139.177 118.628 139.691C120.59 132.936 110.563 129.509 108.447 130.11C109.066 129.691 109.229 129.404 109.482 128.666C99.3141 126.177 93.5973 136.067 97.786 145.485C100.982 132.261 112.142 134.732 117.312 145.072Z" fill="url(#paint141_linear_10233_35259)" fill-opacity="0.32"/>
<path d="M103.518 146.85C104.304 148.033 106.619 147.496 107.202 147.268C106.611 147.449 106.223 147.602 105.92 147.909C108.91 149.383 111.343 145.002 111.238 143.968C111.382 144.29 111.502 144.39 111.825 144.569C113.832 140.044 109.691 136.563 104.947 137.73C110.854 140.315 108.773 145.303 103.518 146.85Z" fill="url(#paint142_linear_10233_35259)" fill-opacity="0.32"/>
<path d="M102.003 139.756C101.244 140.169 101.45 141.597 101.558 141.961C101.479 141.595 101.406 141.352 101.235 141.153C100.186 142.885 102.718 144.583 103.35 144.573C103.147 144.644 103.08 144.711 102.955 144.897C105.595 146.345 107.921 144.022 107.46 141.093C105.585 144.53 102.668 143.014 102.003 139.756Z" fill="url(#paint143_linear_10233_35259)" fill-opacity="0.32"/>
<ellipse cx="3.80083" cy="3.79579" rx="3.80083" ry="3.79579" transform="matrix(0.966898 -0.255163 0.255892 0.966705 146.345 30.0305)" fill="url(#paint144_linear_10233_35259)"/>
<ellipse cx="3.80083" cy="3.79579" rx="3.80083" ry="3.79579" transform="matrix(0.966898 0.255163 0.255892 -0.966705 146.345 270.074)" fill="url(#paint145_linear_10233_35259)"/>
<ellipse cx="3.80083" cy="3.79579" rx="3.80083" ry="3.79579" transform="matrix(1 -3.21539e-09 0.00075488 1 177.324 32.9707)" fill="url(#paint146_linear_10233_35259)"/>
<ellipse cx="3.80083" cy="3.79579" rx="3.80083" ry="3.79579" transform="matrix(0.869784 0.493433 0.494089 -0.869411 116.073 265.068)" fill="url(#paint147_linear_10233_35259)"/>
<ellipse cx="3.80083" cy="3.79579" rx="3.80083" ry="3.79579" transform="matrix(0.966898 0.255163 -0.254433 0.967091 206.525 43.7183)" fill="url(#paint148_linear_10233_35259)"/>
<ellipse cx="3.80083" cy="3.79579" rx="3.80083" ry="3.79579" transform="matrix(0.715087 0.699035 0.699575 -0.714559 88.0801 252.504)" fill="url(#paint149_linear_10233_35259)"/>
<ellipse cx="3.80083" cy="3.79579" rx="3.80083" ry="3.79579" transform="matrix(0.869784 0.493433 -0.492776 0.870156 232.018 61.5613)" fill="url(#paint150_linear_10233_35259)"/>
<ellipse cx="3.80083" cy="3.79579" rx="3.80083" ry="3.79579" transform="matrix(0.513049 0.85836 0.858747 -0.512401 64.2197 233.213)" fill="url(#paint151_linear_10233_35259)"/>
<ellipse cx="3.80083" cy="3.79579" rx="3.80083" ry="3.79579" transform="matrix(0.715087 0.699035 -0.698496 0.715614 252.114 85.3188)" fill="url(#paint152_linear_10233_35259)"/>
<ellipse cx="3.80083" cy="3.79579" rx="3.80083" ry="3.79579" transform="matrix(0.277044 0.960857 0.961066 -0.276319 46.0703 208.474)" fill="url(#paint153_linear_10233_35259)"/>
<ellipse cx="3.80083" cy="3.79579" rx="3.80083" ry="3.79579" transform="matrix(0.513049 0.85836 -0.857972 0.513696 265.483 113.417)" fill="url(#paint154_linear_10233_35259)"/>
<ellipse cx="3.80083" cy="3.79579" rx="3.80083" ry="3.79579" transform="matrix(0.0226988 0.999742 0.999759 -0.0219442 34.8354 179.92)" fill="url(#paint155_linear_10233_35259)"/>
<ellipse cx="3.80083" cy="3.79579" rx="3.80083" ry="3.79579" transform="matrix(0.277044 0.960857 -0.960648 0.27777 271.239 143.998)" fill="url(#paint156_linear_10233_35259)"/>
<ellipse cx="3.80083" cy="3.79579" rx="3.80083" ry="3.79579" transform="matrix(-0.23315 0.972441 0.972265 0.233883 31.2578 149.447)" fill="url(#paint157_linear_10233_35259)"/>
<ellipse cx="3.80083" cy="3.79579" rx="3.80083" ry="3.79579" transform="matrix(0.0226988 0.999742 -0.999725 0.0234536 269.002 175.033)" fill="url(#paint158_linear_10233_35259)"/>
<ellipse cx="3.80083" cy="3.79579" rx="3.80083" ry="3.79579" transform="matrix(-0.473562 0.88076 0.880403 0.474227 35.5747 119.067)" fill="url(#paint159_linear_10233_35259)"/>
<ellipse cx="3.80083" cy="3.79579" rx="3.80083" ry="3.79579" transform="matrix(-0.23315 0.972441 -0.972617 -0.232415 258.92 204.472)" fill="url(#paint160_linear_10233_35259)"/>
<ellipse cx="3.80083" cy="3.79579" rx="3.80083" ry="3.79579" transform="matrix(-0.682624 0.73077 0.730255 0.683175 47.4995 90.7969)" fill="url(#paint161_linear_10233_35259)"/>
<ellipse cx="3.80083" cy="3.79579" rx="3.80083" ry="3.79579" transform="matrix(-0.473562 0.88076 -0.881118 -0.472897 241.66 230.363)" fill="url(#paint162_linear_10233_35259)"/>
<ellipse cx="3.80083" cy="3.79579" rx="3.80083" ry="3.79579" transform="matrix(-0.846493 0.5324 0.531761 0.846895 66.2441 66.5039)" fill="url(#paint163_linear_10233_35259)"/>
<ellipse cx="3.80083" cy="3.79579" rx="3.80083" ry="3.79579" transform="matrix(-0.682624 0.73077 -0.731285 -0.682072 218.366 250.994)" fill="url(#paint164_linear_10233_35259)"/>
<ellipse cx="3.80083" cy="3.79579" rx="3.80083" ry="3.79579" transform="matrix(-0.954321 0.298783 0.298063 0.954546 90.5669 47.7988)" fill="url(#paint165_linear_10233_35259)"/>
<ellipse cx="3.80083" cy="3.79579" rx="3.80083" ry="3.79579" transform="matrix(-0.846493 0.5324 -0.533039 -0.846091 190.578 264.996)" fill="url(#paint166_linear_10233_35259)"/>
<ellipse cx="3.80083" cy="3.79579" rx="3.80083" ry="3.79579" transform="matrix(-0.99897 0.0453859 0.0446318 0.999004 118.857 35.918)" fill="url(#paint167_linear_10233_35259)"/>
<path d="M114.165 156.089L132.349 175.414C133.122 176.236 134.422 176.256 135.22 175.458L186.931 123.779" stroke="#CECBFF" stroke-width="6" stroke-linecap="round"/>
<defs>
<linearGradient id="paint0_linear_10233_35259" x1="153.394" y1="52.2615" x2="146.622" y2="49.147" gradientUnits="userSpaceOnUse">
<stop stop-color="#EAD1FF"/>
<stop offset="0.4804" stop-color="#6C587D"/>
<stop offset="1" stop-color="#EAD1FF"/>
</linearGradient>
<linearGradient id="paint1_linear_10233_35259" x1="165.108" y1="68.1296" x2="137.357" y2="97.9095" gradientUnits="userSpaceOnUse">
<stop stop-color="#EAD1FF"/>
<stop offset="0.4804" stop-color="#6C587D"/>
<stop offset="1" stop-color="#EAD1FF"/>
</linearGradient>
<linearGradient id="paint2_linear_10233_35259" x1="113.326" y1="53.9425" x2="122.508" y2="65.1309" gradientUnits="userSpaceOnUse">
<stop stop-color="#EAD1FF"/>
<stop offset="0.4804" stop-color="#6C587D"/>
<stop offset="1" stop-color="#EAD1FF"/>
</linearGradient>
<linearGradient id="paint3_linear_10233_35259" x1="101.547" y1="68.1289" x2="115.163" y2="87.5193" gradientUnits="userSpaceOnUse">
<stop stop-color="#EAD1FF"/>
<stop offset="0.4804" stop-color="#6C587D"/>
<stop offset="1" stop-color="#EAD1FF"/>
</linearGradient>
<linearGradient id="paint4_linear_10233_35259" x1="124.449" y1="53.4869" x2="122.251" y2="79.6359" gradientUnits="userSpaceOnUse">
<stop stop-color="#EAD1FF"/>
<stop offset="0.4804" stop-color="#6C587D"/>
<stop offset="1" stop-color="#EAD1FF"/>
</linearGradient>
<linearGradient id="paint5_linear_10233_35259" x1="124.419" y1="64.7783" x2="123.211" y2="80.1764" gradientUnits="userSpaceOnUse">
<stop stop-color="#EAD1FF"/>
<stop offset="0.4804" stop-color="#6C587D"/>
<stop offset="1" stop-color="#EAD1FF"/>
</linearGradient>
<linearGradient id="paint6_linear_10233_35259" x1="124.774" y1="50.8405" x2="145.435" y2="66.8779" gradientUnits="userSpaceOnUse">
<stop stop-color="#EAD1FF"/>
<stop offset="0.4804" stop-color="#6C587D"/>
<stop offset="1" stop-color="#EAD1FF"/>
</linearGradient>
<linearGradient id="paint7_linear_10233_35259" x1="105.569" y1="104.13" x2="131.951" y2="82.1409" gradientUnits="userSpaceOnUse">
<stop stop-color="#EAD1FF"/>
<stop offset="0.4804" stop-color="#6C587D"/>
<stop offset="1" stop-color="#EAD1FF"/>
</linearGradient>
<linearGradient id="paint8_linear_10233_35259" x1="105.569" y1="104.13" x2="131.951" y2="82.1409" gradientUnits="userSpaceOnUse">
<stop stop-color="#EAD1FF"/>
<stop offset="0.4804" stop-color="#6C587D"/>
<stop offset="1" stop-color="#EAD1FF"/>
</linearGradient>
<linearGradient id="paint9_linear_10233_35259" x1="97.9979" y1="100.84" x2="111.747" y2="89.0365" gradientUnits="userSpaceOnUse">
<stop stop-color="#EAD1FF"/>
<stop offset="0.4804" stop-color="#6C587D"/>
<stop offset="1" stop-color="#EAD1FF"/>
</linearGradient>
<linearGradient id="paint10_linear_10233_35259" x1="153.174" y1="110.709" x2="127.075" y2="108.154" gradientUnits="userSpaceOnUse">
<stop stop-color="#EAD1FF"/>
<stop offset="0.4804" stop-color="#6C587D"/>
<stop offset="1" stop-color="#EAD1FF"/>
</linearGradient>
<linearGradient id="paint11_linear_10233_35259" x1="132.103" y1="114.967" x2="135.45" y2="103.031" gradientUnits="userSpaceOnUse">
<stop stop-color="#EAD1FF"/>
<stop offset="0.4804" stop-color="#6C587D"/>
<stop offset="1" stop-color="#EAD1FF"/>
</linearGradient>
<linearGradient id="paint12_linear_10233_35259" x1="130.418" y1="103.525" x2="137.479" y2="106.181" gradientUnits="userSpaceOnUse">
<stop stop-color="#EAD1FF"/>
<stop offset="0.4804" stop-color="#6C587D"/>
<stop offset="1" stop-color="#EAD1FF"/>
</linearGradient>
<linearGradient id="paint13_linear_10233_35259" x1="189.094" y1="53.9425" x2="179.912" y2="65.1309" gradientUnits="userSpaceOnUse">
<stop stop-color="#EAD1FF"/>
<stop offset="0.4804" stop-color="#6C587D"/>
<stop offset="1" stop-color="#EAD1FF"/>
</linearGradient>
<linearGradient id="paint14_linear_10233_35259" x1="200.873" y1="68.1289" x2="187.257" y2="87.5193" gradientUnits="userSpaceOnUse">
<stop stop-color="#EAD1FF"/>
<stop offset="0.4804" stop-color="#6C587D"/>
<stop offset="1" stop-color="#EAD1FF"/>
</linearGradient>
<linearGradient id="paint15_linear_10233_35259" x1="177.971" y1="53.4869" x2="180.169" y2="79.6359" gradientUnits="userSpaceOnUse">
<stop stop-color="#EAD1FF"/>
<stop offset="0.4804" stop-color="#6C587D"/>
<stop offset="1" stop-color="#EAD1FF"/>
</linearGradient>
<linearGradient id="paint16_linear_10233_35259" x1="178.001" y1="64.7783" x2="179.209" y2="80.1764" gradientUnits="userSpaceOnUse">
<stop stop-color="#EAD1FF"/>
<stop offset="0.4804" stop-color="#6C587D"/>
<stop offset="1" stop-color="#EAD1FF"/>
</linearGradient>
<linearGradient id="paint17_linear_10233_35259" x1="177.646" y1="50.8405" x2="156.985" y2="66.8779" gradientUnits="userSpaceOnUse">
<stop stop-color="#EAD1FF"/>
<stop offset="0.4804" stop-color="#6C587D"/>
<stop offset="1" stop-color="#EAD1FF"/>
</linearGradient>
<linearGradient id="paint18_linear_10233_35259" x1="196.851" y1="104.13" x2="170.469" y2="82.1409" gradientUnits="userSpaceOnUse">
<stop stop-color="#EAD1FF"/>
<stop offset="0.4804" stop-color="#6C587D"/>
<stop offset="1" stop-color="#EAD1FF"/>
</linearGradient>
<linearGradient id="paint19_linear_10233_35259" x1="196.851" y1="104.13" x2="170.469" y2="82.1409" gradientUnits="userSpaceOnUse">
<stop stop-color="#EAD1FF"/>
<stop offset="0.4804" stop-color="#6C587D"/>
<stop offset="1" stop-color="#EAD1FF"/>
</linearGradient>
<linearGradient id="paint20_linear_10233_35259" x1="204.422" y1="100.84" x2="190.673" y2="89.0365" gradientUnits="userSpaceOnUse">
<stop stop-color="#EAD1FF"/>
<stop offset="0.4804" stop-color="#6C587D"/>
<stop offset="1" stop-color="#EAD1FF"/>
</linearGradient>
<linearGradient id="paint21_linear_10233_35259" x1="148.607" y1="110.709" x2="174.706" y2="108.154" gradientUnits="userSpaceOnUse">
<stop stop-color="#EAD1FF"/>
<stop offset="0.4804" stop-color="#6C587D"/>
<stop offset="1" stop-color="#EAD1FF"/>
</linearGradient>
<linearGradient id="paint22_linear_10233_35259" x1="169.678" y1="114.967" x2="166.331" y2="103.031" gradientUnits="userSpaceOnUse">
<stop stop-color="#EAD1FF"/>
<stop offset="0.4804" stop-color="#6C587D"/>
<stop offset="1" stop-color="#EAD1FF"/>
</linearGradient>
<linearGradient id="paint23_linear_10233_35259" x1="171.363" y1="103.525" x2="164.303" y2="106.181" gradientUnits="userSpaceOnUse">
<stop stop-color="#EAD1FF"/>
<stop offset="0.4804" stop-color="#6C587D"/>
<stop offset="1" stop-color="#EAD1FF"/>
</linearGradient>
<linearGradient id="paint24_linear_10233_35259" x1="153.394" y1="248.432" x2="146.622" y2="251.547" gradientUnits="userSpaceOnUse">
<stop stop-color="#EAD1FF"/>
<stop offset="0.4804" stop-color="#6C587D"/>
<stop offset="1" stop-color="#EAD1FF"/>
</linearGradient>
<linearGradient id="paint25_linear_10233_35259" x1="165.108" y1="232.565" x2="137.357" y2="202.785" gradientUnits="userSpaceOnUse">
<stop stop-color="#EAD1FF"/>
<stop offset="0.4804" stop-color="#6C587D"/>
<stop offset="1" stop-color="#EAD1FF"/>
</linearGradient>
<linearGradient id="paint26_linear_10233_35259" x1="113.326" y1="246.752" x2="122.508" y2="235.563" gradientUnits="userSpaceOnUse">
<stop stop-color="#EAD1FF"/>
<stop offset="0.4804" stop-color="#6C587D"/>
<stop offset="1" stop-color="#EAD1FF"/>
</linearGradient>
<linearGradient id="paint27_linear_10233_35259" x1="101.547" y1="232.565" x2="115.163" y2="213.175" gradientUnits="userSpaceOnUse">
<stop stop-color="#EAD1FF"/>
<stop offset="0.4804" stop-color="#6C587D"/>
<stop offset="1" stop-color="#EAD1FF"/>
</linearGradient>
<linearGradient id="paint28_linear_10233_35259" x1="124.449" y1="247.207" x2="122.251" y2="221.058" gradientUnits="userSpaceOnUse">
<stop stop-color="#EAD1FF"/>
<stop offset="0.4804" stop-color="#6C587D"/>
<stop offset="1" stop-color="#EAD1FF"/>
</linearGradient>
<linearGradient id="paint29_linear_10233_35259" x1="124.419" y1="235.916" x2="123.211" y2="220.518" gradientUnits="userSpaceOnUse">
<stop stop-color="#EAD1FF"/>
<stop offset="0.4804" stop-color="#6C587D"/>
<stop offset="1" stop-color="#EAD1FF"/>
</linearGradient>
<linearGradient id="paint30_linear_10233_35259" x1="124.774" y1="249.854" x2="145.435" y2="233.816" gradientUnits="userSpaceOnUse">
<stop stop-color="#EAD1FF"/>
<stop offset="0.4804" stop-color="#6C587D"/>
<stop offset="1" stop-color="#EAD1FF"/>
</linearGradient>
<linearGradient id="paint31_linear_10233_35259" x1="105.569" y1="196.564" x2="131.951" y2="218.553" gradientUnits="userSpaceOnUse">
<stop stop-color="#EAD1FF"/>
<stop offset="0.4804" stop-color="#6C587D"/>
<stop offset="1" stop-color="#EAD1FF"/>
</linearGradient>
<linearGradient id="paint32_linear_10233_35259" x1="105.569" y1="196.564" x2="131.951" y2="218.553" gradientUnits="userSpaceOnUse">
<stop stop-color="#EAD1FF"/>
<stop offset="0.4804" stop-color="#6C587D"/>
<stop offset="1" stop-color="#EAD1FF"/>
</linearGradient>
<linearGradient id="paint33_linear_10233_35259" x1="97.9979" y1="199.853" x2="111.747" y2="211.657" gradientUnits="userSpaceOnUse">
<stop stop-color="#EAD1FF"/>
<stop offset="0.4804" stop-color="#6C587D"/>
<stop offset="1" stop-color="#EAD1FF"/>
</linearGradient>
<linearGradient id="paint34_linear_10233_35259" x1="153.174" y1="189.984" x2="127.075" y2="192.539" gradientUnits="userSpaceOnUse">
<stop stop-color="#EAD1FF"/>
<stop offset="0.4804" stop-color="#6C587D"/>
<stop offset="1" stop-color="#EAD1FF"/>
</linearGradient>
<linearGradient id="paint35_linear_10233_35259" x1="132.103" y1="185.727" x2="135.45" y2="197.662" gradientUnits="userSpaceOnUse">
<stop stop-color="#EAD1FF"/>
<stop offset="0.4804" stop-color="#6C587D"/>
<stop offset="1" stop-color="#EAD1FF"/>
</linearGradient>
<linearGradient id="paint36_linear_10233_35259" x1="130.418" y1="197.169" x2="137.479" y2="194.513" gradientUnits="userSpaceOnUse">
<stop stop-color="#EAD1FF"/>
<stop offset="0.4804" stop-color="#6C587D"/>
<stop offset="1" stop-color="#EAD1FF"/>
</linearGradient>
<linearGradient id="paint37_linear_10233_35259" x1="189.094" y1="246.752" x2="179.912" y2="235.563" gradientUnits="userSpaceOnUse">
<stop stop-color="#EAD1FF"/>
<stop offset="0.4804" stop-color="#6C587D"/>
<stop offset="1" stop-color="#EAD1FF"/>
</linearGradient>
<linearGradient id="paint38_linear_10233_35259" x1="200.873" y1="232.565" x2="187.257" y2="213.175" gradientUnits="userSpaceOnUse">
<stop stop-color="#EAD1FF"/>
<stop offset="0.4804" stop-color="#6C587D"/>
<stop offset="1" stop-color="#EAD1FF"/>
</linearGradient>
<linearGradient id="paint39_linear_10233_35259" x1="177.971" y1="247.207" x2="180.169" y2="221.058" gradientUnits="userSpaceOnUse">
<stop stop-color="#EAD1FF"/>
<stop offset="0.4804" stop-color="#6C587D"/>
<stop offset="1" stop-color="#EAD1FF"/>
</linearGradient>
<linearGradient id="paint40_linear_10233_35259" x1="178.001" y1="235.916" x2="179.209" y2="220.518" gradientUnits="userSpaceOnUse">
<stop stop-color="#EAD1FF"/>
<stop offset="0.4804" stop-color="#6C587D"/>
<stop offset="1" stop-color="#EAD1FF"/>
</linearGradient>
<linearGradient id="paint41_linear_10233_35259" x1="177.646" y1="249.854" x2="156.985" y2="233.816" gradientUnits="userSpaceOnUse">
<stop stop-color="#EAD1FF"/>
<stop offset="0.4804" stop-color="#6C587D"/>
<stop offset="1" stop-color="#EAD1FF"/>
</linearGradient>
<linearGradient id="paint42_linear_10233_35259" x1="196.851" y1="196.564" x2="170.469" y2="218.553" gradientUnits="userSpaceOnUse">
<stop stop-color="#EAD1FF"/>
<stop offset="0.4804" stop-color="#6C587D"/>
<stop offset="1" stop-color="#EAD1FF"/>
</linearGradient>
<linearGradient id="paint43_linear_10233_35259" x1="196.851" y1="196.564" x2="170.469" y2="218.553" gradientUnits="userSpaceOnUse">
<stop stop-color="#EAD1FF"/>
<stop offset="0.4804" stop-color="#6C587D"/>
<stop offset="1" stop-color="#EAD1FF"/>
</linearGradient>
<linearGradient id="paint44_linear_10233_35259" x1="204.422" y1="199.853" x2="190.673" y2="211.657" gradientUnits="userSpaceOnUse">
<stop stop-color="#EAD1FF"/>
<stop offset="0.4804" stop-color="#6C587D"/>
<stop offset="1" stop-color="#EAD1FF"/>
</linearGradient>
<linearGradient id="paint45_linear_10233_35259" x1="148.607" y1="189.984" x2="174.706" y2="192.539" gradientUnits="userSpaceOnUse">
<stop stop-color="#EAD1FF"/>
<stop offset="0.4804" stop-color="#6C587D"/>
<stop offset="1" stop-color="#EAD1FF"/>
</linearGradient>
<linearGradient id="paint46_linear_10233_35259" x1="169.678" y1="185.727" x2="166.331" y2="197.662" gradientUnits="userSpaceOnUse">
<stop stop-color="#EAD1FF"/>
<stop offset="0.4804" stop-color="#6C587D"/>
<stop offset="1" stop-color="#EAD1FF"/>
</linearGradient>
<linearGradient id="paint47_linear_10233_35259" x1="171.363" y1="197.169" x2="164.303" y2="194.513" gradientUnits="userSpaceOnUse">
<stop stop-color="#EAD1FF"/>
<stop offset="0.4804" stop-color="#6C587D"/>
<stop offset="1" stop-color="#EAD1FF"/>
</linearGradient>
<linearGradient id="paint48_linear_10233_35259" x1="237.377" y1="103.193" x2="236.686" y2="95.7809" gradientUnits="userSpaceOnUse">
<stop stop-color="#EAD1FF"/>
<stop offset="0.4804" stop-color="#6C587D"/>
<stop offset="1" stop-color="#EAD1FF"/>
</linearGradient>
<linearGradient id="paint49_linear_10233_35259" x1="229.471" y1="121.256" x2="189.787" y2="112.063" gradientUnits="userSpaceOnUse">
<stop stop-color="#EAD1FF"/>
<stop offset="0.4804" stop-color="#6C587D"/>
<stop offset="1" stop-color="#EAD1FF"/>
</linearGradient>
<linearGradient id="paint50_linear_10233_35259" x1="215.885" y1="69.3871" x2="210.806" y2="82.9336" gradientUnits="userSpaceOnUse">
<stop stop-color="#EAD1FF"/>
<stop offset="0.4804" stop-color="#6C587D"/>
<stop offset="1" stop-color="#EAD1FF"/>
</linearGradient>
<linearGradient id="paint51_linear_10233_35259" x1="197.691" y1="66.2947" x2="187.737" y2="87.7894" gradientUnits="userSpaceOnUse">
<stop stop-color="#EAD1FF"/>
<stop offset="0.4804" stop-color="#6C587D"/>
<stop offset="1" stop-color="#EAD1FF"/>
</linearGradient>
<linearGradient id="paint52_linear_10233_35259" x1="221.842" y1="78.7774" x2="198.073" y2="89.9732" gradientUnits="userSpaceOnUse">
<stop stop-color="#EAD1FF"/>
<stop offset="0.4804" stop-color="#6C587D"/>
<stop offset="1" stop-color="#EAD1FF"/>
</linearGradient>
<linearGradient id="paint53_linear_10233_35259" x1="212.033" y1="84.3965" x2="198.08" y2="91.0643" gradientUnits="userSpaceOnUse">
<stop stop-color="#EAD1FF"/>
<stop offset="0.4804" stop-color="#6C587D"/>
<stop offset="1" stop-color="#EAD1FF"/>
</linearGradient>
<linearGradient id="paint54_linear_10233_35259" x1="224.3" y1="77.7353" x2="220.769" y2="103.626" gradientUnits="userSpaceOnUse">
<stop stop-color="#EAD1FF"/>
<stop offset="0.4804" stop-color="#6C587D"/>
<stop offset="1" stop-color="#EAD1FF"/>
</linearGradient>
<linearGradient id="paint55_linear_10233_35259" x1="168.476" y1="87.7724" x2="200.71" y2="99.6717" gradientUnits="userSpaceOnUse">
<stop stop-color="#EAD1FF"/>
<stop offset="0.4804" stop-color="#6C587D"/>
<stop offset="1" stop-color="#EAD1FF"/>
</linearGradient>
<linearGradient id="paint56_linear_10233_35259" x1="168.476" y1="87.7724" x2="200.71" y2="99.6717" gradientUnits="userSpaceOnUse">
<stop stop-color="#EAD1FF"/>
<stop offset="0.4804" stop-color="#6C587D"/>
<stop offset="1" stop-color="#EAD1FF"/>
</linearGradient>
<linearGradient id="paint57_linear_10233_35259" x1="167.544" y1="79.5816" x2="184.642" y2="85.611" gradientUnits="userSpaceOnUse">
<stop stop-color="#EAD1FF"/>
<stop offset="0.4804" stop-color="#6C587D"/>
<stop offset="1" stop-color="#EAD1FF"/>
</linearGradient>
<linearGradient id="paint58_linear_10233_35259" x1="186.572" y1="132.227" x2="175.759" y2="108.372" gradientUnits="userSpaceOnUse">
<stop stop-color="#EAD1FF"/>
<stop offset="0.4804" stop-color="#6C587D"/>
<stop offset="1" stop-color="#EAD1FF"/>
</linearGradient>
<linearGradient id="paint59_linear_10233_35259" x1="172.344" y1="116.135" x2="184.37" y2="113.062" gradientUnits="userSpaceOnUse">
<stop stop-color="#EAD1FF"/>
<stop offset="0.4804" stop-color="#6C587D"/>
<stop offset="1" stop-color="#EAD1FF"/>
</linearGradient>
<linearGradient id="paint60_linear_10233_35259" x1="181.425" y1="108.957" x2="182.656" y2="116.39" gradientUnits="userSpaceOnUse">
<stop stop-color="#EAD1FF"/>
<stop offset="0.4804" stop-color="#6C587D"/>
<stop offset="1" stop-color="#EAD1FF"/>
</linearGradient>
<linearGradient id="paint61_linear_10233_35259" x1="253.769" y1="134.903" x2="239.478" y2="132.529" gradientUnits="userSpaceOnUse">
<stop stop-color="#EAD1FF"/>
<stop offset="0.4804" stop-color="#6C587D"/>
<stop offset="1" stop-color="#EAD1FF"/>
</linearGradient>
<linearGradient id="paint62_linear_10233_35259" x1="247.354" y1="152.181" x2="223.731" y2="150.063" gradientUnits="userSpaceOnUse">
<stop stop-color="#EAD1FF"/>
<stop offset="0.4804" stop-color="#6C587D"/>
<stop offset="1" stop-color="#EAD1FF"/>
</linearGradient>
<linearGradient id="paint63_linear_10233_35259" x1="248.602" y1="125.057" x2="227.046" y2="140.068" gradientUnits="userSpaceOnUse">
<stop stop-color="#EAD1FF"/>
<stop offset="0.4804" stop-color="#6C587D"/>
<stop offset="1" stop-color="#EAD1FF"/>
</linearGradient>
<linearGradient id="paint64_linear_10233_35259" x1="238.824" y1="130.729" x2="226.087" y2="139.494" gradientUnits="userSpaceOnUse">
<stop stop-color="#EAD1FF"/>
<stop offset="0.4804" stop-color="#6C587D"/>
<stop offset="1" stop-color="#EAD1FF"/>
</linearGradient>
<linearGradient id="paint65_linear_10233_35259" x1="250.735" y1="123.453" x2="226.52" y2="113.544" gradientUnits="userSpaceOnUse">
<stop stop-color="#EAD1FF"/>
<stop offset="0.4804" stop-color="#6C587D"/>
<stop offset="1" stop-color="#EAD1FF"/>
</linearGradient>
<linearGradient id="paint66_linear_10233_35259" x1="214.118" y1="166.705" x2="219.93" y2="132.885" gradientUnits="userSpaceOnUse">
<stop stop-color="#EAD1FF"/>
<stop offset="0.4804" stop-color="#6C587D"/>
<stop offset="1" stop-color="#EAD1FF"/>
</linearGradient>
<linearGradient id="paint67_linear_10233_35259" x1="214.118" y1="166.705" x2="219.93" y2="132.885" gradientUnits="userSpaceOnUse">
<stop stop-color="#EAD1FF"/>
<stop offset="0.4804" stop-color="#6C587D"/>
<stop offset="1" stop-color="#EAD1FF"/>
</linearGradient>
<linearGradient id="paint68_linear_10233_35259" x1="220.756" y1="171.606" x2="224.083" y2="153.808" gradientUnits="userSpaceOnUse">
<stop stop-color="#EAD1FF"/>
<stop offset="0.4804" stop-color="#6C587D"/>
<stop offset="1" stop-color="#EAD1FF"/>
</linearGradient>
<linearGradient id="paint69_linear_10233_35259" x1="184.288" y1="128.277" x2="199.517" y2="149.594" gradientUnits="userSpaceOnUse">
<stop stop-color="#EAD1FF"/>
<stop offset="0.4804" stop-color="#6C587D"/>
<stop offset="1" stop-color="#EAD1FF"/>
</linearGradient>
<linearGradient id="paint70_linear_10233_35259" x1="191.131" y1="148.627" x2="199.789" y2="139.744" gradientUnits="userSpaceOnUse">
<stop stop-color="#EAD1FF"/>
<stop offset="0.4804" stop-color="#6C587D"/>
<stop offset="1" stop-color="#EAD1FF"/>
</linearGradient>
<linearGradient id="paint71_linear_10233_35259" x1="201.898" y1="144.363" x2="196.076" y2="139.571" gradientUnits="userSpaceOnUse">
<stop stop-color="#EAD1FF"/>
<stop offset="0.4804" stop-color="#6C587D"/>
<stop offset="1" stop-color="#EAD1FF"/>
</linearGradient>
<linearGradient id="paint72_linear_10233_35259" x1="67.2277" y1="201.278" x2="61.1515" y2="196.964" gradientUnits="userSpaceOnUse">
<stop stop-color="#EAD1FF"/>
<stop offset="0.4804" stop-color="#6C587D"/>
<stop offset="1" stop-color="#EAD1FF"/>
</linearGradient>
<linearGradient id="paint73_linear_10233_35259" x1="86.8479" y1="203.474" x2="98.7097" y2="164.56" gradientUnits="userSpaceOnUse">
<stop stop-color="#EAD1FF"/>
<stop offset="0.4804" stop-color="#6C587D"/>
<stop offset="1" stop-color="#EAD1FF"/>
</linearGradient>
<linearGradient id="paint74_linear_10233_35259" x1="48.6516" y1="165.791" x2="62.9421" y2="168.165" gradientUnits="userSpaceOnUse">
<stop stop-color="#EAD1FF"/>
<stop offset="0.4804" stop-color="#6C587D"/>
<stop offset="1" stop-color="#EAD1FF"/>
</linearGradient>
<linearGradient id="paint75_linear_10233_35259" x1="55.0667" y1="148.513" x2="78.6893" y2="150.632" gradientUnits="userSpaceOnUse">
<stop stop-color="#EAD1FF"/>
<stop offset="0.4804" stop-color="#6C587D"/>
<stop offset="1" stop-color="#EAD1FF"/>
</linearGradient>
<linearGradient id="paint76_linear_10233_35259" x1="53.8181" y1="175.638" x2="75.3741" y2="160.626" gradientUnits="userSpaceOnUse">
<stop stop-color="#EAD1FF"/>
<stop offset="0.4804" stop-color="#6C587D"/>
<stop offset="1" stop-color="#EAD1FF"/>
</linearGradient>
<linearGradient id="paint77_linear_10233_35259" x1="63.5961" y1="169.965" x2="76.3331" y2="161.201" gradientUnits="userSpaceOnUse">
<stop stop-color="#EAD1FF"/>
<stop offset="0.4804" stop-color="#6C587D"/>
<stop offset="1" stop-color="#EAD1FF"/>
</linearGradient>
<linearGradient id="paint78_linear_10233_35259" x1="51.6853" y1="177.242" x2="75.9005" y2="187.15" gradientUnits="userSpaceOnUse">
<stop stop-color="#EAD1FF"/>
<stop offset="0.4804" stop-color="#6C587D"/>
<stop offset="1" stop-color="#EAD1FF"/>
</linearGradient>
<linearGradient id="paint79_linear_10233_35259" x1="88.3025" y1="133.989" x2="82.4902" y2="167.809" gradientUnits="userSpaceOnUse">
<stop stop-color="#EAD1FF"/>
<stop offset="0.4804" stop-color="#6C587D"/>
<stop offset="1" stop-color="#EAD1FF"/>
</linearGradient>
<linearGradient id="paint80_linear_10233_35259" x1="88.3025" y1="133.989" x2="82.4902" y2="167.809" gradientUnits="userSpaceOnUse">
<stop stop-color="#EAD1FF"/>
<stop offset="0.4804" stop-color="#6C587D"/>
<stop offset="1" stop-color="#EAD1FF"/>
</linearGradient>
<linearGradient id="paint81_linear_10233_35259" x1="81.6644" y1="129.088" x2="78.3377" y2="146.886" gradientUnits="userSpaceOnUse">
<stop stop-color="#EAD1FF"/>
<stop offset="0.4804" stop-color="#6C587D"/>
<stop offset="1" stop-color="#EAD1FF"/>
</linearGradient>
<linearGradient id="paint82_linear_10233_35259" x1="117.813" y1="171.864" x2="102.584" y2="150.547" gradientUnits="userSpaceOnUse">
<stop stop-color="#EAD1FF"/>
<stop offset="0.4804" stop-color="#6C587D"/>
<stop offset="1" stop-color="#EAD1FF"/>
</linearGradient>
<linearGradient id="paint83_linear_10233_35259" x1="110.97" y1="151.515" x2="102.312" y2="160.397" gradientUnits="userSpaceOnUse">
<stop stop-color="#EAD1FF"/>
<stop offset="0.4804" stop-color="#6C587D"/>
<stop offset="1" stop-color="#EAD1FF"/>
</linearGradient>
<linearGradient id="paint84_linear_10233_35259" x1="100.203" y1="155.779" x2="106.025" y2="160.571" gradientUnits="userSpaceOnUse">
<stop stop-color="#EAD1FF"/>
<stop offset="0.4804" stop-color="#6C587D"/>
<stop offset="1" stop-color="#EAD1FF"/>
</linearGradient>
<linearGradient id="paint85_linear_10233_35259" x1="86.5357" y1="231.308" x2="91.6151" y2="217.761" gradientUnits="userSpaceOnUse">
<stop stop-color="#EAD1FF"/>
<stop offset="0.4804" stop-color="#6C587D"/>
<stop offset="1" stop-color="#EAD1FF"/>
</linearGradient>
<linearGradient id="paint86_linear_10233_35259" x1="104.73" y1="234.4" x2="114.684" y2="212.905" gradientUnits="userSpaceOnUse">
<stop stop-color="#EAD1FF"/>
<stop offset="0.4804" stop-color="#6C587D"/>
<stop offset="1" stop-color="#EAD1FF"/>
</linearGradient>
<linearGradient id="paint87_linear_10233_35259" x1="80.5786" y1="221.917" x2="104.348" y2="210.722" gradientUnits="userSpaceOnUse">
<stop stop-color="#EAD1FF"/>
<stop offset="0.4804" stop-color="#6C587D"/>
<stop offset="1" stop-color="#EAD1FF"/>
</linearGradient>
<linearGradient id="paint88_linear_10233_35259" x1="90.3877" y1="216.298" x2="104.341" y2="209.631" gradientUnits="userSpaceOnUse">
<stop stop-color="#EAD1FF"/>
<stop offset="0.4804" stop-color="#6C587D"/>
<stop offset="1" stop-color="#EAD1FF"/>
</linearGradient>
<linearGradient id="paint89_linear_10233_35259" x1="78.1213" y1="222.96" x2="81.652" y2="197.069" gradientUnits="userSpaceOnUse">
<stop stop-color="#EAD1FF"/>
<stop offset="0.4804" stop-color="#6C587D"/>
<stop offset="1" stop-color="#EAD1FF"/>
</linearGradient>
<linearGradient id="paint90_linear_10233_35259" x1="133.944" y1="212.922" x2="101.711" y2="201.023" gradientUnits="userSpaceOnUse">
<stop stop-color="#EAD1FF"/>
<stop offset="0.4804" stop-color="#6C587D"/>
<stop offset="1" stop-color="#EAD1FF"/>
</linearGradient>
<linearGradient id="paint91_linear_10233_35259" x1="133.944" y1="212.922" x2="101.711" y2="201.023" gradientUnits="userSpaceOnUse">
<stop stop-color="#EAD1FF"/>
<stop offset="0.4804" stop-color="#6C587D"/>
<stop offset="1" stop-color="#EAD1FF"/>
</linearGradient>
<linearGradient id="paint92_linear_10233_35259" x1="134.877" y1="221.113" x2="117.779" y2="215.084" gradientUnits="userSpaceOnUse">
<stop stop-color="#EAD1FF"/>
<stop offset="0.4804" stop-color="#6C587D"/>
<stop offset="1" stop-color="#EAD1FF"/>
</linearGradient>
<linearGradient id="paint93_linear_10233_35259" x1="115.529" y1="167.915" x2="126.342" y2="191.769" gradientUnits="userSpaceOnUse">
<stop stop-color="#EAD1FF"/>
<stop offset="0.4804" stop-color="#6C587D"/>
<stop offset="1" stop-color="#EAD1FF"/>
</linearGradient>
<linearGradient id="paint94_linear_10233_35259" x1="129.758" y1="184.007" x2="117.732" y2="187.079" gradientUnits="userSpaceOnUse">
<stop stop-color="#EAD1FF"/>
<stop offset="0.4804" stop-color="#6C587D"/>
<stop offset="1" stop-color="#EAD1FF"/>
</linearGradient>
<linearGradient id="paint95_linear_10233_35259" x1="120.676" y1="191.184" x2="119.445" y2="183.751" gradientUnits="userSpaceOnUse">
<stop stop-color="#EAD1FF"/>
<stop offset="0.4804" stop-color="#6C587D"/>
<stop offset="1" stop-color="#EAD1FF"/>
</linearGradient>
<linearGradient id="paint96_linear_10233_35259" x1="235.193" y1="201.278" x2="241.269" y2="196.964" gradientUnits="userSpaceOnUse">
<stop stop-color="#EAD1FF"/>
<stop offset="0.4804" stop-color="#6C587D"/>
<stop offset="1" stop-color="#EAD1FF"/>
</linearGradient>
<linearGradient id="paint97_linear_10233_35259" x1="215.573" y1="203.474" x2="203.711" y2="164.56" gradientUnits="userSpaceOnUse">
<stop stop-color="#EAD1FF"/>
<stop offset="0.4804" stop-color="#6C587D"/>
<stop offset="1" stop-color="#EAD1FF"/>
</linearGradient>
<linearGradient id="paint98_linear_10233_35259" x1="253.769" y1="165.791" x2="239.479" y2="168.165" gradientUnits="userSpaceOnUse">
<stop stop-color="#EAD1FF"/>
<stop offset="0.4804" stop-color="#6C587D"/>
<stop offset="1" stop-color="#EAD1FF"/>
</linearGradient>
<linearGradient id="paint99_linear_10233_35259" x1="247.354" y1="148.513" x2="223.732" y2="150.632" gradientUnits="userSpaceOnUse">
<stop stop-color="#EAD1FF"/>
<stop offset="0.4804" stop-color="#6C587D"/>
<stop offset="1" stop-color="#EAD1FF"/>
</linearGradient>
<linearGradient id="paint100_linear_10233_35259" x1="248.603" y1="175.638" x2="227.047" y2="160.626" gradientUnits="userSpaceOnUse">
<stop stop-color="#EAD1FF"/>
<stop offset="0.4804" stop-color="#6C587D"/>
<stop offset="1" stop-color="#EAD1FF"/>
</linearGradient>
<linearGradient id="paint101_linear_10233_35259" x1="238.825" y1="169.965" x2="226.088" y2="161.201" gradientUnits="userSpaceOnUse">
<stop stop-color="#EAD1FF"/>
<stop offset="0.4804" stop-color="#6C587D"/>
<stop offset="1" stop-color="#EAD1FF"/>
</linearGradient>
<linearGradient id="paint102_linear_10233_35259" x1="250.736" y1="177.242" x2="226.52" y2="187.15" gradientUnits="userSpaceOnUse">
<stop stop-color="#EAD1FF"/>
<stop offset="0.4804" stop-color="#6C587D"/>
<stop offset="1" stop-color="#EAD1FF"/>
</linearGradient>
<linearGradient id="paint103_linear_10233_35259" x1="214.118" y1="133.989" x2="219.931" y2="167.809" gradientUnits="userSpaceOnUse">
<stop stop-color="#EAD1FF"/>
<stop offset="0.4804" stop-color="#6C587D"/>
<stop offset="1" stop-color="#EAD1FF"/>
</linearGradient>
<linearGradient id="paint104_linear_10233_35259" x1="214.118" y1="133.989" x2="219.931" y2="167.809" gradientUnits="userSpaceOnUse">
<stop stop-color="#EAD1FF"/>
<stop offset="0.4804" stop-color="#6C587D"/>
<stop offset="1" stop-color="#EAD1FF"/>
</linearGradient>
<linearGradient id="paint105_linear_10233_35259" x1="220.756" y1="129.088" x2="224.083" y2="146.886" gradientUnits="userSpaceOnUse">
<stop stop-color="#EAD1FF"/>
<stop offset="0.4804" stop-color="#6C587D"/>
<stop offset="1" stop-color="#EAD1FF"/>
</linearGradient>
<linearGradient id="paint106_linear_10233_35259" x1="184.608" y1="171.864" x2="199.837" y2="150.547" gradientUnits="userSpaceOnUse">
<stop stop-color="#EAD1FF"/>
<stop offset="0.4804" stop-color="#6C587D"/>
<stop offset="1" stop-color="#EAD1FF"/>
</linearGradient>
<linearGradient id="paint107_linear_10233_35259" x1="191.451" y1="151.515" x2="200.109" y2="160.397" gradientUnits="userSpaceOnUse">
<stop stop-color="#EAD1FF"/>
<stop offset="0.4804" stop-color="#6C587D"/>
<stop offset="1" stop-color="#EAD1FF"/>
</linearGradient>
<linearGradient id="paint108_linear_10233_35259" x1="202.218" y1="155.779" x2="196.396" y2="160.571" gradientUnits="userSpaceOnUse">
<stop stop-color="#EAD1FF"/>
<stop offset="0.4804" stop-color="#6C587D"/>
<stop offset="1" stop-color="#EAD1FF"/>
</linearGradient>
<linearGradient id="paint109_linear_10233_35259" x1="215.885" y1="231.308" x2="210.806" y2="217.761" gradientUnits="userSpaceOnUse">
<stop stop-color="#EAD1FF"/>
<stop offset="0.4804" stop-color="#6C587D"/>
<stop offset="1" stop-color="#EAD1FF"/>
</linearGradient>
<linearGradient id="paint110_linear_10233_35259" x1="197.691" y1="234.4" x2="187.737" y2="212.905" gradientUnits="userSpaceOnUse">
<stop stop-color="#EAD1FF"/>
<stop offset="0.4804" stop-color="#6C587D"/>
<stop offset="1" stop-color="#EAD1FF"/>
</linearGradient>
<linearGradient id="paint111_linear_10233_35259" x1="221.842" y1="221.917" x2="198.073" y2="210.722" gradientUnits="userSpaceOnUse">
<stop stop-color="#EAD1FF"/>
<stop offset="0.4804" stop-color="#6C587D"/>
<stop offset="1" stop-color="#EAD1FF"/>
</linearGradient>
<linearGradient id="paint112_linear_10233_35259" x1="212.033" y1="216.298" x2="198.08" y2="209.631" gradientUnits="userSpaceOnUse">
<stop stop-color="#EAD1FF"/>
<stop offset="0.4804" stop-color="#6C587D"/>
<stop offset="1" stop-color="#EAD1FF"/>
</linearGradient>
<linearGradient id="paint113_linear_10233_35259" x1="224.3" y1="222.96" x2="220.769" y2="197.069" gradientUnits="userSpaceOnUse">
<stop stop-color="#EAD1FF"/>
<stop offset="0.4804" stop-color="#6C587D"/>
<stop offset="1" stop-color="#EAD1FF"/>
</linearGradient>
<linearGradient id="paint114_linear_10233_35259" x1="168.476" y1="212.922" x2="200.71" y2="201.023" gradientUnits="userSpaceOnUse">
<stop stop-color="#EAD1FF"/>
<stop offset="0.4804" stop-color="#6C587D"/>
<stop offset="1" stop-color="#EAD1FF"/>
</linearGradient>
<linearGradient id="paint115_linear_10233_35259" x1="168.476" y1="212.922" x2="200.71" y2="201.023" gradientUnits="userSpaceOnUse">
<stop stop-color="#EAD1FF"/>
<stop offset="0.4804" stop-color="#6C587D"/>
<stop offset="1" stop-color="#EAD1FF"/>
</linearGradient>
<linearGradient id="paint116_linear_10233_35259" x1="167.544" y1="221.113" x2="184.642" y2="215.084" gradientUnits="userSpaceOnUse">
<stop stop-color="#EAD1FF"/>
<stop offset="0.4804" stop-color="#6C587D"/>
<stop offset="1" stop-color="#EAD1FF"/>
</linearGradient>
<linearGradient id="paint117_linear_10233_35259" x1="186.892" y1="167.915" x2="176.078" y2="191.769" gradientUnits="userSpaceOnUse">
<stop stop-color="#EAD1FF"/>
<stop offset="0.4804" stop-color="#6C587D"/>
<stop offset="1" stop-color="#EAD1FF"/>
</linearGradient>
<linearGradient id="paint118_linear_10233_35259" x1="172.663" y1="184.007" x2="184.689" y2="187.079" gradientUnits="userSpaceOnUse">
<stop stop-color="#EAD1FF"/>
<stop offset="0.4804" stop-color="#6C587D"/>
<stop offset="1" stop-color="#EAD1FF"/>
</linearGradient>
<linearGradient id="paint119_linear_10233_35259" x1="181.745" y1="191.184" x2="182.976" y2="183.751" gradientUnits="userSpaceOnUse">
<stop stop-color="#EAD1FF"/>
<stop offset="0.4804" stop-color="#6C587D"/>
<stop offset="1" stop-color="#EAD1FF"/>
</linearGradient>
<linearGradient id="paint120_linear_10233_35259" x1="65.0432" y1="103.192" x2="65.7344" y2="95.7799" gradientUnits="userSpaceOnUse">
<stop stop-color="#EAD1FF"/>
<stop offset="0.4804" stop-color="#6C587D"/>
<stop offset="1" stop-color="#EAD1FF"/>
</linearGradient>
<linearGradient id="paint121_linear_10233_35259" x1="72.9491" y1="121.256" x2="112.634" y2="112.063" gradientUnits="userSpaceOnUse">
<stop stop-color="#EAD1FF"/>
<stop offset="0.4804" stop-color="#6C587D"/>
<stop offset="1" stop-color="#EAD1FF"/>
</linearGradient>
<linearGradient id="paint122_linear_10233_35259" x1="86.5352" y1="69.3861" x2="91.6146" y2="82.9326" gradientUnits="userSpaceOnUse">
<stop stop-color="#EAD1FF"/>
<stop offset="0.4804" stop-color="#6C587D"/>
<stop offset="1" stop-color="#EAD1FF"/>
</linearGradient>
<linearGradient id="paint123_linear_10233_35259" x1="104.729" y1="66.2937" x2="114.684" y2="87.7885" gradientUnits="userSpaceOnUse">
<stop stop-color="#EAD1FF"/>
<stop offset="0.4804" stop-color="#6C587D"/>
<stop offset="1" stop-color="#EAD1FF"/>
</linearGradient>
<linearGradient id="paint124_linear_10233_35259" x1="80.5782" y1="78.7764" x2="104.347" y2="89.9722" gradientUnits="userSpaceOnUse">
<stop stop-color="#EAD1FF"/>
<stop offset="0.4804" stop-color="#6C587D"/>
<stop offset="1" stop-color="#EAD1FF"/>
</linearGradient>
<linearGradient id="paint125_linear_10233_35259" x1="90.3872" y1="84.3956" x2="104.34" y2="91.0633" gradientUnits="userSpaceOnUse">
<stop stop-color="#EAD1FF"/>
<stop offset="0.4804" stop-color="#6C587D"/>
<stop offset="1" stop-color="#EAD1FF"/>
</linearGradient>
<linearGradient id="paint126_linear_10233_35259" x1="78.1209" y1="77.7343" x2="81.6515" y2="103.625" gradientUnits="userSpaceOnUse">
<stop stop-color="#EAD1FF"/>
<stop offset="0.4804" stop-color="#6C587D"/>
<stop offset="1" stop-color="#EAD1FF"/>
</linearGradient>
<linearGradient id="paint127_linear_10233_35259" x1="133.944" y1="87.7714" x2="101.71" y2="99.6707" gradientUnits="userSpaceOnUse">
<stop stop-color="#EAD1FF"/>
<stop offset="0.4804" stop-color="#6C587D"/>
<stop offset="1" stop-color="#EAD1FF"/>
</linearGradient>
<linearGradient id="paint128_linear_10233_35259" x1="133.944" y1="87.7714" x2="101.71" y2="99.6707" gradientUnits="userSpaceOnUse">
<stop stop-color="#EAD1FF"/>
<stop offset="0.4804" stop-color="#6C587D"/>
<stop offset="1" stop-color="#EAD1FF"/>
</linearGradient>
<linearGradient id="paint129_linear_10233_35259" x1="134.876" y1="79.5807" x2="117.778" y2="85.61" gradientUnits="userSpaceOnUse">
<stop stop-color="#EAD1FF"/>
<stop offset="0.4804" stop-color="#6C587D"/>
<stop offset="1" stop-color="#EAD1FF"/>
</linearGradient>
<linearGradient id="paint130_linear_10233_35259" x1="115.848" y1="132.227" x2="126.661" y2="108.372" gradientUnits="userSpaceOnUse">
<stop stop-color="#EAD1FF"/>
<stop offset="0.4804" stop-color="#6C587D"/>
<stop offset="1" stop-color="#EAD1FF"/>
</linearGradient>
<linearGradient id="paint131_linear_10233_35259" x1="130.077" y1="116.135" x2="118.051" y2="113.062" gradientUnits="userSpaceOnUse">
<stop stop-color="#EAD1FF"/>
<stop offset="0.4804" stop-color="#6C587D"/>
<stop offset="1" stop-color="#EAD1FF"/>
</linearGradient>
<linearGradient id="paint132_linear_10233_35259" x1="120.995" y1="108.957" x2="119.764" y2="116.39" gradientUnits="userSpaceOnUse">
<stop stop-color="#EAD1FF"/>
<stop offset="0.4804" stop-color="#6C587D"/>
<stop offset="1" stop-color="#EAD1FF"/>
</linearGradient>
<linearGradient id="paint133_linear_10233_35259" x1="48.6511" y1="134.903" x2="62.9416" y2="132.529" gradientUnits="userSpaceOnUse">
<stop stop-color="#EAD1FF"/>
<stop offset="0.4804" stop-color="#6C587D"/>
<stop offset="1" stop-color="#EAD1FF"/>
</linearGradient>
<linearGradient id="paint134_linear_10233_35259" x1="55.0663" y1="152.181" x2="78.6888" y2="150.062" gradientUnits="userSpaceOnUse">
<stop stop-color="#EAD1FF"/>
<stop offset="0.4804" stop-color="#6C587D"/>
<stop offset="1" stop-color="#EAD1FF"/>
</linearGradient>
<linearGradient id="paint135_linear_10233_35259" x1="53.8176" y1="125.056" x2="75.3736" y2="140.068" gradientUnits="userSpaceOnUse">
<stop stop-color="#EAD1FF"/>
<stop offset="0.4804" stop-color="#6C587D"/>
<stop offset="1" stop-color="#EAD1FF"/>
</linearGradient>
<linearGradient id="paint136_linear_10233_35259" x1="63.5956" y1="130.728" x2="76.3326" y2="139.493" gradientUnits="userSpaceOnUse">
<stop stop-color="#EAD1FF"/>
<stop offset="0.4804" stop-color="#6C587D"/>
<stop offset="1" stop-color="#EAD1FF"/>
</linearGradient>
<linearGradient id="paint137_linear_10233_35259" x1="51.6848" y1="123.452" x2="75.9" y2="113.544" gradientUnits="userSpaceOnUse">
<stop stop-color="#EAD1FF"/>
<stop offset="0.4804" stop-color="#6C587D"/>
<stop offset="1" stop-color="#EAD1FF"/>
</linearGradient>
<linearGradient id="paint138_linear_10233_35259" x1="88.302" y1="166.704" x2="82.4897" y2="132.885" gradientUnits="userSpaceOnUse">
<stop stop-color="#EAD1FF"/>
<stop offset="0.4804" stop-color="#6C587D"/>
<stop offset="1" stop-color="#EAD1FF"/>
</linearGradient>
<linearGradient id="paint139_linear_10233_35259" x1="88.302" y1="166.704" x2="82.4897" y2="132.885" gradientUnits="userSpaceOnUse">
<stop stop-color="#EAD1FF"/>
<stop offset="0.4804" stop-color="#6C587D"/>
<stop offset="1" stop-color="#EAD1FF"/>
</linearGradient>
<linearGradient id="paint140_linear_10233_35259" x1="81.6639" y1="171.606" x2="78.3372" y2="153.808" gradientUnits="userSpaceOnUse">
<stop stop-color="#EAD1FF"/>
<stop offset="0.4804" stop-color="#6C587D"/>
<stop offset="1" stop-color="#EAD1FF"/>
</linearGradient>
<linearGradient id="paint141_linear_10233_35259" x1="118.131" y1="128.277" x2="102.903" y2="149.594" gradientUnits="userSpaceOnUse">
<stop stop-color="#EAD1FF"/>
<stop offset="0.4804" stop-color="#6C587D"/>
<stop offset="1" stop-color="#EAD1FF"/>
</linearGradient>
<linearGradient id="paint142_linear_10233_35259" x1="111.289" y1="148.626" x2="102.631" y2="139.744" gradientUnits="userSpaceOnUse">
<stop stop-color="#EAD1FF"/>
<stop offset="0.4804" stop-color="#6C587D"/>
<stop offset="1" stop-color="#EAD1FF"/>
</linearGradient>
<linearGradient id="paint143_linear_10233_35259" x1="100.522" y1="144.362" x2="106.344" y2="139.57" gradientUnits="userSpaceOnUse">
<stop stop-color="#EAD1FF"/>
<stop offset="0.4804" stop-color="#6C587D"/>
<stop offset="1" stop-color="#EAD1FF"/>
</linearGradient>
<linearGradient id="paint144_linear_10233_35259" x1="3.80083" y1="0" x2="3.80083" y2="7.59157" gradientUnits="userSpaceOnUse">
<stop offset="0.24" stop-color="#C3A8E5"/>
<stop offset="1" stop-color="#6C5D7F"/>
</linearGradient>
<linearGradient id="paint145_linear_10233_35259" x1="3.80083" y1="0" x2="3.80083" y2="7.59157" gradientUnits="userSpaceOnUse">
<stop offset="0.24" stop-color="#C3A8E5"/>
<stop offset="1" stop-color="#6C5D7F"/>
</linearGradient>
<linearGradient id="paint146_linear_10233_35259" x1="3.80083" y1="0" x2="3.80083" y2="7.59157" gradientUnits="userSpaceOnUse">
<stop offset="0.24" stop-color="#C3A8E5"/>
<stop offset="1" stop-color="#6C5D7F"/>
</linearGradient>
<linearGradient id="paint147_linear_10233_35259" x1="3.80083" y1="0" x2="3.80083" y2="7.59157" gradientUnits="userSpaceOnUse">
<stop offset="0.24" stop-color="#C3A8E5"/>
<stop offset="1" stop-color="#6C5D7F"/>
</linearGradient>
<linearGradient id="paint148_linear_10233_35259" x1="3.80083" y1="0" x2="3.80083" y2="7.59157" gradientUnits="userSpaceOnUse">
<stop offset="0.24" stop-color="#C3A8E5"/>
<stop offset="1" stop-color="#6C5D7F"/>
</linearGradient>
<linearGradient id="paint149_linear_10233_35259" x1="3.80083" y1="0" x2="3.80083" y2="7.59157" gradientUnits="userSpaceOnUse">
<stop offset="0.24" stop-color="#C3A8E5"/>
<stop offset="1" stop-color="#6C5D7F"/>
</linearGradient>
<linearGradient id="paint150_linear_10233_35259" x1="3.80083" y1="0" x2="3.80083" y2="7.59157" gradientUnits="userSpaceOnUse">
<stop offset="0.24" stop-color="#C3A8E5"/>
<stop offset="1" stop-color="#6C5D7F"/>
</linearGradient>
<linearGradient id="paint151_linear_10233_35259" x1="3.80083" y1="0" x2="3.80083" y2="7.59157" gradientUnits="userSpaceOnUse">
<stop offset="0.24" stop-color="#C3A8E5"/>
<stop offset="1" stop-color="#6C5D7F"/>
</linearGradient>
<linearGradient id="paint152_linear_10233_35259" x1="3.80083" y1="0" x2="3.80083" y2="7.59157" gradientUnits="userSpaceOnUse">
<stop offset="0.24" stop-color="#C3A8E5"/>
<stop offset="1" stop-color="#6C5D7F"/>
</linearGradient>
<linearGradient id="paint153_linear_10233_35259" x1="3.80083" y1="0" x2="3.80083" y2="7.59157" gradientUnits="userSpaceOnUse">
<stop offset="0.24" stop-color="#C3A8E5"/>
<stop offset="1" stop-color="#6C5D7F"/>
</linearGradient>
<linearGradient id="paint154_linear_10233_35259" x1="3.80083" y1="0" x2="3.80083" y2="7.59157" gradientUnits="userSpaceOnUse">
<stop offset="0.24" stop-color="#C3A8E5"/>
<stop offset="1" stop-color="#6C5D7F"/>
</linearGradient>
<linearGradient id="paint155_linear_10233_35259" x1="3.80083" y1="0" x2="3.80083" y2="7.59157" gradientUnits="userSpaceOnUse">
<stop offset="0.24" stop-color="#C3A8E5"/>
<stop offset="1" stop-color="#6C5D7F"/>
</linearGradient>
<linearGradient id="paint156_linear_10233_35259" x1="3.80083" y1="0" x2="3.80083" y2="7.59157" gradientUnits="userSpaceOnUse">
<stop offset="0.24" stop-color="#C3A8E5"/>
<stop offset="1" stop-color="#6C5D7F"/>
</linearGradient>
<linearGradient id="paint157_linear_10233_35259" x1="3.80083" y1="0" x2="3.80083" y2="7.59157" gradientUnits="userSpaceOnUse">
<stop offset="0.24" stop-color="#C3A8E5"/>
<stop offset="1" stop-color="#6C5D7F"/>
</linearGradient>
<linearGradient id="paint158_linear_10233_35259" x1="3.80083" y1="0" x2="3.80083" y2="7.59157" gradientUnits="userSpaceOnUse">
<stop offset="0.24" stop-color="#C3A8E5"/>
<stop offset="1" stop-color="#6C5D7F"/>
</linearGradient>
<linearGradient id="paint159_linear_10233_35259" x1="3.80083" y1="0" x2="3.80083" y2="7.59157" gradientUnits="userSpaceOnUse">
<stop offset="0.24" stop-color="#C3A8E5"/>
<stop offset="1" stop-color="#6C5D7F"/>
</linearGradient>
<linearGradient id="paint160_linear_10233_35259" x1="3.80083" y1="0" x2="3.80083" y2="7.59157" gradientUnits="userSpaceOnUse">
<stop offset="0.24" stop-color="#C3A8E5"/>
<stop offset="1" stop-color="#6C5D7F"/>
</linearGradient>
<linearGradient id="paint161_linear_10233_35259" x1="3.80083" y1="0" x2="3.80083" y2="7.59157" gradientUnits="userSpaceOnUse">
<stop offset="0.24" stop-color="#C3A8E5"/>
<stop offset="1" stop-color="#6C5D7F"/>
</linearGradient>
<linearGradient id="paint162_linear_10233_35259" x1="3.80083" y1="0" x2="3.80083" y2="7.59157" gradientUnits="userSpaceOnUse">
<stop offset="0.24" stop-color="#C3A8E5"/>
<stop offset="1" stop-color="#6C5D7F"/>
</linearGradient>
<linearGradient id="paint163_linear_10233_35259" x1="3.80083" y1="0" x2="3.80083" y2="7.59157" gradientUnits="userSpaceOnUse">
<stop offset="0.24" stop-color="#C3A8E5"/>
<stop offset="1" stop-color="#6C5D7F"/>
</linearGradient>
<linearGradient id="paint164_linear_10233_35259" x1="3.80083" y1="0" x2="3.80083" y2="7.59157" gradientUnits="userSpaceOnUse">
<stop offset="0.24" stop-color="#C3A8E5"/>
<stop offset="1" stop-color="#6C5D7F"/>
</linearGradient>
<linearGradient id="paint165_linear_10233_35259" x1="3.80083" y1="0" x2="3.80083" y2="7.59157" gradientUnits="userSpaceOnUse">
<stop offset="0.24" stop-color="#C3A8E5"/>
<stop offset="1" stop-color="#6C5D7F"/>
</linearGradient>
<linearGradient id="paint166_linear_10233_35259" x1="3.80083" y1="0" x2="3.80083" y2="7.59157" gradientUnits="userSpaceOnUse">
<stop offset="0.24" stop-color="#C3A8E5"/>
<stop offset="1" stop-color="#6C5D7F"/>
</linearGradient>
<linearGradient id="paint167_linear_10233_35259" x1="3.80083" y1="0" x2="3.80083" y2="7.59157" gradientUnits="userSpaceOnUse">
<stop offset="0.24" stop-color="#C3A8E5"/>
<stop offset="1" stop-color="#6C5D7F"/>
</linearGradient>
</defs>
</svg>
