<svg width="14" height="14" viewBox="0 0 14 14" fill="none" xmlns="http://www.w3.org/2000/svg">
<path d="M6.99984 12.7712C3.77809 12.7712 1.1665 10.1596 1.1665 6.93783C1.1665 3.71608 3.77809 1.10449 6.99984 1.10449C10.2216 1.10449 12.8332 3.71666 12.8332 6.93783C12.8332 10.159 10.2216 12.7712 6.99984 12.7712ZM6.99984 4.02116C6.84513 4.02116 6.69675 4.08262 6.58736 4.19201C6.47796 4.30141 6.4165 4.44978 6.4165 4.60449V7.52116C6.4165 7.67587 6.47796 7.82424 6.58736 7.93364C6.69675 8.04304 6.84513 8.10449 6.99984 8.10449C7.15455 8.10449 7.30292 8.04304 7.41232 7.93364C7.52171 7.82424 7.58317 7.67587 7.58317 7.52116V4.60449C7.58317 4.44978 7.52171 4.30141 7.41232 4.19201C7.30292 4.08262 7.15455 4.02116 6.99984 4.02116ZM6.99984 9.85449C7.15455 9.85449 7.30292 9.79304 7.41232 9.68364C7.52171 9.57424 7.58317 9.42587 7.58317 9.27116C7.58317 9.11645 7.52171 8.96808 7.41232 8.85868C7.30292 8.74928 7.15455 8.68783 6.99984 8.68783C6.84513 8.68783 6.69675 8.74928 6.58736 8.85868C6.47796 8.96808 6.4165 9.11645 6.4165 9.27116C6.4165 9.42587 6.47796 9.57424 6.58736 9.68364C6.69675 9.79304 6.84513 9.85449 6.99984 9.85449Z" fill="#FF615F"/>
</svg>
