<svg width="24" height="24" viewBox="0 0 24 24" fill="none" xmlns="http://www.w3.org/2000/svg">
<path d="M10.0504 2.09374C10.5932 1.63107 11.2831 1.37695 11.9964 1.37695C12.7096 1.37695 13.3995 1.63107 13.9424 2.09374L15.2904 3.24274C15.4507 3.37951 15.6502 3.46211 15.8604 3.47874L17.6254 3.61874C18.3363 3.67544 19.0038 3.98359 19.5082 4.48792C20.0125 4.99225 20.3207 5.65976 20.3774 6.37074L20.5174 8.13674C20.5342 8.34651 20.6168 8.54563 20.7534 8.70574L21.9024 10.0537C22.365 10.5966 22.6191 11.2865 22.6191 11.9997C22.6191 12.713 22.365 13.4029 21.9024 13.9457L20.7534 15.2937C20.6168 15.4538 20.5342 15.653 20.5174 15.8627L20.3774 17.6277C20.3207 18.3387 20.0125 19.0062 19.5082 19.5106C19.0038 20.0149 18.3363 20.323 17.6254 20.3797L15.8594 20.5197C15.6495 20.5369 15.4503 20.6198 15.2904 20.7567L13.9424 21.9047C13.3995 22.3674 12.7096 22.6215 11.9964 22.6215C11.2831 22.6215 10.5932 22.3674 10.0504 21.9047L8.70236 20.7567C8.54225 20.6202 8.34313 20.5376 8.13336 20.5207L6.36836 20.3797C5.65738 20.323 4.98987 20.0149 4.48554 19.5106C3.98121 19.0062 3.67306 18.3387 3.61636 17.6277L3.47636 15.8627C3.45944 15.6525 3.37649 15.453 3.23936 15.2927L2.09136 13.9447C1.62896 13.402 1.375 12.7123 1.375 11.9992C1.375 11.2862 1.62896 10.5965 2.09136 10.0537L3.23936 8.70574C3.37613 8.54536 3.45873 8.34586 3.47536 8.13574L3.61636 6.37074C3.67329 5.65994 3.98154 4.99267 4.48585 4.48854C4.99015 3.98441 5.65754 3.67641 6.36836 3.61974L8.13336 3.47974C8.34348 3.46311 8.54298 3.38051 8.70336 3.24374L10.0504 2.09374ZM12.6454 3.61574C12.4644 3.4616 12.2345 3.37695 11.9969 3.37695C11.7592 3.37695 11.5293 3.4616 11.3484 3.61574L10.0004 4.76574C9.5195 5.17494 8.9218 5.42201 8.29236 5.47174L6.52736 5.61274C6.29048 5.6317 6.06809 5.7344 5.90006 5.90244C5.73203 6.07047 5.62932 6.29286 5.61036 6.52974L5.46936 8.29573C5.41914 8.92494 5.17173 9.52228 4.76236 10.0027L3.61236 11.3507C3.45822 11.5317 3.37357 11.7616 3.37357 11.9992C3.37357 12.2369 3.45822 12.4668 3.61236 12.6477L4.76236 13.9957C5.17173 14.4762 5.41914 15.0735 5.46936 15.7027L5.60936 17.4687C5.62835 17.7058 5.7312 17.9283 5.89944 18.0963C6.06768 18.2644 6.2903 18.367 6.52736 18.3857L8.29236 18.5267C8.92191 18.5767 9.51963 18.8242 10.0004 19.2337L11.3484 20.3837C11.5293 20.5379 11.7592 20.6225 11.9969 20.6225C12.2345 20.6225 12.4644 20.5379 12.6454 20.3837L13.9934 19.2337C14.4738 18.8244 15.0711 18.577 15.7004 18.5267L17.4654 18.3867C17.7026 18.368 17.9253 18.2652 18.0936 18.097C18.2618 17.9287 18.3646 17.7059 18.3834 17.4687L18.5234 15.7027C18.5734 15.0737 18.8214 14.4767 19.2314 13.9957L20.3804 12.6477C20.5345 12.4668 20.6191 12.2369 20.6191 11.9992C20.6191 11.7616 20.5345 11.5317 20.3804 11.3507L19.2304 10.0027C18.8213 9.52215 18.5743 8.92483 18.5244 8.29573L18.3834 6.52974C18.3644 6.2927 18.2615 6.07019 18.0933 5.90213C17.925 5.73408 17.7024 5.63147 17.4654 5.61274L15.7004 5.47274C15.071 5.42223 14.4737 5.17447 13.9934 4.76474L12.6454 3.61574ZM14.8254 7.75674L16.2394 9.17073L9.16836 16.2427L7.75336 14.8277L14.8254 7.75674ZM10.2284 10.2317C10.09 10.375 9.92447 10.4893 9.74146 10.5679C9.55846 10.6465 9.36163 10.6879 9.16246 10.6896C8.96329 10.6913 8.76577 10.6534 8.58143 10.578C8.39708 10.5025 8.2296 10.3912 8.08876 10.2503C7.94792 10.1095 7.83655 9.94201 7.76112 9.75767C7.6857 9.57332 7.64775 9.3758 7.64948 9.17663C7.65121 8.97746 7.69259 8.78064 7.7712 8.59763C7.84982 8.41462 7.96409 8.24911 8.10736 8.11074C8.39026 7.8375 8.76916 7.68631 9.16246 7.68972C9.55575 7.69314 9.93197 7.8509 10.2101 8.12901C10.4882 8.40712 10.646 8.78334 10.6494 9.17663C10.6528 9.56993 10.5016 9.94883 10.2284 10.2317ZM13.7644 15.8887C13.9027 16.032 14.0682 16.1463 14.2513 16.2249C14.4343 16.3035 14.6311 16.3449 14.8303 16.3466C15.0294 16.3483 15.2269 16.3104 15.4113 16.235C15.5956 16.1595 15.7631 16.0482 15.904 15.9073C16.0448 15.7665 16.1562 15.599 16.2316 15.4147C16.307 15.2303 16.345 15.0328 16.3432 14.8336C16.3415 14.6345 16.3001 14.4376 16.2215 14.2546C16.1429 14.0716 16.0286 13.9061 15.8854 13.7677C15.6017 13.4993 15.2244 13.352 14.8338 13.3574C14.4433 13.3627 14.0702 13.5202 13.7939 13.7963C13.5177 14.0725 13.36 14.4455 13.3545 14.836C13.349 15.2266 13.496 15.6039 13.7644 15.8877" fill="white"/>
</svg>
