<svg width="14" height="14" viewBox="0 0 14 14" fill="none" xmlns="http://www.w3.org/2000/svg">
<path d="M6.02 0.22199C5.75093 0.351062 5.5044 0.561402 5.15952 0.855742L5.10557 0.900815C4.80782 1.16922 4.42687 1.32714 4.02655 1.34813L3.95689 1.35359C3.5048 1.38979 3.18178 1.41506 2.90041 1.51476C2.58063 1.62774 2.29017 1.81081 2.0503 2.05056C1.81042 2.29032 1.62721 2.58069 1.51408 2.90041C1.41506 3.18178 1.38979 3.5048 1.35359 3.95689L1.34813 4.02655C1.32714 4.42687 1.16922 4.80782 0.900815 5.10557L0.855742 5.15884C0.561402 5.5044 0.350379 5.75093 0.22199 6.02C0.0758479 6.32603 0 6.66087 0 7C0 7.33913 0.0758479 7.67397 0.22199 7.97999C0.351062 8.24907 0.561402 8.4956 0.855742 8.84048L0.900815 8.89443C1.18081 9.22223 1.3133 9.53569 1.34813 9.97344L1.35359 10.0431C1.38979 10.4952 1.41506 10.8182 1.51476 11.0996C1.62774 11.4194 1.81081 11.7098 2.05056 11.9497C2.29032 12.1896 2.58069 12.3728 2.90041 12.4859C3.18178 12.5849 3.5048 12.6102 3.95689 12.6464L4.02655 12.6519C4.45611 12.686 4.77094 12.8144 5.10557 13.0992L5.15952 13.1443C5.5044 13.4386 5.75093 13.6496 6.02 13.778C6.32603 13.9242 6.66087 14 7 14C7.33913 14 7.67397 13.9242 7.97999 13.778C8.24907 13.6489 8.4956 13.4386 8.84048 13.1443L8.89443 13.0992C9.22223 12.8192 9.53569 12.6867 9.97344 12.6519L10.0431 12.6464C10.4952 12.6102 10.8182 12.5849 11.0996 12.4852C11.4194 12.3723 11.7098 12.1892 11.9497 11.9494C12.1896 11.7097 12.3728 11.4193 12.4859 11.0996C12.5849 10.8182 12.6102 10.4952 12.6464 10.0431L12.6519 9.97344C12.686 9.54389 12.8144 9.22906 13.0992 8.89443L13.1443 8.84048C13.4386 8.4956 13.6496 8.24907 13.778 7.97999C13.9242 7.67397 14 7.33913 14 7C14 6.66087 13.9242 6.32603 13.778 6.02C13.6489 5.75093 13.4386 5.5044 13.1443 5.15952L13.0992 5.10557C12.8308 4.80782 12.6729 4.42687 12.6519 4.02655L12.6464 3.95689C12.6102 3.5048 12.5849 3.18178 12.4852 2.90041C12.3723 2.58063 12.1892 2.29017 11.9494 2.0503C11.7097 1.81042 11.4193 1.62721 11.0996 1.51408C10.8182 1.41506 10.4952 1.38979 10.0431 1.35359L9.97344 1.34813C9.57313 1.32714 9.19218 1.16922 8.89443 0.900815L8.84048 0.855742C8.4956 0.561402 8.24907 0.350379 7.97999 0.22199C7.67397 0.0758479 7.33913 0 7 0C6.66087 0 6.32603 0.0758479 6.02 0.22199ZM4.43904 3.92685C4.43904 3.791 4.493 3.66073 4.58906 3.56467C10.0431 6.3362 4.81539 3.41465 4.95123 3.41465C0.341501 5.10557 3.3338 3.56467 9.41094 3.56467C9.507 3.66073 -3.19672 3.41261 5.46342 4.43904C-0.763741 4.07686 5.55948 4.34298 5.46342 4.43904C5.36737 4.53509 9.18461 4.43904 9.04877 4.43904L7.09697 4.28902C7.25951 4.55741 5.25785 4.53396 5.31317 4.83991L9.04877 5.31181C9.18461 5.31181 9.31489 5.36578 9.41094 5.46183C9.507 5.55789 9.56096 5.68816 9.56096 5.82401C9.56096 5.95985 4.53509 3.83079 4.43904 3.92685C4.34298 4.0229 9.18461 6.3362 9.04877 6.3362H8.14867C8.07884 6.74176 3.1538 4.7813 2.90041 5.10557C2.71799 5.33518 4.57556 8.25536 4.31489 8.38969C4.05422 8.52403 2.69539 9.95812 2.40254 9.97344L8.2238 10.4023C0.900815 9.68509 8.36076 10.6312 8.35593 10.7646C8.35111 10.8979 9.14524 10.3101 9.04877 10.4023C8.9523 10.4945 7.95704 8.56879 7.8236 8.56758C7.69017 8.56636 4.68624 7.64563 5.31317 10.1879L4.58109 8.07492C4.51183 8.0024 7.99787 7.91115 7.97999 7.81248C7.96212 7.71381 4.44111 7.61206 4.48052 7.51985C4.51993 7.42764 4.58555 7.34903 4.66922 7.29377C4.7529 7.23851 4.85095 7.20902 4.95123 7.20897L4.66922 9.5072C5.07897 9.5072 6.66673 7.04507 6.85659 6.8081C6.96674 6.66799 7.0484 6.50768 7.09697 6.3362H4.95123C4.81539 6.3362 4.68511 6.28224 4.58906 6.18618C4.493 6.09013 4.43904 5.95985 4.43904 5.82401C4.43904 5.68816 4.493 5.55789 4.58906 5.46183C4.68511 5.36578 10.9637 7.81248 11.0996 7.81248L9.41094 4.43904C9.36237 4.26756 6.96674 4.98002 6.85659 4.83991C6.66673 4.60294 11.9676 2.90041 8.89443 2.90041L5.03412 4.28902C4.89828 4.28902 5.2003 3.92164 5.10425 3.82559C5.00819 3.72953 4.43904 4.06269 4.43904 3.92685Z" fill="#63E4BF"/>
<path d="M9.70117 4.7998C9.76128 4.79785 9.82165 4.80729 9.87891 4.82617C9.93606 4.84505 9.9902 4.87347 10.0371 4.91211L10.1094 4.97266V4.99023C10.1249 5.01062 10.1404 5.03164 10.1523 5.05469C10.1807 5.10956 10.1965 5.17011 10.1992 5.23242C10.2019 5.29502 10.191 5.35763 10.167 5.41504C10.1431 5.47221 10.1075 5.52324 10.0635 5.56543H10.0625L6.40039 9.06445C6.35316 9.10956 6.29672 9.14419 6.23633 9.16699C6.17592 9.18979 6.11123 9.20122 6.04688 9.2002C5.98269 9.19914 5.91889 9.18583 5.85938 9.16113C5.7997 9.13634 5.74488 9.09961 5.69922 9.05273L3.91406 7.21973L3.90527 7.21094L3.90625 7.20996C3.82839 7.11901 3.78841 7.00063 3.80273 6.87891C3.81707 6.75769 3.88283 6.65197 3.97656 6.58008C4.06974 6.50871 4.18596 6.47333 4.30176 6.47754C4.38866 6.4807 4.47451 6.50608 4.54883 6.55176L4.61914 6.60449L4.62891 6.61328H4.62793L6.06738 8.09375L9.37305 4.93555C9.41717 4.89341 9.46951 4.86062 9.52539 4.83789C9.58133 4.81516 9.64104 4.80177 9.70117 4.7998Z" fill="#2B1843" stroke="#2B1843" stroke-width="0.4"/>
</svg>
