<svg width="133" height="140" viewBox="0 0 133 140" fill="none" xmlns="http://www.w3.org/2000/svg">
<g clip-path="url(#clip0_16847_78404)">
<path d="M62.7308 15.833H35.4231C29.3904 15.833 24.5 20.7413 24.5 26.796V54.2034C24.5 60.2581 29.3904 65.1663 35.4231 65.1663H62.7308C68.7634 65.1663 73.6538 60.2581 73.6538 54.2034V26.796C73.6538 20.7413 68.7634 15.833 62.7308 15.833Z" fill="white"/>
<mask id="mask0_16847_78404" style="mask-type:luminance" maskUnits="userSpaceOnUse" x="38" y="29" width="22" height="23">
<path d="M59.9946 29.5366H38.1484V51.4625H59.9946V29.5366Z" fill="white"/>
</mask>
<g mask="url(#mask0_16847_78404)">
<path d="M56.6976 34.8674C58.0496 36.6395 59.1586 38.5857 59.9946 40.654V29.5366H50.588C52.8509 30.7635 54.9236 32.5587 56.6976 34.8674ZM43.1366 30.7216C41.3944 30.7216 39.7186 31.0951 38.1484 31.7868V51.4625H59.0334C58.8713 39.988 51.8023 30.7216 43.1366 30.7216Z" fill="#4C5EFB"/>
</g>
<path d="M90.7308 77.1665H63.4231C57.3904 77.1665 52.5 82.0748 52.5 88.1295V115.537C52.5 121.592 57.3904 126.5 63.4231 126.5H90.7308C96.7634 126.5 101.654 121.592 101.654 115.537V88.1295C101.654 82.0748 96.7634 77.1665 90.7308 77.1665Z" fill="white" fill-opacity="0.2"/>
<path d="M77.8335 115.611C85.3743 115.611 91.4874 109.475 91.4874 101.907C91.4874 94.3385 85.3743 88.2031 77.8335 88.2031C70.2927 88.2031 64.1797 94.3385 64.1797 101.907C64.1797 109.475 70.2927 115.611 77.8335 115.611Z" fill="#00F3BB"/>
<path d="M74.5576 103.825L68.7193 109.683C68.127 110.277 67.1359 110.193 66.6894 109.482C56.1138 92.6304 79.8599 79.5539 89.561 94.8045C89.8998 95.3373 89.7933 96.0428 89.332 96.4731L81.108 104.141C80.7698 104.457 80.2956 104.579 79.8476 104.467L75.8541 103.465C75.3888 103.348 74.8967 103.485 74.5576 103.825Z" fill="#5367FE"/>
</g>
<defs>
<clipPath id="clip0_16847_78404">
<rect width="133" height="140" fill="white"/>
</clipPath>
</defs>
</svg>
