<svg width="133" height="140" viewBox="0 0 133 140" fill="none" xmlns="http://www.w3.org/2000/svg">
<g filter="url(#filter0_g_16847_78168)">
<path d="M73.6938 89.4606C73.3893 91.8966 67.9846 98.8491 65.3203 102.021C66.2338 102.934 70.7758 101.387 72.9326 100.498C73.6938 99.7371 75.9775 91.3637 75.9775 89.8413C75.9775 88.6233 74.0744 88.6993 73.6938 89.4606Z" fill="#F0E5FF"/>
<path d="M73.6938 89.4606C73.3893 91.8966 67.9846 98.8491 65.3203 102.021C66.2338 102.934 70.7758 101.387 72.9326 100.498C73.6938 99.7371 75.9775 91.3637 75.9775 89.8413C75.9775 88.6233 74.0744 88.6993 73.6938 89.4606Z" fill="url(#paint0_linear_16847_78168)" fill-opacity="0.6"/>
</g>
<g filter="url(#filter1_g_16847_78168)">
<path d="M80.1704 89.0804C79.663 89.8415 77.1255 94.4089 71.7969 100.675C72.7103 101.588 77.2523 99.4839 79.4091 98.5957C80.1704 97.8345 82.8347 90.603 82.8347 89.0806C82.8347 87.8626 80.9316 87.9385 80.1704 89.0804Z" fill="#F0E5FF"/>
<path d="M80.1704 89.0804C79.663 89.8415 77.1255 94.4089 71.7969 100.675C72.7103 101.588 77.2523 99.4839 79.4091 98.5957C80.1704 97.8345 82.8347 90.603 82.8347 89.0806C82.8347 87.8626 80.9316 87.9385 80.1704 89.0804Z" fill="url(#paint1_linear_16847_78168)" fill-opacity="0.6"/>
</g>
<g filter="url(#filter2_g_16847_78168)">
<path d="M13.1796 105.066L1 116.104L13.5602 130.567C13.8647 128.436 20.5382 122.574 23.8368 119.91C26.2727 118.692 32.9715 118.007 36.0164 117.626C48.5767 117.246 59.2339 112.298 59.9951 111.917C60.6041 111.613 63.4206 110.268 64.9431 109.253C82.0707 103.544 82.0707 99.3568 82.0707 98.9762C82.0707 98.5955 80.9288 97.4538 79.4064 98.215C78.1884 98.824 71.2866 101.006 67.988 102.021H58.4726L37.1583 97.4538C37.9195 94.7895 59.2339 89.4609 57.3308 83.371C56.9502 82.7367 56.5696 81.8486 54.6665 82.6098C53.2529 83.1752 43.2267 86.3211 37.9195 87.1771C26.1205 89.0803 21.1725 92.8863 17.3664 98.9762C15.777 101.519 14.0677 104.178 13.1796 105.066Z" fill="#F0E5FF"/>
<path d="M13.1796 105.066L1 116.104L13.5602 130.567C13.8647 128.436 20.5382 122.574 23.8368 119.91C26.2727 118.692 32.9715 118.007 36.0164 117.626C48.5767 117.246 59.2339 112.298 59.9951 111.917C60.6041 111.613 63.4206 110.268 64.9431 109.253C82.0707 103.544 82.0707 99.3568 82.0707 98.9762C82.0707 98.5955 80.9288 97.4538 79.4064 98.215C78.1884 98.824 71.2866 101.006 67.988 102.021H58.4726L37.1583 97.4538C37.9195 94.7895 59.2339 89.4609 57.3308 83.371C56.9502 82.7367 56.5696 81.8486 54.6665 82.6098C53.2529 83.1752 43.2267 86.3211 37.9195 87.1771C26.1205 89.0803 21.1725 92.8863 17.3664 98.9762C15.777 101.519 14.0677 104.178 13.1796 105.066Z" fill="url(#paint2_linear_16847_78168)" fill-opacity="0.6"/>
</g>
<g filter="url(#filter3_g_16847_78168)">
<path d="M59.6187 51.1067C59.9232 48.6708 65.3279 41.7183 67.9922 38.5465C67.0787 37.633 62.5367 39.1809 60.3799 40.069C59.6187 40.8303 57.335 49.2037 57.335 50.7261C57.335 51.9441 59.2381 51.8681 59.6187 51.1067Z" fill="#F0E5FF"/>
<path d="M59.6187 51.1067C59.9232 48.6708 65.3279 41.7183 67.9922 38.5465C67.0787 37.633 62.5367 39.1809 60.3799 40.069C59.6187 40.8303 57.335 49.2037 57.335 50.7261C57.335 51.9441 59.2381 51.8681 59.6187 51.1067Z" fill="url(#paint3_linear_16847_78168)" fill-opacity="0.6"/>
</g>
<g filter="url(#filter4_g_16847_78168)">
<path d="M53.1421 51.487C53.6495 50.7258 56.187 46.1585 61.5156 39.8927C60.6022 38.9792 56.0602 41.0835 53.9034 41.9717C53.1421 42.7329 50.4778 49.9644 50.4778 51.4868C50.4778 52.7048 52.3809 52.6289 53.1421 51.487Z" fill="#F0E5FF"/>
<path d="M53.1421 51.487C53.6495 50.7258 56.187 46.1585 61.5156 39.8927C60.6022 38.9792 56.0602 41.0835 53.9034 41.9717C53.1421 42.7329 50.4778 49.9644 50.4778 51.4868C50.4778 52.7048 52.3809 52.6289 53.1421 51.487Z" fill="url(#paint4_linear_16847_78168)" fill-opacity="0.6"/>
</g>
<g filter="url(#filter5_g_16847_78168)">
<path d="M120.133 35.5014L132.312 24.4636L119.752 10.0002C119.448 12.1317 112.774 17.9931 109.476 20.6574C107.04 21.8754 100.341 22.5605 97.2961 22.9411C84.7358 23.3217 74.0786 28.2697 73.3174 28.6503C72.7084 28.9548 69.8919 30.2996 68.3694 31.3146C51.2418 37.0238 51.2418 41.2105 51.2418 41.5912C51.2418 41.9719 52.3837 43.1136 53.9061 42.3524C55.1241 41.7434 62.0259 39.5612 65.3245 38.5462H74.8399L96.1542 43.1136C95.393 45.7779 74.0786 51.1065 75.9817 57.1964C76.3623 57.8307 76.7429 58.7188 78.646 57.9576C80.0596 57.3922 90.0858 54.2463 95.393 53.3902C107.192 51.4871 112.14 47.681 115.946 41.5912C117.536 39.0482 119.245 36.3895 120.133 35.5014Z" fill="#F0E5FF"/>
<path d="M120.133 35.5014L132.312 24.4636L119.752 10.0002C119.448 12.1317 112.774 17.9931 109.476 20.6574C107.04 21.8754 100.341 22.5605 97.2961 22.9411C84.7358 23.3217 74.0786 28.2697 73.3174 28.6503C72.7084 28.9548 69.8919 30.2996 68.3694 31.3146C51.2418 37.0238 51.2418 41.2105 51.2418 41.5912C51.2418 41.9719 52.3837 43.1136 53.9061 42.3524C55.1241 41.7434 62.0259 39.5612 65.3245 38.5462H74.8399L96.1542 43.1136C95.393 45.7779 74.0786 51.1065 75.9817 57.1964C76.3623 57.8307 76.7429 58.7188 78.646 57.9576C80.0596 57.3922 90.0858 54.2463 95.393 53.3902C107.192 51.4871 112.14 47.681 115.946 41.5912C117.536 39.0482 119.245 36.3895 120.133 35.5014Z" fill="url(#paint5_linear_16847_78168)" fill-opacity="0.6"/>
</g>
<g clip-path="url(#clip0_16847_78168)">
<path d="M60.6328 63.3869L67.2059 62.0386L66.9183 66.3742L60.6328 63.3869Z" fill="#E0C9FF"/>
<path d="M63.5892 72.4168L60.6328 63.3867L66.9183 66.3741L63.5892 72.4168Z" fill="#E0CAFD"/>
<path d="M70.3152 71.6127L66.915 66.374L63.5859 72.4167L70.3152 71.6127Z" fill="#CCABF8"/>
<path d="M78.542 81.2982L79.8904 74.7251L75.5547 75.0127L78.542 81.2982Z" fill="#8B84F9"/>
<path d="M69.5156 78.3418L78.5457 81.2982L75.5583 75.0127L69.5156 78.3418Z" fill="#E0CAFD"/>
<path d="M70.3197 71.6128L75.5583 75.013L69.5156 78.342L70.3197 71.6128Z" fill="#E0C9FF"/>
<path d="M69.5111 78.342L70.3152 71.6128L63.5859 72.4168L69.5111 78.342Z" fill="#B2EBF2"/>
<path d="M72.1156 63.5523L78.3748 69.8115L79.8886 74.7255L75.5529 75.0131L70.3142 71.6129L66.9141 66.3742L67.2017 62.0386L72.1156 63.5523Z" fill="#B3E5FC"/>
<path d="M60.7225 81.2087L60.6328 63.3867L63.5892 72.4168L60.7225 81.2087Z" fill="#B787F6"/>
<path d="M60.7188 81.2085L78.5407 81.2982L69.5107 78.3418L60.7188 81.2085Z" fill="#B3E5FC"/>
<path d="M69.5107 78.3422L60.7188 81.2089L63.5855 72.417L69.5107 78.3422Z" fill="#E0C9FF"/>
</g>
<g clip-path="url(#paint6_diamond_16847_78168_clip_path)" data-figma-skip-parse="true"><g transform="matrix(0 0.00418675 -0.00418675 0 54.6711 57.5769)"><rect x="0" y="0" width="1358.27" height="1358.27" fill="url(#paint6_diamond_16847_78168)" opacity="1" shape-rendering="crispEdges"/><rect x="0" y="0" width="1358.27" height="1358.27" transform="scale(1 -1)" fill="url(#paint6_diamond_16847_78168)" opacity="1" shape-rendering="crispEdges"/><rect x="0" y="0" width="1358.27" height="1358.27" transform="scale(-1 1)" fill="url(#paint6_diamond_16847_78168)" opacity="1" shape-rendering="crispEdges"/><rect x="0" y="0" width="1358.27" height="1358.27" transform="scale(-1)" fill="url(#paint6_diamond_16847_78168)" opacity="1" shape-rendering="crispEdges"/></g></g><path d="M50.4844 57.5769C53.4002 57.5769 54.6711 56.3502 54.6711 53.3901C54.6711 56.3502 55.9332 57.5769 58.8579 57.5769C55.9332 57.5769 54.6711 58.839 54.6711 61.7636C54.6711 58.839 53.4002 57.5769 50.4844 57.5769Z" data-figma-gradient-fill="{&#34;type&#34;:&#34;GRADIENT_DIAMOND&#34;,&#34;stops&#34;:[{&#34;color&#34;:{&#34;r&#34;:0.93905729055404663,&#34;g&#34;:0.89245402812957764,&#34;b&#34;:1.0,&#34;a&#34;:1.0},&#34;position&#34;:0.0},{&#34;color&#34;:{&#34;r&#34;:0.50090545415878296,&#34;g&#34;:0.42512723803520203,&#34;b&#34;:0.60000002384185791,&#34;a&#34;:1.0},&#34;position&#34;:1.0}],&#34;stopsVar&#34;:[{&#34;color&#34;:{&#34;r&#34;:0.93905729055404663,&#34;g&#34;:0.89245402812957764,&#34;b&#34;:1.0,&#34;a&#34;:1.0},&#34;position&#34;:0.0},{&#34;color&#34;:{&#34;r&#34;:0.50090545415878296,&#34;g&#34;:0.42512723803520203,&#34;b&#34;:0.60000002384185791,&#34;a&#34;:1.0},&#34;position&#34;:1.0}],&#34;transform&#34;:{&#34;m00&#34;:5.1272873648905166e-16,&#34;m01&#34;:-8.3734951019287109,&#34;m02&#34;:58.857872009277344,&#34;m10&#34;:8.3734951019287109,&#34;m11&#34;:5.1272873648905166e-16,&#34;m12&#34;:53.390136718750},&#34;opacity&#34;:1.0,&#34;blendMode&#34;:&#34;NORMAL&#34;,&#34;visible&#34;:true}"/>
<g clip-path="url(#paint7_diamond_16847_78168_clip_path)" data-figma-skip-parse="true"><g transform="matrix(0 0.00418675 -0.00418675 0 86.6399 86.5032)"><rect x="0" y="0" width="1358.27" height="1358.27" fill="url(#paint7_diamond_16847_78168)" opacity="1" shape-rendering="crispEdges"/><rect x="0" y="0" width="1358.27" height="1358.27" transform="scale(1 -1)" fill="url(#paint7_diamond_16847_78168)" opacity="1" shape-rendering="crispEdges"/><rect x="0" y="0" width="1358.27" height="1358.27" transform="scale(-1 1)" fill="url(#paint7_diamond_16847_78168)" opacity="1" shape-rendering="crispEdges"/><rect x="0" y="0" width="1358.27" height="1358.27" transform="scale(-1)" fill="url(#paint7_diamond_16847_78168)" opacity="1" shape-rendering="crispEdges"/></g></g><path d="M82.4531 86.5032C85.369 86.5032 86.6399 85.2764 86.6399 82.3164C86.6399 85.2764 87.9019 86.5032 90.8266 86.5032C87.9019 86.5032 86.6399 87.7652 86.6399 90.6899C86.6399 87.7652 85.369 86.5032 82.4531 86.5032Z" data-figma-gradient-fill="{&#34;type&#34;:&#34;GRADIENT_DIAMOND&#34;,&#34;stops&#34;:[{&#34;color&#34;:{&#34;r&#34;:0.93905729055404663,&#34;g&#34;:0.89245402812957764,&#34;b&#34;:1.0,&#34;a&#34;:1.0},&#34;position&#34;:0.0},{&#34;color&#34;:{&#34;r&#34;:0.50090545415878296,&#34;g&#34;:0.42512723803520203,&#34;b&#34;:0.60000002384185791,&#34;a&#34;:1.0},&#34;position&#34;:1.0}],&#34;stopsVar&#34;:[{&#34;color&#34;:{&#34;r&#34;:0.93905729055404663,&#34;g&#34;:0.89245402812957764,&#34;b&#34;:1.0,&#34;a&#34;:1.0},&#34;position&#34;:0.0},{&#34;color&#34;:{&#34;r&#34;:0.50090545415878296,&#34;g&#34;:0.42512723803520203,&#34;b&#34;:0.60000002384185791,&#34;a&#34;:1.0},&#34;position&#34;:1.0}],&#34;transform&#34;:{&#34;m00&#34;:5.1272873648905166e-16,&#34;m01&#34;:-8.3734951019287109,&#34;m02&#34;:90.826622009277344,&#34;m10&#34;:8.3734951019287109,&#34;m11&#34;:5.1272873648905166e-16,&#34;m12&#34;:82.316406250},&#34;opacity&#34;:1.0,&#34;blendMode&#34;:&#34;NORMAL&#34;,&#34;visible&#34;:true}"/>
<g clip-path="url(#paint8_diamond_16847_78168_clip_path)" data-figma-skip-parse="true"><g transform="matrix(0 0.00418675 -0.00418675 0 84.1867 67.1867)"><rect x="0" y="0" width="1358.27" height="1358.27" fill="url(#paint8_diamond_16847_78168)" opacity="1" shape-rendering="crispEdges"/><rect x="0" y="0" width="1358.27" height="1358.27" transform="scale(1 -1)" fill="url(#paint8_diamond_16847_78168)" opacity="1" shape-rendering="crispEdges"/><rect x="0" y="0" width="1358.27" height="1358.27" transform="scale(-1 1)" fill="url(#paint8_diamond_16847_78168)" opacity="1" shape-rendering="crispEdges"/><rect x="0" y="0" width="1358.27" height="1358.27" transform="scale(-1)" fill="url(#paint8_diamond_16847_78168)" opacity="1" shape-rendering="crispEdges"/></g></g><path d="M80 67.1867C82.9158 67.1867 84.1867 65.96 84.1867 63C84.1867 65.96 85.4488 67.1867 88.3735 67.1867C85.4488 67.1867 84.1867 68.4488 84.1867 71.3735C84.1867 68.4488 82.9158 67.1867 80 67.1867Z" data-figma-gradient-fill="{&#34;type&#34;:&#34;GRADIENT_DIAMOND&#34;,&#34;stops&#34;:[{&#34;color&#34;:{&#34;r&#34;:0.93905729055404663,&#34;g&#34;:0.89245402812957764,&#34;b&#34;:1.0,&#34;a&#34;:1.0},&#34;position&#34;:0.0},{&#34;color&#34;:{&#34;r&#34;:0.50090545415878296,&#34;g&#34;:0.42512723803520203,&#34;b&#34;:0.60000002384185791,&#34;a&#34;:1.0},&#34;position&#34;:1.0}],&#34;stopsVar&#34;:[{&#34;color&#34;:{&#34;r&#34;:0.93905729055404663,&#34;g&#34;:0.89245402812957764,&#34;b&#34;:1.0,&#34;a&#34;:1.0},&#34;position&#34;:0.0},{&#34;color&#34;:{&#34;r&#34;:0.50090545415878296,&#34;g&#34;:0.42512723803520203,&#34;b&#34;:0.60000002384185791,&#34;a&#34;:1.0},&#34;position&#34;:1.0}],&#34;transform&#34;:{&#34;m00&#34;:5.1272873648905166e-16,&#34;m01&#34;:-8.3734951019287109,&#34;m02&#34;:88.373497009277344,&#34;m10&#34;:8.3734951019287109,&#34;m11&#34;:5.1272873648905166e-16,&#34;m12&#34;:63.0},&#34;opacity&#34;:1.0,&#34;blendMode&#34;:&#34;NORMAL&#34;,&#34;visible&#34;:true}"/>
<defs>
<filter id="filter0_g_16847_78168" x="49.6203" y="73.2043" width="42.0562" height="44.7955" filterUnits="userSpaceOnUse" color-interpolation-filters="sRGB">
<feFlood flood-opacity="0" result="BackgroundImageFix"/>
<feBlend mode="normal" in="SourceGraphic" in2="BackgroundImageFix" result="shape"/>
<feTurbulence type="fractalNoise" baseFrequency="0.99900001287460327 0.99900001287460327" numOctaves="3" seed="2553" result="displacementX" />
<feTurbulence type="fractalNoise" baseFrequency="0.99900001287460327 0.99900001287460327" numOctaves="3" seed="2554" result="displacementY" />
<feColorMatrix in="displacementX" type="matrix" values="0 0 0 1 0  0 0 0 0 0  0 0 0 0 0  0 0 0 0 1" result="displacementXRed" />
<feColorMatrix in="displacementY" type="matrix" values="0 0 0 0 0  0 0 0 1 0  0 0 0 0 0  0 0 0 0 1" />
<feComposite in="displacementXRed" operator="arithmetic" k1="0" k2="1" k3="1" k4="0"/>
<feDisplacementMap in="shape" scale="31.399999618530273" xChannelSelector="R" yChannelSelector="G" width="100%" height="100%" />
<feColorMatrix type="matrix" values="0 0 0 0 0  0 0 0 0 0  0 0 0 0 0  0 0 0 1 0" />
<feComponentTransfer result="sourceDisplacedAlpha">
<feFuncA type="gamma" exponent="0.2" />
</feComponentTransfer>
<feColorMatrix in="shape" type="matrix" values="0 0 0 0 0  0 0 0 0 0  0 0 0 0 0  0 0 0 1 0" />
<feComponentTransfer result="inputSourceAlpha">
<feFuncA type="gamma" exponent="0.2" />
</feComponentTransfer>
<feComposite in="sourceDisplacedAlpha" operator="arithmetic" k1="1" k2="0" k3="0" k4="0" result="displacementAlphasMultiplied"/>
<feComposite in="displacementAlphasMultiplied"  operator="arithmetic" k1="0" k2="0" k3="-0.5" k4="0.5" result="centeringAdjustment"/>
<feComposite in="displacementX" in2="displacementAlphasMultiplied" operator="arithmetic" k1="1" k2="0" k3="0" k4="0" />
<feComposite in="centeringAdjustment" operator="arithmetic" k1="0" k2="1" k3="1" k4="0" />
<feColorMatrix  type="matrix" values="0 0 0 1 0  0 0 0 0 0  0 0 0 0 0  0 0 0 0 1" result="displacementXFinal" />
<feComposite in="displacementY" in2="displacementAlphasMultiplied" operator="arithmetic" k1="1" k2="0" k3="0" k4="0" />
<feComposite in="centeringAdjustment" operator="arithmetic" k1="0" k2="1" k3="1" k4="0" />
<feColorMatrix  type="matrix" values="0 0 0 0 0  0 0 0 1 0  0 0 0 0 0  0 0 0 0 1" result="displacementYFinal" />
<feComposite in="displacementXFinal" in2="displacementYFinal" operator="arithmetic" k1="0" k2="1" k3="1" k4="0" />
<feComposite in2="displacementAlphasMultiplied" operator="in" result="displacementMap" />
<feFlood flood-color="rgb(127, 127, 127)" flood-opacity="1"/>
<feComposite in2="displacementAlphasMultiplied" operator="out" />
<feComposite in2="displacementMap" operator="over" result="displacementMapWithBg"/>
<feDisplacementMap in="shape" scale="31.399999618530273" xChannelSelector="R" yChannelSelector="G" width="100%" height="100%" result="displacedImage" />
<feColorMatrix in="shape" type="matrix" values="1 0 0 0 0  0 1 0 0 0  0 0 1 0 0  0 0 0 127 0" result="imageOpaque" />
<feDisplacementMap in="imageOpaque" in2="displacementMapWithBg" scale="31.399999618530273" xChannelSelector="R" yChannelSelector="G" width="100%" height="100%" result="displacedImageOpaque" />
<feColorMatrix in="displacedImage" type="matrix" values="0 0 0 1 0  0 0 0 0 0  0 0 0 0 0  0 0 0 127 0" result="displacedImageRed" />
<feColorMatrix in="shape" type="matrix" values="0 0 0 1 0  0 0 0 0 0  0 0 0 0 0  0 0 0 127 0" />
<feComposite in="displacedImageRed"  operator="atop" result="transparencyRedMap"/>
<feColorMatrix in="transparencyRedMap" type="matrix" values="0 0 0 0 0  0 0 0 0 0  0 0 0 0 0  1 0 0 0 0" result="transparencyAlphaMap" />
<feComposite in="displacedImageOpaque" in2="imageOpaque" operator="over" />
<feComposite in2="transparencyAlphaMap" operator="in" result="effect1_texture_16847_78168"/>
</filter>
<filter id="filter1_g_16847_78168" x="56.0969" y="72.4953" width="42.4391" height="44.1046" filterUnits="userSpaceOnUse" color-interpolation-filters="sRGB">
<feFlood flood-opacity="0" result="BackgroundImageFix"/>
<feBlend mode="normal" in="SourceGraphic" in2="BackgroundImageFix" result="shape"/>
<feTurbulence type="fractalNoise" baseFrequency="0.99900001287460327 0.99900001287460327" numOctaves="3" seed="2553" result="displacementX" />
<feTurbulence type="fractalNoise" baseFrequency="0.99900001287460327 0.99900001287460327" numOctaves="3" seed="2554" result="displacementY" />
<feColorMatrix in="displacementX" type="matrix" values="0 0 0 1 0  0 0 0 0 0  0 0 0 0 0  0 0 0 0 1" result="displacementXRed" />
<feColorMatrix in="displacementY" type="matrix" values="0 0 0 0 0  0 0 0 1 0  0 0 0 0 0  0 0 0 0 1" />
<feComposite in="displacementXRed" operator="arithmetic" k1="0" k2="1" k3="1" k4="0"/>
<feDisplacementMap in="shape" scale="31.399999618530273" xChannelSelector="R" yChannelSelector="G" width="100%" height="100%" />
<feColorMatrix type="matrix" values="0 0 0 0 0  0 0 0 0 0  0 0 0 0 0  0 0 0 1 0" />
<feComponentTransfer result="sourceDisplacedAlpha">
<feFuncA type="gamma" exponent="0.2" />
</feComponentTransfer>
<feColorMatrix in="shape" type="matrix" values="0 0 0 0 0  0 0 0 0 0  0 0 0 0 0  0 0 0 1 0" />
<feComponentTransfer result="inputSourceAlpha">
<feFuncA type="gamma" exponent="0.2" />
</feComponentTransfer>
<feComposite in="sourceDisplacedAlpha" operator="arithmetic" k1="1" k2="0" k3="0" k4="0" result="displacementAlphasMultiplied"/>
<feComposite in="displacementAlphasMultiplied"  operator="arithmetic" k1="0" k2="0" k3="-0.5" k4="0.5" result="centeringAdjustment"/>
<feComposite in="displacementX" in2="displacementAlphasMultiplied" operator="arithmetic" k1="1" k2="0" k3="0" k4="0" />
<feComposite in="centeringAdjustment" operator="arithmetic" k1="0" k2="1" k3="1" k4="0" />
<feColorMatrix  type="matrix" values="0 0 0 1 0  0 0 0 0 0  0 0 0 0 0  0 0 0 0 1" result="displacementXFinal" />
<feComposite in="displacementY" in2="displacementAlphasMultiplied" operator="arithmetic" k1="1" k2="0" k3="0" k4="0" />
<feComposite in="centeringAdjustment" operator="arithmetic" k1="0" k2="1" k3="1" k4="0" />
<feColorMatrix  type="matrix" values="0 0 0 0 0  0 0 0 1 0  0 0 0 0 0  0 0 0 0 1" result="displacementYFinal" />
<feComposite in="displacementXFinal" in2="displacementYFinal" operator="arithmetic" k1="0" k2="1" k3="1" k4="0" />
<feComposite in2="displacementAlphasMultiplied" operator="in" result="displacementMap" />
<feFlood flood-color="rgb(127, 127, 127)" flood-opacity="1"/>
<feComposite in2="displacementAlphasMultiplied" operator="out" />
<feComposite in2="displacementMap" operator="over" result="displacementMapWithBg"/>
<feDisplacementMap in="shape" scale="31.399999618530273" xChannelSelector="R" yChannelSelector="G" width="100%" height="100%" result="displacedImage" />
<feColorMatrix in="shape" type="matrix" values="1 0 0 0 0  0 1 0 0 0  0 0 1 0 0  0 0 0 127 0" result="imageOpaque" />
<feDisplacementMap in="imageOpaque" in2="displacementMapWithBg" scale="31.399999618530273" xChannelSelector="R" yChannelSelector="G" width="100%" height="100%" result="displacedImageOpaque" />
<feColorMatrix in="displacedImage" type="matrix" values="0 0 0 1 0  0 0 0 0 0  0 0 0 0 0  0 0 0 127 0" result="displacedImageRed" />
<feColorMatrix in="shape" type="matrix" values="0 0 0 1 0  0 0 0 0 0  0 0 0 0 0  0 0 0 127 0" />
<feComposite in="displacedImageRed"  operator="atop" result="transparencyRedMap"/>
<feColorMatrix in="transparencyRedMap" type="matrix" values="0 0 0 0 0  0 0 0 0 0  0 0 0 0 0  1 0 0 0 0" result="transparencyAlphaMap" />
<feComposite in="displacedImageOpaque" in2="imageOpaque" operator="over" />
<feComposite in2="transparencyAlphaMap" operator="in" result="effect1_texture_16847_78168"/>
</filter>
<filter id="filter2_g_16847_78168" x="-14.7" y="66.6164" width="112.47" height="79.651" filterUnits="userSpaceOnUse" color-interpolation-filters="sRGB">
<feFlood flood-opacity="0" result="BackgroundImageFix"/>
<feBlend mode="normal" in="SourceGraphic" in2="BackgroundImageFix" result="shape"/>
<feTurbulence type="fractalNoise" baseFrequency="0.99900001287460327 0.99900001287460327" numOctaves="3" seed="2553" result="displacementX" />
<feTurbulence type="fractalNoise" baseFrequency="0.99900001287460327 0.99900001287460327" numOctaves="3" seed="2554" result="displacementY" />
<feColorMatrix in="displacementX" type="matrix" values="0 0 0 1 0  0 0 0 0 0  0 0 0 0 0  0 0 0 0 1" result="displacementXRed" />
<feColorMatrix in="displacementY" type="matrix" values="0 0 0 0 0  0 0 0 1 0  0 0 0 0 0  0 0 0 0 1" />
<feComposite in="displacementXRed" operator="arithmetic" k1="0" k2="1" k3="1" k4="0"/>
<feDisplacementMap in="shape" scale="31.399999618530273" xChannelSelector="R" yChannelSelector="G" width="100%" height="100%" />
<feColorMatrix type="matrix" values="0 0 0 0 0  0 0 0 0 0  0 0 0 0 0  0 0 0 1 0" />
<feComponentTransfer result="sourceDisplacedAlpha">
<feFuncA type="gamma" exponent="0.2" />
</feComponentTransfer>
<feColorMatrix in="shape" type="matrix" values="0 0 0 0 0  0 0 0 0 0  0 0 0 0 0  0 0 0 1 0" />
<feComponentTransfer result="inputSourceAlpha">
<feFuncA type="gamma" exponent="0.2" />
</feComponentTransfer>
<feComposite in="sourceDisplacedAlpha" operator="arithmetic" k1="1" k2="0" k3="0" k4="0" result="displacementAlphasMultiplied"/>
<feComposite in="displacementAlphasMultiplied"  operator="arithmetic" k1="0" k2="0" k3="-0.5" k4="0.5" result="centeringAdjustment"/>
<feComposite in="displacementX" in2="displacementAlphasMultiplied" operator="arithmetic" k1="1" k2="0" k3="0" k4="0" />
<feComposite in="centeringAdjustment" operator="arithmetic" k1="0" k2="1" k3="1" k4="0" />
<feColorMatrix  type="matrix" values="0 0 0 1 0  0 0 0 0 0  0 0 0 0 0  0 0 0 0 1" result="displacementXFinal" />
<feComposite in="displacementY" in2="displacementAlphasMultiplied" operator="arithmetic" k1="1" k2="0" k3="0" k4="0" />
<feComposite in="centeringAdjustment" operator="arithmetic" k1="0" k2="1" k3="1" k4="0" />
<feColorMatrix  type="matrix" values="0 0 0 0 0  0 0 0 1 0  0 0 0 0 0  0 0 0 0 1" result="displacementYFinal" />
<feComposite in="displacementXFinal" in2="displacementYFinal" operator="arithmetic" k1="0" k2="1" k3="1" k4="0" />
<feComposite in2="displacementAlphasMultiplied" operator="in" result="displacementMap" />
<feFlood flood-color="rgb(127, 127, 127)" flood-opacity="1"/>
<feComposite in2="displacementAlphasMultiplied" operator="out" />
<feComposite in2="displacementMap" operator="over" result="displacementMapWithBg"/>
<feDisplacementMap in="shape" scale="31.399999618530273" xChannelSelector="R" yChannelSelector="G" width="100%" height="100%" result="displacedImage" />
<feColorMatrix in="shape" type="matrix" values="1 0 0 0 0  0 1 0 0 0  0 0 1 0 0  0 0 0 127 0" result="imageOpaque" />
<feDisplacementMap in="imageOpaque" in2="displacementMapWithBg" scale="31.399999618530273" xChannelSelector="R" yChannelSelector="G" width="100%" height="100%" result="displacedImageOpaque" />
<feColorMatrix in="displacedImage" type="matrix" values="0 0 0 1 0  0 0 0 0 0  0 0 0 0 0  0 0 0 127 0" result="displacedImageRed" />
<feColorMatrix in="shape" type="matrix" values="0 0 0 1 0  0 0 0 0 0  0 0 0 0 0  0 0 0 127 0" />
<feComposite in="displacedImageRed"  operator="atop" result="transparencyRedMap"/>
<feColorMatrix in="transparencyRedMap" type="matrix" values="0 0 0 0 0  0 0 0 0 0  0 0 0 0 0  1 0 0 0 0" result="transparencyAlphaMap" />
<feComposite in="displacedImageOpaque" in2="imageOpaque" operator="over" />
<feComposite in2="transparencyAlphaMap" operator="in" result="effect1_texture_16847_78168"/>
</filter>
<filter id="filter3_g_16847_78168" x="41.6359" y="22.5676" width="42.0562" height="44.7955" filterUnits="userSpaceOnUse" color-interpolation-filters="sRGB">
<feFlood flood-opacity="0" result="BackgroundImageFix"/>
<feBlend mode="normal" in="SourceGraphic" in2="BackgroundImageFix" result="shape"/>
<feTurbulence type="fractalNoise" baseFrequency="0.99900001287460327 0.99900001287460327" numOctaves="3" seed="2553" result="displacementX" />
<feTurbulence type="fractalNoise" baseFrequency="0.99900001287460327 0.99900001287460327" numOctaves="3" seed="2554" result="displacementY" />
<feColorMatrix in="displacementX" type="matrix" values="0 0 0 1 0  0 0 0 0 0  0 0 0 0 0  0 0 0 0 1" result="displacementXRed" />
<feColorMatrix in="displacementY" type="matrix" values="0 0 0 0 0  0 0 0 1 0  0 0 0 0 0  0 0 0 0 1" />
<feComposite in="displacementXRed" operator="arithmetic" k1="0" k2="1" k3="1" k4="0"/>
<feDisplacementMap in="shape" scale="31.399999618530273" xChannelSelector="R" yChannelSelector="G" width="100%" height="100%" />
<feColorMatrix type="matrix" values="0 0 0 0 0  0 0 0 0 0  0 0 0 0 0  0 0 0 1 0" />
<feComponentTransfer result="sourceDisplacedAlpha">
<feFuncA type="gamma" exponent="0.2" />
</feComponentTransfer>
<feColorMatrix in="shape" type="matrix" values="0 0 0 0 0  0 0 0 0 0  0 0 0 0 0  0 0 0 1 0" />
<feComponentTransfer result="inputSourceAlpha">
<feFuncA type="gamma" exponent="0.2" />
</feComponentTransfer>
<feComposite in="sourceDisplacedAlpha" operator="arithmetic" k1="1" k2="0" k3="0" k4="0" result="displacementAlphasMultiplied"/>
<feComposite in="displacementAlphasMultiplied"  operator="arithmetic" k1="0" k2="0" k3="-0.5" k4="0.5" result="centeringAdjustment"/>
<feComposite in="displacementX" in2="displacementAlphasMultiplied" operator="arithmetic" k1="1" k2="0" k3="0" k4="0" />
<feComposite in="centeringAdjustment" operator="arithmetic" k1="0" k2="1" k3="1" k4="0" />
<feColorMatrix  type="matrix" values="0 0 0 1 0  0 0 0 0 0  0 0 0 0 0  0 0 0 0 1" result="displacementXFinal" />
<feComposite in="displacementY" in2="displacementAlphasMultiplied" operator="arithmetic" k1="1" k2="0" k3="0" k4="0" />
<feComposite in="centeringAdjustment" operator="arithmetic" k1="0" k2="1" k3="1" k4="0" />
<feColorMatrix  type="matrix" values="0 0 0 0 0  0 0 0 1 0  0 0 0 0 0  0 0 0 0 1" result="displacementYFinal" />
<feComposite in="displacementXFinal" in2="displacementYFinal" operator="arithmetic" k1="0" k2="1" k3="1" k4="0" />
<feComposite in2="displacementAlphasMultiplied" operator="in" result="displacementMap" />
<feFlood flood-color="rgb(127, 127, 127)" flood-opacity="1"/>
<feComposite in2="displacementAlphasMultiplied" operator="out" />
<feComposite in2="displacementMap" operator="over" result="displacementMapWithBg"/>
<feDisplacementMap in="shape" scale="31.399999618530273" xChannelSelector="R" yChannelSelector="G" width="100%" height="100%" result="displacedImage" />
<feColorMatrix in="shape" type="matrix" values="1 0 0 0 0  0 1 0 0 0  0 0 1 0 0  0 0 0 127 0" result="imageOpaque" />
<feDisplacementMap in="imageOpaque" in2="displacementMapWithBg" scale="31.399999618530273" xChannelSelector="R" yChannelSelector="G" width="100%" height="100%" result="displacedImageOpaque" />
<feColorMatrix in="displacedImage" type="matrix" values="0 0 0 1 0  0 0 0 0 0  0 0 0 0 0  0 0 0 127 0" result="displacedImageRed" />
<feColorMatrix in="shape" type="matrix" values="0 0 0 1 0  0 0 0 0 0  0 0 0 0 0  0 0 0 127 0" />
<feComposite in="displacedImageRed"  operator="atop" result="transparencyRedMap"/>
<feColorMatrix in="transparencyRedMap" type="matrix" values="0 0 0 0 0  0 0 0 0 0  0 0 0 0 0  1 0 0 0 0" result="transparencyAlphaMap" />
<feComposite in="displacedImageOpaque" in2="imageOpaque" operator="over" />
<feComposite in2="transparencyAlphaMap" operator="in" result="effect1_texture_16847_78168"/>
</filter>
<filter id="filter4_g_16847_78168" x="34.7766" y="23.9675" width="42.4391" height="44.1046" filterUnits="userSpaceOnUse" color-interpolation-filters="sRGB">
<feFlood flood-opacity="0" result="BackgroundImageFix"/>
<feBlend mode="normal" in="SourceGraphic" in2="BackgroundImageFix" result="shape"/>
<feTurbulence type="fractalNoise" baseFrequency="0.99900001287460327 0.99900001287460327" numOctaves="3" seed="2553" result="displacementX" />
<feTurbulence type="fractalNoise" baseFrequency="0.99900001287460327 0.99900001287460327" numOctaves="3" seed="2554" result="displacementY" />
<feColorMatrix in="displacementX" type="matrix" values="0 0 0 1 0  0 0 0 0 0  0 0 0 0 0  0 0 0 0 1" result="displacementXRed" />
<feColorMatrix in="displacementY" type="matrix" values="0 0 0 0 0  0 0 0 1 0  0 0 0 0 0  0 0 0 0 1" />
<feComposite in="displacementXRed" operator="arithmetic" k1="0" k2="1" k3="1" k4="0"/>
<feDisplacementMap in="shape" scale="31.399999618530273" xChannelSelector="R" yChannelSelector="G" width="100%" height="100%" />
<feColorMatrix type="matrix" values="0 0 0 0 0  0 0 0 0 0  0 0 0 0 0  0 0 0 1 0" />
<feComponentTransfer result="sourceDisplacedAlpha">
<feFuncA type="gamma" exponent="0.2" />
</feComponentTransfer>
<feColorMatrix in="shape" type="matrix" values="0 0 0 0 0  0 0 0 0 0  0 0 0 0 0  0 0 0 1 0" />
<feComponentTransfer result="inputSourceAlpha">
<feFuncA type="gamma" exponent="0.2" />
</feComponentTransfer>
<feComposite in="sourceDisplacedAlpha" operator="arithmetic" k1="1" k2="0" k3="0" k4="0" result="displacementAlphasMultiplied"/>
<feComposite in="displacementAlphasMultiplied"  operator="arithmetic" k1="0" k2="0" k3="-0.5" k4="0.5" result="centeringAdjustment"/>
<feComposite in="displacementX" in2="displacementAlphasMultiplied" operator="arithmetic" k1="1" k2="0" k3="0" k4="0" />
<feComposite in="centeringAdjustment" operator="arithmetic" k1="0" k2="1" k3="1" k4="0" />
<feColorMatrix  type="matrix" values="0 0 0 1 0  0 0 0 0 0  0 0 0 0 0  0 0 0 0 1" result="displacementXFinal" />
<feComposite in="displacementY" in2="displacementAlphasMultiplied" operator="arithmetic" k1="1" k2="0" k3="0" k4="0" />
<feComposite in="centeringAdjustment" operator="arithmetic" k1="0" k2="1" k3="1" k4="0" />
<feColorMatrix  type="matrix" values="0 0 0 0 0  0 0 0 1 0  0 0 0 0 0  0 0 0 0 1" result="displacementYFinal" />
<feComposite in="displacementXFinal" in2="displacementYFinal" operator="arithmetic" k1="0" k2="1" k3="1" k4="0" />
<feComposite in2="displacementAlphasMultiplied" operator="in" result="displacementMap" />
<feFlood flood-color="rgb(127, 127, 127)" flood-opacity="1"/>
<feComposite in2="displacementAlphasMultiplied" operator="out" />
<feComposite in2="displacementMap" operator="over" result="displacementMapWithBg"/>
<feDisplacementMap in="shape" scale="31.399999618530273" xChannelSelector="R" yChannelSelector="G" width="100%" height="100%" result="displacedImage" />
<feColorMatrix in="shape" type="matrix" values="1 0 0 0 0  0 1 0 0 0  0 0 1 0 0  0 0 0 127 0" result="imageOpaque" />
<feDisplacementMap in="imageOpaque" in2="displacementMapWithBg" scale="31.399999618530273" xChannelSelector="R" yChannelSelector="G" width="100%" height="100%" result="displacedImageOpaque" />
<feColorMatrix in="displacedImage" type="matrix" values="0 0 0 1 0  0 0 0 0 0  0 0 0 0 0  0 0 0 127 0" result="displacedImageRed" />
<feColorMatrix in="shape" type="matrix" values="0 0 0 1 0  0 0 0 0 0  0 0 0 0 0  0 0 0 127 0" />
<feComposite in="displacedImageRed"  operator="atop" result="transparencyRedMap"/>
<feColorMatrix in="transparencyRedMap" type="matrix" values="0 0 0 0 0  0 0 0 0 0  0 0 0 0 0  1 0 0 0 0" result="transparencyAlphaMap" />
<feComposite in="displacedImageOpaque" in2="imageOpaque" operator="over" />
<feComposite in2="transparencyAlphaMap" operator="in" result="effect1_texture_16847_78168"/>
</filter>
<filter id="filter5_g_16847_78168" x="35.5422" y="-5.7" width="112.47" height="79.651" filterUnits="userSpaceOnUse" color-interpolation-filters="sRGB">
<feFlood flood-opacity="0" result="BackgroundImageFix"/>
<feBlend mode="normal" in="SourceGraphic" in2="BackgroundImageFix" result="shape"/>
<feTurbulence type="fractalNoise" baseFrequency="0.99900001287460327 0.99900001287460327" numOctaves="3" seed="2553" result="displacementX" />
<feTurbulence type="fractalNoise" baseFrequency="0.99900001287460327 0.99900001287460327" numOctaves="3" seed="2554" result="displacementY" />
<feColorMatrix in="displacementX" type="matrix" values="0 0 0 1 0  0 0 0 0 0  0 0 0 0 0  0 0 0 0 1" result="displacementXRed" />
<feColorMatrix in="displacementY" type="matrix" values="0 0 0 0 0  0 0 0 1 0  0 0 0 0 0  0 0 0 0 1" />
<feComposite in="displacementXRed" operator="arithmetic" k1="0" k2="1" k3="1" k4="0"/>
<feDisplacementMap in="shape" scale="31.399999618530273" xChannelSelector="R" yChannelSelector="G" width="100%" height="100%" />
<feColorMatrix type="matrix" values="0 0 0 0 0  0 0 0 0 0  0 0 0 0 0  0 0 0 1 0" />
<feComponentTransfer result="sourceDisplacedAlpha">
<feFuncA type="gamma" exponent="0.2" />
</feComponentTransfer>
<feColorMatrix in="shape" type="matrix" values="0 0 0 0 0  0 0 0 0 0  0 0 0 0 0  0 0 0 1 0" />
<feComponentTransfer result="inputSourceAlpha">
<feFuncA type="gamma" exponent="0.2" />
</feComponentTransfer>
<feComposite in="sourceDisplacedAlpha" operator="arithmetic" k1="1" k2="0" k3="0" k4="0" result="displacementAlphasMultiplied"/>
<feComposite in="displacementAlphasMultiplied"  operator="arithmetic" k1="0" k2="0" k3="-0.5" k4="0.5" result="centeringAdjustment"/>
<feComposite in="displacementX" in2="displacementAlphasMultiplied" operator="arithmetic" k1="1" k2="0" k3="0" k4="0" />
<feComposite in="centeringAdjustment" operator="arithmetic" k1="0" k2="1" k3="1" k4="0" />
<feColorMatrix  type="matrix" values="0 0 0 1 0  0 0 0 0 0  0 0 0 0 0  0 0 0 0 1" result="displacementXFinal" />
<feComposite in="displacementY" in2="displacementAlphasMultiplied" operator="arithmetic" k1="1" k2="0" k3="0" k4="0" />
<feComposite in="centeringAdjustment" operator="arithmetic" k1="0" k2="1" k3="1" k4="0" />
<feColorMatrix  type="matrix" values="0 0 0 0 0  0 0 0 1 0  0 0 0 0 0  0 0 0 0 1" result="displacementYFinal" />
<feComposite in="displacementXFinal" in2="displacementYFinal" operator="arithmetic" k1="0" k2="1" k3="1" k4="0" />
<feComposite in2="displacementAlphasMultiplied" operator="in" result="displacementMap" />
<feFlood flood-color="rgb(127, 127, 127)" flood-opacity="1"/>
<feComposite in2="displacementAlphasMultiplied" operator="out" />
<feComposite in2="displacementMap" operator="over" result="displacementMapWithBg"/>
<feDisplacementMap in="shape" scale="31.399999618530273" xChannelSelector="R" yChannelSelector="G" width="100%" height="100%" result="displacedImage" />
<feColorMatrix in="shape" type="matrix" values="1 0 0 0 0  0 1 0 0 0  0 0 1 0 0  0 0 0 127 0" result="imageOpaque" />
<feDisplacementMap in="imageOpaque" in2="displacementMapWithBg" scale="31.399999618530273" xChannelSelector="R" yChannelSelector="G" width="100%" height="100%" result="displacedImageOpaque" />
<feColorMatrix in="displacedImage" type="matrix" values="0 0 0 1 0  0 0 0 0 0  0 0 0 0 0  0 0 0 127 0" result="displacedImageRed" />
<feColorMatrix in="shape" type="matrix" values="0 0 0 1 0  0 0 0 0 0  0 0 0 0 0  0 0 0 127 0" />
<feComposite in="displacedImageRed"  operator="atop" result="transparencyRedMap"/>
<feColorMatrix in="transparencyRedMap" type="matrix" values="0 0 0 0 0  0 0 0 0 0  0 0 0 0 0  1 0 0 0 0" result="transparencyAlphaMap" />
<feComposite in="displacedImageOpaque" in2="imageOpaque" operator="over" />
<feComposite in2="transparencyAlphaMap" operator="in" result="effect1_texture_16847_78168"/>
</filter>
<clipPath id="paint6_diamond_16847_78168_clip_path"><path d="M50.4844 57.5769C53.4002 57.5769 54.6711 56.3502 54.6711 53.3901C54.6711 56.3502 55.9332 57.5769 58.8579 57.5769C55.9332 57.5769 54.6711 58.839 54.6711 61.7636C54.6711 58.839 53.4002 57.5769 50.4844 57.5769Z"/></clipPath><clipPath id="paint7_diamond_16847_78168_clip_path"><path d="M82.4531 86.5032C85.369 86.5032 86.6399 85.2764 86.6399 82.3164C86.6399 85.2764 87.9019 86.5032 90.8266 86.5032C87.9019 86.5032 86.6399 87.7652 86.6399 90.6899C86.6399 87.7652 85.369 86.5032 82.4531 86.5032Z"/></clipPath><clipPath id="paint8_diamond_16847_78168_clip_path"><path d="M80 67.1867C82.9158 67.1867 84.1867 65.96 84.1867 63C84.1867 65.96 85.4488 67.1867 88.3735 67.1867C85.4488 67.1867 84.1867 68.4488 84.1867 71.3735C84.1867 68.4488 82.9158 67.1867 80 67.1867Z"/></clipPath><linearGradient id="paint0_linear_16847_78168" x1="65.3203" y1="95.602" x2="75.9775" y2="95.602" gradientUnits="userSpaceOnUse">
<stop stop-color="#A663FF" stop-opacity="0.3"/>
<stop offset="1" stop-color="#643B99"/>
</linearGradient>
<linearGradient id="paint1_linear_16847_78168" x1="71.7969" y1="94.5475" x2="82.8347" y2="94.5475" gradientUnits="userSpaceOnUse">
<stop stop-color="#A663FF" stop-opacity="0.3"/>
<stop offset="1" stop-color="#643B99"/>
</linearGradient>
<linearGradient id="paint2_linear_16847_78168" x1="1" y1="106.442" x2="82.0707" y2="106.442" gradientUnits="userSpaceOnUse">
<stop stop-color="#A663FF" stop-opacity="0.3"/>
<stop offset="1" stop-color="#643B99"/>
</linearGradient>
<linearGradient id="paint3_linear_16847_78168" x1="67.9922" y1="44.9653" x2="57.335" y2="44.9653" gradientUnits="userSpaceOnUse">
<stop stop-color="#A663FF" stop-opacity="0.3"/>
<stop offset="1" stop-color="#643B99"/>
</linearGradient>
<linearGradient id="paint4_linear_16847_78168" x1="61.5156" y1="46.0199" x2="50.4778" y2="46.0199" gradientUnits="userSpaceOnUse">
<stop stop-color="#A663FF" stop-opacity="0.3"/>
<stop offset="1" stop-color="#643B99"/>
</linearGradient>
<linearGradient id="paint5_linear_16847_78168" x1="132.312" y1="34.1256" x2="51.2418" y2="34.1256" gradientUnits="userSpaceOnUse">
<stop stop-color="#A663FF" stop-opacity="0.3"/>
<stop offset="1" stop-color="#643B99"/>
</linearGradient>
<linearGradient id="paint6_diamond_16847_78168" x1="0" y1="0" x2="500" y2="500" gradientUnits="userSpaceOnUse">
<stop stop-color="#EFE4FF"/>
<stop offset="1" stop-color="#806C99"/>
</linearGradient>
<linearGradient id="paint7_diamond_16847_78168" x1="0" y1="0" x2="500" y2="500" gradientUnits="userSpaceOnUse">
<stop stop-color="#EFE4FF"/>
<stop offset="1" stop-color="#806C99"/>
</linearGradient>
<linearGradient id="paint8_diamond_16847_78168" x1="0" y1="0" x2="500" y2="500" gradientUnits="userSpaceOnUse">
<stop stop-color="#EFE4FF"/>
<stop offset="1" stop-color="#806C99"/>
</linearGradient>
<clipPath id="clip0_16847_78168">
<rect width="19.7919" height="19.7919" fill="white" transform="translate(60.375 61.7632)"/>
</clipPath>
</defs>
</svg>
