<svg width="173" height="159" viewBox="0 0 173 159" fill="none" xmlns="http://www.w3.org/2000/svg">
<g filter="url(#filter0_g_16839_77951)">
<path d="M95.5 104.386C95.1 107.586 88 116.719 84.5 120.886C85.7 122.086 91.6667 120.052 94.5 118.886C95.5 117.886 98.5 106.886 98.5 104.886C98.5 103.286 96 103.385 95.5 104.386Z" fill="#F0E5FF"/>
<path d="M95.5 104.386C95.1 107.586 88 116.719 84.5 120.886C85.7 122.086 91.6667 120.052 94.5 118.886C95.5 117.886 98.5 106.886 98.5 104.886C98.5 103.286 96 103.385 95.5 104.386Z" fill="url(#paint0_linear_16839_77951)" fill-opacity="0.6"/>
</g>
<g filter="url(#filter1_g_16839_77951)">
<path d="M104 103.886C103.333 104.885 100 110.885 93 119.117C94.2 120.317 100.167 117.552 103 116.386C104 115.386 107.5 105.886 107.5 103.886C107.5 102.286 105 102.385 104 103.886Z" fill="#F0E5FF"/>
<path d="M104 103.886C103.333 104.885 100 110.885 93 119.117C94.2 120.317 100.167 117.552 103 116.386C104 115.386 107.5 105.886 107.5 103.886C107.5 102.286 105 102.385 104 103.886Z" fill="url(#paint1_linear_16839_77951)" fill-opacity="0.6"/>
</g>
<g filter="url(#filter2_g_16839_77951)">
<path d="M16 124.885L0 139.385L16.5 158.385C16.9 155.585 25.6667 147.885 30 144.385C33.2 142.785 42 141.885 46 141.385C62.5 140.885 76.5 134.385 77.5 133.885C78.3 133.485 82 131.719 84 130.385C106.5 122.885 106.5 117.385 106.5 116.885C106.5 116.385 105 114.885 103 115.885C101.4 116.686 92.3333 119.552 88 120.885H75.5L47.5 114.885C48.5 111.385 76.5 104.385 74 96.3854C73.5 95.5521 73 94.3855 70.5 95.3854C68.643 96.1281 55.4718 100.261 48.5 101.385C33 103.885 26.5 108.885 21.5 116.885C19.412 120.226 17.1667 123.719 16 124.885Z" fill="#F0E5FF"/>
<path d="M16 124.885L0 139.385L16.5 158.385C16.9 155.585 25.6667 147.885 30 144.385C33.2 142.785 42 141.885 46 141.385C62.5 140.885 76.5 134.385 77.5 133.885C78.3 133.485 82 131.719 84 130.385C106.5 122.885 106.5 117.385 106.5 116.885C106.5 116.385 105 114.885 103 115.885C101.4 116.686 92.3333 119.552 88 120.885H75.5L47.5 114.885C48.5 111.385 76.5 104.385 74 96.3854C73.5 95.5521 73 94.3855 70.5 95.3854C68.643 96.1281 55.4718 100.261 48.5 101.385C33 103.885 26.5 108.885 21.5 116.885C19.412 120.226 17.1667 123.719 16 124.885Z" fill="url(#paint2_linear_16839_77951)" fill-opacity="0.6"/>
</g>
<g filter="url(#filter3_g_16839_77951)">
<path d="M77 53.9999C77.4 50.7999 84.5 41.6665 88 37.4999C86.8 36.2998 80.8333 38.3332 78 39.5C77 40.5 74 51.4999 74 53.4999C74 55.0999 76.5 55 77 53.9999Z" fill="#F0E5FF"/>
<path d="M77 53.9999C77.4 50.7999 84.5 41.6665 88 37.4999C86.8 36.2998 80.8333 38.3332 78 39.5C77 40.5 74 51.4999 74 53.4999C74 55.0999 76.5 55 77 53.9999Z" fill="url(#paint3_linear_16839_77951)" fill-opacity="0.6"/>
</g>
<g filter="url(#filter4_g_16839_77951)">
<path d="M68.5 54.4999C69.1666 53.5 72.5 47.5 79.5 39.2689C78.3 38.0688 72.3333 40.8332 69.5 41.9999C68.5 42.9999 65 52.4997 65 54.4997C65 56.0997 67.5 56 68.5 54.4999Z" fill="#F0E5FF"/>
<path d="M68.5 54.4999C69.1666 53.5 72.5 47.5 79.5 39.2689C78.3 38.0688 72.3333 40.8332 69.5 41.9999C68.5 42.9999 65 52.4997 65 54.4997C65 56.0997 67.5 56 68.5 54.4999Z" fill="url(#paint4_linear_16839_77951)" fill-opacity="0.6"/>
</g>
<g filter="url(#filter5_g_16839_77951)">
<path d="M156.5 33.5001L172.5 19.0001L156 0C155.6 2.8 146.833 10.5 142.5 14C139.3 15.6 130.5 16.5 126.5 17C110 17.5 96 24 95 24.5C94.2 24.9 90.5 26.6667 88.5 28C66 35.5 66 41 66 41.5001C66 42.0002 67.5 43.5 69.5 42.5C71.1 41.7 80.1667 38.8333 84.5 37.5H97L125 43.5C124 47 96 54 98.5 62.0001C99 62.8334 99.5 64 102 63.0001C103.857 62.2574 117.028 58.1246 124 57.0001C139.5 54.5 146 49.5001 151 41.5001C153.088 38.1594 155.333 34.6668 156.5 33.5001Z" fill="#F0E5FF"/>
<path d="M156.5 33.5001L172.5 19.0001L156 0C155.6 2.8 146.833 10.5 142.5 14C139.3 15.6 130.5 16.5 126.5 17C110 17.5 96 24 95 24.5C94.2 24.9 90.5 26.6667 88.5 28C66 35.5 66 41 66 41.5001C66 42.0002 67.5 43.5 69.5 42.5C71.1 41.7 80.1667 38.8333 84.5 37.5H97L125 43.5C124 47 96 54 98.5 62.0001C99 62.8334 99.5 64 102 63.0001C103.857 62.2574 117.028 58.1246 124 57.0001C139.5 54.5 146 49.5001 151 41.5001C153.088 38.1594 155.333 34.6668 156.5 33.5001Z" fill="url(#paint5_linear_16839_77951)" fill-opacity="0.6"/>
</g>
<g clip-path="url(#clip0_16839_77951)">
<path d="M78.3359 70.1328L86.9708 68.3616L86.593 74.0572L78.3359 70.1328Z" fill="#E0C9FF"/>
<path d="M82.2197 81.9953L78.3359 70.1328L86.593 74.0572L82.2197 81.9953Z" fill="#E0CAFD"/>
<path d="M91.0588 80.939L86.592 74.0571L82.2188 81.9953L91.0588 80.939Z" fill="#CCABF8"/>
<path d="M101.87 93.6629L103.641 85.0281L97.9453 85.4059L101.87 93.6629Z" fill="#8B84F9"/>
<path d="M90.0078 89.779L101.87 93.6628L97.9459 85.4058L90.0078 89.779Z" fill="#E0CAFD"/>
<path d="M91.0641 80.939L97.9459 85.4057L90.0078 89.779L91.0641 80.939Z" fill="#E0C9FF"/>
<path d="M90.0025 89.779L91.0588 80.939L82.2188 81.9952L90.0025 89.779Z" fill="#B2EBF2"/>
<path d="M93.4269 70.3502L101.649 78.5727L103.638 85.028L97.9423 85.4058L91.0605 80.9391L86.5938 74.0572L86.9716 68.3616L93.4269 70.3502Z" fill="#B3E5FC"/>
<path d="M78.4538 93.545L78.3359 70.1328L82.2197 81.9953L78.4538 93.545Z" fill="#B787F6"/>
<path d="M78.4531 93.545L101.865 93.6628L90.0028 89.7791L78.4531 93.545Z" fill="#B3E5FC"/>
<path d="M90.0028 89.7791L78.4531 93.545L82.2191 81.9954L90.0028 89.7791Z" fill="#E0C9FF"/>
</g>
<g clip-path="url(#paint6_diamond_16839_77951_clip_path)" data-figma-skip-parse="true"><g transform="matrix(0 0.0055 -0.0055 0 70.5 62.5)"><rect x="0" y="0" width="1272.73" height="1272.73" fill="url(#paint6_diamond_16839_77951)" opacity="1" shape-rendering="crispEdges"/><rect x="0" y="0" width="1272.73" height="1272.73" transform="scale(1 -1)" fill="url(#paint6_diamond_16839_77951)" opacity="1" shape-rendering="crispEdges"/><rect x="0" y="0" width="1272.73" height="1272.73" transform="scale(-1 1)" fill="url(#paint6_diamond_16839_77951)" opacity="1" shape-rendering="crispEdges"/><rect x="0" y="0" width="1272.73" height="1272.73" transform="scale(-1)" fill="url(#paint6_diamond_16839_77951)" opacity="1" shape-rendering="crispEdges"/></g></g><path d="M65 62.5C68.8304 62.5 70.5 60.8885 70.5 57C70.5 60.8885 72.1579 62.5 76 62.5C72.1579 62.5 70.5 64.1579 70.5 68C70.5 64.1579 68.8304 62.5 65 62.5Z" data-figma-gradient-fill="{&#34;type&#34;:&#34;GRADIENT_DIAMOND&#34;,&#34;stops&#34;:[{&#34;color&#34;:{&#34;r&#34;:0.93905729055404663,&#34;g&#34;:0.89245402812957764,&#34;b&#34;:1.0,&#34;a&#34;:1.0},&#34;position&#34;:0.0},{&#34;color&#34;:{&#34;r&#34;:0.50090545415878296,&#34;g&#34;:0.42512723803520203,&#34;b&#34;:0.60000002384185791,&#34;a&#34;:1.0},&#34;position&#34;:1.0}],&#34;stopsVar&#34;:[{&#34;color&#34;:{&#34;r&#34;:0.93905729055404663,&#34;g&#34;:0.89245402812957764,&#34;b&#34;:1.0,&#34;a&#34;:1.0},&#34;position&#34;:0.0},{&#34;color&#34;:{&#34;r&#34;:0.50090545415878296,&#34;g&#34;:0.42512723803520203,&#34;b&#34;:0.60000002384185791,&#34;a&#34;:1.0},&#34;position&#34;:1.0}],&#34;transform&#34;:{&#34;m00&#34;:6.7355578215673212e-16,&#34;m01&#34;:-11.0,&#34;m02&#34;:76.0,&#34;m10&#34;:11.0,&#34;m11&#34;:6.7355578215673212e-16,&#34;m12&#34;:57.0},&#34;opacity&#34;:1.0,&#34;blendMode&#34;:&#34;NORMAL&#34;,&#34;visible&#34;:true}"/>
<g clip-path="url(#paint7_diamond_16839_77951_clip_path)" data-figma-skip-parse="true"><g transform="matrix(0 0.0055 -0.0055 0 123.5 62.5)"><rect x="0" y="0" width="1272.73" height="1272.73" fill="url(#paint7_diamond_16839_77951)" opacity="1" shape-rendering="crispEdges"/><rect x="0" y="0" width="1272.73" height="1272.73" transform="scale(1 -1)" fill="url(#paint7_diamond_16839_77951)" opacity="1" shape-rendering="crispEdges"/><rect x="0" y="0" width="1272.73" height="1272.73" transform="scale(-1 1)" fill="url(#paint7_diamond_16839_77951)" opacity="1" shape-rendering="crispEdges"/><rect x="0" y="0" width="1272.73" height="1272.73" transform="scale(-1)" fill="url(#paint7_diamond_16839_77951)" opacity="1" shape-rendering="crispEdges"/></g></g><path d="M118 62.5C121.83 62.5 123.5 60.8885 123.5 57C123.5 60.8885 125.158 62.5 129 62.5C125.158 62.5 123.5 64.1579 123.5 68C123.5 64.1579 121.83 62.5 118 62.5Z" data-figma-gradient-fill="{&#34;type&#34;:&#34;GRADIENT_DIAMOND&#34;,&#34;stops&#34;:[{&#34;color&#34;:{&#34;r&#34;:0.93905729055404663,&#34;g&#34;:0.89245402812957764,&#34;b&#34;:1.0,&#34;a&#34;:1.0},&#34;position&#34;:0.0},{&#34;color&#34;:{&#34;r&#34;:0.50090545415878296,&#34;g&#34;:0.42512723803520203,&#34;b&#34;:0.60000002384185791,&#34;a&#34;:1.0},&#34;position&#34;:1.0}],&#34;stopsVar&#34;:[{&#34;color&#34;:{&#34;r&#34;:0.93905729055404663,&#34;g&#34;:0.89245402812957764,&#34;b&#34;:1.0,&#34;a&#34;:1.0},&#34;position&#34;:0.0},{&#34;color&#34;:{&#34;r&#34;:0.50090545415878296,&#34;g&#34;:0.42512723803520203,&#34;b&#34;:0.60000002384185791,&#34;a&#34;:1.0},&#34;position&#34;:1.0}],&#34;transform&#34;:{&#34;m00&#34;:6.7355578215673212e-16,&#34;m01&#34;:-11.0,&#34;m02&#34;:129.0,&#34;m10&#34;:11.0,&#34;m11&#34;:6.7355578215673212e-16,&#34;m12&#34;:57.0},&#34;opacity&#34;:1.0,&#34;blendMode&#34;:&#34;NORMAL&#34;,&#34;visible&#34;:true}"/>
<g clip-path="url(#paint8_diamond_16839_77951_clip_path)" data-figma-skip-parse="true"><g transform="matrix(0 0.0055 -0.0055 0 112.5 100.5)"><rect x="0" y="0" width="1272.73" height="1272.73" fill="url(#paint8_diamond_16839_77951)" opacity="1" shape-rendering="crispEdges"/><rect x="0" y="0" width="1272.73" height="1272.73" transform="scale(1 -1)" fill="url(#paint8_diamond_16839_77951)" opacity="1" shape-rendering="crispEdges"/><rect x="0" y="0" width="1272.73" height="1272.73" transform="scale(-1 1)" fill="url(#paint8_diamond_16839_77951)" opacity="1" shape-rendering="crispEdges"/><rect x="0" y="0" width="1272.73" height="1272.73" transform="scale(-1)" fill="url(#paint8_diamond_16839_77951)" opacity="1" shape-rendering="crispEdges"/></g></g><path d="M107 100.5C110.83 100.5 112.5 98.8885 112.5 95C112.5 98.8885 114.158 100.5 118 100.5C114.158 100.5 112.5 102.158 112.5 106C112.5 102.158 110.83 100.5 107 100.5Z" data-figma-gradient-fill="{&#34;type&#34;:&#34;GRADIENT_DIAMOND&#34;,&#34;stops&#34;:[{&#34;color&#34;:{&#34;r&#34;:0.93905729055404663,&#34;g&#34;:0.89245402812957764,&#34;b&#34;:1.0,&#34;a&#34;:1.0},&#34;position&#34;:0.0},{&#34;color&#34;:{&#34;r&#34;:0.50090545415878296,&#34;g&#34;:0.42512723803520203,&#34;b&#34;:0.60000002384185791,&#34;a&#34;:1.0},&#34;position&#34;:1.0}],&#34;stopsVar&#34;:[{&#34;color&#34;:{&#34;r&#34;:0.93905729055404663,&#34;g&#34;:0.89245402812957764,&#34;b&#34;:1.0,&#34;a&#34;:1.0},&#34;position&#34;:0.0},{&#34;color&#34;:{&#34;r&#34;:0.50090545415878296,&#34;g&#34;:0.42512723803520203,&#34;b&#34;:0.60000002384185791,&#34;a&#34;:1.0},&#34;position&#34;:1.0}],&#34;transform&#34;:{&#34;m00&#34;:6.7355578215673212e-16,&#34;m01&#34;:-11.0,&#34;m02&#34;:118.0,&#34;m10&#34;:11.0,&#34;m11&#34;:6.7355578215673212e-16,&#34;m12&#34;:95.0},&#34;opacity&#34;:1.0,&#34;blendMode&#34;:&#34;NORMAL&#34;,&#34;visible&#34;:true}"/>
<defs>
<filter id="filter0_g_16839_77951" x="68.8" y="87.9548" width="45.4" height="48.9972" filterUnits="userSpaceOnUse" color-interpolation-filters="sRGB">
<feFlood flood-opacity="0" result="BackgroundImageFix"/>
<feBlend mode="normal" in="SourceGraphic" in2="BackgroundImageFix" result="shape"/>
<feTurbulence type="fractalNoise" baseFrequency="0.99900001287460327 0.99900001287460327" numOctaves="3" seed="2553" result="displacementX" />
<feTurbulence type="fractalNoise" baseFrequency="0.99900001287460327 0.99900001287460327" numOctaves="3" seed="2554" result="displacementY" />
<feColorMatrix in="displacementX" type="matrix" values="0 0 0 1 0  0 0 0 0 0  0 0 0 0 0  0 0 0 0 1" result="displacementXRed" />
<feColorMatrix in="displacementY" type="matrix" values="0 0 0 0 0  0 0 0 1 0  0 0 0 0 0  0 0 0 0 1" />
<feComposite in="displacementXRed" operator="arithmetic" k1="0" k2="1" k3="1" k4="0"/>
<feDisplacementMap in="shape" scale="31.399999618530273" xChannelSelector="R" yChannelSelector="G" width="100%" height="100%" />
<feColorMatrix type="matrix" values="0 0 0 0 0  0 0 0 0 0  0 0 0 0 0  0 0 0 1 0" />
<feComponentTransfer result="sourceDisplacedAlpha">
<feFuncA type="gamma" exponent="0.2" />
</feComponentTransfer>
<feColorMatrix in="shape" type="matrix" values="0 0 0 0 0  0 0 0 0 0  0 0 0 0 0  0 0 0 1 0" />
<feComponentTransfer result="inputSourceAlpha">
<feFuncA type="gamma" exponent="0.2" />
</feComponentTransfer>
<feComposite in="sourceDisplacedAlpha" operator="arithmetic" k1="1" k2="0" k3="0" k4="0" result="displacementAlphasMultiplied"/>
<feComposite in="displacementAlphasMultiplied"  operator="arithmetic" k1="0" k2="0" k3="-0.5" k4="0.5" result="centeringAdjustment"/>
<feComposite in="displacementX" in2="displacementAlphasMultiplied" operator="arithmetic" k1="1" k2="0" k3="0" k4="0" />
<feComposite in="centeringAdjustment" operator="arithmetic" k1="0" k2="1" k3="1" k4="0" />
<feColorMatrix  type="matrix" values="0 0 0 1 0  0 0 0 0 0  0 0 0 0 0  0 0 0 0 1" result="displacementXFinal" />
<feComposite in="displacementY" in2="displacementAlphasMultiplied" operator="arithmetic" k1="1" k2="0" k3="0" k4="0" />
<feComposite in="centeringAdjustment" operator="arithmetic" k1="0" k2="1" k3="1" k4="0" />
<feColorMatrix  type="matrix" values="0 0 0 0 0  0 0 0 1 0  0 0 0 0 0  0 0 0 0 1" result="displacementYFinal" />
<feComposite in="displacementXFinal" in2="displacementYFinal" operator="arithmetic" k1="0" k2="1" k3="1" k4="0" />
<feComposite in2="displacementAlphasMultiplied" operator="in" result="displacementMap" />
<feFlood flood-color="rgb(127, 127, 127)" flood-opacity="1"/>
<feComposite in2="displacementAlphasMultiplied" operator="out" />
<feComposite in2="displacementMap" operator="over" result="displacementMapWithBg"/>
<feDisplacementMap in="shape" scale="31.399999618530273" xChannelSelector="R" yChannelSelector="G" width="100%" height="100%" result="displacedImage" />
<feColorMatrix in="shape" type="matrix" values="1 0 0 0 0  0 1 0 0 0  0 0 1 0 0  0 0 0 127 0" result="imageOpaque" />
<feDisplacementMap in="imageOpaque" in2="displacementMapWithBg" scale="31.399999618530273" xChannelSelector="R" yChannelSelector="G" width="100%" height="100%" result="displacedImageOpaque" />
<feColorMatrix in="displacedImage" type="matrix" values="0 0 0 1 0  0 0 0 0 0  0 0 0 0 0  0 0 0 127 0" result="displacedImageRed" />
<feColorMatrix in="shape" type="matrix" values="0 0 0 1 0  0 0 0 0 0  0 0 0 0 0  0 0 0 127 0" />
<feComposite in="displacedImageRed"  operator="atop" result="transparencyRedMap"/>
<feColorMatrix in="transparencyRedMap" type="matrix" values="0 0 0 0 0  0 0 0 0 0  0 0 0 0 0  1 0 0 0 0" result="transparencyAlphaMap" />
<feComposite in="displacedImageOpaque" in2="imageOpaque" operator="over" />
<feComposite in2="transparencyAlphaMap" operator="in" result="effect1_texture_16839_77951"/>
</filter>
<filter id="filter1_g_16839_77951" x="77.3" y="87.0229" width="45.9" height="48.0895" filterUnits="userSpaceOnUse" color-interpolation-filters="sRGB">
<feFlood flood-opacity="0" result="BackgroundImageFix"/>
<feBlend mode="normal" in="SourceGraphic" in2="BackgroundImageFix" result="shape"/>
<feTurbulence type="fractalNoise" baseFrequency="0.99900001287460327 0.99900001287460327" numOctaves="3" seed="2553" result="displacementX" />
<feTurbulence type="fractalNoise" baseFrequency="0.99900001287460327 0.99900001287460327" numOctaves="3" seed="2554" result="displacementY" />
<feColorMatrix in="displacementX" type="matrix" values="0 0 0 1 0  0 0 0 0 0  0 0 0 0 0  0 0 0 0 1" result="displacementXRed" />
<feColorMatrix in="displacementY" type="matrix" values="0 0 0 0 0  0 0 0 1 0  0 0 0 0 0  0 0 0 0 1" />
<feComposite in="displacementXRed" operator="arithmetic" k1="0" k2="1" k3="1" k4="0"/>
<feDisplacementMap in="shape" scale="31.399999618530273" xChannelSelector="R" yChannelSelector="G" width="100%" height="100%" />
<feColorMatrix type="matrix" values="0 0 0 0 0  0 0 0 0 0  0 0 0 0 0  0 0 0 1 0" />
<feComponentTransfer result="sourceDisplacedAlpha">
<feFuncA type="gamma" exponent="0.2" />
</feComponentTransfer>
<feColorMatrix in="shape" type="matrix" values="0 0 0 0 0  0 0 0 0 0  0 0 0 0 0  0 0 0 1 0" />
<feComponentTransfer result="inputSourceAlpha">
<feFuncA type="gamma" exponent="0.2" />
</feComponentTransfer>
<feComposite in="sourceDisplacedAlpha" operator="arithmetic" k1="1" k2="0" k3="0" k4="0" result="displacementAlphasMultiplied"/>
<feComposite in="displacementAlphasMultiplied"  operator="arithmetic" k1="0" k2="0" k3="-0.5" k4="0.5" result="centeringAdjustment"/>
<feComposite in="displacementX" in2="displacementAlphasMultiplied" operator="arithmetic" k1="1" k2="0" k3="0" k4="0" />
<feComposite in="centeringAdjustment" operator="arithmetic" k1="0" k2="1" k3="1" k4="0" />
<feColorMatrix  type="matrix" values="0 0 0 1 0  0 0 0 0 0  0 0 0 0 0  0 0 0 0 1" result="displacementXFinal" />
<feComposite in="displacementY" in2="displacementAlphasMultiplied" operator="arithmetic" k1="1" k2="0" k3="0" k4="0" />
<feComposite in="centeringAdjustment" operator="arithmetic" k1="0" k2="1" k3="1" k4="0" />
<feColorMatrix  type="matrix" values="0 0 0 0 0  0 0 0 1 0  0 0 0 0 0  0 0 0 0 1" result="displacementYFinal" />
<feComposite in="displacementXFinal" in2="displacementYFinal" operator="arithmetic" k1="0" k2="1" k3="1" k4="0" />
<feComposite in2="displacementAlphasMultiplied" operator="in" result="displacementMap" />
<feFlood flood-color="rgb(127, 127, 127)" flood-opacity="1"/>
<feComposite in2="displacementAlphasMultiplied" operator="out" />
<feComposite in2="displacementMap" operator="over" result="displacementMapWithBg"/>
<feDisplacementMap in="shape" scale="31.399999618530273" xChannelSelector="R" yChannelSelector="G" width="100%" height="100%" result="displacedImage" />
<feColorMatrix in="shape" type="matrix" values="1 0 0 0 0  0 1 0 0 0  0 0 1 0 0  0 0 0 127 0" result="imageOpaque" />
<feDisplacementMap in="imageOpaque" in2="displacementMapWithBg" scale="31.399999618530273" xChannelSelector="R" yChannelSelector="G" width="100%" height="100%" result="displacedImageOpaque" />
<feColorMatrix in="displacedImage" type="matrix" values="0 0 0 1 0  0 0 0 0 0  0 0 0 0 0  0 0 0 127 0" result="displacedImageRed" />
<feColorMatrix in="shape" type="matrix" values="0 0 0 1 0  0 0 0 0 0  0 0 0 0 0  0 0 0 127 0" />
<feComposite in="displacedImageRed"  operator="atop" result="transparencyRedMap"/>
<feColorMatrix in="transparencyRedMap" type="matrix" values="0 0 0 0 0  0 0 0 0 0  0 0 0 0 0  1 0 0 0 0" result="transparencyAlphaMap" />
<feComposite in="displacedImageOpaque" in2="imageOpaque" operator="over" />
<feComposite in2="transparencyAlphaMap" operator="in" result="effect1_texture_16839_77951"/>
</filter>
<filter id="filter2_g_16839_77951" x="-15.7" y="79.3" width="137.9" height="94.7855" filterUnits="userSpaceOnUse" color-interpolation-filters="sRGB">
<feFlood flood-opacity="0" result="BackgroundImageFix"/>
<feBlend mode="normal" in="SourceGraphic" in2="BackgroundImageFix" result="shape"/>
<feTurbulence type="fractalNoise" baseFrequency="0.99900001287460327 0.99900001287460327" numOctaves="3" seed="2553" result="displacementX" />
<feTurbulence type="fractalNoise" baseFrequency="0.99900001287460327 0.99900001287460327" numOctaves="3" seed="2554" result="displacementY" />
<feColorMatrix in="displacementX" type="matrix" values="0 0 0 1 0  0 0 0 0 0  0 0 0 0 0  0 0 0 0 1" result="displacementXRed" />
<feColorMatrix in="displacementY" type="matrix" values="0 0 0 0 0  0 0 0 1 0  0 0 0 0 0  0 0 0 0 1" />
<feComposite in="displacementXRed" operator="arithmetic" k1="0" k2="1" k3="1" k4="0"/>
<feDisplacementMap in="shape" scale="31.399999618530273" xChannelSelector="R" yChannelSelector="G" width="100%" height="100%" />
<feColorMatrix type="matrix" values="0 0 0 0 0  0 0 0 0 0  0 0 0 0 0  0 0 0 1 0" />
<feComponentTransfer result="sourceDisplacedAlpha">
<feFuncA type="gamma" exponent="0.2" />
</feComponentTransfer>
<feColorMatrix in="shape" type="matrix" values="0 0 0 0 0  0 0 0 0 0  0 0 0 0 0  0 0 0 1 0" />
<feComponentTransfer result="inputSourceAlpha">
<feFuncA type="gamma" exponent="0.2" />
</feComponentTransfer>
<feComposite in="sourceDisplacedAlpha" operator="arithmetic" k1="1" k2="0" k3="0" k4="0" result="displacementAlphasMultiplied"/>
<feComposite in="displacementAlphasMultiplied"  operator="arithmetic" k1="0" k2="0" k3="-0.5" k4="0.5" result="centeringAdjustment"/>
<feComposite in="displacementX" in2="displacementAlphasMultiplied" operator="arithmetic" k1="1" k2="0" k3="0" k4="0" />
<feComposite in="centeringAdjustment" operator="arithmetic" k1="0" k2="1" k3="1" k4="0" />
<feColorMatrix  type="matrix" values="0 0 0 1 0  0 0 0 0 0  0 0 0 0 0  0 0 0 0 1" result="displacementXFinal" />
<feComposite in="displacementY" in2="displacementAlphasMultiplied" operator="arithmetic" k1="1" k2="0" k3="0" k4="0" />
<feComposite in="centeringAdjustment" operator="arithmetic" k1="0" k2="1" k3="1" k4="0" />
<feColorMatrix  type="matrix" values="0 0 0 0 0  0 0 0 1 0  0 0 0 0 0  0 0 0 0 1" result="displacementYFinal" />
<feComposite in="displacementXFinal" in2="displacementYFinal" operator="arithmetic" k1="0" k2="1" k3="1" k4="0" />
<feComposite in2="displacementAlphasMultiplied" operator="in" result="displacementMap" />
<feFlood flood-color="rgb(127, 127, 127)" flood-opacity="1"/>
<feComposite in2="displacementAlphasMultiplied" operator="out" />
<feComposite in2="displacementMap" operator="over" result="displacementMapWithBg"/>
<feDisplacementMap in="shape" scale="31.399999618530273" xChannelSelector="R" yChannelSelector="G" width="100%" height="100%" result="displacedImage" />
<feColorMatrix in="shape" type="matrix" values="1 0 0 0 0  0 1 0 0 0  0 0 1 0 0  0 0 0 127 0" result="imageOpaque" />
<feDisplacementMap in="imageOpaque" in2="displacementMapWithBg" scale="31.399999618530273" xChannelSelector="R" yChannelSelector="G" width="100%" height="100%" result="displacedImageOpaque" />
<feColorMatrix in="displacedImage" type="matrix" values="0 0 0 1 0  0 0 0 0 0  0 0 0 0 0  0 0 0 127 0" result="displacedImageRed" />
<feColorMatrix in="shape" type="matrix" values="0 0 0 1 0  0 0 0 0 0  0 0 0 0 0  0 0 0 127 0" />
<feComposite in="displacedImageRed"  operator="atop" result="transparencyRedMap"/>
<feColorMatrix in="transparencyRedMap" type="matrix" values="0 0 0 0 0  0 0 0 0 0  0 0 0 0 0  1 0 0 0 0" result="transparencyAlphaMap" />
<feComposite in="displacedImageOpaque" in2="imageOpaque" operator="over" />
<feComposite in2="transparencyAlphaMap" operator="in" result="effect1_texture_16839_77951"/>
</filter>
<filter id="filter3_g_16839_77951" x="58.3" y="21.4335" width="45.4" height="48.9972" filterUnits="userSpaceOnUse" color-interpolation-filters="sRGB">
<feFlood flood-opacity="0" result="BackgroundImageFix"/>
<feBlend mode="normal" in="SourceGraphic" in2="BackgroundImageFix" result="shape"/>
<feTurbulence type="fractalNoise" baseFrequency="0.99900001287460327 0.99900001287460327" numOctaves="3" seed="2553" result="displacementX" />
<feTurbulence type="fractalNoise" baseFrequency="0.99900001287460327 0.99900001287460327" numOctaves="3" seed="2554" result="displacementY" />
<feColorMatrix in="displacementX" type="matrix" values="0 0 0 1 0  0 0 0 0 0  0 0 0 0 0  0 0 0 0 1" result="displacementXRed" />
<feColorMatrix in="displacementY" type="matrix" values="0 0 0 0 0  0 0 0 1 0  0 0 0 0 0  0 0 0 0 1" />
<feComposite in="displacementXRed" operator="arithmetic" k1="0" k2="1" k3="1" k4="0"/>
<feDisplacementMap in="shape" scale="31.399999618530273" xChannelSelector="R" yChannelSelector="G" width="100%" height="100%" />
<feColorMatrix type="matrix" values="0 0 0 0 0  0 0 0 0 0  0 0 0 0 0  0 0 0 1 0" />
<feComponentTransfer result="sourceDisplacedAlpha">
<feFuncA type="gamma" exponent="0.2" />
</feComponentTransfer>
<feColorMatrix in="shape" type="matrix" values="0 0 0 0 0  0 0 0 0 0  0 0 0 0 0  0 0 0 1 0" />
<feComponentTransfer result="inputSourceAlpha">
<feFuncA type="gamma" exponent="0.2" />
</feComponentTransfer>
<feComposite in="sourceDisplacedAlpha" operator="arithmetic" k1="1" k2="0" k3="0" k4="0" result="displacementAlphasMultiplied"/>
<feComposite in="displacementAlphasMultiplied"  operator="arithmetic" k1="0" k2="0" k3="-0.5" k4="0.5" result="centeringAdjustment"/>
<feComposite in="displacementX" in2="displacementAlphasMultiplied" operator="arithmetic" k1="1" k2="0" k3="0" k4="0" />
<feComposite in="centeringAdjustment" operator="arithmetic" k1="0" k2="1" k3="1" k4="0" />
<feColorMatrix  type="matrix" values="0 0 0 1 0  0 0 0 0 0  0 0 0 0 0  0 0 0 0 1" result="displacementXFinal" />
<feComposite in="displacementY" in2="displacementAlphasMultiplied" operator="arithmetic" k1="1" k2="0" k3="0" k4="0" />
<feComposite in="centeringAdjustment" operator="arithmetic" k1="0" k2="1" k3="1" k4="0" />
<feColorMatrix  type="matrix" values="0 0 0 0 0  0 0 0 1 0  0 0 0 0 0  0 0 0 0 1" result="displacementYFinal" />
<feComposite in="displacementXFinal" in2="displacementYFinal" operator="arithmetic" k1="0" k2="1" k3="1" k4="0" />
<feComposite in2="displacementAlphasMultiplied" operator="in" result="displacementMap" />
<feFlood flood-color="rgb(127, 127, 127)" flood-opacity="1"/>
<feComposite in2="displacementAlphasMultiplied" operator="out" />
<feComposite in2="displacementMap" operator="over" result="displacementMapWithBg"/>
<feDisplacementMap in="shape" scale="31.399999618530273" xChannelSelector="R" yChannelSelector="G" width="100%" height="100%" result="displacedImage" />
<feColorMatrix in="shape" type="matrix" values="1 0 0 0 0  0 1 0 0 0  0 0 1 0 0  0 0 0 127 0" result="imageOpaque" />
<feDisplacementMap in="imageOpaque" in2="displacementMapWithBg" scale="31.399999618530273" xChannelSelector="R" yChannelSelector="G" width="100%" height="100%" result="displacedImageOpaque" />
<feColorMatrix in="displacedImage" type="matrix" values="0 0 0 1 0  0 0 0 0 0  0 0 0 0 0  0 0 0 127 0" result="displacedImageRed" />
<feColorMatrix in="shape" type="matrix" values="0 0 0 1 0  0 0 0 0 0  0 0 0 0 0  0 0 0 127 0" />
<feComposite in="displacedImageRed"  operator="atop" result="transparencyRedMap"/>
<feColorMatrix in="transparencyRedMap" type="matrix" values="0 0 0 0 0  0 0 0 0 0  0 0 0 0 0  1 0 0 0 0" result="transparencyAlphaMap" />
<feComposite in="displacedImageOpaque" in2="imageOpaque" operator="over" />
<feComposite in2="transparencyAlphaMap" operator="in" result="effect1_texture_16839_77951"/>
</filter>
<filter id="filter4_g_16839_77951" x="49.3" y="23.2731" width="45.9" height="48.0895" filterUnits="userSpaceOnUse" color-interpolation-filters="sRGB">
<feFlood flood-opacity="0" result="BackgroundImageFix"/>
<feBlend mode="normal" in="SourceGraphic" in2="BackgroundImageFix" result="shape"/>
<feTurbulence type="fractalNoise" baseFrequency="0.99900001287460327 0.99900001287460327" numOctaves="3" seed="2553" result="displacementX" />
<feTurbulence type="fractalNoise" baseFrequency="0.99900001287460327 0.99900001287460327" numOctaves="3" seed="2554" result="displacementY" />
<feColorMatrix in="displacementX" type="matrix" values="0 0 0 1 0  0 0 0 0 0  0 0 0 0 0  0 0 0 0 1" result="displacementXRed" />
<feColorMatrix in="displacementY" type="matrix" values="0 0 0 0 0  0 0 0 1 0  0 0 0 0 0  0 0 0 0 1" />
<feComposite in="displacementXRed" operator="arithmetic" k1="0" k2="1" k3="1" k4="0"/>
<feDisplacementMap in="shape" scale="31.399999618530273" xChannelSelector="R" yChannelSelector="G" width="100%" height="100%" />
<feColorMatrix type="matrix" values="0 0 0 0 0  0 0 0 0 0  0 0 0 0 0  0 0 0 1 0" />
<feComponentTransfer result="sourceDisplacedAlpha">
<feFuncA type="gamma" exponent="0.2" />
</feComponentTransfer>
<feColorMatrix in="shape" type="matrix" values="0 0 0 0 0  0 0 0 0 0  0 0 0 0 0  0 0 0 1 0" />
<feComponentTransfer result="inputSourceAlpha">
<feFuncA type="gamma" exponent="0.2" />
</feComponentTransfer>
<feComposite in="sourceDisplacedAlpha" operator="arithmetic" k1="1" k2="0" k3="0" k4="0" result="displacementAlphasMultiplied"/>
<feComposite in="displacementAlphasMultiplied"  operator="arithmetic" k1="0" k2="0" k3="-0.5" k4="0.5" result="centeringAdjustment"/>
<feComposite in="displacementX" in2="displacementAlphasMultiplied" operator="arithmetic" k1="1" k2="0" k3="0" k4="0" />
<feComposite in="centeringAdjustment" operator="arithmetic" k1="0" k2="1" k3="1" k4="0" />
<feColorMatrix  type="matrix" values="0 0 0 1 0  0 0 0 0 0  0 0 0 0 0  0 0 0 0 1" result="displacementXFinal" />
<feComposite in="displacementY" in2="displacementAlphasMultiplied" operator="arithmetic" k1="1" k2="0" k3="0" k4="0" />
<feComposite in="centeringAdjustment" operator="arithmetic" k1="0" k2="1" k3="1" k4="0" />
<feColorMatrix  type="matrix" values="0 0 0 0 0  0 0 0 1 0  0 0 0 0 0  0 0 0 0 1" result="displacementYFinal" />
<feComposite in="displacementXFinal" in2="displacementYFinal" operator="arithmetic" k1="0" k2="1" k3="1" k4="0" />
<feComposite in2="displacementAlphasMultiplied" operator="in" result="displacementMap" />
<feFlood flood-color="rgb(127, 127, 127)" flood-opacity="1"/>
<feComposite in2="displacementAlphasMultiplied" operator="out" />
<feComposite in2="displacementMap" operator="over" result="displacementMapWithBg"/>
<feDisplacementMap in="shape" scale="31.399999618530273" xChannelSelector="R" yChannelSelector="G" width="100%" height="100%" result="displacedImage" />
<feColorMatrix in="shape" type="matrix" values="1 0 0 0 0  0 1 0 0 0  0 0 1 0 0  0 0 0 127 0" result="imageOpaque" />
<feDisplacementMap in="imageOpaque" in2="displacementMapWithBg" scale="31.399999618530273" xChannelSelector="R" yChannelSelector="G" width="100%" height="100%" result="displacedImageOpaque" />
<feColorMatrix in="displacedImage" type="matrix" values="0 0 0 1 0  0 0 0 0 0  0 0 0 0 0  0 0 0 127 0" result="displacedImageRed" />
<feColorMatrix in="shape" type="matrix" values="0 0 0 1 0  0 0 0 0 0  0 0 0 0 0  0 0 0 127 0" />
<feComposite in="displacedImageRed"  operator="atop" result="transparencyRedMap"/>
<feColorMatrix in="transparencyRedMap" type="matrix" values="0 0 0 0 0  0 0 0 0 0  0 0 0 0 0  1 0 0 0 0" result="transparencyAlphaMap" />
<feComposite in="displacedImageOpaque" in2="imageOpaque" operator="over" />
<feComposite in2="transparencyAlphaMap" operator="in" result="effect1_texture_16839_77951"/>
</filter>
<filter id="filter5_g_16839_77951" x="50.3" y="-15.7" width="137.9" height="94.7855" filterUnits="userSpaceOnUse" color-interpolation-filters="sRGB">
<feFlood flood-opacity="0" result="BackgroundImageFix"/>
<feBlend mode="normal" in="SourceGraphic" in2="BackgroundImageFix" result="shape"/>
<feTurbulence type="fractalNoise" baseFrequency="0.99900001287460327 0.99900001287460327" numOctaves="3" seed="2553" result="displacementX" />
<feTurbulence type="fractalNoise" baseFrequency="0.99900001287460327 0.99900001287460327" numOctaves="3" seed="2554" result="displacementY" />
<feColorMatrix in="displacementX" type="matrix" values="0 0 0 1 0  0 0 0 0 0  0 0 0 0 0  0 0 0 0 1" result="displacementXRed" />
<feColorMatrix in="displacementY" type="matrix" values="0 0 0 0 0  0 0 0 1 0  0 0 0 0 0  0 0 0 0 1" />
<feComposite in="displacementXRed" operator="arithmetic" k1="0" k2="1" k3="1" k4="0"/>
<feDisplacementMap in="shape" scale="31.399999618530273" xChannelSelector="R" yChannelSelector="G" width="100%" height="100%" />
<feColorMatrix type="matrix" values="0 0 0 0 0  0 0 0 0 0  0 0 0 0 0  0 0 0 1 0" />
<feComponentTransfer result="sourceDisplacedAlpha">
<feFuncA type="gamma" exponent="0.2" />
</feComponentTransfer>
<feColorMatrix in="shape" type="matrix" values="0 0 0 0 0  0 0 0 0 0  0 0 0 0 0  0 0 0 1 0" />
<feComponentTransfer result="inputSourceAlpha">
<feFuncA type="gamma" exponent="0.2" />
</feComponentTransfer>
<feComposite in="sourceDisplacedAlpha" operator="arithmetic" k1="1" k2="0" k3="0" k4="0" result="displacementAlphasMultiplied"/>
<feComposite in="displacementAlphasMultiplied"  operator="arithmetic" k1="0" k2="0" k3="-0.5" k4="0.5" result="centeringAdjustment"/>
<feComposite in="displacementX" in2="displacementAlphasMultiplied" operator="arithmetic" k1="1" k2="0" k3="0" k4="0" />
<feComposite in="centeringAdjustment" operator="arithmetic" k1="0" k2="1" k3="1" k4="0" />
<feColorMatrix  type="matrix" values="0 0 0 1 0  0 0 0 0 0  0 0 0 0 0  0 0 0 0 1" result="displacementXFinal" />
<feComposite in="displacementY" in2="displacementAlphasMultiplied" operator="arithmetic" k1="1" k2="0" k3="0" k4="0" />
<feComposite in="centeringAdjustment" operator="arithmetic" k1="0" k2="1" k3="1" k4="0" />
<feColorMatrix  type="matrix" values="0 0 0 0 0  0 0 0 1 0  0 0 0 0 0  0 0 0 0 1" result="displacementYFinal" />
<feComposite in="displacementXFinal" in2="displacementYFinal" operator="arithmetic" k1="0" k2="1" k3="1" k4="0" />
<feComposite in2="displacementAlphasMultiplied" operator="in" result="displacementMap" />
<feFlood flood-color="rgb(127, 127, 127)" flood-opacity="1"/>
<feComposite in2="displacementAlphasMultiplied" operator="out" />
<feComposite in2="displacementMap" operator="over" result="displacementMapWithBg"/>
<feDisplacementMap in="shape" scale="31.399999618530273" xChannelSelector="R" yChannelSelector="G" width="100%" height="100%" result="displacedImage" />
<feColorMatrix in="shape" type="matrix" values="1 0 0 0 0  0 1 0 0 0  0 0 1 0 0  0 0 0 127 0" result="imageOpaque" />
<feDisplacementMap in="imageOpaque" in2="displacementMapWithBg" scale="31.399999618530273" xChannelSelector="R" yChannelSelector="G" width="100%" height="100%" result="displacedImageOpaque" />
<feColorMatrix in="displacedImage" type="matrix" values="0 0 0 1 0  0 0 0 0 0  0 0 0 0 0  0 0 0 127 0" result="displacedImageRed" />
<feColorMatrix in="shape" type="matrix" values="0 0 0 1 0  0 0 0 0 0  0 0 0 0 0  0 0 0 127 0" />
<feComposite in="displacedImageRed"  operator="atop" result="transparencyRedMap"/>
<feColorMatrix in="transparencyRedMap" type="matrix" values="0 0 0 0 0  0 0 0 0 0  0 0 0 0 0  1 0 0 0 0" result="transparencyAlphaMap" />
<feComposite in="displacedImageOpaque" in2="imageOpaque" operator="over" />
<feComposite in2="transparencyAlphaMap" operator="in" result="effect1_texture_16839_77951"/>
</filter>
<clipPath id="paint6_diamond_16839_77951_clip_path"><path d="M65 62.5C68.8304 62.5 70.5 60.8885 70.5 57C70.5 60.8885 72.1579 62.5 76 62.5C72.1579 62.5 70.5 64.1579 70.5 68C70.5 64.1579 68.8304 62.5 65 62.5Z"/></clipPath><clipPath id="paint7_diamond_16839_77951_clip_path"><path d="M118 62.5C121.83 62.5 123.5 60.8885 123.5 57C123.5 60.8885 125.158 62.5 129 62.5C125.158 62.5 123.5 64.1579 123.5 68C123.5 64.1579 121.83 62.5 118 62.5Z"/></clipPath><clipPath id="paint8_diamond_16839_77951_clip_path"><path d="M107 100.5C110.83 100.5 112.5 98.8885 112.5 95C112.5 98.8885 114.158 100.5 118 100.5C114.158 100.5 112.5 102.158 112.5 106C112.5 102.158 110.83 100.5 107 100.5Z"/></clipPath><linearGradient id="paint0_linear_16839_77951" x1="84.5" y1="112.453" x2="98.5" y2="112.453" gradientUnits="userSpaceOnUse">
<stop stop-color="#A663FF" stop-opacity="0.3"/>
<stop offset="1" stop-color="#643B99"/>
</linearGradient>
<linearGradient id="paint1_linear_16839_77951" x1="93" y1="111.068" x2="107.5" y2="111.068" gradientUnits="userSpaceOnUse">
<stop stop-color="#A663FF" stop-opacity="0.3"/>
<stop offset="1" stop-color="#643B99"/>
</linearGradient>
<linearGradient id="paint2_linear_16839_77951" x1="0" y1="126.693" x2="106.5" y2="126.693" gradientUnits="userSpaceOnUse">
<stop stop-color="#A663FF" stop-opacity="0.3"/>
<stop offset="1" stop-color="#643B99"/>
</linearGradient>
<linearGradient id="paint3_linear_16839_77951" x1="88" y1="45.9321" x2="74" y2="45.9321" gradientUnits="userSpaceOnUse">
<stop stop-color="#A663FF" stop-opacity="0.3"/>
<stop offset="1" stop-color="#643B99"/>
</linearGradient>
<linearGradient id="paint4_linear_16839_77951" x1="79.5" y1="47.3179" x2="65" y2="47.3179" gradientUnits="userSpaceOnUse">
<stop stop-color="#A663FF" stop-opacity="0.3"/>
<stop offset="1" stop-color="#643B99"/>
</linearGradient>
<linearGradient id="paint5_linear_16839_77951" x1="172.5" y1="31.6927" x2="66" y2="31.6927" gradientUnits="userSpaceOnUse">
<stop stop-color="#A663FF" stop-opacity="0.3"/>
<stop offset="1" stop-color="#643B99"/>
</linearGradient>
<linearGradient id="paint6_diamond_16839_77951" x1="0" y1="0" x2="500" y2="500" gradientUnits="userSpaceOnUse">
<stop stop-color="#EFE4FF"/>
<stop offset="1" stop-color="#806C99"/>
</linearGradient>
<linearGradient id="paint7_diamond_16839_77951" x1="0" y1="0" x2="500" y2="500" gradientUnits="userSpaceOnUse">
<stop stop-color="#EFE4FF"/>
<stop offset="1" stop-color="#806C99"/>
</linearGradient>
<linearGradient id="paint8_diamond_16839_77951" x1="0" y1="0" x2="500" y2="500" gradientUnits="userSpaceOnUse">
<stop stop-color="#EFE4FF"/>
<stop offset="1" stop-color="#806C99"/>
</linearGradient>
<clipPath id="clip0_16839_77951">
<rect width="26" height="26" fill="white" transform="translate(78 68)"/>
</clipPath>
</defs>
</svg>
