<svg width="133" height="140" viewBox="0 0 133 140" fill="none" xmlns="http://www.w3.org/2000/svg">
<g clip-path="url(#clip0_16847_78209)">
<path d="M129.602 105.849L122.38 98.6278C121.798 98.0531 121.021 97.7174 120.203 97.6871C119.385 97.6569 118.586 97.9341 117.962 98.4642C116.999 99.2836 115.764 99.7114 114.501 99.6629C113.238 99.6144 112.039 99.0931 111.142 98.2024C110.251 97.3054 109.73 96.1068 109.682 94.844C109.633 93.5811 110.061 92.3461 110.88 91.3835C111.41 90.76 111.687 89.9605 111.657 89.1426C111.627 88.3248 111.291 87.5479 110.716 86.9653L103.488 79.7357C102.877 79.1261 102.05 78.7837 101.187 78.7837C100.324 78.7837 99.4959 79.1261 98.885 79.7357L87.3731 91.2461C86.6625 91.9595 86.1265 92.8276 85.807 93.7825C85.7449 93.9661 85.6412 94.1329 85.5042 94.27C85.3671 94.407 85.2003 94.5107 85.0167 94.5729C84.0613 94.8922 83.1931 95.4289 82.4803 96.1405L52.9599 125.661C52.3502 126.272 52.0078 127.099 52.0078 127.963C52.0078 128.826 52.3502 129.653 52.9599 130.264L60.1894 137.485C60.772 138.06 61.5489 138.396 62.3667 138.426C63.1846 138.456 63.9841 138.179 64.6077 137.649C65.568 136.823 66.8051 136.39 68.0709 136.438C69.3368 136.486 70.5379 137.01 71.4336 137.905C72.3294 138.801 72.8535 140.002 72.901 141.268C72.9486 142.534 72.516 143.771 71.6899 144.731C71.1598 145.355 70.8826 146.154 70.9129 146.972C70.9432 147.79 71.2788 148.567 71.8536 149.15L79.075 156.371C79.6858 156.981 80.5135 157.323 81.3765 157.323C82.2395 157.323 83.0673 156.981 83.6781 156.371L113.199 126.851C113.91 126.138 114.447 125.271 114.766 124.316C114.828 124.132 114.932 123.964 115.069 123.827C115.207 123.689 115.374 123.586 115.558 123.524C116.513 123.204 117.38 122.668 118.093 121.958L129.603 110.446C130.211 109.835 130.552 109.009 130.551 108.147C130.551 107.286 130.21 106.46 129.602 105.849ZM92.2315 100.997C91.9884 101.24 91.6997 101.433 91.382 101.565C91.0643 101.697 90.7238 101.764 90.3799 101.764C90.036 101.764 89.6955 101.697 89.3778 101.565C89.0601 101.433 88.7715 101.24 88.5284 100.997L86.6449 99.1138C86.1658 98.6203 85.9002 97.9582 85.9053 97.2704C85.9105 96.5827 86.1861 95.9246 86.6725 95.4384C87.159 94.9522 87.8172 94.6769 88.5049 94.672C89.1927 94.6671 89.8547 94.9331 90.348 95.4123L92.2315 97.2942C92.4747 97.5373 92.6676 97.826 92.7992 98.1437C92.9308 98.4613 92.9986 98.8019 92.9986 99.1457C92.9986 99.4896 92.9308 99.8301 92.7992 100.148C92.6676 100.466 92.4747 100.754 92.2315 100.997ZM99.4316 108.197C98.9406 108.688 98.2749 108.964 97.5808 108.964C96.8867 108.964 96.221 108.688 95.7301 108.197L93.9301 106.397C93.439 105.906 93.1631 105.24 93.1631 104.546C93.1631 103.851 93.439 103.185 93.9301 102.694C94.4211 102.203 95.0872 101.927 95.7816 101.927C96.4761 101.927 97.1421 102.203 97.6332 102.694L99.4332 104.494C99.6773 104.737 99.8709 105.026 100.003 105.344C100.135 105.662 100.203 106.003 100.204 106.348C100.204 106.692 100.136 107.034 100.004 107.352C99.8721 107.67 99.6787 107.959 99.4349 108.202L99.4316 108.197ZM106.632 115.398C106.389 115.641 106.1 115.834 105.782 115.965C105.465 116.097 105.124 116.165 104.78 116.165C104.436 116.165 104.096 116.097 103.778 115.965C103.46 115.834 103.172 115.641 102.929 115.398L101.129 113.597C100.649 113.104 100.384 112.442 100.389 111.754C100.394 111.066 100.67 110.408 101.156 109.922C101.643 109.436 102.301 109.161 102.989 109.156C103.676 109.151 104.338 109.417 104.832 109.896L106.632 111.696C106.876 111.939 107.071 112.227 107.204 112.545C107.337 112.863 107.405 113.204 107.406 113.549C107.407 113.894 107.34 114.235 107.208 114.554C107.077 114.872 106.884 115.162 106.64 115.406L106.632 115.398ZM113.902 122.686C113.659 122.929 113.37 123.122 113.053 123.254C112.735 123.385 112.394 123.453 112.051 123.453C111.707 123.453 111.366 123.385 111.048 123.254C110.731 123.122 110.442 122.929 110.199 122.686L108.327 120.804C108.079 120.562 107.881 120.272 107.746 119.953C107.61 119.633 107.54 119.29 107.538 118.943C107.536 118.596 107.604 118.252 107.736 117.932C107.868 117.611 108.063 117.32 108.309 117.075C108.555 116.83 108.847 116.637 109.169 116.506C109.49 116.375 109.834 116.309 110.181 116.313C110.528 116.316 110.871 116.388 111.19 116.525C111.509 116.662 111.797 116.861 112.038 117.111L113.912 118.991C114.155 119.234 114.348 119.523 114.479 119.841C114.611 120.159 114.678 120.499 114.678 120.843C114.678 121.187 114.61 121.527 114.478 121.845C114.347 122.163 114.154 122.451 113.91 122.694L113.902 122.686Z" fill="url(#paint0_linear_16847_78209)"/>
<g filter="url(#filter0_d_16847_78209)">
<path d="M108.603 51.2383L94.0759 44.5694C92.9081 44.0428 91.5854 43.9729 90.3686 44.3735C89.1519 44.774 88.1293 45.6159 87.5026 46.7332C86.5357 48.4595 84.9554 49.7596 83.0751 50.3757C81.1948 50.9919 79.1516 50.8792 77.3505 50.0599C75.5558 49.228 74.139 47.7525 73.3807 45.9255C72.6225 44.0985 72.578 42.0533 73.2561 40.1951C73.6948 38.9915 73.6666 37.6673 73.1772 36.4835C72.6877 35.2997 71.7725 34.3422 70.612 33.7999L56.0707 27.1225C54.8425 26.5602 53.4414 26.508 52.1749 26.9776C50.9083 27.4471 49.8798 28.4 49.3151 29.6271L38.6829 52.7834C38.0282 54.217 37.7139 55.7826 37.7646 57.3579C37.7733 57.6612 37.712 57.9624 37.5854 58.2381C37.4588 58.5139 37.2704 58.7567 37.0347 58.9479C35.8065 59.9364 34.8243 61.1963 34.1653 62.6286L6.9032 122.015C6.34082 123.243 6.2887 124.644 6.75826 125.911C7.22782 127.177 8.18071 128.206 9.40778 128.77L23.947 135.435C25.1148 135.961 26.4375 136.031 27.6543 135.631C28.8711 135.23 29.8936 134.388 30.5203 133.271C31.4803 131.536 33.0604 130.228 34.944 129.609C36.8277 128.99 38.8756 129.106 40.6775 129.933C42.4795 130.76 43.9022 132.238 44.6607 134.07C45.4193 135.902 45.4575 137.953 44.7677 139.812C44.329 141.015 44.3572 142.339 44.8466 143.523C45.3361 144.707 46.2513 145.664 47.4119 146.207L61.9391 152.876C63.1673 153.438 64.5684 153.49 65.8349 153.021C67.1015 152.551 68.13 151.598 68.6947 150.371L95.9568 90.9849C96.6133 89.5523 96.9287 87.987 96.8783 86.4119C96.8689 86.1079 96.9301 85.8058 97.057 85.5294C97.1839 85.253 97.3731 85.0097 97.6097 84.8186C98.8368 83.8306 99.8184 82.5719 100.478 81.1412L111.107 57.9834C111.666 56.7565 111.716 55.3581 111.247 54.0941C110.778 52.8301 109.827 51.8033 108.603 51.2383ZM51.1188 64.4508C50.8943 64.94 50.5756 65.3802 50.181 65.7462C49.7863 66.1122 49.3234 66.3969 48.8188 66.584C48.3141 66.7711 47.7775 66.857 47.2396 66.8367C46.7018 66.8164 46.1732 66.6903 45.684 66.4657L41.895 64.7263C40.9235 64.2627 40.1733 63.4355 39.8067 62.4233C39.4401 61.4111 39.4865 60.2954 39.9358 59.3171C40.3852 58.3389 41.2014 57.5767 42.2081 57.1954C43.2147 56.814 44.3311 56.8441 45.3158 57.2791L49.1039 59.0161C49.5931 59.2406 50.0332 59.5592 50.3993 59.9539C50.7653 60.3485 51.05 60.8114 51.2371 61.3161C51.4242 61.8208 51.51 62.3573 51.4897 62.8952C51.4694 63.4331 51.3434 63.9617 51.1188 64.4508ZM65.6032 71.1001C65.1496 72.0873 64.3226 72.854 63.304 73.2316C62.2853 73.6093 61.1584 73.567 60.1709 73.1141L56.5498 71.4518C55.5619 70.9983 54.7946 70.1709 54.4168 69.1517C54.0389 68.1325 54.0814 67.0049 54.5349 66.017C54.9884 65.0291 55.8158 64.2619 56.835 63.884C57.8542 63.5062 58.9817 63.5486 59.9696 64.0021L63.5907 65.6645C64.0812 65.8885 64.5225 66.2071 64.8896 66.602C65.2567 66.9969 65.5422 67.4603 65.7299 67.9658C65.9175 68.4712 66.0036 69.0088 65.9831 69.5475C65.9627 70.0863 65.8361 70.6157 65.6107 71.1055L65.6032 71.1001ZM80.0877 77.7494C79.8632 78.2386 79.5445 78.6787 79.1499 79.0448C78.7552 79.4108 78.2923 79.6955 77.7877 79.8826C77.283 80.0697 76.7464 80.1555 76.2085 80.1352C75.6707 80.1149 75.1421 79.9889 74.6529 79.7643L71.0318 78.1019C70.0603 77.6384 69.3101 76.8111 68.9435 75.7989C68.5769 74.7868 68.6233 73.671 69.0726 72.6928C69.5219 71.7145 70.3382 70.9524 71.3449 70.571C72.3515 70.1897 73.4679 70.2197 74.4526 70.6547L78.0737 72.317C78.5649 72.5401 79.0072 72.858 79.3753 73.2524C79.7433 73.6468 80.0299 74.1099 80.2186 74.6154C80.4072 75.1208 80.4942 75.6584 80.4746 76.1976C80.4549 76.7367 80.329 77.2666 80.1041 77.7569L80.0877 77.7494ZM94.7235 84.4901C94.499 84.9793 94.1803 85.4194 93.7857 85.7854C93.391 86.1515 92.9281 86.4362 92.4235 86.6233C91.9188 86.8104 91.3822 86.8962 90.8443 86.8759C90.3065 86.8556 89.7779 86.7296 89.2887 86.505L85.5174 84.7617C85.0212 84.5411 84.5737 84.2239 84.201 83.8288C83.8284 83.4337 83.538 82.9684 83.3468 82.46C83.1555 81.9517 83.0673 81.4104 83.0871 80.8676C83.1069 80.3248 83.2344 79.7914 83.4622 79.2983C83.69 78.8053 84.0135 78.3624 84.414 77.9955C84.8145 77.6286 85.2839 77.345 85.7949 77.1611C86.306 76.9772 86.8485 76.8967 87.391 76.9244C87.9334 76.952 88.4649 77.0872 88.9546 77.3221L92.7274 79.062C93.2165 79.2867 93.6566 79.6056 94.0224 80.0004C94.3883 80.3952 94.6727 80.8582 94.8596 81.3629C95.0465 81.8677 95.1321 82.4043 95.1116 82.9422C95.0911 83.48 94.9648 84.0086 94.7399 84.4976L94.7235 84.4901Z" fill="url(#paint1_linear_16847_78209)"/>
</g>
</g>
<defs>
<filter id="filter0_d_16847_78209" x="-11.8625" y="12.3597" width="141.725" height="163.279" filterUnits="userSpaceOnUse" color-interpolation-filters="sRGB">
<feFlood flood-opacity="0" result="BackgroundImageFix"/>
<feColorMatrix in="SourceAlpha" type="matrix" values="0 0 0 0 0 0 0 0 0 0 0 0 0 0 0 0 0 0 127 0" result="hardAlpha"/>
<feOffset dy="4"/>
<feGaussianBlur stdDeviation="9.15"/>
<feComposite in2="hardAlpha" operator="out"/>
<feColorMatrix type="matrix" values="0 0 0 0 0 0 0 0 0 0 0 0 0 0 0 0 0 0 0.5 0"/>
<feBlend mode="normal" in2="BackgroundImageFix" result="effect1_dropShadow_16847_78209"/>
<feBlend mode="normal" in="SourceGraphic" in2="effect1_dropShadow_16847_78209" result="shape"/>
</filter>
<linearGradient id="paint0_linear_16847_78209" x1="91.2795" y1="78.7837" x2="91.2795" y2="157.323" gradientUnits="userSpaceOnUse">
<stop stop-color="white"/>
<stop offset="1" stop-color="#643B99"/>
</linearGradient>
<linearGradient id="paint1_linear_16847_78209" x1="37.6352" y1="32.368" x2="80.3686" y2="147.632" gradientUnits="userSpaceOnUse">
<stop stop-color="white"/>
<stop offset="1" stop-color="#643B99"/>
</linearGradient>
<clipPath id="clip0_16847_78209">
<rect width="133" height="140" fill="white"/>
</clipPath>
</defs>
</svg>
