<svg width="187" height="191" viewBox="0 0 187 191" fill="none" xmlns="http://www.w3.org/2000/svg">
<path d="M176.781 112.075L168.248 103.543C167.559 102.863 166.641 102.467 165.675 102.431C164.708 102.395 163.764 102.723 163.027 103.349C161.889 104.317 160.43 104.823 158.937 104.766C157.444 104.708 156.028 104.092 154.968 103.04C153.916 101.98 153.3 100.564 153.243 99.0715C153.185 97.5792 153.691 96.1199 154.658 94.9825C155.285 94.2457 155.612 93.301 155.576 92.3346C155.541 91.3682 155.144 90.4503 154.465 89.7618L145.924 81.2192C145.202 80.4988 144.224 80.0942 143.205 80.0942C142.185 80.0942 141.207 80.4988 140.485 81.2192L126.882 94.8201C126.043 95.6631 125.409 96.6888 125.032 97.8172C124.958 98.0341 124.836 98.2312 124.674 98.3932C124.512 98.5552 124.315 98.6776 124.098 98.7511C122.969 99.1285 121.943 99.7626 121.101 100.603L86.2187 135.486C85.4983 136.207 85.0938 137.185 85.0938 138.205C85.0938 139.225 85.4983 140.203 86.2187 140.925L94.7613 149.458C95.4498 150.137 96.3677 150.533 97.3341 150.569C98.3005 150.605 99.2452 150.277 99.982 149.651C101.117 148.675 102.579 148.164 104.074 148.22C105.57 148.276 106.989 148.895 108.048 149.954C109.106 151.012 109.726 152.432 109.782 153.927C109.838 155.423 109.327 156.885 108.351 158.02C107.724 158.756 107.397 159.701 107.432 160.668C107.468 161.634 107.865 162.552 108.544 163.24L117.077 171.773C117.799 172.494 118.777 172.898 119.797 172.898C120.816 172.898 121.794 172.494 122.516 171.773L157.398 136.891C158.239 136.049 158.873 135.024 159.251 133.896C159.324 133.678 159.446 133.481 159.609 133.318C159.771 133.156 159.969 133.033 160.186 132.96C161.314 132.583 162.339 131.95 163.182 131.11L176.782 117.507C177.5 116.785 177.903 115.809 177.903 114.791C177.902 113.773 177.499 112.797 176.781 112.075ZM132.623 106.342C132.336 106.63 131.995 106.858 131.619 107.013C131.244 107.169 130.842 107.249 130.435 107.249C130.029 107.249 129.626 107.169 129.251 107.013C128.876 106.858 128.535 106.63 128.247 106.342L126.022 104.117C125.456 103.534 125.142 102.751 125.148 101.939C125.154 101.126 125.48 100.348 126.054 99.7738C126.629 99.1993 127.407 98.874 128.22 98.8682C129.032 98.8625 129.815 99.1767 130.397 99.743L132.623 101.967C132.91 102.254 133.138 102.595 133.294 102.97C133.449 103.346 133.529 103.748 133.529 104.155C133.529 104.561 133.449 104.963 133.294 105.339C133.138 105.714 132.91 106.055 132.623 106.342ZM141.131 114.85C140.551 115.43 139.764 115.756 138.944 115.756C138.124 115.756 137.337 115.43 136.757 114.85L134.63 112.723C134.05 112.143 133.724 111.356 133.724 110.535C133.724 109.715 134.05 108.928 134.63 108.348C135.21 107.767 135.997 107.441 136.818 107.441C137.639 107.441 138.426 107.767 139.006 108.348L141.133 110.474C141.421 110.762 141.65 111.103 141.806 111.479C141.962 111.855 142.043 112.258 142.043 112.665C142.043 113.072 141.963 113.475 141.807 113.851C141.651 114.227 141.423 114.568 141.135 114.856L141.131 114.85ZM149.639 123.358C149.351 123.645 149.01 123.873 148.635 124.029C148.259 124.184 147.857 124.264 147.451 124.264C147.044 124.264 146.642 124.184 146.267 124.029C145.891 123.873 145.55 123.645 145.263 123.358L143.136 121.231C142.57 120.648 142.256 119.866 142.262 119.053C142.268 118.24 142.594 117.463 143.169 116.888C143.743 116.314 144.521 115.988 145.334 115.982C146.147 115.977 146.929 116.291 147.512 116.857L149.639 118.984C149.928 119.271 150.157 119.612 150.315 119.988C150.472 120.364 150.553 120.767 150.554 121.174C150.555 121.581 150.475 121.985 150.32 122.361C150.164 122.738 149.936 123.08 149.648 123.368L149.639 123.358ZM158.23 131.97C157.942 132.258 157.601 132.486 157.226 132.641C156.85 132.797 156.448 132.877 156.042 132.877C155.635 132.877 155.233 132.797 154.858 132.641C154.482 132.486 154.141 132.258 153.854 131.97L151.642 129.747C151.348 129.46 151.115 129.118 150.955 128.741C150.795 128.363 150.711 127.958 150.709 127.548C150.707 127.138 150.787 126.731 150.943 126.352C151.1 125.973 151.33 125.629 151.621 125.34C151.911 125.051 152.257 124.822 152.636 124.668C153.016 124.513 153.423 124.435 153.833 124.439C154.243 124.443 154.648 124.529 155.025 124.691C155.401 124.853 155.742 125.088 156.027 125.382L158.241 127.604C158.528 127.892 158.756 128.233 158.912 128.608C159.067 128.984 159.147 129.386 159.147 129.792C159.146 130.199 159.066 130.601 158.911 130.976C158.755 131.352 158.527 131.693 158.239 131.98L158.23 131.97Z" fill="url(#paint0_linear_16494_72207)"/>
<g filter="url(#filter0_d_16494_72207)">
<path d="M151.961 47.5461L134.795 39.666C133.415 39.0438 131.852 38.9612 130.414 39.4345C128.977 39.9078 127.768 40.9026 127.028 42.2228C125.885 44.2627 124.018 45.7989 121.796 46.5269C119.574 47.255 117.16 47.1218 115.032 46.1538C112.911 45.1708 111.237 43.4272 110.341 41.2684C109.445 39.1096 109.392 36.693 110.194 34.4972C110.712 33.0751 110.679 31.5103 110.1 30.1115C109.522 28.7127 108.441 27.5814 107.069 26.9405L89.887 19.0504C88.4357 18.3859 86.7802 18.3243 85.2836 18.8791C83.787 19.434 82.5717 20.5599 81.9044 22.0098L69.3411 49.3719C68.5675 51.0659 68.1961 52.9159 68.2561 54.7772C68.2663 55.1356 68.1939 55.4915 68.0443 55.8173C67.8947 56.1431 67.6721 56.4301 67.3936 56.656C65.9423 57.824 64.7817 59.3128 64.003 61.0052L31.7895 131.178C31.125 132.629 31.0634 134.284 31.6182 135.781C32.1731 137.277 33.299 138.493 34.749 139.16L51.9289 147.035C53.3088 147.657 54.8717 147.74 56.3095 147.266C57.7472 146.793 58.9555 145.798 59.696 144.478C60.8304 142.428 62.6975 140.883 64.9232 140.151C67.149 139.42 69.5689 139.557 71.6981 140.534C73.8273 141.512 75.5085 143.257 76.4047 145.422C77.301 147.587 77.3461 150.01 76.5311 152.207C76.0128 153.629 76.046 155.193 76.6244 156.592C77.2027 157.991 78.2842 159.122 79.6555 159.763L96.8213 167.643C98.2725 168.308 99.9281 168.37 101.425 167.815C102.921 167.26 104.137 166.134 104.804 164.684L137.017 94.5117C137.793 92.8189 138.166 90.9693 138.106 89.1082C138.095 88.7489 138.167 88.392 138.317 88.0654C138.467 87.7387 138.691 87.4513 138.971 87.2255C140.42 86.058 141.58 84.5707 142.359 82.8801L154.919 55.5163C155.579 54.0666 155.639 52.4143 155.085 50.9206C154.53 49.427 153.407 48.2137 151.961 47.5461ZM84.0357 63.1584C83.7704 63.7364 83.3938 64.2565 82.9275 64.689C82.4612 65.1215 81.9143 65.4579 81.3179 65.679C80.7216 65.9001 80.0875 66.0015 79.452 65.9776C78.8164 65.9536 78.1918 65.8046 77.6139 65.5392L73.1367 63.4839C71.9887 62.9361 71.1023 61.9586 70.6691 60.7626C70.2359 59.5666 70.2907 58.2482 70.8216 57.0923C71.3526 55.9364 72.317 55.0358 73.5066 54.5852C74.6961 54.1346 76.0152 54.1701 77.1787 54.6841L81.6548 56.7366C82.2329 57.0018 82.753 57.3784 83.1855 57.8447C83.618 58.311 83.9544 58.858 84.1755 59.4543C84.3966 60.0506 84.498 60.6847 84.474 61.3202C84.45 61.9558 84.3011 62.5804 84.0357 63.1584ZM101.151 71.0153C100.615 72.1818 99.6377 73.0878 98.434 73.534C97.2303 73.9803 95.8987 73.9303 94.7319 73.3951L90.4531 71.4309C89.2858 70.895 88.3792 69.9174 87.9327 68.7131C87.4862 67.5087 87.5364 66.1764 88.0723 65.0091C88.6081 63.8418 89.5858 62.9351 90.7901 62.4886C91.9944 62.0421 93.3268 62.0924 94.4941 62.6282L98.7729 64.5925C99.3524 64.8572 99.8739 65.2336 100.308 65.7003C100.741 66.1669 101.079 66.7145 101.301 67.3118C101.522 67.909 101.624 68.5442 101.6 69.1808C101.576 69.8174 101.426 70.443 101.16 71.0217L101.151 71.0153ZM118.266 78.8723C118.001 79.4503 117.624 79.9705 117.158 80.4029C116.692 80.8354 116.145 81.1718 115.548 81.3929C114.952 81.614 114.318 81.7155 113.682 81.6915C113.047 81.6675 112.422 81.5185 111.844 81.2531L107.565 79.2889C106.417 78.7411 105.531 77.7636 105.098 76.5676C104.665 75.3716 104.719 74.0532 105.25 72.8973C105.781 71.7414 106.746 70.8408 107.935 70.3902C109.125 69.9396 110.444 69.9751 111.607 70.4891L115.886 72.4533C116.467 72.7169 116.989 73.0925 117.424 73.5585C117.859 74.0245 118.198 74.5718 118.421 75.1691C118.644 75.7663 118.746 76.4016 118.723 77.0386C118.7 77.6756 118.551 78.3018 118.285 78.8812L118.266 78.8723ZM135.56 86.8373C135.295 87.4153 134.918 87.9354 134.452 88.3679C133.986 88.8004 133.439 89.1368 132.842 89.3579C132.246 89.579 131.612 89.6804 130.976 89.6564C130.341 89.6325 129.716 89.4835 129.138 89.2181L124.682 87.1583C124.096 86.8975 123.567 86.5228 123.126 86.0559C122.686 85.589 122.343 85.0392 122.117 84.4385C121.891 83.8378 121.787 83.1982 121.81 82.5569C121.834 81.9155 121.984 81.2852 122.253 80.7026C122.523 80.12 122.905 79.5967 123.378 79.1631C123.851 78.7296 124.406 78.3944 125.01 78.1771C125.614 77.9599 126.255 77.8648 126.896 77.8974C127.537 77.9301 128.165 78.0898 128.743 78.3674L133.202 80.4233C133.779 80.6888 134.299 81.0656 134.732 81.5321C135.164 81.9986 135.5 82.5457 135.721 83.1422C135.942 83.7386 136.043 84.3727 136.019 85.0082C135.994 85.6438 135.845 86.2683 135.58 86.8462L135.56 86.8373Z" fill="url(#paint1_linear_16494_72207)"/>
</g>
<defs>
<filter id="filter0_d_16494_72207" x="12.9422" y="4.20342" width="160.819" height="186.287" filterUnits="userSpaceOnUse" color-interpolation-filters="sRGB">
<feFlood flood-opacity="0" result="BackgroundImageFix"/>
<feColorMatrix in="SourceAlpha" type="matrix" values="0 0 0 0 0 0 0 0 0 0 0 0 0 0 0 0 0 0 127 0" result="hardAlpha"/>
<feOffset dy="4"/>
<feGaussianBlur stdDeviation="9.15"/>
<feComposite in2="hardAlpha" operator="out"/>
<feColorMatrix type="matrix" values="0 0 0 0 0 0 0 0 0 0 0 0 0 0 0 0 0 0 0.5 0"/>
<feBlend mode="normal" in2="BackgroundImageFix" result="effect1_dropShadow_16494_72207"/>
<feBlend mode="normal" in="SourceGraphic" in2="effect1_dropShadow_16494_72207" result="shape"/>
</filter>
<linearGradient id="paint0_linear_16494_72207" x1="131.498" y1="80.0942" x2="131.498" y2="172.898" gradientUnits="userSpaceOnUse">
<stop stop-color="white"/>
<stop offset="1" stop-color="#643B99"/>
</linearGradient>
<linearGradient id="paint1_linear_16494_72207" x1="68.1032" y1="25.2486" x2="118.598" y2="161.448" gradientUnits="userSpaceOnUse">
<stop stop-color="white"/>
<stop offset="1" stop-color="#643B99"/>
</linearGradient>
</defs>
</svg>
