<svg width="14" height="14" viewBox="0 0 14 14" fill="none" xmlns="http://www.w3.org/2000/svg">
<g clip-path="url(#clip0_3574_5459)">
<path d="M12.6638 11.7967H0.127918C0.0575629 11.7967 0 11.8542 0 11.9246V12.82C0 12.8903 0.0575629 12.9479 0.127918 12.9479H12.6638C12.7342 12.9479 12.7918 12.8903 12.7918 12.82V11.9246C12.7918 11.8542 12.7342 11.7967 12.6638 11.7967ZM0.858647 9.79474L1.49344 10.4263C1.54301 10.4759 1.62455 10.4759 1.67412 10.4263L5.4269 6.68634L6.9875 8.24214C7.08364 8.3374 7.21352 8.39085 7.34886 8.39085C7.48421 8.39085 7.61409 8.3374 7.71023 8.24214L11.9347 4.03365C11.9843 3.98408 11.9843 3.90254 11.9347 3.85297L11.2999 3.21978C11.2759 3.19597 11.2434 3.18262 11.2096 3.18262C11.1757 3.18262 11.1433 3.19597 11.1192 3.21978L7.35046 6.97736L5.78827 5.42156C5.69212 5.3263 5.56225 5.27285 5.4269 5.27285C5.29156 5.27285 5.16168 5.3263 5.06554 5.42156L0.858647 9.61406C0.846686 9.62587 0.83719 9.63993 0.830708 9.65544C0.824227 9.67095 0.820889 9.68759 0.820889 9.7044C0.820889 9.72121 0.824227 9.73785 0.830708 9.75336C0.83719 9.76886 0.846686 9.78293 0.858647 9.79474Z" fill="#63E4BF"/>
<path fill-rule="evenodd" clip-rule="evenodd" d="M12.3161 3.2735L12.2375 7.19933L11.2582 7.26493L11.327 3.82974L7.89877 4.0594L7.91841 3.07812L11.8362 2.81566C11.9661 2.80698 12.0896 2.85034 12.1796 2.93619C12.2695 3.02205 12.3186 3.14338 12.3161 3.2735Z" fill="#63E4BF"/>
</g>
<defs>
<clipPath id="clip0_3574_5459">
<rect width="14" height="14" fill="white"/>
</clipPath>
</defs>
</svg>
