<svg width="25" height="26" viewBox="0 0 25 26" fill="none" xmlns="http://www.w3.org/2000/svg">
<path d="M12.5007 2.58337C6.74023 2.58337 2.08398 7.23962 2.08398 13C2.08398 18.7605 6.74023 23.4167 12.5007 23.4167C18.2611 23.4167 22.9173 18.7605 22.9173 13C22.9173 7.23962 18.2611 2.58337 12.5007 2.58337ZM12.5007 21.3334C7.9069 21.3334 4.16732 17.5938 4.16732 13C4.16732 8.40629 7.9069 4.66671 12.5007 4.66671C17.0944 4.66671 20.834 8.40629 20.834 13C20.834 17.5938 17.0944 21.3334 12.5007 21.3334ZM16.2402 7.79171L12.5007 11.5313L8.76107 7.79171L7.29232 9.26046L11.0319 13L7.29232 16.7396L8.76107 18.2084L12.5007 14.4688L16.2402 18.2084L17.709 16.7396L13.9694 13L17.709 9.26046L16.2402 7.79171Z" fill="#CECBFF"/>
</svg>
