<svg width="22" height="22" viewBox="0 0 22 22" fill="none" xmlns="http://www.w3.org/2000/svg">
<rect width="22" height="22" rx="11" fill="white" fill-opacity="0.6"/>
<path d="M14.7269 8.24542C14.7926 8.18203 14.845 8.10619 14.8811 8.02233C14.9172 7.93847 14.9362 7.84826 14.937 7.75698C14.9378 7.66569 14.9205 7.57516 14.886 7.49065C14.8514 7.40614 14.8004 7.32936 14.7359 7.26478C14.6714 7.20019 14.5946 7.14911 14.5102 7.1145C14.4257 7.07989 14.3352 7.06246 14.2439 7.06321C14.1526 7.06396 14.0624 7.08288 13.9785 7.11887C13.8946 7.15486 13.8187 7.2072 13.7553 7.27283L10.9998 10.0274L8.24517 7.27283C8.18223 7.20529 8.10633 7.15111 8.022 7.11353C7.93766 7.07596 7.84663 7.05575 7.75432 7.05412C7.662 7.05249 7.57031 7.06948 7.48471 7.10405C7.3991 7.13863 7.32134 7.1901 7.25605 7.25538C7.19077 7.32066 7.1393 7.39843 7.10472 7.48403C7.07015 7.56964 7.05317 7.66133 7.05479 7.75364C7.05642 7.84596 7.07663 7.93699 7.1142 8.02133C7.15178 8.10566 7.20596 8.18156 7.2735 8.2445L10.0263 11L7.27167 13.7546C7.15023 13.8849 7.08412 14.0573 7.08726 14.2354C7.0904 14.4135 7.16256 14.5834 7.28852 14.7094C7.41448 14.8354 7.58442 14.9075 7.76252 14.9107C7.94063 14.9138 8.11301 14.8477 8.24334 14.7262L10.9998 11.9717L13.7543 14.7272C13.8847 14.8486 14.057 14.9147 14.2351 14.9116C14.4133 14.9084 14.5832 14.8363 14.7092 14.7103C14.8351 14.5844 14.9073 14.4144 14.9104 14.2363C14.9136 14.0582 14.8474 13.8858 14.726 13.7555L11.9733 11L14.7269 8.24542Z" fill="black"/>
</svg>
