<svg width="550" height="326" viewBox="0 0 550 326" fill="none" xmlns="http://www.w3.org/2000/svg">
<path d="M446 179L489 488H403L446 179Z" fill="url(#paint0_linear_6348_44530)" fill-opacity="0.2"/>
<path d="M446 179L489 -130H403L446 179Z" fill="url(#paint1_linear_6348_44530)" fill-opacity="0.2"/>
<path d="M446.001 179.001L320.338 482.796L237.269 472.149L446.001 179.001Z" fill="url(#paint2_linear_6348_44530)" fill-opacity="0.2"/>
<path d="M446.001 179.001L654.733 -114.147L571.663 -124.793L446.001 179.001Z" fill="url(#paint3_linear_6348_44530)" fill-opacity="0.2"/>
<path d="M446 178.997L160.239 456.883L85.7607 436.315L446 178.997Z" fill="url(#paint4_linear_6348_44530)" fill-opacity="0.2"/>
<path d="M446 178.997L806.239 -78.3208L731.761 -98.889L446 178.997Z" fill="url(#paint5_linear_6348_44530)" fill-opacity="0.2"/>
<path d="M445.999 178.999L19.614 412.039L-41.1972 382.951L445.999 178.999Z" fill="url(#paint6_linear_6348_44530)" fill-opacity="0.2"/>
<path d="M445.999 178.999L933.196 -24.9532L872.385 -54.0409L445.999 178.999Z" fill="url(#paint7_linear_6348_44530)" fill-opacity="0.2"/>
<path d="M446 179L-91.9524 351.312L-134.952 315.687L446 179Z" fill="url(#paint8_linear_6348_44530)" fill-opacity="0.2"/>
<path d="M446 179L1026.95 42.3125L983.952 6.68752L446 179Z" fill="url(#paint9_linear_6348_44530)" fill-opacity="0.2"/>
<path d="M446 178.998L-166.858 278.84L-189.117 239.106L446 178.998Z" fill="url(#paint10_linear_6348_44530)" fill-opacity="0.2"/>
<path d="M446 178.998L1081.12 118.89L1058.86 79.1558L446 178.998Z" fill="url(#paint11_linear_6348_44530)" fill-opacity="0.2"/>
<path d="M446 179L-200 199.568L-200 158.432L446 179Z" fill="url(#paint12_linear_6348_44530)" fill-opacity="0.2"/>
<path d="M446 179L1092 199.568L1092 158.432L446 179Z" fill="url(#paint13_linear_6348_44530)" fill-opacity="0.2"/>
<path d="M446 179L-189.118 118.892L-166.859 79.1577L446 179Z" fill="url(#paint14_linear_6348_44530)" fill-opacity="0.2"/>
<path d="M446 179L1058.86 278.842L1081.12 239.108L446 179Z" fill="url(#paint15_linear_6348_44530)" fill-opacity="0.2"/>
<path d="M446 179L-134.952 42.3125L-91.9524 6.6875L446 179Z" fill="url(#paint16_linear_6348_44530)" fill-opacity="0.2"/>
<path d="M446 179L983.952 351.313L1026.95 315.687L446 179Z" fill="url(#paint17_linear_6348_44530)" fill-opacity="0.2"/>
<path d="M446.001 179.001L-41.1959 -24.9512L19.6153 -54.0389L446.001 179.001Z" fill="url(#paint18_linear_6348_44530)" fill-opacity="0.2"/>
<path d="M446.001 179.001L872.386 412.041L933.197 382.953L446.001 179.001Z" fill="url(#paint19_linear_6348_44530)" fill-opacity="0.2"/>
<path d="M446 179.003L85.7611 -78.315L160.239 -98.8831L446 179.003Z" fill="url(#paint20_linear_6348_44530)" fill-opacity="0.2"/>
<path d="M446 179.003L731.761 456.889L806.239 436.321L446 179.003Z" fill="url(#paint21_linear_6348_44530)" fill-opacity="0.2"/>
<path d="M445.999 179.001L237.267 -114.146L320.337 -124.793L445.999 179.001Z" fill="url(#paint22_linear_6348_44530)" fill-opacity="0.2"/>
<path d="M445.999 179.001L571.662 482.796L654.731 472.149L445.999 179.001Z" fill="url(#paint23_linear_6348_44530)" fill-opacity="0.2"/>
<g filter="url(#filter0_d_6348_44530)">
<path d="M425.977 113.641H466.023C467.793 113.641 469.49 112.947 470.742 111.712C471.994 110.477 472.697 108.802 472.697 107.056C472.697 105.309 471.994 103.634 470.742 102.4C469.49 101.165 467.793 100.471 466.023 100.471H425.977C424.207 100.471 422.51 101.165 421.258 102.4C420.006 103.634 419.303 105.309 419.303 107.056C419.303 108.802 420.006 110.477 421.258 111.712C422.51 112.947 424.207 113.641 425.977 113.641ZM429.114 90.5934C429.213 91.3964 429.607 92.1357 430.223 92.6701C430.838 93.2045 431.632 93.4966 432.451 93.4908H459.348C460.164 93.4826 460.95 93.1856 461.563 92.6537C462.175 92.1219 462.574 91.3908 462.686 90.5934C464.153 83.5938 466.865 76.9057 470.695 70.8385C471.048 70.2499 471.194 69.5623 471.11 68.8832C471.025 68.2041 470.715 67.5717 470.227 67.085C469.825 66.5619 469.273 66.1695 468.643 65.9583C468.012 65.747 467.332 65.7267 466.69 65.8997L454.276 71.1677C454.068 71.2669 453.84 71.3184 453.609 71.3184C453.377 71.3184 453.149 71.2669 452.941 71.1677C452.527 71.0157 452.191 70.7078 452.007 70.3117L449.07 63.0024C448.814 62.4084 448.386 61.902 447.84 61.546C447.294 61.19 446.654 61.0003 446 61.0003C445.346 61.0003 444.706 61.19 444.16 61.546C443.614 61.902 443.186 62.4084 442.93 63.0024L439.993 70.3117C439.809 70.7078 439.473 71.0157 439.059 71.1677C438.851 71.2669 438.623 71.3184 438.391 71.3184C438.16 71.3184 437.932 71.2669 437.724 71.1677L425.31 65.8997C424.673 65.6457 423.973 65.5916 423.304 65.7448C422.635 65.898 422.03 66.251 421.572 66.7558C421.085 67.2425 420.775 67.8748 420.69 68.5539C420.606 69.233 420.752 69.9206 421.105 70.5092C424.972 76.677 427.685 83.4797 429.114 90.5934ZM468.959 121.016C468.271 120.494 467.425 120.216 466.557 120.226H425.443C424.575 120.216 423.729 120.494 423.041 121.016C406.021 134.186 387 156.575 387 176.33C387 204.184 402.751 219 446 219C489.249 219 505 204.184 505 176.33C505 156.575 486.045 133.857 468.959 121.016ZM452.674 193.516C452.285 193.592 451.934 193.796 451.679 194.095C451.193 194.667 450.991 195.466 450.48 196.016L448.562 198.083C446.767 200.017 444.571 200.506 442.666 198.681C439.654 195.796 435.454 191.536 434.861 192.121C433.922 193.047 447.595 202.538 446.267 202.538C444.939 202.538 452.88 194.772 451.942 193.846C451.662 193.57 450.602 193.907 449.251 194.482C445.212 196.203 445.479 198.834 449.692 200.068C453.906 201.303 454.232 200.516 450.238 198.692C445.732 196.634 440.937 194.49 440.773 194.328C440.46 194.019 440.035 193.846 439.593 193.846H435.655C434.327 193.846 434.007 181.733 433.068 180.807C432.13 179.88 433.068 186.249 433.068 184.939C433.068 183.63 431.177 186.341 432.115 185.415C432.825 184.715 434.094 193.457 435.245 197.772C435.694 199.458 437.155 199.873 438.84 199.422L472.223 190.496C474.128 189.986 474.522 189.133 472.832 188.118C471.048 187.048 468.981 185.774 469.438 185.415C470.272 184.759 478.127 177.362 478.329 176.33C478.409 175.919 474.674 176.145 470.11 176.508C461.108 177.224 460.234 173.837 467.47 168.434C471.378 165.517 465.731 168.407 460.129 171.305C455.812 173.538 454.03 171.512 456.546 167.354L458.155 164.695C459.816 161.95 457.467 161.254 455.729 158.558C454.048 155.951 448.984 160.09 449.233 157.01C449.482 153.93 441.498 160.869 443.575 158.558C443.743 158.371 443.836 158.112 443.867 157.795C444.067 155.715 446.296 158.131 447.65 156.541C447.864 156.29 443.94 145.455 442.66 141.7C442.382 140.886 441.988 140.065 441.482 139.37C440.992 138.697 440.917 138.576 441.172 139.369C442.259 142.761 445.021 152.704 445.769 151.965C446.708 151.039 445.481 151.965 446.808 151.965C448.136 151.965 448.131 173.457 449.07 174.383C450.009 175.309 450.739 137.025 450.739 138.334V140.442C450.739 140.878 445.687 165.946 446 166.255C446.209 166.461 454.272 159.744 459.712 155.281C461.582 153.747 462.068 148.57 460.467 146.756L460.231 146.489C458.722 144.779 456.5 145.832 458.123 147.434C459.062 148.36 456.345 149.209 456.345 150.519C456.345 151.829 460.823 149.593 459.885 150.519C458.946 151.445 457.673 151.965 456.345 151.965H442.262C441.197 151.929 440.154 152.269 439.32 152.925C438.487 153.581 437.919 154.509 437.717 155.541C437.516 156.574 437.695 157.644 438.223 158.558C439.261 160.357 441.388 161.242 442.931 162.633L456.574 174.933C457.598 175.856 459.196 176.734 459.898 175.548C461.595 172.679 461.214 174.289 462.968 177.124C463.693 178.297 464.485 179.368 464.355 180.807C464.076 183.891 462.784 186.801 460.676 189.095C458.567 191.389 455.758 192.941 452.674 193.516Z" fill="url(#paint24_linear_6348_44530)"/>
</g>
<path d="M440.51 142.904C439.415 143.429 438.411 144.286 437.007 145.484L436.787 145.668C435.575 146.76 434.024 147.403 432.394 147.489L432.11 147.511C430.27 147.658 428.954 147.761 427.809 148.167C426.507 148.627 425.324 149.373 424.348 150.349C423.371 151.325 422.625 152.507 422.164 153.809C421.761 154.954 421.658 156.27 421.511 158.11L421.489 158.394C421.403 160.024 420.76 161.575 419.668 162.787L419.484 163.004C418.286 164.411 417.427 165.415 416.904 166.51C416.309 167.756 416 169.119 416 170.5C416 171.881 416.309 173.244 416.904 174.49C417.429 175.585 418.286 176.589 419.484 177.993L419.668 178.213C420.808 179.548 421.347 180.824 421.489 182.606L421.511 182.89C421.658 184.73 421.761 186.046 422.167 187.191C422.627 188.493 423.373 189.676 424.349 190.652C425.325 191.629 426.507 192.375 427.809 192.836C428.954 193.239 430.27 193.342 432.11 193.489L432.394 193.511C434.143 193.65 435.425 194.173 436.787 195.332L437.007 195.516C438.411 196.714 439.415 197.573 440.51 198.096C441.756 198.691 443.119 199 444.5 199C445.881 199 447.244 198.691 448.49 198.096C449.585 197.571 450.589 196.714 451.993 195.516L452.213 195.332C453.548 194.192 454.824 193.653 456.606 193.511L456.89 193.489C458.73 193.342 460.046 193.239 461.191 192.833C462.493 192.373 463.676 191.627 464.652 190.651C465.629 189.675 466.375 188.493 466.836 187.191C467.239 186.046 467.342 184.73 467.489 182.89L467.511 182.606C467.65 180.857 468.173 179.575 469.332 178.213L469.516 177.993C470.714 176.589 471.573 175.585 472.096 174.49C472.691 173.244 473 171.881 473 170.5C473 169.119 472.691 167.756 472.096 166.51C471.571 165.415 470.714 164.411 469.516 163.007L469.332 162.787C468.24 161.575 467.597 160.024 467.511 158.394L467.489 158.11C467.342 156.27 467.239 154.954 466.833 153.809C466.373 152.507 465.627 151.324 464.651 150.348C463.675 149.371 462.493 148.625 461.191 148.164C460.046 147.761 458.73 147.658 456.89 147.511L456.606 147.489C454.976 147.403 453.425 146.76 452.213 145.668L451.993 145.484C450.589 144.286 449.585 143.427 448.49 142.904C447.244 142.309 445.881 142 444.5 142C443.119 142 441.756 142.309 440.51 142.904ZM434.073 157.988C434.073 157.435 434.293 156.904 434.684 156.513C435.075 156.122 435.606 155.903 436.159 155.903H452.841C453.394 155.903 453.925 156.122 454.316 156.513C454.707 156.904 454.927 157.435 454.927 157.988C454.927 158.541 454.707 159.071 454.316 159.462C453.925 159.854 453.394 160.073 452.841 160.073H447.853C448.515 161.166 448.952 162.381 449.177 163.627H452.841C453.394 163.627 453.925 163.846 454.316 164.237C454.707 164.629 454.927 165.159 454.927 165.712C454.927 166.265 454.707 166.796 454.316 167.187C453.925 167.578 453.394 167.797 452.841 167.797H449.177C448.892 169.449 448.204 171.004 447.172 172.324C446.429 173.259 445.496 174.025 444.435 174.572C443.374 175.119 442.208 175.434 441.016 175.497L449.483 184.352C449.847 184.755 450.04 185.284 450.021 185.827C450.001 186.37 449.77 186.884 449.377 187.259C448.985 187.635 448.461 187.842 447.918 187.837C447.374 187.832 446.854 187.615 446.469 187.233L434.652 174.876C434.37 174.581 434.18 174.21 434.108 173.808C434.035 173.406 434.082 172.992 434.242 172.617C434.403 172.241 434.67 171.921 435.01 171.696C435.351 171.471 435.75 171.351 436.159 171.351H440.329C441.998 171.351 443.143 170.684 443.916 169.719C444.365 169.148 444.697 168.496 444.895 167.797H436.159C435.606 167.797 435.075 167.578 434.684 167.187C434.293 166.796 434.073 166.265 434.073 165.712C434.073 165.159 434.293 164.629 434.684 164.237C435.075 163.846 435.606 163.627 436.159 163.627H444.895C444.697 162.929 444.365 162.276 443.916 161.705C443.143 160.741 441.998 160.073 440.329 160.073H436.159C435.606 160.073 435.075 159.854 434.684 159.462C434.293 159.071 434.073 158.541 434.073 157.988Z" fill="#0F5B49"/>
<path d="M482.47 197.75C486.855 197.75 490.553 199.28 493.562 202.34C496.571 205.4 498.05 208.97 497.999 213.05L436.57 236L383.021 220.7V151.85H397.939L453.553 172.428C457.531 174.009 459.52 176.866 459.52 180.997C459.52 183.394 458.653 185.484 456.919 187.27C455.185 189.055 452.992 189.998 450.34 190.1H428.921L415.533 184.975L413.009 192.166L428.921 197.75H482.47ZM337 151.85H367.722V224L342.5 220.7L337 151.85Z" fill="white"/>
<defs>
<filter id="filter0_d_6348_44530" x="378.09" y="52.09" width="135.82" height="175.82" filterUnits="userSpaceOnUse" color-interpolation-filters="sRGB">
<feFlood flood-opacity="0" result="BackgroundImageFix"/>
<feColorMatrix in="SourceAlpha" type="matrix" values="0 0 0 0 0 0 0 0 0 0 0 0 0 0 0 0 0 0 127 0" result="hardAlpha"/>
<feOffset/>
<feGaussianBlur stdDeviation="4.455"/>
<feColorMatrix type="matrix" values="0 0 0 0 0.356863 0 0 0 0 0.92549 0 0 0 0 0.658824 0 0 0 1 0"/>
<feBlend mode="normal" in2="BackgroundImageFix" result="effect1_dropShadow_6348_44530"/>
<feBlend mode="normal" in="SourceGraphic" in2="effect1_dropShadow_6348_44530" result="shape"/>
</filter>
<linearGradient id="paint0_linear_6348_44530" x1="446" y1="179" x2="446" y2="488" gradientUnits="userSpaceOnUse">
<stop stop-color="#18AD8A"/>
<stop offset="1" stop-color="#0A4739" stop-opacity="0"/>
</linearGradient>
<linearGradient id="paint1_linear_6348_44530" x1="446" y1="179" x2="446" y2="-130" gradientUnits="userSpaceOnUse">
<stop stop-color="#18AD8A"/>
<stop offset="1" stop-color="#0A4739" stop-opacity="0"/>
</linearGradient>
<linearGradient id="paint2_linear_6348_44530" x1="446.001" y1="179.001" x2="405.662" y2="493.731" gradientUnits="userSpaceOnUse">
<stop stop-color="#18AD8A"/>
<stop offset="1" stop-color="#0A4739" stop-opacity="0"/>
</linearGradient>
<linearGradient id="paint3_linear_6348_44530" x1="446.001" y1="179.001" x2="486.339" y2="-135.729" gradientUnits="userSpaceOnUse">
<stop stop-color="#18AD8A"/>
<stop offset="1" stop-color="#0A4739" stop-opacity="0"/>
</linearGradient>
<linearGradient id="paint4_linear_6348_44530" x1="446" y1="178.997" x2="354.447" y2="510.516" gradientUnits="userSpaceOnUse">
<stop stop-color="#18AD8A"/>
<stop offset="1" stop-color="#0A4739" stop-opacity="0"/>
</linearGradient>
<linearGradient id="paint5_linear_6348_44530" x1="446" y1="178.997" x2="537.553" y2="-152.522" gradientUnits="userSpaceOnUse">
<stop stop-color="#18AD8A"/>
<stop offset="1" stop-color="#0A4739" stop-opacity="0"/>
</linearGradient>
<linearGradient id="paint6_linear_6348_44530" x1="445.999" y1="178.999" x2="275.894" y2="534.625" gradientUnits="userSpaceOnUse">
<stop stop-color="#18AD8A"/>
<stop offset="1" stop-color="#0A4739" stop-opacity="0"/>
</linearGradient>
<linearGradient id="paint7_linear_6348_44530" x1="445.999" y1="178.999" x2="616.105" y2="-176.627" gradientUnits="userSpaceOnUse">
<stop stop-color="#18AD8A"/>
<stop offset="1" stop-color="#0A4739" stop-opacity="0"/>
</linearGradient>
<linearGradient id="paint8_linear_6348_44530" x1="446" y1="179" x2="142.39" y2="545.462" gradientUnits="userSpaceOnUse">
<stop stop-color="#18AD8A"/>
<stop offset="1" stop-color="#0A4739" stop-opacity="0"/>
</linearGradient>
<linearGradient id="paint9_linear_6348_44530" x1="446" y1="179" x2="749.61" y2="-187.462" gradientUnits="userSpaceOnUse">
<stop stop-color="#18AD8A"/>
<stop offset="1" stop-color="#0A4739" stop-opacity="0"/>
</linearGradient>
<linearGradient id="paint10_linear_6348_44530" x1="446" y1="178.998" x2="-63.0486" y2="464.156" gradientUnits="userSpaceOnUse">
<stop stop-color="#18AD8A"/>
<stop offset="1" stop-color="#0A4739" stop-opacity="0"/>
</linearGradient>
<linearGradient id="paint11_linear_6348_44530" x1="446" y1="178.998" x2="955.049" y2="-106.16" gradientUnits="userSpaceOnUse">
<stop stop-color="#18AD8A"/>
<stop offset="1" stop-color="#0A4739" stop-opacity="0"/>
</linearGradient>
<linearGradient id="paint12_linear_6348_44530" x1="446" y1="179" x2="-200" y2="179" gradientUnits="userSpaceOnUse">
<stop stop-color="#18AD8A"/>
<stop offset="1" stop-color="#0A4739" stop-opacity="0"/>
</linearGradient>
<linearGradient id="paint13_linear_6348_44530" x1="446" y1="179" x2="1092" y2="179" gradientUnits="userSpaceOnUse">
<stop stop-color="#18AD8A"/>
<stop offset="1" stop-color="#0A4739" stop-opacity="0"/>
</linearGradient>
<linearGradient id="paint14_linear_6348_44530" x1="446" y1="179" x2="-63.0491" y2="-106.158" gradientUnits="userSpaceOnUse">
<stop stop-color="#18AD8A"/>
<stop offset="1" stop-color="#0A4739" stop-opacity="0"/>
</linearGradient>
<linearGradient id="paint15_linear_6348_44530" x1="446" y1="179" x2="955.049" y2="464.158" gradientUnits="userSpaceOnUse">
<stop stop-color="#18AD8A"/>
<stop offset="1" stop-color="#0A4739" stop-opacity="0"/>
</linearGradient>
<linearGradient id="paint16_linear_6348_44530" x1="446" y1="179" x2="142.39" y2="-187.462" gradientUnits="userSpaceOnUse">
<stop stop-color="#18AD8A"/>
<stop offset="1" stop-color="#0A4739" stop-opacity="0"/>
</linearGradient>
<linearGradient id="paint17_linear_6348_44530" x1="446" y1="179" x2="749.61" y2="545.462" gradientUnits="userSpaceOnUse">
<stop stop-color="#18AD8A"/>
<stop offset="1" stop-color="#0A4739" stop-opacity="0"/>
</linearGradient>
<linearGradient id="paint18_linear_6348_44530" x1="446.001" y1="179.001" x2="275.895" y2="-176.625" gradientUnits="userSpaceOnUse">
<stop stop-color="#18AD8A"/>
<stop offset="1" stop-color="#0A4739" stop-opacity="0"/>
</linearGradient>
<linearGradient id="paint19_linear_6348_44530" x1="446.001" y1="179.001" x2="616.106" y2="534.626" gradientUnits="userSpaceOnUse">
<stop stop-color="#18AD8A"/>
<stop offset="1" stop-color="#0A4739" stop-opacity="0"/>
</linearGradient>
<linearGradient id="paint20_linear_6348_44530" x1="446" y1="179.003" x2="354.447" y2="-152.516" gradientUnits="userSpaceOnUse">
<stop stop-color="#18AD8A"/>
<stop offset="1" stop-color="#0A4739" stop-opacity="0"/>
</linearGradient>
<linearGradient id="paint21_linear_6348_44530" x1="446" y1="179.003" x2="537.553" y2="510.522" gradientUnits="userSpaceOnUse">
<stop stop-color="#18AD8A"/>
<stop offset="1" stop-color="#0A4739" stop-opacity="0"/>
</linearGradient>
<linearGradient id="paint22_linear_6348_44530" x1="445.999" y1="179.001" x2="405.661" y2="-135.729" gradientUnits="userSpaceOnUse">
<stop stop-color="#18AD8A"/>
<stop offset="1" stop-color="#0A4739" stop-opacity="0"/>
</linearGradient>
<linearGradient id="paint23_linear_6348_44530" x1="445.999" y1="179.001" x2="486.338" y2="493.731" gradientUnits="userSpaceOnUse">
<stop stop-color="#18AD8A"/>
<stop offset="1" stop-color="#0A4739" stop-opacity="0"/>
</linearGradient>
<linearGradient id="paint24_linear_6348_44530" x1="418.521" y1="62.0505" x2="418.521" y2="220.05" gradientUnits="userSpaceOnUse">
<stop stop-color="#63FFD5"/>
<stop offset="1" stop-color="#3B9980"/>
</linearGradient>
</defs>
</svg>
