<svg width="32" height="32" viewBox="0 0 32 32" fill="none" xmlns="http://www.w3.org/2000/svg">
<path d="M26.371 15.9993C26.371 13.2489 25.2784 10.6111 23.3335 8.66618C21.3886 6.7213 18.7508 5.62868 16.0003 5.62868C13.2499 5.62868 10.612 6.7213 8.66716 8.66618C6.72228 10.6111 5.62966 13.2489 5.62966 15.9993C5.62966 18.7498 6.72228 21.3876 8.66716 23.3325C10.612 25.2774 13.2499 26.37 16.0003 26.37C18.7508 26.37 21.3886 25.2774 23.3335 23.3325C25.2784 21.3876 26.371 18.7498 26.371 15.9993ZM19.3977 12.73C19.5351 12.5926 19.6983 12.4835 19.8779 12.4091C20.0575 12.3348 20.2499 12.2965 20.4443 12.2965C20.6387 12.2965 20.8312 12.3348 21.0108 12.4091C21.1904 12.4835 21.3535 12.5926 21.491 12.73C21.6284 12.8675 21.7375 13.0306 21.8119 13.2102C21.8862 13.3898 21.9245 13.5823 21.9245 13.7767C21.9245 13.9711 21.8862 14.1635 21.8119 14.3431C21.7375 14.5227 21.6284 14.6859 21.491 14.8233L17.0483 19.2687C16.9108 19.4066 16.7475 19.5159 16.5677 19.5906C16.3878 19.6652 16.195 19.7036 16.0003 19.7036C15.8056 19.7036 15.6128 19.6652 15.433 19.5906C15.2531 19.5159 15.0898 19.4066 14.9523 19.2687L10.5083 14.826L10.407 14.7127C10.1732 14.4287 10.0535 14.0677 10.0713 13.7003C10.0892 13.3329 10.2432 12.9852 10.5034 12.7252C10.7636 12.4651 11.1114 12.3113 11.4788 12.2937C11.8463 12.2761 12.2071 12.396 12.491 12.63L12.603 12.7313L16.0003 16.126L19.3977 12.73ZM29.3337 15.9993C29.3337 23.3633 23.3643 29.3327 16.0003 29.3327C8.63633 29.3327 2.66699 23.3633 2.66699 15.9993C2.66699 8.63535 8.63633 2.66602 16.0003 2.66602C23.3643 2.66602 29.3337 8.63535 29.3337 15.9993Z" fill="white"/>
</svg>
