<svg width="232" height="194" viewBox="0 0 232 194" fill="none" xmlns="http://www.w3.org/2000/svg">
<path d="M80.0342 102.334H217.534V184.834H80.0342V102.334Z" fill="#A663FF"/>
<path d="M75.4508 184.834H222.118C224.549 184.834 226.88 185.8 228.599 187.519C230.318 189.238 231.284 191.569 231.284 194.001H66.2842C66.2842 191.569 67.25 189.238 68.969 187.519C70.6881 185.8 73.0197 184.834 75.4508 184.834Z" fill="url(#paint0_linear_6348_44635)"/>
<path d="M148.784 134.416C145.137 134.416 141.64 135.865 139.061 138.443C136.483 141.022 135.034 144.519 135.034 148.166V175.666H162.534V148.166C162.534 144.519 161.086 141.022 158.507 138.443C155.928 135.865 152.431 134.416 148.784 134.416Z" fill="#292F33"/>
<path d="M80.0342 125.25H98.3675V175.667H80.0342V125.25ZM107.534 125.25H125.868V175.667H107.534V125.25ZM199.201 125.25H217.534V175.667H199.201V125.25ZM171.701 125.25H190.034V175.667H171.701V125.25Z" fill="url(#paint1_linear_6348_44635)"/>
<path d="M75.4512 175.666H222.118V184.833H75.4512V175.666Z" fill="url(#paint2_linear_6348_44635)"/>
<path d="M231.284 79.4167L148.784 29L66.2842 79.4167H231.284Z" fill="#A663FF"/>
<path d="M148.785 39.9922L75.4512 83.9922V102.326H222.118V83.9922L148.785 39.9922Z" fill="url(#paint3_linear_6348_44635)"/>
<path d="M80.0342 116.084H98.3675V125.251H80.0342V116.084ZM107.534 116.084H125.868V125.251H107.534V116.084ZM171.701 116.084H190.034V125.251H171.701V116.084ZM199.201 116.084H217.534V125.251H199.201V116.084Z" fill="#8899A6"/>
<path d="M70.8672 84H226.701V106.917H70.8672V84Z" fill="url(#paint4_linear_6348_44635)"/>
<path d="M231.284 84.0007C231.284 85.2162 230.801 86.382 229.942 87.2416C229.082 88.1011 227.916 88.584 226.701 88.584H70.8675C69.6519 88.584 68.4861 88.1011 67.6266 87.2416C66.7671 86.382 66.2842 85.2162 66.2842 84.0007V79.4173C66.2842 78.2017 66.7671 77.036 67.6266 76.1764C68.4861 75.3169 69.6519 74.834 70.8675 74.834H226.701C227.916 74.834 229.082 75.3169 229.942 76.1764C230.801 77.036 231.284 78.2017 231.284 79.4173V84.0007ZM231.284 111.501C231.284 112.716 230.801 113.882 229.942 114.742C229.082 115.601 227.916 116.084 226.701 116.084H70.8675C69.6519 116.084 68.4861 115.601 67.6266 114.742C66.7671 113.882 66.2842 112.716 66.2842 111.501V106.917C66.2842 105.702 66.7671 104.536 67.6266 103.676C68.4861 102.817 69.6519 102.334 70.8675 102.334H226.701C227.916 102.334 229.082 102.817 229.942 103.676C230.801 104.536 231.284 105.702 231.284 106.917V111.501Z" fill="url(#paint5_linear_6348_44635)"/>
<path d="M125.867 175.666H171.701V184.833H125.867V175.666Z" fill="#CAAFEF"/>
<path d="M116.701 184.834H180.868V194.001H116.701V184.834Z" fill="#E7DBF6"/>
<g clip-path="url(#clip0_6348_44635)">
<path d="M18.6226 43.9706C15.1596 30.5157 23.2589 16.8023 36.7138 13.3393C50.1687 9.87626 63.8821 17.9755 67.3451 31.4304C70.8081 44.8853 62.7089 58.5987 49.254 62.0618C35.7991 65.5248 22.0857 57.4255 18.6226 43.9706ZM30.7203 28.8684C30.9865 29.9029 32.0421 30.5263 33.0765 30.2601L36.8244 29.2954C38.3236 28.9096 39.5073 29.2443 40.4251 29.9325C40.934 30.3157 41.3862 30.8307 41.7483 31.4302L33.8978 33.4508C33.4008 33.5787 32.9749 33.8988 32.7139 34.3407C32.453 34.7826 32.3782 35.31 32.5061 35.807C32.634 36.304 32.9542 36.7299 33.396 36.9908C33.8379 37.2518 34.3654 37.3266 34.8624 37.1987L42.7129 35.1781C42.6972 35.852 42.5496 36.5163 42.2785 37.1335C41.807 38.1792 40.9319 39.0439 39.4328 39.4297L35.6849 40.3943C35.3181 40.489 34.9871 40.6892 34.733 40.9702C34.4789 41.2511 34.3128 41.6005 34.2555 41.975C34.1981 42.3495 34.2519 42.7325 34.4102 43.0767C34.5685 43.4209 34.8244 43.711 35.1461 43.9111L48.623 52.2817C49.0582 52.5362 49.5755 52.6107 50.0648 52.4895C50.5542 52.3683 50.9769 52.0609 51.243 51.6327C51.5092 51.2046 51.5977 50.6895 51.4898 50.197C51.3818 49.7046 51.086 49.2737 50.6652 48.9961L41.0088 42.9963C42.0658 42.6644 43.0402 42.1117 43.8674 41.3747C44.6946 40.6378 45.3557 39.7334 45.8069 38.7216C46.4286 37.2966 46.6878 35.7398 46.5614 34.1902L49.8546 33.3426C50.3516 33.2147 50.7774 32.8946 51.0384 32.4527C51.2993 32.0108 51.3741 31.4834 51.2462 30.9864C51.1183 30.4894 50.7981 30.0635 50.3563 29.8026C49.9144 29.5416 49.3869 29.4668 48.8899 29.5947L45.5968 30.4423C45.106 29.3666 44.4246 28.3885 43.5856 27.5552L48.0681 26.4016C48.5651 26.2736 48.9909 25.9535 49.2519 25.5116C49.5128 25.0698 49.5876 24.5423 49.4597 24.0453C49.3318 23.5483 49.0117 23.1225 48.5698 22.8615C48.1279 22.6005 47.6004 22.5258 47.1034 22.6537L32.1119 26.5122C31.6149 26.6401 31.1891 26.9602 30.9281 27.4021C30.6671 27.844 30.5924 28.3714 30.7203 28.8684Z" fill="url(#paint6_linear_6348_44635)" fill-opacity="0.7"/>
</g>
<path d="M14.1215 91.6144C21.921 83.0444 35.1899 82.4198 43.7599 90.2193C52.3299 98.0188 52.9545 111.288 45.155 119.858C37.3555 128.428 24.0866 129.052 15.5166 121.253C6.94656 113.453 6.322 100.184 14.1215 91.6144ZM30.1879 93.1431C29.5883 93.8019 29.6364 94.8233 30.2953 95.423L32.6825 97.5955C33.6373 98.4645 33.9454 99.4432 33.8852 100.398C33.8508 100.928 33.6985 101.479 33.4461 102.006L28.4457 97.4552C28.1291 97.1671 27.7111 97.0166 27.2835 97.0367C26.856 97.0568 26.4539 97.246 26.1658 97.5626C25.8777 97.8791 25.7272 98.2972 25.7473 98.7247C25.7674 99.1523 25.9566 99.5543 26.2731 99.8424L31.2735 104.393C30.7963 104.691 30.2655 104.891 29.711 104.985C28.766 105.134 27.7627 104.92 26.8078 104.05L24.4207 101.878C24.1869 101.665 23.8958 101.526 23.5836 101.477C23.2714 101.429 22.9518 101.473 22.6644 101.604C22.377 101.735 22.1344 101.948 21.9668 102.216C21.7992 102.484 21.7139 102.795 21.7215 103.111L22.0487 116.339C22.0703 116.759 22.2549 117.154 22.5633 117.44C22.8717 117.725 23.2794 117.88 23.6998 117.869C24.1201 117.859 24.5199 117.685 24.814 117.385C25.108 117.084 25.2732 116.681 25.2743 116.26L25.0414 106.781C25.7564 107.366 26.5876 107.793 27.4799 108.033C28.3723 108.273 29.3054 108.32 30.2175 108.172C31.4957 107.954 32.7 107.422 33.7229 106.625L35.8204 108.534C36.137 108.822 36.555 108.973 36.9826 108.953C37.4102 108.933 37.8122 108.744 38.1003 108.427C38.3884 108.11 38.539 107.692 38.5188 107.265C38.4987 106.837 38.3096 106.435 37.993 106.147L35.8955 104.238C36.4212 103.404 36.7917 102.481 36.9889 101.515L39.844 104.113C40.1606 104.401 40.5786 104.552 41.0062 104.532C41.4337 104.512 41.8358 104.322 42.1239 104.006C42.412 103.689 42.5625 103.271 42.5424 102.844C42.5223 102.416 42.3331 102.014 42.0166 101.726L32.4678 93.0358C32.1513 92.7477 31.7332 92.5971 31.3057 92.6172C30.8781 92.6374 30.476 92.8265 30.1879 93.1431Z" fill="url(#paint7_linear_6348_44635)" fill-opacity="0.7"/>
<defs>
<linearGradient id="paint0_linear_6348_44635" x1="148.784" y1="184.834" x2="148.784" y2="194.001" gradientUnits="userSpaceOnUse">
<stop stop-color="#E0C9FF"/>
<stop offset="1" stop-color="#BB86FF"/>
</linearGradient>
<linearGradient id="paint1_linear_6348_44635" x1="148.784" y1="125.25" x2="148.784" y2="175.667" gradientUnits="userSpaceOnUse">
<stop stop-color="#E0C9FF"/>
<stop offset="1" stop-color="#BB86FF"/>
</linearGradient>
<linearGradient id="paint2_linear_6348_44635" x1="148.785" y1="175.666" x2="148.785" y2="184.833" gradientUnits="userSpaceOnUse">
<stop stop-color="#A663FF"/>
<stop offset="1" stop-color="#643B99"/>
</linearGradient>
<linearGradient id="paint3_linear_6348_44635" x1="148.785" y1="39.9922" x2="148.785" y2="102.326" gradientUnits="userSpaceOnUse">
<stop stop-color="#E0C9FF"/>
<stop offset="1" stop-color="#BB86FF"/>
</linearGradient>
<linearGradient id="paint4_linear_6348_44635" x1="148.784" y1="84" x2="148.784" y2="106.917" gradientUnits="userSpaceOnUse">
<stop stop-color="#E0C9FF"/>
<stop offset="1" stop-color="#BB86FF"/>
</linearGradient>
<linearGradient id="paint5_linear_6348_44635" x1="148.784" y1="74.834" x2="148.784" y2="116.084" gradientUnits="userSpaceOnUse">
<stop stop-color="#A663FF"/>
<stop offset="1" stop-color="#643B99"/>
</linearGradient>
<linearGradient id="paint6_linear_6348_44635" x1="36.7138" y1="13.3393" x2="49.254" y2="62.0618" gradientUnits="userSpaceOnUse">
<stop stop-color="#D9BDFD"/>
<stop offset="1" stop-color="#643B99"/>
</linearGradient>
<linearGradient id="paint7_linear_6348_44635" x1="43.7599" y1="90.2193" x2="15.5166" y2="121.253" gradientUnits="userSpaceOnUse">
<stop stop-color="#D9BDFD"/>
<stop offset="1" stop-color="#643B99"/>
</linearGradient>
<clipPath id="clip0_6348_44635">
<rect width="61.9205" height="61.9205" fill="white" transform="translate(5.28418 15.4336) rotate(-14.4335)"/>
</clipPath>
</defs>
</svg>
