<svg width="35" height="35" viewBox="0 0 35 35" fill="none" xmlns="http://www.w3.org/2000/svg">
<rect width="35" height="35" rx="17.5" fill="white" fill-opacity="0.12"/>
<path d="M23.5537 16.2393C23.7805 16.2393 23.9979 16.3299 24.1582 16.4902L24.2148 16.5527C24.3396 16.7049 24.4092 16.8963 24.4092 17.0947C24.4091 17.2932 24.3397 17.4846 24.2148 17.6367L24.1582 17.6992C23.9979 17.8594 23.7803 17.9492 23.5537 17.9492H10.4551C10.2567 17.9492 10.0652 17.8804 9.91309 17.7559L9.85059 17.6992C9.69032 17.539 9.59969 17.3214 9.59961 17.0947C9.59961 16.868 9.69025 16.6506 9.85059 16.4902L9.91309 16.4326C10.0652 16.3081 10.2568 16.2393 10.4551 16.2393H23.5537Z" fill="#F5F5F5" stroke="#F5F5F5" stroke-width="0.4"/>
<path d="M15.832 11.0039C16.0136 11.0218 16.1848 11.1012 16.3154 11.2305L16.3682 11.2891C16.4844 11.4295 16.5497 11.6062 16.5498 11.79C16.5498 11.9741 16.4846 12.1514 16.3682 12.292L16.3154 12.3496L11.5215 17.0947L16.3154 21.8398L16.3682 21.8975C16.4847 22.0381 16.5498 22.2153 16.5498 22.3994C16.5498 22.5833 16.4844 22.7599 16.3682 22.9004L16.3154 22.959C16.166 23.1068 15.9633 23.1895 15.7529 23.1895C15.5689 23.1893 15.3916 23.1256 15.25 23.0107L15.1914 22.959L9.83398 17.6543C9.77851 17.5995 9.73131 17.537 9.69434 17.4688L9.66113 17.3984C9.62088 17.3024 9.59961 17.1988 9.59961 17.0947L9.60352 17.0166C9.61126 16.9394 9.63104 16.8638 9.66113 16.792L9.69434 16.7217C9.73138 16.6531 9.77831 16.5902 9.83398 16.5352L15.1914 11.2305L15.25 11.1787C15.3916 11.0639 15.569 11.0001 15.7529 11L15.832 11.0039Z" fill="#F5F5F5" stroke="#F5F5F5" stroke-width="0.4"/>
</svg>
