<svg width="349" height="72" viewBox="0 0 349 72" fill="none" xmlns="http://www.w3.org/2000/svg">
<path fill-rule="evenodd" clip-rule="evenodd" d="M36.0004 0C26.4526 0 17.2958 3.82189 10.5444 10.6249L20.7623 20.9211C24.8037 16.8487 30.285 14.5609 36.0004 14.5609C37.0063 14.5609 38.011 14.6318 39.0069 14.7732L41.0229 0.354634C39.359 0.11855 37.6808 0 36.0004 0ZM48.1942 2.1436C50.6333 3.0283 52.9705 4.17607 55.1649 5.5666L47.4725 17.8929C46.1589 17.0604 44.7598 16.3735 43.2997 15.8439L48.1942 2.1436ZM61.4566 10.6251C60.3008 9.46054 59.0679 8.37661 57.766 7.38091L49.0294 18.9792C49.8087 19.5753 50.5469 20.2242 51.2387 20.9213L61.4566 10.6251ZM67.7748 19.2221C69.078 21.6874 70.0941 24.2961 70.8032 26.9963L56.8337 30.721C56.4092 29.1045 55.8009 27.5429 55.0209 26.0672L67.7748 19.2221ZM21.629 36.2762C29.5608 36.2762 36.0004 29.7872 36.0004 21.7947C36.0004 29.7872 42.4401 36.2762 50.3719 36.2762C42.4401 36.2762 36.0004 42.7651 36.0004 50.7576C36.0004 42.7651 29.5608 36.2762 21.629 36.2762ZM42.2518 72.0016C50.5871 70.5205 58.1379 66.1277 63.5785 59.5944L52.5088 50.2349C49.2522 54.1457 44.7321 56.7753 39.7426 57.6619L42.2518 72.0016ZM68.4245 52.0386C68.018 52.8878 67.5786 53.7207 67.1077 54.5354L54.6215 47.2061C54.9034 46.7184 55.1664 46.2198 55.4098 45.7115L68.4245 52.0386ZM72.0008 36.2765C72.0008 33.5909 71.7049 30.9138 71.1185 28.2941L57.0223 31.4981C57.3734 33.0662 57.5505 34.6689 57.5505 36.2765C57.5505 39.1686 56.9772 42.0315 55.8643 44.6972L69.1838 50.3438C71.043 45.8904 72.0008 41.1078 72.0008 36.2765ZM0.409081 30.8221C0.870316 27.7662 1.71719 24.7821 2.92911 21.9426L16.2038 27.6957C15.4781 29.3954 14.9713 31.1817 14.6952 33.011L0.409081 30.8221ZM0 36.2766C0 36.8674 0.0144043 37.4581 0.0430603 38.0482L14.4761 37.3371C14.4589 36.9839 14.4504 36.6303 14.4504 36.2766C14.4504 35.9229 14.4589 35.5693 14.4761 35.2161L0.0430603 34.5049C0.0144043 35.0951 0 35.6858 0 36.2766ZM2.48042 49.5075C1.41135 46.7578 0.679543 43.8869 0.301247 40.9585L14.6307 39.0788C14.8571 40.8318 15.2953 42.5504 15.9351 44.1963L2.48042 49.5075ZM5.53752 55.6073C10.9511 64.2693 19.7446 70.2232 29.749 72.0009L32.2583 57.6611C26.2696 56.5971 21.0058 53.0329 17.7651 47.8479L5.53752 55.6073Z" fill="#A663FF"/>
<path d="M86.8847 37.001V7.91007H93.0352V31.93H105.507V37.001H86.8847ZM115.688 37.4129C114.296 37.4129 113.055 37.1714 111.966 36.6885C110.877 36.1961 110.016 35.4716 109.381 34.5152C108.756 33.5493 108.444 32.3466 108.444 30.9072C108.444 29.6951 108.666 28.6771 109.111 27.8532C109.556 27.0294 110.162 26.3665 110.929 25.8646C111.696 25.3627 112.568 24.9839 113.543 24.7282C114.528 24.4726 115.56 24.2926 116.64 24.1885C117.909 24.0559 118.931 23.9328 119.708 23.8192C120.484 23.6961 121.048 23.5161 121.398 23.2794C121.749 23.0426 121.924 22.6923 121.924 22.2282V22.143C121.924 21.2434 121.64 20.5474 121.071 20.055C120.513 19.5625 119.717 19.3163 118.685 19.3163C117.596 19.3163 116.73 19.5578 116.086 20.0407C115.442 20.5142 115.016 21.1108 114.807 21.8305L109.211 21.376C109.495 20.0502 110.053 18.9044 110.887 17.9385C111.72 16.9631 112.795 16.215 114.111 15.6942C115.437 15.1639 116.971 14.8987 118.714 14.8987C119.926 14.8987 121.086 15.0407 122.194 15.3248C123.311 15.6089 124.301 16.0493 125.162 16.6459C126.034 17.2425 126.72 18.0095 127.222 18.947C127.724 19.875 127.975 20.9877 127.975 22.2851V37.001H122.236V33.9754H122.066C121.715 34.6572 121.247 35.2586 120.66 35.7794C120.072 36.2907 119.367 36.6932 118.543 36.9868C117.719 37.2709 116.767 37.4129 115.688 37.4129ZM117.421 33.2368C118.311 33.2368 119.097 33.0616 119.779 32.7112C120.461 32.3514 120.996 31.8684 121.384 31.2623C121.772 30.6563 121.966 29.9697 121.966 29.2027V26.8873C121.777 27.0104 121.517 27.1241 121.185 27.2282C120.863 27.3229 120.499 27.4129 120.091 27.4981C119.684 27.5739 119.277 27.6449 118.87 27.7112C118.463 27.768 118.093 27.8201 117.762 27.8675C117.052 27.9716 116.431 28.1373 115.901 28.3646C115.371 28.5919 114.959 28.8997 114.665 29.2879C114.372 29.6667 114.225 30.1402 114.225 30.7084C114.225 31.5322 114.523 32.162 115.12 32.5976C115.726 33.0237 116.493 33.2368 117.421 33.2368ZM132.783 37.001V7.91007H138.834V18.8476H139.019C139.284 18.2604 139.668 17.6639 140.169 17.0578C140.681 16.4423 141.344 15.9309 142.158 15.5237C142.982 15.107 144.005 14.8987 145.226 14.8987C146.817 14.8987 148.285 15.3154 149.63 16.1487C150.974 16.9726 152.049 18.2178 152.854 19.8845C153.659 21.5417 154.062 23.6203 154.062 26.1203C154.062 28.554 153.669 30.6089 152.883 32.2851C152.106 33.9517 151.045 35.2159 149.701 36.0777C148.365 36.93 146.869 37.3561 145.212 37.3561C144.038 37.3561 143.039 37.162 142.215 36.7737C141.401 36.3854 140.733 35.8978 140.212 35.3106C139.691 34.714 139.294 34.1127 139.019 33.5067H138.749V37.001H132.783ZM138.706 26.0919C138.706 27.3892 138.886 28.5209 139.246 29.4868C139.606 30.4527 140.127 31.2055 140.809 31.7453C141.49 32.2756 142.319 32.5407 143.294 32.5407C144.279 32.5407 145.113 32.2709 145.794 31.7311C146.476 31.1818 146.992 30.4243 147.343 29.4584C147.703 28.483 147.883 27.3608 147.883 26.0919C147.883 24.8324 147.707 23.7245 147.357 22.768C147.007 21.8116 146.49 21.0635 145.809 20.5237C145.127 19.9839 144.289 19.714 143.294 19.714C142.31 19.714 141.476 19.9745 140.794 20.4953C140.122 21.0161 139.606 21.7548 139.246 22.7112C138.886 23.6676 138.706 24.7945 138.706 26.0919ZM164.15 24.3873V37.001H158.099V7.91007H163.98V19.0322H164.236C164.728 17.7443 165.523 16.7358 166.622 16.0067C167.72 15.268 169.098 14.8987 170.755 14.8987C172.271 14.8987 173.592 15.2301 174.718 15.893C175.855 16.5464 176.736 17.4887 177.361 18.7197C177.995 19.9413 178.307 21.4044 178.298 23.1089V37.001H172.247V24.1885C172.256 22.8438 171.915 21.7974 171.224 21.0493C170.542 20.3012 169.586 19.9271 168.355 19.9271C167.531 19.9271 166.802 20.1023 166.167 20.4527C165.542 20.8031 165.05 21.3144 164.69 21.9868C164.34 22.6497 164.16 23.4498 164.15 24.3873Z" fill="#A663FF"/>
<path d="M87.0384 48.8192V59.001H84.8857V48.8192H87.0384ZM90.8877 54.5862V59.001H88.7698V51.3646H90.7883V52.7119H90.8777C91.0468 52.2678 91.3302 51.9165 91.7279 51.6579C92.1256 51.3961 92.6079 51.2652 93.1746 51.2652C93.7049 51.2652 94.1673 51.3812 94.5617 51.6132C94.9561 51.8452 95.2627 52.1766 95.4814 52.6075C95.7002 53.0351 95.8096 53.5455 95.8096 54.1388V59.001H93.6917V54.5166C93.695 54.0493 93.5757 53.6847 93.3337 53.4229C93.0918 53.1577 92.7587 53.0251 92.3344 53.0251C92.0494 53.0251 91.7975 53.0864 91.5787 53.2091C91.3633 53.3317 91.1943 53.5107 91.0716 53.746C90.9523 53.978 90.891 54.2581 90.8877 54.5862ZM104.325 51.3646L101.655 59.001H99.2685L96.5988 51.3646H98.836L100.422 56.8284H100.502L102.082 51.3646H104.325ZM108.642 59.1501C107.857 59.1501 107.181 58.991 106.614 58.6729C106.051 58.3514 105.616 57.8973 105.312 57.3106C105.007 56.7207 104.854 56.023 104.854 55.2176C104.854 54.4321 105.007 53.7427 105.312 53.1494C105.616 52.5561 106.046 52.0938 106.599 51.7623C107.156 51.4309 107.809 51.2652 108.558 51.2652C109.062 51.2652 109.531 51.3464 109.965 51.5088C110.402 51.6679 110.784 51.9082 111.108 52.2297C111.437 52.5512 111.692 52.9555 111.874 53.4427C112.056 53.9266 112.147 54.4934 112.147 55.143V55.7247H105.699V54.4122H110.154C110.154 54.1073 110.088 53.8372 109.955 53.6018C109.822 53.3665 109.638 53.1826 109.403 53.05C109.171 52.9141 108.901 52.8461 108.593 52.8461C108.271 52.8461 107.986 52.9207 107.738 53.0699C107.492 53.2157 107.3 53.4129 107.161 53.6615C107.022 53.9068 106.95 54.1802 106.947 54.4818V55.7297C106.947 56.1075 107.017 56.434 107.156 56.7091C107.298 56.9842 107.499 57.1963 107.758 57.3454C108.016 57.4946 108.323 57.5692 108.677 57.5692C108.913 57.5692 109.128 57.536 109.324 57.4697C109.519 57.4034 109.687 57.304 109.826 57.1714C109.965 57.0389 110.071 56.8764 110.144 56.6842L112.103 56.8135C112.003 57.2841 111.799 57.6951 111.491 58.0464C111.186 58.3944 110.792 58.6662 110.308 58.8618C109.827 59.054 109.272 59.1501 108.642 59.1501ZM119.883 53.5422L117.944 53.6615C117.911 53.4958 117.84 53.3466 117.731 53.214C117.621 53.0782 117.477 52.9704 117.298 52.8909C117.122 52.808 116.912 52.7666 116.667 52.7666C116.339 52.7666 116.062 52.8362 115.836 52.9754C115.611 53.1113 115.498 53.2936 115.498 53.5223C115.498 53.7046 115.571 53.8587 115.717 53.9846C115.863 54.1106 116.113 54.2117 116.468 54.2879L117.85 54.5663C118.592 54.7188 119.146 54.964 119.51 55.3021C119.875 55.6402 120.057 56.0843 120.057 56.6345C120.057 57.135 119.91 57.5741 119.615 57.952C119.323 58.3298 118.922 58.6248 118.412 58.8369C117.905 59.0457 117.32 59.1501 116.657 59.1501C115.646 59.1501 114.84 58.9397 114.24 58.5187C113.644 58.0945 113.294 57.5178 113.191 56.7886L115.275 56.6792C115.338 56.9875 115.49 57.2228 115.732 57.3852C115.974 57.5443 116.284 57.6238 116.662 57.6238C117.033 57.6238 117.331 57.5526 117.557 57.4101C117.785 57.2642 117.901 57.077 117.905 56.8483C117.901 56.656 117.82 56.4986 117.661 56.376C117.502 56.25 117.257 56.1539 116.925 56.0876L115.603 55.8241C114.857 55.675 114.302 55.4165 113.937 55.0486C113.576 54.6807 113.395 54.2117 113.395 53.6416C113.395 53.1511 113.528 52.7285 113.793 52.3738C114.062 52.0192 114.438 51.7458 114.922 51.5535C115.409 51.3613 115.979 51.2652 116.632 51.2652C117.596 51.2652 118.355 51.469 118.909 51.8767C119.466 52.2844 119.79 52.8395 119.883 53.5422ZM125.453 51.3646V52.9555H120.854V51.3646H125.453ZM121.898 49.5351H124.016V56.6544C124.016 56.8499 124.046 57.0024 124.105 57.1118C124.165 57.2178 124.248 57.2924 124.354 57.3355C124.463 57.3786 124.589 57.4001 124.732 57.4001C124.831 57.4001 124.931 57.3918 125.03 57.3753C125.13 57.3554 125.206 57.3405 125.259 57.3305L125.592 58.9065C125.486 58.9397 125.337 58.9778 125.144 59.0209C124.952 59.0673 124.719 59.0954 124.443 59.1054C123.933 59.1253 123.486 59.0573 123.101 58.9015C122.72 58.7458 122.423 58.5038 122.211 58.1757C121.999 57.8476 121.895 57.4333 121.898 56.9328V49.5351ZM130.073 59.001V51.3646H132.19V59.001H130.073ZM131.136 50.3802C130.822 50.3802 130.551 50.2758 130.326 50.067C130.104 49.8549 129.993 49.6014 129.993 49.3064C129.993 49.0147 130.104 48.7645 130.326 48.5557C130.551 48.3435 130.822 48.2375 131.136 48.2375C131.451 48.2375 131.72 48.3435 131.942 48.5557C132.167 48.7645 132.28 49.0147 132.28 49.3064C132.28 49.6014 132.167 49.8549 131.942 50.067C131.72 50.2758 131.451 50.3802 131.136 50.3802ZM136.005 54.5862V59.001H133.887V51.3646H135.905V52.7119H135.995C136.164 52.2678 136.447 51.9165 136.845 51.6579C137.243 51.3961 137.725 51.2652 138.292 51.2652C138.822 51.2652 139.284 51.3812 139.679 51.6132C140.073 51.8452 140.38 52.1766 140.599 52.6075C140.817 53.0351 140.927 53.5455 140.927 54.1388V59.001H138.809V54.5166C138.812 54.0493 138.693 53.6847 138.451 53.4229C138.209 53.1577 137.876 53.0251 137.452 53.0251C137.167 53.0251 136.915 53.0864 136.696 53.2091C136.48 53.3317 136.311 53.5107 136.189 53.746C136.07 53.978 136.008 54.2581 136.005 54.5862ZM145.876 59.001V48.8192H148.029V53.0202H152.399V48.8192H154.546V59.001H152.399V54.795H148.029V59.001H145.876ZM159.732 59.1501C158.96 59.1501 158.292 58.9861 157.728 58.6579C157.168 58.3265 156.736 57.8658 156.431 57.2758C156.126 56.6826 155.973 55.9948 155.973 55.2126C155.973 54.4238 156.126 53.7344 156.431 53.1444C156.736 52.5512 157.168 52.0905 157.728 51.7623C158.292 51.4309 158.96 51.2652 159.732 51.2652C160.504 51.2652 161.17 51.4309 161.73 51.7623C162.294 52.0905 162.728 52.5512 163.033 53.1444C163.338 53.7344 163.49 54.4238 163.49 55.2126C163.49 55.9948 163.338 56.6826 163.033 57.2758C162.728 57.8658 162.294 58.3265 161.73 58.6579C161.17 58.9861 160.504 59.1501 159.732 59.1501ZM159.742 57.5095C160.093 57.5095 160.386 57.4101 160.622 57.2112C160.857 57.009 161.034 56.7339 161.154 56.3859C161.276 56.0379 161.338 55.6418 161.338 55.1977C161.338 54.7536 161.276 54.3575 161.154 54.0095C161.034 53.6615 160.857 53.3864 160.622 53.1842C160.386 52.982 160.093 52.8809 159.742 52.8809C159.387 52.8809 159.089 52.982 158.847 53.1842C158.608 53.3864 158.428 53.6615 158.305 54.0095C158.186 54.3575 158.126 54.7536 158.126 55.1977C158.126 55.6418 158.186 56.0379 158.305 56.3859C158.428 56.7339 158.608 57.009 158.847 57.2112C159.089 57.4101 159.387 57.5095 159.742 57.5095ZM164.867 61.8646V51.3646H166.956V52.6473H167.05C167.143 52.4418 167.277 52.233 167.453 52.0209C167.632 51.8054 167.864 51.6265 168.149 51.4839C168.437 51.3381 168.795 51.2652 169.223 51.2652C169.779 51.2652 170.293 51.411 170.764 51.7027C171.234 51.991 171.611 52.4269 171.892 53.0102C172.174 53.5902 172.315 54.3177 172.315 55.1927C172.315 56.0445 172.177 56.7638 171.902 57.3504C171.63 57.9337 171.259 58.3762 170.789 58.6778C170.321 58.9761 169.798 59.1253 169.218 59.1253C168.807 59.1253 168.457 59.0573 168.169 58.9214C167.884 58.7855 167.65 58.6148 167.468 58.4094C167.285 58.2006 167.146 57.9901 167.05 57.778H166.985V61.8646H164.867ZM166.941 55.1828C166.941 55.6369 167.004 56.0329 167.13 56.371C167.255 56.7091 167.438 56.9726 167.676 57.1615C167.915 57.3471 168.205 57.4399 168.546 57.4399C168.891 57.4399 169.183 57.3454 169.421 57.1565C169.66 56.9643 169.841 56.6991 169.963 56.3611C170.089 56.0197 170.152 55.6269 170.152 55.1828C170.152 54.742 170.091 54.3542 169.968 54.0194C169.846 53.6847 169.665 53.4229 169.426 53.2339C169.188 53.045 168.894 52.9506 168.546 52.9506C168.202 52.9506 167.91 53.0417 167.671 53.224C167.436 53.4063 167.255 53.6648 167.13 53.9996C167.004 54.3343 166.941 54.7287 166.941 55.1828ZM177.207 59.1501C176.421 59.1501 175.745 58.991 175.179 58.6729C174.615 58.3514 174.181 57.8973 173.876 57.3106C173.571 56.7207 173.419 56.023 173.419 55.2176C173.419 54.4321 173.571 53.7427 173.876 53.1494C174.181 52.5561 174.61 52.0938 175.164 51.7623C175.72 51.4309 176.373 51.2652 177.122 51.2652C177.626 51.2652 178.095 51.3464 178.529 51.5088C178.967 51.6679 179.348 51.9082 179.673 52.2297C180.001 52.5512 180.256 52.9555 180.438 53.4427C180.621 53.9266 180.712 54.4934 180.712 55.143V55.7247H174.264V54.4122H178.718C178.718 54.1073 178.652 53.8372 178.519 53.6018C178.387 53.3665 178.203 53.1826 177.968 53.05C177.736 52.9141 177.465 52.8461 177.157 52.8461C176.836 52.8461 176.551 52.9207 176.302 53.0699C176.057 53.2157 175.865 53.4129 175.725 53.6615C175.586 53.9068 175.515 54.1802 175.512 54.4818V55.7297C175.512 56.1075 175.581 56.434 175.72 56.7091C175.863 56.9842 176.063 57.1963 176.322 57.3454C176.581 57.4946 176.887 57.5692 177.242 57.5692C177.477 57.5692 177.692 57.536 177.888 57.4697C178.084 57.4034 178.251 57.304 178.39 57.1714C178.529 57.0389 178.635 56.8764 178.708 56.6842L180.667 56.8135C180.568 57.2841 180.364 57.6951 180.056 58.0464C179.751 58.3944 179.356 58.6662 178.872 58.8618C178.392 59.054 177.837 59.1501 177.207 59.1501ZM184.396 57.6089L184.341 58.1558C184.298 58.5933 184.215 59.0291 184.093 59.4633C183.973 59.9008 183.847 60.2969 183.715 60.6515C183.585 61.0062 183.481 61.2846 183.402 61.4868H182.029C182.079 61.2912 182.147 61.0178 182.233 60.6665C182.319 60.3184 182.401 59.9273 182.477 59.4932C182.553 59.059 182.601 58.6165 182.621 58.1657L182.646 57.6089H184.396ZM189.134 59.001V48.8192H191.286V53.0202H195.657V48.8192H197.804V59.001H195.657V54.795H191.286V59.001H189.134ZM201.717 59.1452C201.23 59.1452 200.795 59.0606 200.414 58.8916C200.033 58.7193 199.732 58.4657 199.509 58.1309C199.291 57.7929 199.181 57.372 199.181 56.8682C199.181 56.4439 199.259 56.0876 199.415 55.7993C199.571 55.5109 199.783 55.2789 200.051 55.1032C200.32 54.9276 200.625 54.795 200.966 54.7055C201.311 54.616 201.672 54.5531 202.05 54.5166C202.494 54.4702 202.852 54.4271 203.124 54.3873C203.396 54.3443 203.593 54.2813 203.715 54.1984C203.838 54.1156 203.899 53.9929 203.899 53.8305V53.8007C203.899 53.4858 203.8 53.2422 203.601 53.0699C203.406 52.8975 203.127 52.8113 202.766 52.8113C202.385 52.8113 202.081 52.8959 201.856 53.0649C201.631 53.2306 201.482 53.4394 201.409 53.6913L199.45 53.5322C199.549 53.0682 199.745 52.6672 200.036 52.3291C200.328 51.9877 200.704 51.7259 201.165 51.5436C201.629 51.358 202.166 51.2652 202.776 51.2652C203.2 51.2652 203.606 51.3149 203.994 51.4143C204.385 51.5138 204.731 51.6679 205.033 51.8767C205.338 52.0855 205.578 52.354 205.754 52.6821C205.929 53.0069 206.017 53.3963 206.017 53.8504V59.001H204.009V57.942H203.949C203.826 58.1807 203.662 58.3911 203.457 58.5734C203.251 58.7524 203.005 58.8933 202.716 58.996C202.428 59.0954 202.095 59.1452 201.717 59.1452ZM202.323 57.6835C202.635 57.6835 202.91 57.6222 203.149 57.4996C203.387 57.3736 203.575 57.2046 203.71 56.9925C203.846 56.7803 203.914 56.54 203.914 56.2716V55.4612C203.848 55.5043 203.757 55.5441 203.641 55.5805C203.528 55.6137 203.401 55.6452 203.258 55.675C203.116 55.7015 202.973 55.7264 202.831 55.7496C202.688 55.7694 202.559 55.7877 202.443 55.8042C202.194 55.8407 201.977 55.8987 201.791 55.9782C201.606 56.0578 201.462 56.1655 201.359 56.3014C201.256 56.434 201.205 56.5997 201.205 56.7986C201.205 57.0869 201.309 57.3073 201.518 57.4598C201.73 57.6089 201.999 57.6835 202.323 57.6835ZM207.66 59.001V51.3646H209.714V52.697H209.793C209.932 52.223 210.166 51.8651 210.494 51.6231C210.822 51.3779 211.2 51.2552 211.628 51.2552C211.734 51.2552 211.848 51.2619 211.971 51.2751C212.093 51.2884 212.201 51.3066 212.294 51.3298V53.2091C212.195 53.1792 212.057 53.1527 211.881 53.1295C211.706 53.1063 211.545 53.0947 211.399 53.0947C211.088 53.0947 210.809 53.1627 210.564 53.2986C210.322 53.4311 210.13 53.6167 209.987 53.8554C209.848 54.094 209.778 54.3691 209.778 54.6807V59.001H207.66ZM220.741 51.3646L218.071 59.001H215.685L213.015 51.3646H215.252L216.838 56.8284H216.918L218.498 51.3646H220.741ZM225.058 59.1501C224.273 59.1501 223.597 58.991 223.03 58.6729C222.467 58.3514 222.032 57.8973 221.728 57.3106C221.423 56.7207 221.27 56.023 221.27 55.2176C221.27 54.4321 221.423 53.7427 221.728 53.1494C222.032 52.5561 222.462 52.0938 223.015 51.7623C223.572 51.4309 224.225 51.2652 224.974 51.2652C225.478 51.2652 225.947 51.3464 226.381 51.5088C226.818 51.6679 227.2 51.9082 227.524 52.2297C227.853 52.5512 228.108 52.9555 228.29 53.4427C228.472 53.9266 228.563 54.4934 228.563 55.143V55.7247H222.115V54.4122H226.57C226.57 54.1073 226.504 53.8372 226.371 53.6018C226.238 53.3665 226.054 53.1826 225.819 53.05C225.587 52.9141 225.317 52.8461 225.009 52.8461C224.687 52.8461 224.402 52.9207 224.154 53.0699C223.908 53.2157 223.716 53.4129 223.577 53.6615C223.438 53.9068 223.367 54.1802 223.363 54.4818V55.7297C223.363 56.1075 223.433 56.434 223.572 56.7091C223.715 56.9842 223.915 57.1963 224.174 57.3454C224.432 57.4946 224.739 57.5692 225.093 57.5692C225.329 57.5692 225.544 57.536 225.74 57.4697C225.935 57.4034 226.103 57.304 226.242 57.1714C226.381 57.0389 226.487 56.8764 226.56 56.6842L228.519 56.8135C228.419 57.2841 228.215 57.6951 227.907 58.0464C227.602 58.3944 227.208 58.6662 226.724 58.8618C226.243 59.054 225.688 59.1501 225.058 59.1501ZM236.299 53.5422L234.36 53.6615C234.327 53.4958 234.256 53.3466 234.147 53.214C234.037 53.0782 233.893 52.9704 233.714 52.8909C233.538 52.808 233.328 52.7666 233.083 52.7666C232.755 52.7666 232.478 52.8362 232.252 52.9754C232.027 53.1113 231.914 53.2936 231.914 53.5223C231.914 53.7046 231.987 53.8587 232.133 53.9846C232.279 54.1106 232.529 54.2117 232.884 54.2879L234.266 54.5663C235.008 54.7188 235.562 54.964 235.926 55.3021C236.291 55.6402 236.473 56.0843 236.473 56.6345C236.473 57.135 236.326 57.5741 236.031 57.952C235.739 58.3298 235.338 58.6248 234.828 58.8369C234.321 59.0457 233.736 59.1501 233.073 59.1501C232.062 59.1501 231.256 58.9397 230.657 58.5187C230.06 58.0945 229.71 57.5178 229.608 56.7886L231.691 56.6792C231.754 56.9875 231.906 57.2228 232.148 57.3852C232.39 57.5443 232.7 57.6238 233.078 57.6238C233.449 57.6238 233.747 57.5526 233.973 57.4101C234.201 57.2642 234.317 57.077 234.321 56.8483C234.317 56.656 234.236 56.4986 234.077 56.376C233.918 56.25 233.673 56.1539 233.341 56.0876L232.019 55.8241C231.273 55.675 230.718 55.4165 230.353 55.0486C229.992 54.6807 229.811 54.2117 229.811 53.6416C229.811 53.1511 229.944 52.7285 230.209 52.3738C230.478 52.0192 230.854 51.7458 231.338 51.5535C231.825 51.3613 232.395 51.2652 233.048 51.2652C234.012 51.2652 234.771 51.469 235.325 51.8767C235.882 52.2844 236.206 52.8395 236.299 53.5422ZM241.869 51.3646V52.9555H237.27V51.3646H241.869ZM238.314 49.5351H240.432V56.6544C240.432 56.8499 240.462 57.0024 240.521 57.1118C240.581 57.2178 240.664 57.2924 240.77 57.3355C240.879 57.3786 241.005 57.4001 241.148 57.4001C241.247 57.4001 241.347 57.3918 241.446 57.3753C241.546 57.3554 241.622 57.3405 241.675 57.3305L242.008 58.9065C241.902 58.9397 241.753 58.9778 241.56 59.0209C241.368 59.0673 241.135 59.0954 240.859 59.1054C240.349 59.1253 239.902 59.0573 239.517 58.9015C239.136 58.7458 238.839 58.5038 238.627 58.1757C238.415 57.8476 238.311 57.4333 238.314 56.9328V49.5351ZM252.052 51.7474C252.012 51.3464 251.841 51.0348 251.54 50.8128C251.238 50.5907 250.829 50.4797 250.312 50.4797C249.96 50.4797 249.664 50.5294 249.422 50.6288C249.18 50.7249 248.994 50.8592 248.865 51.0315C248.739 51.2039 248.676 51.3994 248.676 51.6182C248.669 51.8005 248.708 51.9595 248.79 52.0954C248.877 52.2313 248.994 52.349 249.143 52.4484C249.293 52.5445 249.465 52.6291 249.66 52.702C249.856 52.7716 250.065 52.8312 250.287 52.8809L251.202 53.0997C251.646 53.1991 252.053 53.3317 252.425 53.4974C252.796 53.6631 253.117 53.867 253.389 54.1089C253.661 54.3509 253.871 54.6359 254.021 54.964C254.173 55.2922 254.251 55.6684 254.254 56.0926C254.251 56.7157 254.092 57.2559 253.777 57.7133C253.465 58.1674 253.015 58.5204 252.425 58.7723C251.838 59.0209 251.13 59.1452 250.302 59.1452C249.48 59.1452 248.764 59.0192 248.154 58.7673C247.547 58.5154 247.074 58.1425 246.732 57.6487C246.394 57.1515 246.217 56.5367 246.2 55.8042H248.283C248.306 56.1456 248.404 56.4307 248.577 56.6594C248.752 56.8847 248.986 57.0554 249.278 57.1714C249.573 57.2841 249.906 57.3405 250.277 57.3405C250.641 57.3405 250.958 57.2874 251.226 57.1814C251.498 57.0753 251.709 56.9278 251.858 56.7389C252.007 56.55 252.082 56.3329 252.082 56.0876C252.082 55.8589 252.014 55.6667 251.878 55.5109C251.745 55.3551 251.55 55.2226 251.291 55.1132C251.036 55.0038 250.723 54.9044 250.351 54.8149L249.243 54.5365C248.384 54.3277 247.707 54.0012 247.209 53.5571C246.712 53.113 246.465 52.5147 246.469 51.7623C246.465 51.1459 246.629 50.6073 246.961 50.1466C247.296 49.6859 247.755 49.3263 248.338 49.0677C248.921 48.8092 249.584 48.68 250.327 48.68C251.082 48.68 251.742 48.8092 252.305 49.0677C252.872 49.3263 253.313 49.6859 253.628 50.1466C253.943 50.6073 254.105 51.1409 254.115 51.7474H252.052ZM260.559 55.7496V51.3646H262.677V59.001H260.644V57.6139H260.564C260.392 58.0613 260.105 58.421 259.704 58.6927C259.307 58.9645 258.821 59.1004 258.248 59.1004C257.737 59.1004 257.288 58.9844 256.9 58.7524C256.513 58.5204 256.209 58.1906 255.99 57.7631C255.775 57.3355 255.666 56.8234 255.662 56.2268V51.3646H257.78V55.849C257.784 56.2997 257.905 56.656 258.143 56.9179C258.382 57.1797 258.702 57.3106 259.103 57.3106C259.358 57.3106 259.597 57.2526 259.819 57.1366C260.041 57.0173 260.22 56.8416 260.356 56.6096C260.495 56.3776 260.563 56.0909 260.559 55.7496ZM267.822 59.1501C267.039 59.1501 266.367 58.9844 265.803 58.653C265.243 58.3182 264.812 57.8542 264.511 57.2609C264.212 56.6676 264.063 55.9849 264.063 55.2126C264.063 54.4304 264.214 53.7443 264.516 53.1544C264.82 52.5611 265.253 52.0988 265.813 51.7673C266.373 51.4326 267.039 51.2652 267.812 51.2652C268.478 51.2652 269.061 51.3862 269.562 51.6281C270.062 51.8701 270.458 52.2098 270.75 52.6473C271.042 53.0848 271.202 53.5985 271.232 54.1885H269.234C269.177 53.8073 269.028 53.5007 268.786 53.2687C268.547 53.0334 268.234 52.9157 267.846 52.9157C267.518 52.9157 267.232 53.0052 266.986 53.1842C266.744 53.3599 266.556 53.6167 266.42 53.9548C266.284 54.2929 266.216 54.7022 266.216 55.1828C266.216 55.67 266.282 56.0843 266.415 56.4257C266.551 56.7671 266.741 57.0273 266.986 57.2062C267.232 57.3852 267.518 57.4747 267.846 57.4747C268.088 57.4747 268.306 57.425 268.498 57.3256C268.693 57.2261 268.854 57.0819 268.98 56.893C269.109 56.7008 269.194 56.4704 269.234 56.202H271.232C271.199 56.7853 271.04 57.299 270.755 57.7432C270.473 58.184 270.084 58.5287 269.587 58.7773C269.089 59.0258 268.501 59.1501 267.822 59.1501ZM276.038 59.1501C275.256 59.1501 274.583 58.9844 274.02 58.653C273.46 58.3182 273.029 57.8542 272.727 57.2609C272.429 56.6676 272.28 55.9849 272.28 55.2126C272.28 54.4304 272.431 53.7443 272.732 53.1544C273.037 52.5611 273.47 52.0988 274.03 51.7673C274.59 51.4326 275.256 51.2652 276.028 51.2652C276.695 51.2652 277.278 51.3862 277.778 51.6281C278.279 51.8701 278.675 52.2098 278.967 52.6473C279.258 53.0848 279.419 53.5985 279.449 54.1885H277.45C277.394 53.8073 277.245 53.5007 277.003 53.2687C276.764 53.0334 276.451 52.9157 276.063 52.9157C275.735 52.9157 275.448 53.0052 275.203 53.1842C274.961 53.3599 274.772 53.6167 274.636 53.9548C274.501 54.2929 274.433 54.7022 274.433 55.1828C274.433 55.67 274.499 56.0843 274.631 56.4257C274.767 56.7671 274.958 57.0273 275.203 57.2062C275.448 57.3852 275.735 57.4747 276.063 57.4747C276.305 57.4747 276.522 57.425 276.715 57.3256C276.91 57.2261 277.071 57.0819 277.197 56.893C277.326 56.7008 277.411 56.4704 277.45 56.202H279.449C279.416 56.7853 279.257 57.299 278.972 57.7432C278.69 58.184 278.301 58.5287 277.803 58.7773C277.306 59.0258 276.718 59.1501 276.038 59.1501ZM284.285 59.1501C283.5 59.1501 282.823 58.991 282.257 58.6729C281.693 58.3514 281.259 57.8973 280.954 57.3106C280.649 56.7207 280.497 56.023 280.497 55.2176C280.497 54.4321 280.649 53.7427 280.954 53.1494C281.259 52.5561 281.688 52.0938 282.242 51.7623C282.799 51.4309 283.451 51.2652 284.201 51.2652C284.704 51.2652 285.173 51.3464 285.608 51.5088C286.045 51.6679 286.426 51.9082 286.751 52.2297C287.079 52.5512 287.334 52.9555 287.517 53.4427C287.699 53.9266 287.79 54.4934 287.79 55.143V55.7247H281.342V54.4122H285.796C285.796 54.1073 285.73 53.8372 285.598 53.6018C285.465 53.3665 285.281 53.1826 285.046 53.05C284.814 52.9141 284.544 52.8461 284.235 52.8461C283.914 52.8461 283.629 52.9207 283.38 53.0699C283.135 53.2157 282.943 53.4129 282.804 53.6615C282.664 53.9068 282.593 54.1802 282.59 54.4818V55.7297C282.59 56.1075 282.659 56.434 282.799 56.7091C282.941 56.9842 283.142 57.1963 283.4 57.3454C283.659 57.4946 283.965 57.5692 284.32 57.5692C284.555 57.5692 284.771 57.536 284.966 57.4697C285.162 57.4034 285.329 57.304 285.468 57.1714C285.608 57.0389 285.714 56.8764 285.786 56.6842L287.745 56.8135C287.646 57.2841 287.442 57.6951 287.134 58.0464C286.829 58.3944 286.434 58.6662 285.951 58.8618C285.47 59.054 284.915 59.1501 284.285 59.1501ZM295.526 53.5422L293.587 53.6615C293.554 53.4958 293.483 53.3466 293.373 53.214C293.264 53.0782 293.12 52.9704 292.941 52.8909C292.765 52.808 292.554 52.7666 292.309 52.7666C291.981 52.7666 291.704 52.8362 291.479 52.9754C291.254 53.1113 291.141 53.2936 291.141 53.5223C291.141 53.7046 291.214 53.8587 291.36 53.9846C291.505 54.1106 291.756 54.2117 292.11 54.2879L293.492 54.5663C294.235 54.7188 294.788 54.964 295.153 55.3021C295.518 55.6402 295.7 56.0843 295.7 56.6345C295.7 57.135 295.552 57.5741 295.257 57.952C294.966 58.3298 294.565 58.6248 294.054 58.8369C293.547 59.0457 292.962 59.1501 292.299 59.1501C291.288 59.1501 290.483 58.9397 289.883 58.5187C289.286 58.0945 288.937 57.5178 288.834 56.7886L290.917 56.6792C290.98 56.9875 291.133 57.2228 291.375 57.3852C291.617 57.5443 291.926 57.6238 292.304 57.6238C292.675 57.6238 292.974 57.5526 293.199 57.4101C293.428 57.2642 293.544 57.077 293.547 56.8483C293.544 56.656 293.463 56.4986 293.304 56.376C293.144 56.25 292.899 56.1539 292.568 56.0876L291.245 55.8241C290.5 55.675 289.944 55.4165 289.58 55.0486C289.219 54.6807 289.038 54.2117 289.038 53.6416C289.038 53.1511 289.17 52.7285 289.436 52.3738C289.704 52.0192 290.08 51.7458 290.564 51.5535C291.051 51.3613 291.621 51.2652 292.274 51.2652C293.239 51.2652 293.998 51.469 294.551 51.8767C295.108 52.2844 295.433 52.8395 295.526 53.5422ZM303.387 53.5422L301.448 53.6615C301.415 53.4958 301.344 53.3466 301.234 53.214C301.125 53.0782 300.981 52.9704 300.802 52.8909C300.626 52.808 300.416 52.7666 300.171 52.7666C299.842 52.7666 299.566 52.8362 299.34 52.9754C299.115 53.1113 299.002 53.2936 299.002 53.5223C299.002 53.7046 299.075 53.8587 299.221 53.9846C299.367 54.1106 299.617 54.2117 299.972 54.2879L301.354 54.5663C302.096 54.7188 302.65 54.964 303.014 55.3021C303.379 55.6402 303.561 56.0843 303.561 56.6345C303.561 57.135 303.414 57.5741 303.119 57.952C302.827 58.3298 302.426 58.6248 301.916 58.8369C301.408 59.0457 300.823 59.1501 300.161 59.1501C299.15 59.1501 298.344 58.9397 297.744 58.5187C297.148 58.0945 296.798 57.5178 296.695 56.7886L298.778 56.6792C298.841 56.9875 298.994 57.2228 299.236 57.3852C299.478 57.5443 299.788 57.6238 300.166 57.6238C300.537 57.6238 300.835 57.5526 301.06 57.4101C301.289 57.2642 301.405 57.077 301.408 56.8483C301.405 56.656 301.324 56.4986 301.165 56.376C301.006 56.25 300.761 56.1539 300.429 56.0876L299.107 55.8241C298.361 55.675 297.806 55.4165 297.441 55.0486C297.08 54.6807 296.899 54.2117 296.899 53.6416C296.899 53.1511 297.032 52.7285 297.297 52.3738C297.565 52.0192 297.942 51.7458 298.426 51.5535C298.913 51.3613 299.483 51.2652 300.136 51.2652C301.1 51.2652 301.859 51.469 302.413 51.8767C302.97 52.2844 303.294 52.8395 303.387 53.5422Z" fill="#605D84"/>
</svg>
