<svg width="49" height="49" viewBox="0 0 49 49" fill="none" xmlns="http://www.w3.org/2000/svg">
<path d="M10.7188 6.125C8.68819 6.125 6.74079 6.93164 5.30496 8.36746C3.86914 9.80329 3.0625 11.7507 3.0625 13.7812V23.4924C3.93531 22.4144 4.96738 21.4712 6.125 20.6964V13.7812C6.125 12.5629 6.60898 11.3945 7.47048 10.533C8.33197 9.67148 9.50041 9.1875 10.7188 9.1875H38.2812C39.4996 9.1875 40.668 9.67148 41.5295 10.533C42.391 11.3945 42.875 12.5629 42.875 13.7812V32.1562C42.875 33.3746 42.391 34.543 41.5295 35.4045C40.668 36.266 39.4996 36.75 38.2812 36.75H26.7785C26.6152 37.2094 26.4284 37.6585 26.2181 38.0975L27.9331 39.8125H38.2812C40.3118 39.8125 42.2592 39.0059 43.695 37.57C45.1309 36.1342 45.9375 34.1868 45.9375 32.1562V13.7812C45.9375 11.7507 45.1309 9.80329 43.695 8.36746C42.2592 6.93164 40.3118 6.125 38.2812 6.125H10.7188ZM22.4451 21.4375C23.5231 22.3103 24.4663 23.3424 25.2411 24.5H35.2188C35.6249 24.5 36.0143 24.3387 36.3015 24.0515C36.5887 23.7643 36.75 23.3749 36.75 22.9688C36.75 22.5626 36.5887 22.1732 36.3015 21.886C36.0143 21.5988 35.6249 21.4375 35.2188 21.4375H22.4451ZM26.7785 27.5625C27.1256 28.5384 27.3594 29.5592 27.4798 30.625H32.1562C32.5624 30.625 32.9518 30.4637 33.239 30.1765C33.5262 29.8893 33.6875 29.4999 33.6875 29.0938C33.6875 28.6876 33.5262 28.2982 33.239 28.011C32.9518 27.7238 32.5624 27.5625 32.1562 27.5625H26.7785ZM22.9688 18.375H13.7812C13.3751 18.375 12.9857 18.2137 12.6985 17.9265C12.4113 17.6393 12.25 17.2499 12.25 16.8438C12.25 16.4376 12.4113 16.0482 12.6985 15.761C12.9857 15.4738 13.3751 15.3125 13.7812 15.3125H22.9688C23.3749 15.3125 23.7643 15.4738 24.0515 15.761C24.3387 16.0482 24.5 16.4376 24.5 16.8438C24.5 17.2499 24.3387 17.6393 24.0515 17.9265C23.7643 18.2137 23.3749 18.375 22.9688 18.375ZM13.7812 42.875C16.1884 42.875 18.4118 42.0788 20.2003 40.7404L28.0096 48.5498C28.1518 48.6922 28.3206 48.8052 28.5064 48.8823C28.6923 48.9594 28.8915 48.9992 29.0927 48.9993C29.2939 48.9995 29.4931 48.96 29.6791 48.8831C29.865 48.8062 30.034 48.6935 30.1763 48.5513C30.3187 48.4092 30.4317 48.2404 30.5088 48.0545C30.5859 47.8687 30.6257 47.6695 30.6259 47.4683C30.626 47.2671 30.5865 47.0678 30.5096 46.8819C30.4328 46.696 30.32 46.527 30.1779 46.3846L22.3685 38.5752C23.814 36.6421 24.5648 34.2777 24.4991 31.8648C24.4335 29.4518 23.5553 27.1317 22.0068 25.28C20.4583 23.4284 18.3301 22.1536 15.9669 21.6621C13.6036 21.1706 11.1437 21.4911 8.98529 22.5718C6.82692 23.6526 5.09651 25.4302 4.07426 27.6168C3.052 29.8035 2.79775 32.2712 3.35266 34.6204C3.90758 36.9696 5.23917 39.0627 7.13184 40.5608C9.0245 42.0589 11.3674 42.8743 13.7812 42.875ZM13.7812 39.8125C11.7507 39.8125 9.80329 39.0059 8.36746 37.57C6.93164 36.1342 6.125 34.1868 6.125 32.1562C6.125 30.1257 6.93164 28.1783 8.36746 26.7425C9.80329 25.3066 11.7507 24.5 13.7812 24.5C15.8118 24.5 17.7592 25.3066 19.195 26.7425C20.6309 28.1783 21.4375 30.1257 21.4375 32.1562C21.4375 34.1868 20.6309 36.1342 19.195 37.57C17.7592 39.0059 15.8118 39.8125 13.7812 39.8125Z" fill="url(#paint0_linear_3061_34377)"/>
<defs>
<linearGradient id="paint0_linear_3061_34377" x1="8.17361" y1="6.125" x2="36.3546" y2="51.7607" gradientUnits="userSpaceOnUse">
<stop stop-color="#E5D4FE"/>
<stop offset="0.525" stop-color="white"/>
<stop offset="1" stop-color="#E8DFF4"/>
</linearGradient>
</defs>
</svg>
