<svg width="180" height="180" viewBox="0 0 180 180" fill="none" xmlns="http://www.w3.org/2000/svg">
<path fill-rule="evenodd" clip-rule="evenodd" d="M90 54.4856C90 74.4665 106.099 90.689 125.928 90.689C106.099 90.689 90 106.911 90 126.892C90 106.911 73.9008 90.689 54.0717 90.689C73.9008 90.689 90 74.4665 90 54.4856Z" fill="#A663FF"/>
<path fill-rule="evenodd" clip-rule="evenodd" d="M21.0555 148.982C34.6567 165.315 53.5337 176.297 74.3715 180L80.6445 144.151C68.1709 141.934 56.8709 135.361 48.7295 125.584L21.0555 148.982Z" fill="#A663FF"/>
<path fill-rule="evenodd" clip-rule="evenodd" d="M8.94055 130.095C9.95683 132.218 11.0552 134.3 12.2324 136.337L43.4476 118.014C42.7428 116.795 42.0854 115.549 41.477 114.278L8.94055 130.095Z" fill="#A663FF"/>
<path fill-rule="evenodd" clip-rule="evenodd" d="M2.20572 70.7329C0.7398 77.2821 0 83.9749 0 90.6888C0 102.767 2.39436 114.723 7.04232 125.857L40.3409 111.74C37.5584 105.076 36.1253 97.9189 36.1253 90.6888C36.1253 86.6698 36.5681 82.6632 37.4458 78.7429L2.20572 70.7329Z" fill="#A663FF"/>
<path fill-rule="evenodd" clip-rule="evenodd" d="M10.5648 48.0555C7.30682 54.2188 4.76666 60.7404 2.99402 67.4909L37.9173 76.8025C38.9785 72.7614 40.4992 68.8574 42.4493 65.1682L10.5648 48.0555Z" fill="#A663FF"/>
<path fill-rule="evenodd" clip-rule="evenodd" d="M35.5867 18.4517C32.3319 20.9409 29.2496 23.6507 26.3602 26.5621L51.9047 52.3022C53.6342 50.5595 55.4795 48.9373 57.4279 47.4471L35.5867 18.4517Z" fill="#A663FF"/>
<path fill-rule="evenodd" clip-rule="evenodd" d="M59.5159 5.36047C53.4182 7.57219 47.5754 10.4416 42.0894 13.9179L61.3202 44.7332C64.6041 42.6521 68.1019 40.9348 71.7519 39.6108L59.5159 5.36047Z" fill="#A663FF"/>
<path fill-rule="evenodd" clip-rule="evenodd" d="M153.639 26.562C136.761 9.55462 113.869 0 90 0C85.7991 0 81.6037 0.296371 77.4439 0.886574L82.4839 36.9325C84.9737 36.5792 87.4854 36.4018 90 36.4018C104.288 36.4018 117.991 42.1214 128.095 52.3021L153.639 26.562Z" fill="#A663FF"/>
<path fill-rule="evenodd" clip-rule="evenodd" d="M178.977 77.0561C177.824 69.4165 175.707 61.9564 172.677 54.8577L139.491 69.2402C141.305 73.4895 142.572 77.955 143.262 82.5283L178.977 77.0561Z" fill="#A663FF"/>
<path fill-rule="evenodd" clip-rule="evenodd" d="M179.892 95.1177C179.964 93.6423 180 92.1655 180 90.6888C180 89.2116 179.964 87.7348 179.892 86.2595L143.81 88.0374C143.853 88.9203 143.874 89.8044 143.874 90.6888C143.874 91.5728 143.853 92.4568 143.81 93.3398L179.892 95.1177Z" fill="#A663FF"/>
<path fill-rule="evenodd" clip-rule="evenodd" d="M173.799 123.768C176.472 116.894 178.301 109.717 179.247 102.396L143.424 97.6965C142.858 102.079 141.762 106.375 140.163 110.49L173.799 123.768Z" fill="#A663FF"/>
<path fill-rule="evenodd" clip-rule="evenodd" d="M105.628 180C130.639 175.556 152.622 160.671 166.156 139.017L135.588 119.618C127.486 132.581 114.327 141.491 99.355 144.151L105.628 180Z" fill="#A663FF"/>
</svg>
