<svg width="18" height="18" viewBox="0 0 18 18" fill="none" xmlns="http://www.w3.org/2000/svg">
<path d="M14.0262 12.3475L17.5953 15.9158L16.4162 17.095L12.8478 13.5258C11.5201 14.5901 9.86866 15.169 8.16699 15.1666C4.02699 15.1666 0.666992 11.8066 0.666992 7.66663C0.666992 3.52663 4.02699 0.166626 8.16699 0.166626C12.307 0.166626 15.667 3.52663 15.667 7.66663C15.6694 9.36829 15.0905 11.0197 14.0262 12.3475ZM12.3545 11.7291C13.4119 10.6414 14.0024 9.1836 14.0003 7.66663C14.0003 4.44413 11.3895 1.83329 8.16699 1.83329C4.94449 1.83329 2.33366 4.44413 2.33366 7.66663C2.33366 10.8891 4.94449 13.5 8.16699 13.5C9.68397 13.5021 11.1417 12.9115 12.2295 11.8541L12.3545 11.7291Z" fill="#111111" fill-opacity="0.6"/>
</svg>
