<svg width="20" height="21" viewBox="0 0 20 21" fill="none" xmlns="http://www.w3.org/2000/svg">
<g clip-path="url(#clip0_3599_10687)">
<path d="M19.0127 18.1464H0.192048C0.0864214 18.1464 0 18.2329 0 18.3385V19.6828C0 19.7885 0.0864214 19.8749 0.192048 19.8749H19.0127C19.1183 19.8749 19.2048 19.7885 19.2048 19.6828V18.3385C19.2048 18.2329 19.1183 18.1464 19.0127 18.1464ZM1.28912 15.1409L2.24215 16.0891C2.31657 16.1636 2.439 16.1636 2.51342 16.0891L8.14762 10.4741L10.4906 12.8099C10.6349 12.9529 10.8299 13.0332 11.0331 13.0332C11.2363 13.0332 11.4313 12.9529 11.5757 12.8099L17.918 6.49156C17.9925 6.41714 17.9925 6.29471 17.918 6.22029L16.965 5.26966C16.9289 5.23392 16.8802 5.21387 16.8294 5.21387C16.7786 5.21387 16.7298 5.23392 16.6937 5.26966L11.0355 10.9111L8.69015 8.57528C8.5458 8.43226 8.35082 8.35202 8.14762 8.35202C7.94441 8.35202 7.74943 8.43226 7.60508 8.57528L1.28912 14.8696C1.27116 14.8874 1.2569 14.9085 1.24717 14.9318C1.23744 14.955 1.23243 14.98 1.23243 15.0053C1.23243 15.0305 1.23744 15.0555 1.24717 15.0788C1.2569 15.1021 1.27116 15.1232 1.28912 15.1409Z" fill="#63E4BF"/>
<path fill-rule="evenodd" clip-rule="evenodd" d="M18.4919 5.34926L18.3739 11.2433L16.9037 11.3418L17.0069 6.18437L11.86 6.52917L11.8895 5.05593L17.7715 4.66189C17.9665 4.64886 18.1519 4.71395 18.287 4.84285C18.422 4.97176 18.4958 5.15391 18.4919 5.34926Z" fill="#63E4BF"/>
</g>
<defs>
<clipPath id="clip0_3599_10687">
<rect width="20" height="20" fill="white" transform="translate(0 0.5)"/>
</clipPath>
</defs>
</svg>
