<svg width="152" height="25" viewBox="0 0 152 25" fill="none" xmlns="http://www.w3.org/2000/svg">
<g clip-path="url(#clip0_2075_31942)">
<path d="M68.2244 0H5.77561C2.58583 0 0 2.59545 0 5.7971V19.2029C0 22.4046 2.58583 25 5.77561 25H68.2244C71.4142 25 74 22.4046 74 19.2029V5.7971C74 2.59545 71.4142 0 68.2244 0Z" fill="#E4E4E4"/>
<path d="M14.7984 18.1507C14.0987 18.8199 13.3347 18.7142 12.5993 18.3972C11.8211 18.0732 11.107 18.0591 10.286 18.3972C9.2578 18.8339 8.71515 18.7071 8.10113 18.1507C4.61681 14.6074 5.13088 9.21157 9.08645 9.01432C10.0504 9.06363 10.7215 9.53559 11.2855 9.57787C12.1281 9.40878 12.9349 8.92276 13.8345 8.98613C14.9127 9.07066 15.7266 9.49334 16.2621 10.2541C14.0344 11.5714 14.5628 14.4665 16.6048 15.2766C16.1979 16.3332 15.6695 17.3828 14.7913 18.1577L14.7984 18.1507ZM11.2141 8.97204C11.107 7.40121 12.3994 6.10508 13.8845 5.97827C14.0916 7.79566 12.2138 9.14816 11.2141 8.97204Z" fill="#111111"/>
<path d="M24.7022 8.33333H23.8449L23.8505 7.88891H24.7022C24.9955 7.88891 25.2399 7.82761 25.4354 7.70492C25.631 7.5804 25.7776 7.40677 25.8754 7.18409C25.975 6.95953 26.0248 6.69724 26.0248 6.39717V6.14525C26.0248 5.90938 25.9966 5.69992 25.9403 5.51688C25.8838 5.33192 25.8011 5.17627 25.6921 5.04982C25.583 4.92148 25.4495 4.82431 25.2916 4.75826C25.1356 4.69221 24.956 4.6592 24.753 4.6592H23.828V4.21195H24.753C25.0218 4.21195 25.2672 4.25724 25.489 4.34782C25.7109 4.43652 25.9017 4.56579 26.0615 4.73561C26.2232 4.90358 26.3473 5.10739 26.4337 5.34703C26.5202 5.58482 26.5635 5.85275 26.5635 6.15094V6.39717C26.5635 6.69536 26.5202 6.96427 26.4337 7.20391C26.3473 7.4417 26.2223 7.64456 26.0587 7.8125C25.897 7.98043 25.7015 8.10971 25.4721 8.20029C25.2446 8.28898 24.988 8.33333 24.7022 8.33333ZM24.1354 4.21195V8.33333H23.5911V4.21195H24.1354ZM27.2797 6.83594V6.77083C27.2797 6.55003 27.3116 6.34529 27.3756 6.15659C27.4395 5.96598 27.5316 5.80087 27.6519 5.66123C27.7723 5.51971 27.918 5.41025 28.0891 5.3329C28.2601 5.25362 28.4519 5.21398 28.6644 5.21398C28.8787 5.21398 29.0714 5.25362 29.2425 5.3329C29.4155 5.41025 29.5621 5.51971 29.6824 5.66123C29.8046 5.80087 29.8977 5.96598 29.9616 6.15659C30.0256 6.34529 30.0575 6.55003 30.0575 6.77083V6.83594C30.0575 7.05674 30.0256 7.26148 29.9616 7.45018C29.8977 7.63887 29.8046 7.80402 29.6824 7.94554C29.5621 8.08518 29.4164 8.19463 29.2453 8.27387C29.0761 8.35126 28.8843 8.38992 28.67 8.38992C28.4557 8.38992 28.263 8.35126 28.0919 8.27387C27.9208 8.19463 27.7742 8.08518 27.6519 7.94554C27.5316 7.80402 27.4395 7.63887 27.3756 7.45018C27.3116 7.26148 27.2797 7.05674 27.2797 6.83594ZM27.8014 6.77083V6.83594C27.8014 6.9888 27.8193 7.13315 27.855 7.26902C27.8907 7.403 27.9443 7.52188 28.0157 7.62569C28.0891 7.72945 28.1803 7.81156 28.2893 7.87195C28.3983 7.93043 28.5252 7.95971 28.67 7.95971C28.8129 7.95971 28.9379 7.93043 29.0451 7.87195C29.1541 7.81156 29.2444 7.72945 29.3158 7.62569C29.3872 7.52188 29.4409 7.403 29.4766 7.26902C29.5142 7.13315 29.533 6.9888 29.533 6.83594V6.77083C29.533 6.61985 29.5142 6.47739 29.4766 6.3434C29.4409 6.20753 29.3863 6.08771 29.313 5.98391C29.2416 5.87826 29.1513 5.79521 29.0423 5.73482C28.9351 5.67445 28.8091 5.64424 28.6644 5.64424C28.5215 5.64424 28.3955 5.67445 28.2865 5.73482C28.1793 5.79521 28.0891 5.87826 28.0157 5.98391C27.9443 6.08771 27.8907 6.20753 27.855 6.3434C27.8193 6.47739 27.8014 6.61985 27.8014 6.77083ZM31.6 7.78985L32.384 5.27061H32.728L32.6604 5.77163L31.8623 8.33333H31.5267L31.6 7.78985ZM31.0726 5.27061L31.741 7.81815L31.789 8.33333H31.4364L30.5509 5.27061H31.0726ZM33.4782 7.79833L34.1156 5.27061H34.6345L33.7489 8.33333H33.3992L33.4782 7.79833ZM32.8042 5.27061L33.5713 7.74739L33.6587 8.33333H33.3259L32.5052 5.76598L32.4376 5.27061H32.8042ZM35.8075 5.92449V8.33333H35.2858V5.27061H35.7793L35.8075 5.92449ZM35.6834 6.6859L35.4663 6.67742C35.4682 6.46797 35.4992 6.27453 35.5594 6.09713C35.6195 5.91786 35.7041 5.76217 35.8132 5.63011C35.9222 5.498 36.0519 5.39608 36.2022 5.32438C36.3545 5.25079 36.5228 5.21398 36.7072 5.21398C36.8574 5.21398 36.9928 5.23474 37.1133 5.27627C37.2335 5.3159 37.336 5.38007 37.4205 5.46876C37.5071 5.55742 37.5728 5.67253 37.618 5.81409C37.6631 5.95373 37.6858 6.12449 37.6858 6.32641V8.33333H37.1613V6.32076C37.1613 6.16036 37.1375 6.03203 37.0906 5.93579C37.0437 5.83768 36.9751 5.76692 36.8848 5.72351C36.7946 5.67822 36.6838 5.65558 36.552 5.65558C36.4224 5.65558 36.304 5.68293 36.1968 5.73764C36.0914 5.79239 36.0002 5.86786 35.9231 5.96409C35.8479 6.06036 35.7887 6.17072 35.7455 6.29529C35.7041 6.41793 35.6834 6.54815 35.6834 6.6859ZM39.1604 3.9855V8.33333H38.6359V3.9855H39.1604ZM39.9755 6.83594V6.77083C39.9755 6.55003 40.0073 6.34529 40.0712 6.15659C40.1354 5.96598 40.2275 5.80087 40.3477 5.66123C40.4679 5.51971 40.6137 5.41025 40.7848 5.3329C40.9559 5.25362 41.1476 5.21398 41.3602 5.21398C41.5743 5.21398 41.767 5.25362 41.9381 5.3329C42.111 5.41025 42.2579 5.51971 42.3781 5.66123C42.5005 5.80087 42.5933 5.96598 42.6572 6.15659C42.7214 6.34529 42.7532 6.55003 42.7532 6.77083V6.83594C42.7532 7.05674 42.7214 7.26148 42.6572 7.45018C42.5933 7.63887 42.5005 7.80402 42.3781 7.94554C42.2579 8.08518 42.1121 8.19463 41.941 8.27387C41.7717 8.35126 41.58 8.38992 41.3656 8.38992C41.1516 8.38992 40.9588 8.35126 40.7877 8.27387C40.6166 8.19463 40.47 8.08518 40.3477 7.94554C40.2275 7.80402 40.1354 7.63887 40.0712 7.45018C40.0073 7.26148 39.9755 7.05674 39.9755 6.83594ZM40.4971 6.77083V6.83594C40.4971 6.9888 40.5152 7.13315 40.5509 7.26902C40.5866 7.403 40.64 7.52188 40.7115 7.62569C40.7848 7.72945 40.8761 7.81156 40.9851 7.87195C41.0942 7.93043 41.2209 7.95971 41.3656 7.95971C41.5086 7.95971 41.6338 7.93043 41.7407 7.87195C41.85 7.81156 41.9403 7.72945 42.0114 7.62569C42.0829 7.52188 42.1367 7.403 42.1724 7.26902C42.2099 7.13315 42.2287 6.9888 42.2287 6.83594V6.77083C42.2287 6.61985 42.2099 6.47739 42.1724 6.3434C42.1367 6.20753 42.0821 6.08771 42.0089 5.98391C41.9374 5.87826 41.8472 5.79521 41.7381 5.73482C41.6309 5.67445 41.5049 5.64424 41.3602 5.64424C41.2173 5.64424 41.0913 5.67445 40.9823 5.73482C40.875 5.79521 40.7848 5.87826 40.7115 5.98391C40.64 6.08771 40.5866 6.20753 40.5509 6.3434C40.5152 6.47739 40.4971 6.61985 40.4971 6.77083ZM45.3223 7.80967V6.233C45.3223 6.11224 45.2977 6.0075 45.249 5.9188C45.2021 5.82822 45.1306 5.7584 45.0346 5.70934C44.9385 5.66029 44.8201 5.63576 44.6794 5.63576C44.5476 5.63576 44.4321 5.6584 44.3325 5.70369C44.2346 5.74898 44.1574 5.8084 44.1011 5.88203C44.0466 5.95561 44.0195 6.03485 44.0195 6.11978H43.4975C43.4975 6.01032 43.5257 5.90184 43.5824 5.79427C43.6387 5.6867 43.7195 5.58953 43.8249 5.50271C43.9318 5.41402 44.0599 5.3442 44.2083 5.29326C44.3588 5.2404 44.526 5.21398 44.7104 5.21398C44.9321 5.21398 45.1277 5.25174 45.297 5.32721C45.4681 5.40271 45.6013 5.51688 45.6973 5.66971C45.7951 5.82069 45.8439 6.01032 45.8439 6.23869V7.66529C45.8439 7.76721 45.8525 7.87572 45.8695 7.99083C45.8883 8.10594 45.9153 8.205 45.9511 8.28804V8.33333H45.4067C45.3804 8.27293 45.3598 8.19275 45.3446 8.09271C45.3298 7.99083 45.3223 7.89648 45.3223 7.80967ZM45.4125 6.47645L45.4183 6.84442H44.8909C44.7422 6.84442 44.6097 6.8567 44.4931 6.88123C44.3765 6.90387 44.2787 6.93877 44.2 6.98594C44.1209 7.03315 44.0607 7.09257 44.0195 7.16427C43.978 7.23409 43.9574 7.31619 43.9574 7.41054C43.9574 7.50681 43.9791 7.59453 44.022 7.6738C44.0653 7.75304 44.1303 7.81627 44.2166 7.86344C44.305 7.90873 44.4133 7.93137 44.5411 7.93137C44.701 7.93137 44.8418 7.89742 44.9642 7.82949C45.0862 7.76155 45.1833 7.67851 45.2544 7.5804C45.328 7.48224 45.3674 7.38695 45.3732 7.29449L45.5959 7.54641C45.5825 7.62569 45.5468 7.71344 45.4887 7.80967C45.4302 7.9059 45.3522 7.99837 45.2544 8.08706C45.1587 8.17387 45.044 8.24652 44.9104 8.30503C44.779 8.36163 44.6303 8.38992 44.4649 8.38992C44.2581 8.38992 44.0765 8.34938 43.9206 8.26822C43.7665 8.1871 43.6463 8.07858 43.5596 7.94271C43.4752 7.80496 43.4329 7.65116 43.4329 7.4813C43.4329 7.31713 43.4647 7.17279 43.5286 7.04822C43.5925 6.92181 43.6849 6.81706 43.8051 6.73402C43.9253 6.64913 44.07 6.58496 44.2393 6.54156C44.4086 6.49815 44.5974 6.47645 44.8061 6.47645H45.4125ZM48.7035 7.73891V3.9855H49.228V8.33333H48.7486L48.7035 7.73891ZM46.6503 6.83594V6.77648C46.6503 6.5425 46.6784 6.33021 46.7351 6.1396C46.7932 5.94713 46.8752 5.78199 46.9802 5.64424C47.0874 5.50648 47.2145 5.40079 47.3611 5.32721C47.5098 5.25174 47.6751 5.21398 47.8574 5.21398C48.0491 5.21398 48.2166 5.24797 48.3595 5.3159C48.5043 5.38195 48.6263 5.47913 48.7259 5.60746C48.8277 5.73387 48.9075 5.88674 48.9656 6.06601C49.0241 6.24529 49.0645 6.44815 49.0869 6.6746V6.935C49.0663 7.15956 49.0259 7.36148 48.9656 7.54076C48.9075 7.72003 48.8277 7.8729 48.7259 7.99931C48.6263 8.12576 48.5043 8.22293 48.3595 8.29087C48.2148 8.35692 48.0455 8.38992 47.8516 8.38992C47.6733 8.38992 47.5098 8.35126 47.3611 8.27387C47.2145 8.19652 47.0874 8.088 46.9802 7.94837C46.8752 7.80873 46.7932 7.64456 46.7351 7.45583C46.6784 7.26525 46.6503 7.05862 46.6503 6.83594ZM47.1752 6.77648V6.83594C47.1752 6.9888 47.19 7.13221 47.2199 7.26619C47.252 7.40018 47.3008 7.51811 47.3668 7.62C47.4325 7.72192 47.5163 7.80213 47.6177 7.86061C47.7191 7.91724 47.8404 7.94554 47.9816 7.94554C48.1545 7.94554 48.2963 7.90873 48.4075 7.83514C48.5201 7.76155 48.6104 7.66434 48.6783 7.54358C48.7458 7.42282 48.7985 7.29166 48.836 7.15014V6.46797C48.8136 6.36416 48.7804 6.26416 48.7375 6.1679C48.6959 6.06978 48.6414 5.98297 48.5736 5.9075C48.5079 5.83011 48.4263 5.7688 48.3285 5.72351C48.2324 5.67822 48.1187 5.65558 47.9873 5.65558C47.8444 5.65558 47.7213 5.68576 47.6177 5.74616C47.5163 5.80463 47.4325 5.88579 47.3668 5.98956C47.3008 6.09148 47.252 6.21036 47.2199 6.34623C47.19 6.48021 47.1752 6.62362 47.1752 6.77648ZM52.2707 5.27061V8.33333H51.7462V5.27061H52.2707ZM51.7068 4.45822C51.7068 4.37329 51.7321 4.30159 51.7826 4.24308C51.8353 4.1846 51.9126 4.15536 52.014 4.15536C52.1137 4.15536 52.1898 4.1846 52.2425 4.24308C52.297 4.30159 52.3241 4.37329 52.3241 4.45822C52.3241 4.53934 52.297 4.6092 52.2425 4.66768C52.1898 4.72431 52.1137 4.75261 52.014 4.75261C51.9126 4.75261 51.8353 4.72431 51.7826 4.66768C51.7321 4.6092 51.7068 4.53934 51.7068 4.45822ZM53.7456 5.92449V8.33333H53.2237V5.27061H53.7175L53.7456 5.92449ZM53.6215 6.6859L53.4041 6.67742C53.4063 6.46797 53.4374 6.27453 53.4973 6.09713C53.5576 5.91786 53.642 5.76217 53.751 5.63011C53.8601 5.498 53.99 5.39608 54.1402 5.32438C54.2925 5.25079 54.4607 5.21398 54.6452 5.21398C54.7957 5.21398 54.9311 5.23474 55.0513 5.27627C55.1715 5.3159 55.274 5.38007 55.3585 5.46876C55.4451 5.55742 55.5108 5.67253 55.5559 5.81409C55.601 5.95373 55.6238 6.12449 55.6238 6.32641V8.33333H55.0993V6.32076C55.0993 6.16036 55.0758 6.03203 55.0285 5.93579C54.9816 5.83768 54.913 5.76692 54.8228 5.72351C54.7325 5.67822 54.6217 5.65558 54.49 5.65558C54.3604 5.65558 54.242 5.68293 54.1348 5.73764C54.0294 5.79239 53.9384 5.86786 53.8611 5.96409C53.7861 6.06036 53.7269 6.17072 53.6835 6.29529C53.642 6.41793 53.6215 6.54815 53.6215 6.6859ZM59.3574 5.27061V5.67253H57.7077V5.27061H59.3574ZM58.2658 4.52616H58.7877V7.57471C58.7877 7.67851 58.8036 7.75684 58.8357 7.80967C58.8675 7.8625 58.909 7.89742 58.9596 7.91442C59.0105 7.93137 59.065 7.93989 59.1231 7.93989C59.1664 7.93989 59.2115 7.93608 59.2584 7.92855C59.3075 7.91913 59.344 7.91155 59.3685 7.9059L59.3714 8.33333C59.3299 8.34655 59.2754 8.3588 59.2079 8.37014C59.1422 8.38333 59.0621 8.38992 58.9682 8.38992C58.8404 8.38992 58.7228 8.36445 58.6156 8.31351C58.5083 8.26257 58.4228 8.17764 58.3589 8.05877C58.2968 7.938 58.2658 7.77569 58.2658 7.57188V4.52616ZM60.6067 3.9855V8.33333H60.0847V3.9855H60.6067ZM60.4825 6.6859L60.2652 6.67742C60.267 6.46797 60.2981 6.27453 60.3583 6.09713C60.4186 5.91786 60.5031 5.76217 60.6121 5.63011C60.7211 5.498 60.8511 5.39608 61.0012 5.32438C61.1536 5.25079 61.3218 5.21398 61.5062 5.21398C61.6564 5.21398 61.7918 5.23474 61.9123 5.27627C62.0326 5.3159 62.1351 5.38007 62.2195 5.46876C62.3062 5.55742 62.3719 5.67253 62.417 5.81409C62.4621 5.95373 62.4849 6.12449 62.4849 6.32641V8.33333H61.9604V6.32076C61.9604 6.16036 61.9365 6.03203 61.8896 5.93579C61.8427 5.83768 61.7741 5.76692 61.6838 5.72351C61.5936 5.67822 61.4828 5.65558 61.351 5.65558C61.2214 5.65558 61.103 5.68293 60.9958 5.73764C60.8904 5.79239 60.7991 5.86786 60.7222 5.96409C60.6471 6.06036 60.5876 6.17072 60.5446 6.29529C60.5031 6.41793 60.4825 6.54815 60.4825 6.6859ZM64.6478 8.38992C64.4352 8.38992 64.2424 8.35409 64.0695 8.28239C63.8984 8.20877 63.7508 8.10594 63.6266 7.97384C63.5046 7.84174 63.4104 7.68511 63.3447 7.50395C63.279 7.32279 63.2461 7.12467 63.2461 6.90953V6.79065C63.2461 6.54156 63.2826 6.31982 63.3559 6.12543C63.4295 5.9292 63.5292 5.76311 63.6551 5.62724C63.7811 5.49137 63.9237 5.38855 64.0836 5.31873C64.2435 5.24891 64.4089 5.21398 64.58 5.21398C64.798 5.21398 64.986 5.25174 65.1442 5.32721C65.3037 5.40271 65.4344 5.50837 65.5362 5.64424C65.6376 5.77822 65.7127 5.93674 65.7618 6.11978C65.8105 6.30094 65.8351 6.49909 65.8351 6.7142V6.94916H63.5562V6.52174H65.3131V6.4821C65.3055 6.34623 65.2774 6.21413 65.2286 6.08583C65.1817 5.9575 65.1063 5.85181 65.003 5.7688C64.8994 5.68576 64.7586 5.64424 64.58 5.64424C64.4616 5.64424 64.3525 5.66971 64.2529 5.72069C64.1533 5.76974 64.0677 5.84333 63.9963 5.94145C63.9248 6.0396 63.8692 6.15942 63.8298 6.30094C63.7905 6.44246 63.7706 6.60572 63.7706 6.79065V6.90953C63.7706 7.05485 63.7905 7.19166 63.8298 7.31996C63.8714 7.44641 63.9306 7.55775 64.0074 7.65398C64.0865 7.75021 64.1814 7.82572 64.2923 7.88043C64.4052 7.93514 64.533 7.96253 64.676 7.96253C64.8601 7.96253 65.016 7.92478 65.1442 7.84931C65.2719 7.7738 65.3838 7.67286 65.4795 7.54641L65.7954 7.79833C65.7297 7.89837 65.6459 7.99366 65.5445 8.08424C65.443 8.17482 65.3178 8.2484 65.1694 8.30503C65.0229 8.36163 64.8489 8.38992 64.6478 8.38992Z" fill="#111111"/>
<path d="M23.9908 12.9911L22.3156 18.1159H20.9662L23.2547 11.9339H24.1135L23.9908 12.9911ZM25.3825 18.1159L23.7031 12.9911L23.5678 11.9339H24.4349L26.7362 18.1159H25.3825ZM25.3064 15.8146V16.8124H22.0534V15.8146H25.3064ZM28.4873 14.405V19.8823H27.269V13.5219H28.3985L28.4873 14.405ZM31.385 15.7679V15.8571C31.385 16.1911 31.3455 16.5011 31.2665 16.787C31.1904 17.0729 31.0776 17.322 30.9281 17.5342C30.7787 17.7437 30.5925 17.9079 30.3697 18.0268C30.1498 18.1428 29.8959 18.2009 29.6083 18.2009C29.3291 18.2009 29.0866 18.1442 28.8807 18.031C28.6748 17.9178 28.5014 17.7593 28.3604 17.5555C28.2222 17.3488 28.1108 17.1097 28.0262 16.8379C27.9416 16.5662 27.8767 16.2746 27.8316 15.9633V15.7298C27.8767 15.3957 27.9416 15.09 28.0262 14.8126C28.1108 14.5324 28.2222 14.2904 28.3604 14.0866C28.5014 13.8799 28.6734 13.72 28.8765 13.6068C29.0823 13.4936 29.3235 13.4369 29.5998 13.4369C29.8903 13.4369 30.1455 13.4921 30.3655 13.6025C30.5883 13.7129 30.7744 13.8715 30.9239 14.0781C31.0762 14.2847 31.1904 14.531 31.2665 14.8169C31.3455 15.1028 31.385 15.4198 31.385 15.7679ZM30.1624 15.8571V15.7679C30.1624 15.5726 30.1455 15.3929 30.1117 15.2287C30.0807 15.0617 30.0299 14.9159 29.9594 14.7914C29.8917 14.6669 29.8015 14.5706 29.6887 14.5027C29.5787 14.4319 29.4447 14.3965 29.2868 14.3965C29.1204 14.3965 28.978 14.4234 28.8595 14.4772C28.7439 14.531 28.6494 14.6088 28.5761 14.7107C28.5028 14.8126 28.4478 14.9344 28.4112 15.0759C28.3745 15.2174 28.3519 15.3773 28.3435 15.5557V16.1458C28.3576 16.3553 28.397 16.5436 28.4619 16.7105C28.5268 16.8747 28.6269 17.0049 28.7622 17.1012C28.8976 17.1974 29.0753 17.2455 29.2953 17.2455C29.456 17.2455 29.5914 17.2101 29.7014 17.1394C29.8114 17.0658 29.9002 16.9653 29.9679 16.8379C30.0384 16.7105 30.0877 16.5633 30.1159 16.3963C30.147 16.2294 30.1624 16.0496 30.1624 15.8571ZM33.5337 14.405V19.8823H32.3154V13.5219H33.4449L33.5337 14.405ZM36.4315 15.7679V15.8571C36.4315 16.1911 36.3918 16.5011 36.3131 16.787C36.2369 17.0729 36.1239 17.322 35.9745 17.5342C35.8251 17.7437 35.6389 17.9079 35.4161 18.0268C35.1962 18.1428 34.9424 18.2009 34.6547 18.2009C34.3755 18.2009 34.133 18.1442 33.9271 18.031C33.7213 17.9178 33.5478 17.7593 33.4068 17.5555C33.2686 17.3488 33.1572 17.1097 33.0727 16.8379C32.988 16.5662 32.9232 16.2746 32.8781 15.9633V15.7298C32.9232 15.3957 32.988 15.09 33.0727 14.8126C33.1572 14.5324 33.2686 14.2904 33.4068 14.0866C33.5478 13.8799 33.7199 13.72 33.9229 13.6068C34.1288 13.4936 34.3699 13.4369 34.6463 13.4369C34.9367 13.4369 35.1919 13.4921 35.4119 13.6025C35.6347 13.7129 35.8208 13.8715 35.9703 14.0781C36.1225 14.2847 36.2369 14.531 36.3131 14.8169C36.3918 15.1028 36.4315 15.4198 36.4315 15.7679ZM35.2089 15.8571V15.7679C35.2089 15.5726 35.1919 15.3929 35.1581 15.2287C35.1271 15.0617 35.0763 14.9159 35.0058 14.7914C34.9381 14.6669 34.8479 14.5706 34.7351 14.5027C34.6251 14.4319 34.4911 14.3965 34.3332 14.3965C34.1668 14.3965 34.0244 14.4234 33.906 14.4772C33.7904 14.531 33.6959 14.6088 33.6226 14.7107C33.5493 14.8126 33.4942 14.9344 33.4576 15.0759C33.4209 15.2174 33.3984 15.3773 33.3899 15.5557V16.1458C33.404 16.3553 33.4435 16.5436 33.5084 16.7105C33.5732 16.8747 33.6733 17.0049 33.8087 17.1012C33.9441 17.1974 34.1217 17.2455 34.3417 17.2455C34.5024 17.2455 34.6378 17.2101 34.7478 17.1394C34.8578 17.0658 34.9466 16.9653 35.0143 16.8379C35.0848 16.7105 35.1342 16.5633 35.1623 16.3963C35.1934 16.2294 35.2089 16.0496 35.2089 15.8571ZM38.6479 11.5942V18.1159H37.4252V11.5942H38.6479ZM41.9345 18.2009C41.5793 18.2009 41.2606 18.1442 40.9787 18.031C40.6964 17.915 40.4567 17.755 40.2593 17.5512C40.0647 17.3474 39.9152 17.1111 39.8109 16.8422C39.7066 16.5704 39.6546 16.2817 39.6546 15.976V15.8062C39.6546 15.458 39.7037 15.1396 39.8026 14.8508C39.9012 14.5621 40.0423 14.3116 40.2257 14.0993C40.4116 13.887 40.6372 13.7242 40.9025 13.611C41.1675 13.495 41.4664 13.4369 41.7992 13.4369C42.1233 13.4369 42.411 13.4907 42.6623 13.5983C42.9131 13.7058 43.1232 13.8587 43.2925 14.0569C43.4644 14.255 43.5943 14.4928 43.6817 14.7701C43.769 15.0447 43.8127 15.3504 43.8127 15.6873V16.1968H40.1748V15.3816H42.6157V15.2882C42.6157 15.1183 42.5847 14.9669 42.5226 14.8338C42.4634 14.698 42.3731 14.5904 42.2518 14.5112C42.1306 14.4319 41.9753 14.3923 41.7865 14.3923C41.6259 14.3923 41.4877 14.4276 41.3718 14.4984C41.2563 14.5692 41.1617 14.6683 41.0884 14.7956C41.018 14.923 40.9642 15.073 40.9278 15.2457C40.8938 15.4155 40.8769 15.6024 40.8769 15.8062V15.976C40.8769 16.16 40.9025 16.3298 40.953 16.4855C41.0068 16.6412 41.0816 16.7757 41.1772 16.8889C41.2761 17.0021 41.3945 17.0899 41.5328 17.1521C41.6736 17.2144 41.8331 17.2455 42.0107 17.2455C42.2305 17.2455 42.4352 17.2031 42.624 17.1182C42.8157 17.0304 42.9806 16.8988 43.1189 16.7233L43.7113 17.3687C43.6152 17.5074 43.4842 17.6404 43.3178 17.7678C43.1543 17.8951 42.9568 17.9999 42.7254 18.082C42.4944 18.1612 42.2305 18.2009 41.9345 18.2009ZM50.2929 16.4983C50.2929 16.3879 50.276 16.2888 50.2424 16.201C50.2113 16.1104 50.1522 16.0284 50.0644 15.9548C49.9771 15.8783 49.8543 15.8033 49.6966 15.7298C49.5385 15.6561 49.3342 15.5797 49.0833 15.5004C48.8039 15.4099 48.5389 15.308 48.2881 15.1948C48.0397 15.0815 47.8199 14.9499 47.6278 14.7999C47.4391 14.647 47.2896 14.4701 47.1795 14.2691C47.0723 14.0682 47.0189 13.8346 47.0189 13.5686C47.0189 13.311 47.0752 13.0775 47.1882 12.868C47.3008 12.6557 47.4589 12.4745 47.6618 12.3245C47.865 12.1717 48.1047 12.0542 48.3808 11.9721C48.6602 11.89 48.9663 11.849 49.2988 11.849C49.7529 11.849 50.1493 11.9311 50.4875 12.0952C50.8261 12.2594 51.0882 12.4844 51.2744 12.7703C51.4632 13.0562 51.5578 13.3832 51.5578 13.7511H50.2973C50.2973 13.57 50.2594 13.4115 50.1832 13.2756C50.1096 13.1369 49.9969 13.0279 49.8446 12.9487C49.6952 12.8694 49.5064 12.8298 49.2779 12.8298C49.0577 12.8298 48.8747 12.8637 48.7277 12.9317C48.5812 12.9968 48.4711 13.0859 48.3978 13.1992C48.3245 13.3096 48.2881 13.4341 48.2881 13.5728C48.2881 13.6775 48.3133 13.7724 48.3642 13.8573C48.4177 13.9422 48.4967 14.0215 48.601 14.095C48.7054 14.1687 48.8335 14.238 48.9858 14.3031C49.1382 14.3682 49.3143 14.4319 49.5147 14.4942C49.8504 14.5961 50.1449 14.7107 50.3987 14.8381C50.6553 14.9655 50.8698 15.1084 51.042 15.2669C51.2138 15.4254 51.3434 15.6052 51.4311 15.8062C51.5184 16.0071 51.5621 16.235 51.5621 16.4898C51.5621 16.7587 51.5098 16.9993 51.4055 17.2116C51.3011 17.4238 51.1502 17.6036 50.9528 17.7508C50.7557 17.898 50.52 18.0098 50.2464 18.0862C49.9731 18.1626 49.667 18.2009 49.3284 18.2009C49.0241 18.2009 48.7238 18.1612 48.4274 18.082C48.1314 17.9999 47.8621 17.8767 47.6195 17.7126C47.3799 17.5484 47.1882 17.339 47.0441 17.0842C46.9005 16.8294 46.8286 16.528 46.8286 16.1798H48.1018C48.1018 16.3723 48.1314 16.535 48.1906 16.6681C48.2498 16.8011 48.3332 16.9087 48.44 16.9908C48.5501 17.0729 48.6801 17.1323 48.8295 17.1691C48.9815 17.2059 49.1479 17.2243 49.3284 17.2243C49.5486 17.2243 49.7291 17.1932 49.8699 17.1309C50.0139 17.0686 50.1197 16.9823 50.1872 16.8719C50.2579 16.7615 50.2929 16.637 50.2929 16.4983ZM54.7643 13.5219V14.388H52.0993V13.5219H54.7643ZM52.7591 12.3882H53.9774V16.7318C53.9774 16.8648 53.9944 16.9667 54.0283 17.0375C54.0648 17.1083 54.1185 17.1578 54.1889 17.1861C54.2593 17.2116 54.3481 17.2243 54.4553 17.2243C54.5315 17.2243 54.5994 17.2215 54.6586 17.2158C54.7203 17.2073 54.7726 17.1988 54.8149 17.1903L54.8192 18.0905C54.7149 18.1244 54.6019 18.1513 54.4806 18.1711C54.3593 18.1909 54.2254 18.2009 54.0788 18.2009C53.811 18.2009 53.5771 18.157 53.3767 18.0692C53.1793 17.9787 53.027 17.8343 52.9198 17.6362C52.8125 17.438 52.7591 17.1776 52.7591 16.8549V12.3882ZM55.3267 15.8656V15.7765C55.3267 15.4396 55.3744 15.1296 55.4704 14.8466C55.5664 14.5607 55.7058 14.313 55.8891 14.1036C56.0725 13.8941 56.2981 13.7313 56.566 13.6153C56.8338 13.4964 57.1414 13.4369 57.4883 13.4369C57.8352 13.4369 58.1438 13.4964 58.4145 13.6153C58.6853 13.7313 58.9123 13.8941 59.0957 14.1036C59.2819 14.313 59.4227 14.5607 59.5187 14.8466C59.6148 15.1296 59.6624 15.4396 59.6624 15.7765V15.8656C59.6624 16.1996 59.6148 16.5096 59.5187 16.7955C59.4227 17.0785 59.2819 17.3262 59.0957 17.5385C58.9123 17.748 58.6867 17.9107 58.4189 18.0268C58.151 18.1428 57.8435 18.2009 57.4966 18.2009C57.1497 18.2009 56.841 18.1428 56.5703 18.0268C56.3025 17.9107 56.0754 17.748 55.8891 17.5385C55.7058 17.3262 55.5664 17.0785 55.4704 16.7955C55.3744 16.5096 55.3267 16.1996 55.3267 15.8656ZM56.545 15.7765V15.8656C56.545 16.0581 56.562 16.2378 56.5956 16.4048C56.6295 16.5719 56.6829 16.719 56.7566 16.8464C56.8327 16.9709 56.9313 17.0686 57.0526 17.1394C57.1738 17.2101 57.3218 17.2455 57.4966 17.2455C57.6659 17.2455 57.811 17.2101 57.9323 17.1394C58.0536 17.0686 58.151 16.9709 58.2243 16.8464C58.2976 16.719 58.3514 16.5719 58.3849 16.4048C58.4217 16.2378 58.4402 16.0581 58.4402 15.8656V15.7765C58.4402 15.5896 58.4217 15.4141 58.3849 15.2499C58.3514 15.0829 58.2961 14.9358 58.22 14.8084C58.1467 14.6782 58.0496 14.5763 57.9283 14.5027C57.807 14.4291 57.6604 14.3923 57.4883 14.3923C57.3161 14.3923 57.1695 14.4291 57.0482 14.5027C56.9298 14.5763 56.8327 14.6782 56.7566 14.8084C56.6829 14.9358 56.6295 15.0829 56.5956 15.2499C56.562 15.4141 56.545 15.5896 56.545 15.7765ZM61.803 14.5239V18.1159H60.5847V13.5219H61.7308L61.803 14.5239ZM63.1819 13.4921L63.1606 14.6258C63.1014 14.6173 63.0296 14.6102 62.9451 14.6046C62.8632 14.5961 62.7885 14.5918 62.721 14.5918C62.5488 14.5918 62.3993 14.6145 62.2723 14.6598C62.1485 14.7022 62.0441 14.7659 61.9593 14.8508C61.8777 14.9358 61.8156 15.0391 61.7734 15.1608C61.7337 15.2825 61.7113 15.4212 61.7055 15.5769L61.4601 15.5004C61.4601 15.2032 61.4897 14.9301 61.5489 14.681C61.6084 14.4291 61.6943 14.2097 61.807 14.0229C61.9228 13.8361 62.0636 13.6917 62.23 13.5898C62.3964 13.4879 62.5867 13.4369 62.8011 13.4369C62.869 13.4369 62.9379 13.4426 63.0083 13.4539C63.0791 13.4624 63.1368 13.4751 63.1819 13.4921ZM65.9524 18.2009C65.5972 18.2009 65.2785 18.1442 64.9966 18.031C64.7146 17.915 64.4749 17.755 64.2775 17.5512C64.0829 17.3474 63.9335 17.1111 63.8288 16.8422C63.7245 16.5704 63.6725 16.2817 63.6725 15.976V15.8062C63.6725 15.458 63.7219 15.1396 63.8205 14.8508C63.919 14.5621 64.0602 14.3116 64.2436 14.0993C64.4298 13.887 64.6554 13.7242 64.9204 13.611C65.1853 13.495 65.4842 13.4369 65.817 13.4369C66.1416 13.4369 66.4293 13.4907 66.6801 13.5983C66.931 13.7058 67.1411 13.8587 67.3104 14.0569C67.4826 14.255 67.6122 14.4928 67.6995 14.7701C67.7869 15.0447 67.8306 15.3504 67.8306 15.6873V16.1968H64.1927V15.3816H66.6336V15.2882C66.6336 15.1183 66.6025 14.9669 66.5404 14.8338C66.4812 14.698 66.391 14.5904 66.2697 14.5112C66.1484 14.4319 65.9936 14.3923 65.8044 14.3923C65.6438 14.3923 65.5055 14.4276 65.39 14.4984C65.2741 14.5692 65.1799 14.6683 65.1067 14.7956C65.0359 14.923 64.9825 15.073 64.9457 15.2457C64.9117 15.4155 64.8951 15.6024 64.8951 15.8062V15.976C64.8951 16.16 64.9204 16.3298 64.9713 16.4855C65.0247 16.6412 65.0994 16.7757 65.1954 16.8889C65.294 17.0021 65.4124 17.0899 65.5507 17.1521C65.6918 17.2144 65.851 17.2455 66.0286 17.2455C66.2488 17.2455 66.4531 17.2031 66.6419 17.1182C66.8339 17.0304 66.9989 16.8988 67.1371 16.7233L67.7291 17.3687C67.6335 17.5074 67.5021 17.6404 67.3357 17.7678C67.1721 17.8951 66.9747 17.9999 66.7437 18.082C66.5123 18.1612 66.2488 18.2009 65.9524 18.2009Z" fill="#111111"/>
</g>
<g clip-path="url(#clip1_2075_31942)">
<path d="M146.28 0.186554H83.7198C80.5608 0.186554 78 2.85948 78 6.1567V18.8433C78 22.1405 80.5608 24.8134 83.7198 24.8134H146.28C149.439 24.8134 152 22.1405 152 18.8433V6.1567C152 2.85948 149.439 0.186554 146.28 0.186554Z" fill="#E4E4E4"/>
<path d="M83.7198 6.58502V18.0413C83.7199 18.0661 83.7269 18.0904 83.7399 18.111C83.7529 18.1317 83.7714 18.1478 83.7931 18.1574C83.8147 18.1669 83.8385 18.1695 83.8616 18.1648C83.8846 18.16 83.9058 18.1482 83.9224 18.1307L89.5496 12.3134L83.9224 6.49551C83.9058 6.47808 83.8846 6.46622 83.8616 6.46148C83.8385 6.45674 83.8147 6.45932 83.7931 6.46887C83.7714 6.47846 83.7529 6.49454 83.7399 6.51521C83.7269 6.53588 83.7199 6.56014 83.7198 6.58502ZM91.909 9.92305L84.8533 5.8023L84.8489 5.79969C84.7274 5.72973 84.6119 5.90406 84.7114 6.00551L90.2423 11.6118L91.909 9.92305ZM84.712 18.6213C84.6119 18.7228 84.7274 18.8971 84.8494 18.8272L84.8538 18.8245L91.909 14.7038L90.2423 13.0145L84.712 18.6213ZM94.7574 11.5847L92.7871 10.4344L90.9345 12.3134L92.7871 14.1916L94.7574 13.0422C95.2934 12.7282 95.2934 11.8986 94.7574 11.5847Z" fill="#111111"/>
<path d="M101.022 8.76866H100.173L100.178 8.31097H101.022C101.312 8.31097 101.554 8.24784 101.748 8.12149C101.941 7.99325 102.087 7.81444 102.183 7.58511C102.282 7.35385 102.332 7.08373 102.332 6.7747V6.51526C102.332 6.27235 102.304 6.05664 102.248 5.86814C102.192 5.67765 102.11 5.51735 102.002 5.38713C101.894 5.25496 101.762 5.15489 101.605 5.08687C101.451 5.01884 101.273 4.98485 101.072 4.98485H100.156V4.52426H101.072C101.338 4.52426 101.581 4.5709 101.801 4.66418C102.021 4.75552 102.21 4.88866 102.368 5.06355C102.528 5.23653 102.651 5.44642 102.736 5.69321C102.822 5.9381 102.865 6.21403 102.865 6.52112V6.7747C102.865 7.08179 102.822 7.35873 102.736 7.60552C102.651 7.85041 102.527 8.05933 102.365 8.23228C102.205 8.40523 102.011 8.53836 101.784 8.63164C101.559 8.72299 101.305 8.76866 101.022 8.76866ZM100.46 4.52426V8.76866H99.9213V4.52426H100.46ZM103.574 7.22657V7.15952C103.574 6.93213 103.606 6.72127 103.669 6.52694C103.733 6.33064 103.824 6.1606 103.943 6.01679C104.062 5.87105 104.206 5.75832 104.376 5.67866C104.545 5.59702 104.735 5.5562 104.946 5.5562C105.158 5.5562 105.349 5.59702 105.518 5.67866C105.689 5.75832 105.835 5.87105 105.954 6.01679C106.075 6.1606 106.167 6.33064 106.23 6.52694C106.294 6.72127 106.325 6.93213 106.325 7.15952V7.22657C106.325 7.45396 106.294 7.66482 106.23 7.85914C106.167 8.05347 106.075 8.22355 105.954 8.36929C105.835 8.5131 105.69 8.62582 105.521 8.70743C105.353 8.78713 105.163 8.82694 104.951 8.82694C104.739 8.82694 104.548 8.78713 104.379 8.70743C104.209 8.62582 104.064 8.5131 103.943 8.36929C103.824 8.22355 103.733 8.05347 103.669 7.85914C103.606 7.66482 103.574 7.45396 103.574 7.22657ZM104.091 7.15952V7.22657C104.091 7.38399 104.109 7.53265 104.144 7.67258C104.179 7.81056 104.232 7.93299 104.303 8.03989C104.376 8.14676 104.466 8.23131 104.574 8.29351C104.682 8.35373 104.808 8.38388 104.951 8.38388C105.093 8.38388 105.216 8.35373 105.323 8.29351C105.431 8.23131 105.52 8.14676 105.591 8.03989C105.661 7.93299 105.714 7.81056 105.75 7.67258C105.787 7.53265 105.806 7.38399 105.806 7.22657V7.15952C105.806 7.00403 105.787 6.85731 105.75 6.71933C105.714 6.5794 105.661 6.45601 105.588 6.34911C105.517 6.2403 105.428 6.15478 105.32 6.09258C105.214 6.03041 105.089 5.99929 104.946 5.99929C104.804 5.99929 104.679 6.03041 104.571 6.09258C104.465 6.15478 104.376 6.2403 104.303 6.34911C104.232 6.45601 104.179 6.5794 104.144 6.71933C104.109 6.85731 104.091 7.00403 104.091 7.15952ZM107.853 8.20896L108.629 5.61452H108.97L108.903 6.13049L108.113 8.76866H107.78L107.853 8.20896ZM107.331 5.61452L107.992 8.2381L108.04 8.76866H107.691L106.814 5.61452H107.331ZM109.713 8.21769L110.344 5.61452H110.858L109.981 8.76866H109.635L109.713 8.21769ZM109.045 5.61452L109.805 8.16523L109.892 8.76866H109.562L108.749 6.12467L108.682 5.61452H109.045ZM112.02 6.28791V8.76866H111.503V5.61452H111.992L112.02 6.28791ZM111.897 7.07205L111.682 7.06332C111.684 6.84761 111.714 6.6484 111.774 6.46571C111.833 6.28108 111.917 6.12075 112.025 5.98474C112.133 5.8487 112.262 5.74373 112.411 5.66989C112.561 5.59411 112.728 5.5562 112.911 5.5562C113.06 5.5562 113.194 5.57758 113.313 5.62034C113.432 5.66116 113.533 5.72724 113.617 5.81858C113.703 5.90989 113.768 6.02843 113.813 6.17422C113.857 6.31802 113.88 6.49388 113.88 6.70183V8.76866H113.36V6.69601C113.36 6.53082 113.337 6.39866 113.29 6.29955C113.244 6.19851 113.176 6.12564 113.087 6.08093C112.997 6.03429 112.887 6.01097 112.757 6.01097C112.628 6.01097 112.511 6.03914 112.405 6.09549C112.301 6.15187 112.211 6.22959 112.134 6.3287C112.06 6.42784 112.001 6.54149 111.958 6.66978C111.917 6.79608 111.897 6.93019 111.897 7.07205ZM115.34 4.29105V8.76866H114.821V4.29105H115.34ZM116.147 7.22657V7.15952C116.147 6.93213 116.179 6.72127 116.242 6.52694C116.306 6.33064 116.397 6.1606 116.516 6.01679C116.635 5.87105 116.78 5.75832 116.949 5.67866C117.118 5.59702 117.308 5.5562 117.518 5.5562C117.731 5.5562 117.922 5.59702 118.091 5.67866C118.262 5.75832 118.408 5.87105 118.527 6.01679C118.648 6.1606 118.74 6.33064 118.803 6.52694C118.867 6.72127 118.898 6.93213 118.898 7.15952V7.22657C118.898 7.45396 118.867 7.66482 118.803 7.85914C118.74 8.05347 118.648 8.22355 118.527 8.36929C118.408 8.5131 118.264 8.62582 118.094 8.70743C117.926 8.78713 117.737 8.82694 117.524 8.82694C117.312 8.82694 117.121 8.78713 116.952 8.70743C116.782 8.62582 116.637 8.5131 116.516 8.36929C116.397 8.22355 116.306 8.05347 116.242 7.85914C116.179 7.66482 116.147 7.45396 116.147 7.22657ZM116.664 7.15952V7.22657C116.664 7.38399 116.682 7.53265 116.717 7.67258C116.752 7.81056 116.806 7.93299 116.876 8.03989C116.949 8.14676 117.039 8.23131 117.147 8.29351C117.255 8.35373 117.381 8.38388 117.524 8.38388C117.666 8.38388 117.789 8.35373 117.896 8.29351C118.004 8.23131 118.093 8.14676 118.164 8.03989C118.235 7.93299 118.287 7.81056 118.323 7.67258C118.36 7.53265 118.379 7.38399 118.379 7.22657V7.15952C118.379 7.00403 118.36 6.85731 118.323 6.71933C118.287 6.5794 118.233 6.45601 118.161 6.34911C118.09 6.2403 118.001 6.15478 117.893 6.09258C117.787 6.03041 117.662 5.99929 117.518 5.99929C117.377 5.99929 117.253 6.03041 117.144 6.09258C117.038 6.15478 116.949 6.2403 116.876 6.34911C116.806 6.45601 116.752 6.5794 116.717 6.71933C116.682 6.85731 116.664 7.00403 116.664 7.15952ZM121.443 8.22937V6.60564C121.443 6.48127 121.418 6.3734 121.37 6.28205C121.323 6.18877 121.252 6.11687 121.158 6.06634C121.063 6.01582 120.945 5.99056 120.806 5.99056C120.675 5.99056 120.561 6.01388 120.462 6.06052C120.366 6.10717 120.289 6.16836 120.233 6.24418C120.179 6.31996 120.152 6.40157 120.152 6.48903H119.636C119.636 6.37631 119.663 6.26459 119.719 6.15381C119.775 6.04302 119.855 5.94295 119.959 5.85355C120.066 5.7622 120.192 5.6903 120.339 5.63784C120.488 5.5834 120.654 5.5562 120.836 5.5562C121.056 5.5562 121.25 5.59508 121.417 5.6728C121.587 5.75056 121.719 5.86814 121.814 6.02552C121.911 6.18101 121.959 6.37631 121.959 6.61149V8.08067C121.959 8.18564 121.967 8.29739 121.984 8.41594C122.003 8.53448 122.03 8.63649 122.065 8.72202V8.76866H121.526C121.5 8.70646 121.48 8.62388 121.465 8.52086C121.45 8.41593 121.443 8.31877 121.443 8.22937ZM121.532 6.85634L121.537 7.2353H121.015C120.868 7.2353 120.737 7.24795 120.621 7.27321C120.506 7.29653 120.409 7.33246 120.331 7.38105C120.253 7.42967 120.193 7.49086 120.152 7.5647C120.111 7.63661 120.091 7.72116 120.091 7.81832C120.091 7.91746 120.112 8.0078 120.155 8.08944C120.198 8.17105 120.262 8.23616 120.348 8.28474C120.435 8.33138 120.542 8.3547 120.669 8.3547C120.827 8.3547 120.967 8.31974 121.088 8.24978C121.209 8.17982 121.305 8.09429 121.375 7.99325C121.448 7.89217 121.487 7.79403 121.493 7.69881L121.713 7.95825C121.7 8.03989 121.665 8.13026 121.607 8.22937C121.55 8.32847 121.472 8.4237 121.375 8.51504C121.28 8.60444 121.167 8.67926 121.035 8.73952C120.904 8.7978 120.757 8.82694 120.594 8.82694C120.389 8.82694 120.209 8.78519 120.055 8.70161C119.902 8.61806 119.782 8.50631 119.697 8.36638C119.613 8.22452 119.571 8.06612 119.571 7.8912C119.571 7.72213 119.603 7.57347 119.666 7.44519C119.73 7.315 119.821 7.20713 119.94 7.12161C120.059 7.03418 120.203 6.9681 120.37 6.9234C120.537 6.8787 120.725 6.85634 120.931 6.85634H121.532ZM124.791 8.15649V4.29105H125.311V8.76866H124.836L124.791 8.15649ZM122.758 7.22657V7.16534C122.758 6.92437 122.786 6.70575 122.841 6.50944C122.899 6.31123 122.98 6.14116 123.085 5.99929C123.191 5.85743 123.316 5.74858 123.462 5.6728C123.609 5.59508 123.772 5.5562 123.953 5.5562C124.143 5.5562 124.309 5.5912 124.45 5.66116C124.594 5.72918 124.715 5.82926 124.813 5.96142C124.914 6.09161 124.993 6.24903 125.051 6.43366C125.108 6.61829 125.148 6.8272 125.171 7.06041V7.32858C125.151 7.55985 125.11 7.7678 125.051 7.95243C124.993 8.13705 124.914 8.29448 124.813 8.42467C124.715 8.55489 124.594 8.65496 124.45 8.72493C124.307 8.79295 124.14 8.82694 123.948 8.82694C123.771 8.82694 123.609 8.78713 123.462 8.70743C123.316 8.62776 123.191 8.51601 123.085 8.3722C122.98 8.2284 122.899 8.05933 122.841 7.86496C122.786 7.6687 122.758 7.4559 122.758 7.22657ZM123.277 7.16534V7.22657C123.277 7.38399 123.292 7.53168 123.322 7.66967C123.354 7.80765 123.402 7.92911 123.467 8.03403C123.533 8.13899 123.615 8.22161 123.716 8.28183C123.816 8.34015 123.936 8.36929 124.076 8.36929C124.247 8.36929 124.388 8.33138 124.498 8.2556C124.61 8.17982 124.699 8.0797 124.766 7.95534C124.833 7.83097 124.885 7.6959 124.922 7.55015V6.84761C124.9 6.74071 124.867 6.63773 124.824 6.53858C124.784 6.43754 124.73 6.34814 124.663 6.27041C124.597 6.19071 124.516 6.12758 124.419 6.08093C124.325 6.03429 124.212 6.01097 124.082 6.01097C123.94 6.01097 123.818 6.04205 123.716 6.10426C123.615 6.16448 123.533 6.24806 123.467 6.35493C123.402 6.45989 123.354 6.58232 123.322 6.72224C123.292 6.86023 123.277 7.00791 123.277 7.16534ZM128.324 5.61452V8.76866H127.804V5.61452H128.324ZM127.765 4.77787C127.765 4.69041 127.79 4.61657 127.841 4.55631C127.893 4.49608 127.969 4.46597 128.07 4.46597C128.168 4.46597 128.244 4.49608 128.296 4.55631C128.35 4.61657 128.377 4.69041 128.377 4.77787C128.377 4.86142 128.35 4.93336 128.296 4.99358C128.244 5.0519 128.168 5.08105 128.07 5.08105C127.969 5.08105 127.893 5.0519 127.841 4.99358C127.79 4.93336 127.765 4.86142 127.765 4.77787ZM129.784 6.28791V8.76866H129.268V5.61452H129.756L129.784 6.28791ZM129.661 7.07205L129.446 7.06332C129.448 6.84761 129.479 6.6484 129.539 6.46571C129.598 6.28108 129.682 6.12075 129.79 5.98474C129.898 5.8487 130.026 5.74373 130.175 5.66989C130.326 5.59411 130.493 5.5562 130.675 5.5562C130.824 5.5562 130.958 5.57758 131.077 5.62034C131.197 5.66116 131.298 5.72724 131.382 5.81858C131.468 5.90989 131.533 6.02843 131.577 6.17422C131.622 6.31802 131.644 6.49388 131.644 6.70183V8.76866H131.125V6.69601C131.125 6.53082 131.102 6.39866 131.055 6.29955C131.009 6.19851 130.941 6.12564 130.851 6.08093C130.762 6.03429 130.652 6.01097 130.522 6.01097C130.393 6.01097 130.276 6.03914 130.17 6.09549C130.066 6.15187 129.975 6.22959 129.899 6.3287C129.824 6.42784 129.766 6.54149 129.723 6.66978C129.682 6.79608 129.661 6.93019 129.661 7.07205ZM135.342 5.61452V6.02843H133.708V5.61452H135.342ZM134.261 4.84784H134.778V7.98739C134.778 8.09429 134.794 8.17496 134.825 8.22937C134.857 8.28377 134.898 8.31974 134.948 8.33724C134.999 8.3547 135.053 8.36347 135.11 8.36347C135.153 8.36347 135.198 8.35955 135.244 8.35179C135.292 8.34209 135.329 8.33429 135.353 8.32847L135.356 8.76866C135.315 8.78228 135.261 8.79489 135.194 8.80657C135.129 8.82015 135.05 8.82694 134.956 8.82694C134.83 8.82694 134.714 8.80071 134.607 8.74825C134.501 8.69579 134.417 8.60832 134.353 8.4859C134.292 8.36153 134.261 8.19437 134.261 7.98448V4.84784ZM136.579 4.29105V8.76866H136.062V4.29105H136.579ZM136.456 7.07205L136.241 7.06332C136.243 6.84761 136.274 6.6484 136.333 6.46571C136.393 6.28108 136.477 6.12075 136.585 5.98474C136.693 5.8487 136.821 5.74373 136.97 5.66989C137.121 5.59411 137.288 5.5562 137.47 5.5562C137.619 5.5562 137.753 5.57758 137.872 5.62034C137.991 5.66116 138.093 5.72724 138.177 5.81858C138.262 5.90989 138.328 6.02843 138.372 6.17422C138.417 6.31802 138.439 6.49388 138.439 6.70183V8.76866H137.92V6.69601C137.92 6.53082 137.896 6.39866 137.85 6.29955C137.803 6.19851 137.736 6.12564 137.646 6.08093C137.557 6.03429 137.447 6.01097 137.317 6.01097C137.188 6.01097 137.071 6.03914 136.964 6.09549C136.86 6.15187 136.77 6.22959 136.693 6.3287C136.619 6.42784 136.56 6.54149 136.518 6.66978C136.477 6.79608 136.456 6.93019 136.456 7.07205ZM140.581 8.82694C140.371 8.82694 140.18 8.79004 140.009 8.7162C139.839 8.64038 139.693 8.53448 139.57 8.39843C139.449 8.26239 139.356 8.10108 139.291 7.91452C139.226 7.72795 139.193 7.52392 139.193 7.30235V7.17993C139.193 6.9234 139.229 6.69504 139.302 6.49485C139.375 6.29276 139.473 6.12172 139.598 5.98179C139.723 5.84187 139.864 5.73597 140.023 5.66407C140.181 5.59217 140.345 5.5562 140.514 5.5562C140.73 5.5562 140.916 5.59508 141.073 5.6728C141.231 5.75056 141.36 5.85937 141.461 5.99929C141.561 6.13728 141.636 6.30052 141.684 6.48903C141.733 6.6756 141.757 6.87967 141.757 7.1012V7.34317H139.5V6.90299H141.24V6.86217C141.233 6.72224 141.205 6.5862 141.157 6.45407C141.11 6.3219 141.035 6.21306 140.933 6.12758C140.831 6.04205 140.691 5.99929 140.514 5.99929C140.397 5.99929 140.289 6.02552 140.19 6.07802C140.091 6.12855 140.007 6.20433 139.936 6.30537C139.865 6.40646 139.81 6.52985 139.771 6.6756C139.732 6.82135 139.712 6.98948 139.712 7.17993V7.30235C139.712 7.45202 139.732 7.59291 139.771 7.72504C139.812 7.85526 139.871 7.96993 139.947 8.06903C140.025 8.16814 140.119 8.2459 140.229 8.30224C140.341 8.35858 140.467 8.38679 140.609 8.38679C140.792 8.38679 140.946 8.34791 141.073 8.27019C141.199 8.19243 141.31 8.08847 141.405 7.95825L141.718 8.21769C141.653 8.32071 141.57 8.41885 141.469 8.51213C141.369 8.60541 141.245 8.6812 141.098 8.73952C140.953 8.7978 140.78 8.82694 140.581 8.82694Z" fill="#111111"/>
<path d="M104.113 15.1425V17.6656C104.018 17.7851 103.872 17.9148 103.673 18.0547C103.475 18.1917 103.22 18.3098 102.907 18.4089C102.594 18.5081 102.216 18.5576 101.772 18.5576C101.378 18.5576 101.019 18.4906 100.695 18.3564C100.371 18.2194 100.092 18.0198 99.857 17.7574C99.6252 17.495 99.4465 17.1744 99.3208 16.7954C99.1951 16.4135 99.1323 15.9777 99.1323 15.488V15.0901C99.1323 14.6003 99.1923 14.1645 99.3124 13.7826C99.4353 13.4008 99.6098 13.0786 99.836 12.8163C100.062 12.5539 100.332 12.3542 100.645 12.2172C100.957 12.0802 101.305 12.0117 101.688 12.0117C102.218 12.0117 102.654 12.1021 102.995 12.2828C103.336 12.4606 103.595 12.7084 103.774 13.0262C103.956 13.341 104.067 13.7025 104.109 14.1106H102.89C102.859 13.8949 102.801 13.7069 102.714 13.5465C102.628 13.3862 102.503 13.2609 102.341 13.1705C102.182 13.0801 101.975 13.0349 101.721 13.0349C101.512 13.0349 101.325 13.0801 101.16 13.1705C100.998 13.2579 100.861 13.3876 100.749 13.5596C100.638 13.7316 100.552 13.9444 100.494 14.1981C100.435 14.4517 100.406 14.7461 100.406 15.0813V15.488C100.406 15.8203 100.437 16.1147 100.498 16.3713C100.559 16.6249 100.65 16.8391 100.77 17.0141C100.893 17.186 101.044 17.3157 101.223 17.4032C101.401 17.4907 101.61 17.5344 101.847 17.5344C102.045 17.5344 102.21 17.5169 102.341 17.4819C102.475 17.4469 102.583 17.4047 102.664 17.3551C102.748 17.3026 102.812 17.2531 102.857 17.2064V16.0783H101.709V15.1425H104.113ZM105.031 16.1526V16.0608C105.031 15.7139 105.078 15.3947 105.173 15.1032C105.268 14.8088 105.406 14.5537 105.588 14.338C105.769 14.1223 105.993 13.9546 106.258 13.8351C106.523 13.7127 106.828 13.6514 107.171 13.6514C107.515 13.6514 107.821 13.7127 108.089 13.8351C108.357 13.9546 108.582 14.1223 108.763 14.338C108.948 14.5537 109.087 14.8088 109.182 15.1032C109.277 15.3947 109.325 15.7139 109.325 16.0608V16.1526C109.325 16.4966 109.277 16.8158 109.182 17.1103C109.087 17.4017 108.948 17.6568 108.763 17.8754C108.582 18.0912 108.358 18.2588 108.093 18.3783C107.828 18.4978 107.523 18.5576 107.18 18.5576C106.836 18.5576 106.53 18.4978 106.262 18.3783C105.997 18.2588 105.772 18.0912 105.588 17.8754C105.406 17.6568 105.268 17.4017 105.173 17.1103C105.078 16.8158 105.031 16.4966 105.031 16.1526ZM106.237 16.0608V16.1526C106.237 16.3509 106.254 16.536 106.287 16.7079C106.321 16.88 106.374 17.0315 106.447 17.1627C106.522 17.291 106.62 17.3916 106.74 17.4644C106.86 17.5373 107.007 17.5738 107.18 17.5738C107.347 17.5738 107.491 17.5373 107.611 17.4644C107.731 17.3916 107.828 17.291 107.9 17.1627C107.973 17.0315 108.026 16.88 108.06 16.7079C108.096 16.536 108.114 16.3509 108.114 16.1526V16.0608C108.114 15.8684 108.096 15.6877 108.06 15.5186C108.026 15.3466 107.972 15.195 107.896 15.0638C107.824 14.9297 107.727 14.8248 107.607 14.749C107.487 14.6732 107.342 14.6353 107.171 14.6353C107.001 14.6353 106.856 14.6732 106.736 14.749C106.618 14.8248 106.522 14.9297 106.447 15.0638C106.374 15.195 106.321 15.3466 106.287 15.5186C106.254 15.6877 106.237 15.8684 106.237 16.0608ZM110.045 16.1526V16.0608C110.045 15.7139 110.093 15.3947 110.188 15.1032C110.282 14.8088 110.421 14.5537 110.602 14.338C110.784 14.1223 111.007 13.9546 111.273 13.8351C111.538 13.7127 111.842 13.6514 112.186 13.6514C112.529 13.6514 112.835 13.7127 113.103 13.8351C113.371 13.9546 113.596 14.1223 113.778 14.338C113.962 14.5537 114.102 14.8088 114.197 15.1032C114.292 15.3947 114.339 15.7139 114.339 16.0608V16.1526C114.339 16.4966 114.292 16.8158 114.197 17.1103C114.102 17.4017 113.962 17.6568 113.778 17.8754C113.596 18.0912 113.373 18.2588 113.107 18.3783C112.842 18.4978 112.538 18.5576 112.194 18.5576C111.851 18.5576 111.545 18.4978 111.277 18.3783C111.011 18.2588 110.787 18.0912 110.602 17.8754C110.421 17.6568 110.282 17.4017 110.188 17.1103C110.093 16.8158 110.045 16.4966 110.045 16.1526ZM111.252 16.0608V16.1526C111.252 16.3509 111.268 16.536 111.302 16.7079C111.335 16.88 111.388 17.0315 111.461 17.1627C111.536 17.291 111.634 17.3916 111.754 17.4644C111.874 17.5373 112.021 17.5738 112.194 17.5738C112.362 17.5738 112.506 17.5373 112.626 17.4644C112.746 17.3916 112.842 17.291 112.915 17.1627C112.987 17.0315 113.04 16.88 113.074 16.7079C113.11 16.536 113.128 16.3509 113.128 16.1526V16.0608C113.128 15.8684 113.11 15.6877 113.074 15.5186C113.04 15.3466 112.986 15.195 112.911 15.0638C112.838 14.9297 112.742 14.8248 112.621 14.749C112.501 14.6732 112.356 14.6353 112.186 14.6353C112.015 14.6353 111.87 14.6732 111.75 14.749C111.633 14.8248 111.536 14.9297 111.461 15.0638C111.388 15.195 111.335 15.3466 111.302 15.5186C111.268 15.6877 111.252 15.8684 111.252 16.0608ZM118.122 13.7389H119.215V18.3127C119.215 18.7442 119.123 19.11 118.939 19.4103C118.757 19.7134 118.503 19.9423 118.176 20.0968C117.85 20.2542 117.47 20.3329 117.037 20.3329C116.847 20.3329 116.646 20.3067 116.433 20.2542C116.224 20.2017 116.023 20.1201 115.83 20.0093C115.641 19.8985 115.481 19.7586 115.353 19.5895L115.885 18.8462C116.025 19.0153 116.186 19.1464 116.371 19.2397C116.555 19.3359 116.759 19.384 116.982 19.384C117.2 19.384 117.384 19.3417 117.535 19.2572C117.686 19.1756 117.802 19.0546 117.883 18.8943C117.964 18.7369 118.005 18.5459 118.005 18.3215V14.8321L118.122 13.7389ZM115.072 16.1614V16.0695C115.072 15.7081 115.114 15.3801 115.198 15.0857C115.284 14.7883 115.406 14.5333 115.562 14.3205C115.721 14.1077 115.914 13.943 116.14 13.8264C116.367 13.7098 116.622 13.6514 116.907 13.6514C117.209 13.6514 117.461 13.7098 117.665 13.8264C117.869 13.943 118.037 14.1091 118.168 14.3248C118.299 14.5376 118.401 14.7898 118.474 15.0813C118.549 15.3699 118.608 15.6862 118.65 16.0302V16.2313C118.608 16.5607 118.545 16.8668 118.461 17.1496C118.378 17.4324 118.267 17.6801 118.13 17.8929C117.994 18.1028 117.823 18.2661 117.619 18.3827C117.418 18.4993 117.178 18.5576 116.899 18.5576C116.619 18.5576 116.367 18.4978 116.14 18.3783C115.917 18.2588 115.726 18.0912 115.567 17.8754C115.407 17.6597 115.284 17.4061 115.198 17.1146C115.114 16.8231 115.072 16.5054 115.072 16.1614ZM116.279 16.0695V16.1614C116.279 16.3567 116.297 16.5389 116.333 16.7079C116.37 16.877 116.425 17.0272 116.501 17.1584C116.579 17.2866 116.675 17.3872 116.79 17.4601C116.907 17.53 117.045 17.565 117.205 17.565C117.425 17.565 117.605 17.5169 117.745 17.4207C117.885 17.3216 117.989 17.186 118.059 17.0141C118.129 16.842 118.169 16.6438 118.181 16.4194V15.8466C118.175 15.6629 118.151 15.4982 118.109 15.3524C118.068 15.2038 118.009 15.0769 117.934 14.972C117.858 14.8671 117.76 14.7854 117.64 14.7272C117.52 14.6688 117.378 14.6397 117.213 14.6397C117.054 14.6397 116.915 14.6776 116.798 14.7534C116.684 14.8263 116.587 14.9268 116.509 15.0551C116.433 15.1833 116.376 15.335 116.337 15.5098C116.298 15.6818 116.279 15.8684 116.279 16.0695ZM121.599 11.7537V18.4701H120.388V11.7537H121.599ZM124.854 18.5576C124.502 18.5576 124.186 18.4993 123.907 18.3827C123.628 18.2632 123.39 18.0985 123.195 17.8886C123.002 17.6787 122.854 17.4353 122.751 17.1584C122.647 16.8785 122.596 16.5811 122.596 16.2663V16.0914C122.596 15.7329 122.644 15.4049 122.742 15.1076C122.84 14.8102 122.98 14.5522 123.161 14.3336C123.346 14.115 123.569 13.9473 123.832 13.8307C124.094 13.7112 124.39 13.6514 124.72 13.6514C125.041 13.6514 125.326 13.7069 125.574 13.8176C125.823 13.9284 126.031 14.0858 126.199 14.2899C126.369 14.4939 126.498 14.7388 126.584 15.0245C126.671 15.3072 126.714 15.6221 126.714 15.969V16.4937H123.111V15.6541H125.528V15.5579C125.528 15.3831 125.498 15.2271 125.436 15.0901C125.377 14.9501 125.288 14.8394 125.168 14.7578C125.048 14.6761 124.894 14.6353 124.707 14.6353C124.548 14.6353 124.411 14.6717 124.296 14.7446C124.182 14.8175 124.088 14.9195 124.016 15.0507C123.946 15.1819 123.893 15.3364 123.857 15.5142C123.823 15.6891 123.806 15.8815 123.806 16.0914V16.2663C123.806 16.4558 123.832 16.6307 123.882 16.791C123.935 16.9514 124.009 17.0898 124.104 17.2064C124.202 17.3231 124.319 17.4134 124.456 17.4775C124.595 17.5417 124.753 17.5738 124.929 17.5738C125.147 17.5738 125.35 17.53 125.537 17.4426C125.726 17.3522 125.89 17.2166 126.027 17.0359L126.613 17.7006C126.518 17.8434 126.388 17.9804 126.224 18.1116C126.062 18.2428 125.866 18.3506 125.637 18.4351C125.408 18.5168 125.147 18.5576 124.854 18.5576ZM132.331 16.2007H130.777V15.1775H132.331C132.572 15.1775 132.767 15.1367 132.918 15.0551C133.069 14.9706 133.179 14.8539 133.249 14.7053C133.319 14.5566 133.353 14.389 133.353 14.2024C133.353 14.0129 133.319 13.8366 133.249 13.6733C133.179 13.5101 133.069 13.3789 132.918 13.2798C132.767 13.1807 132.572 13.1311 132.331 13.1311H131.213V18.4701H129.956V12.1035H132.331C132.809 12.1035 133.218 12.1939 133.559 12.3747C133.903 12.5525 134.165 12.7988 134.347 13.1136C134.528 13.4285 134.619 13.7885 134.619 14.1937C134.619 14.6047 134.528 14.9604 134.347 15.2606C134.165 15.5608 133.903 15.7926 133.559 15.9558C133.218 16.1191 132.809 16.2007 132.331 16.2007ZM136.856 11.7537V18.4701H135.645V11.7537H136.856ZM140.471 17.4032V15.2956C140.471 15.144 140.447 15.0143 140.399 14.9064C140.352 14.7956 140.278 14.7097 140.177 14.6484C140.08 14.5872 139.953 14.5566 139.796 14.5566C139.662 14.5566 139.547 14.5814 139.449 14.6309C139.351 14.6776 139.276 14.7461 139.222 14.8364C139.169 14.9239 139.143 15.0274 139.143 15.1469H137.936C137.936 14.9458 137.981 14.7548 138.07 14.5741C138.16 14.3934 138.29 14.2345 138.46 14.0975C138.63 13.9575 138.833 13.8482 139.067 13.7695C139.305 13.6908 139.57 13.6514 139.863 13.6514C140.215 13.6514 140.528 13.7127 140.802 13.8351C141.076 13.9575 141.291 14.1412 141.447 14.3861C141.606 14.6309 141.686 14.937 141.686 15.3043V17.3289C141.686 17.5883 141.701 17.8011 141.732 17.9673C141.763 18.1305 141.807 18.2734 141.866 18.3958V18.4701H140.647C140.588 18.3419 140.544 18.1816 140.513 17.9891C140.485 17.7938 140.471 17.5985 140.471 17.4032ZM140.63 15.5885L140.638 16.3013H139.964C139.805 16.3013 139.667 16.3203 139.549 16.3581C139.432 16.396 139.336 16.45 139.26 16.5199C139.185 16.587 139.129 16.6657 139.093 16.756C139.059 16.8464 139.042 16.9456 139.042 17.0534C139.042 17.1613 139.066 17.2589 139.114 17.3464C139.161 17.4309 139.229 17.4979 139.319 17.5475C139.408 17.5941 139.513 17.6175 139.633 17.6175C139.815 17.6175 139.972 17.5796 140.106 17.5038C140.24 17.428 140.344 17.3347 140.416 17.2239C140.492 17.1132 140.531 17.0082 140.534 16.9091L140.852 17.4426C140.807 17.5621 140.746 17.686 140.668 17.8142C140.593 17.9425 140.496 18.0635 140.379 18.1772C140.262 18.2879 140.12 18.3798 139.955 18.4526C139.791 18.5226 139.595 18.5576 139.369 18.5576C139.081 18.5576 138.82 18.4978 138.586 18.3783C138.354 18.2559 138.169 18.0883 138.033 17.8754C137.899 17.6597 137.832 17.4149 137.832 17.1408C137.832 16.8931 137.876 16.673 137.966 16.4806C138.055 16.2882 138.186 16.1264 138.359 15.9952C138.536 15.8611 138.755 15.7606 139.017 15.6935C139.28 15.6235 139.584 15.5885 139.93 15.5885H140.63ZM144.065 17.9367L145.267 13.7389H146.562L144.74 19.1829C144.7 19.3024 144.648 19.4307 144.58 19.5677C144.516 19.7047 144.428 19.8344 144.316 19.9569C144.207 20.0822 144.069 20.1842 143.902 20.2629C143.737 20.3416 143.535 20.381 143.294 20.381C143.18 20.381 143.086 20.3737 143.014 20.3591C142.941 20.3445 142.854 20.3242 142.754 20.2979V19.3753C142.785 19.3753 142.817 19.3753 142.85 19.3753C142.884 19.3782 142.916 19.3797 142.947 19.3797C143.106 19.3797 143.236 19.3607 143.336 19.3228C143.437 19.2849 143.518 19.2266 143.579 19.1479C143.64 19.0721 143.689 18.973 143.726 18.8506L144.065 17.9367ZM143.563 13.7389L144.547 17.1671L144.719 18.5007L143.898 18.5926L142.268 13.7389H143.563Z" fill="#111111"/>
</g>
<defs>
<clipPath id="clip0_2075_31942">
<rect width="74" height="25" fill="white"/>
</clipPath>
<clipPath id="clip1_2075_31942">
<rect width="74" height="25" fill="white" transform="translate(78)"/>
</clipPath>
</defs>
</svg>
