<svg viewBox="0 0 300 300" xmlns="http://www.w3.org/2000/svg" height="2048" width="2048"><svg xmlns="http://www.w3.org/2000/svg"><svg width="300" height="300"><defs style="transform: scale(1) translate(0px, 0px);"><clipPath id="clip-path-dot-color"><circle cx="23.5" cy="104.5" r="4.5" transform="rotate(0,23.5,104.5)"/><circle cx="23.5" cy="131.5" r="4.5" transform="rotate(0,23.5,131.5)"/><path d="M 19 154v 9h 9a 9 9, 0, 0, 0, -9 -9" transform="rotate(-90,23.5,158.5)"/><rect x="19" y="163" width="9" height="9" transform="rotate(0,23.5,167.5)"/><path d="M 19 172v 9h 4.5a 4.5 4.5, 0, 0, 0, 0 -9" transform="rotate(90,23.5,176.5)"/><path d="M 19 190v 9h 9a 9 9, 0, 0, 0, -9 -9" transform="rotate(-90,23.5,194.5)"/><path d="M 19 199v 9h 4.5a 4.5 4.5, 0, 0, 0, 0 -9" transform="rotate(90,23.5,203.5)"/><circle cx="32.5" cy="95.5" r="4.5" transform="rotate(0,32.5,95.5)"/><path d="M 28 109v 9h 4.5a 4.5 4.5, 0, 0, 0, 0 -9" transform="rotate(-90,32.5,113.5)"/><path d="M 28 118v 9h 4.5a 4.5 4.5, 0, 0, 0, 0 -9" transform="rotate(90,32.5,122.5)"/><rect x="28" y="154" width="9" height="9" transform="rotate(0,32.5,158.5)"/><rect x="28" y="190" width="9" height="9" transform="rotate(0,32.5,194.5)"/><path d="M 37 100v 9h 4.5a 4.5 4.5, 0, 0, 0, 0 -9" transform="rotate(180,41.5,104.5)"/><path d="M 37 136v 9h 4.5a 4.5 4.5, 0, 0, 0, 0 -9" transform="rotate(-90,41.5,140.5)"/><rect x="37" y="145" width="9" height="9" transform="rotate(0,41.5,149.5)"/><rect x="37" y="154" width="9" height="9" transform="rotate(0,41.5,158.5)"/><path d="M 37 181v 9h 9a 9 9, 0, 0, 0, -9 -9" transform="rotate(-90,41.5,185.5)"/><path d="M 37 190v 9h 9a 9 9, 0, 0, 0, -9 -9" transform="rotate(90,41.5,194.5)"/><path d="M 46 91v 9h 9a 9 9, 0, 0, 0, -9 -9" transform="rotate(-90,50.5,95.5)"/><rect x="46" y="100" width="9" height="9" transform="rotate(0,50.5,104.5)"/><rect x="46" y="109" width="9" height="9" transform="rotate(0,50.5,113.5)"/><rect x="46" y="118" width="9" height="9" transform="rotate(0,50.5,122.5)"/><path d="M 46 127v 9h 9a 9 9, 0, 0, 0, -9 -9" transform="rotate(180,50.5,131.5)"/><path d="M 46 154v 9h 9a 9 9, 0, 0, 0, -9 -9" transform="rotate(0,50.5,158.5)"/><rect x="46" y="163" width="9" height="9" transform="rotate(0,50.5,167.5)"/><rect x="46" y="172" width="9" height="9" transform="rotate(0,50.5,176.5)"/><rect x="46" y="181" width="9" height="9" transform="rotate(0,50.5,185.5)"/><path d="M 55 91v 9h 4.5a 4.5 4.5, 0, 0, 0, 0 -9" transform="rotate(0,59.5,95.5)"/><path d="M 55 118v 9h 9a 9 9, 0, 0, 0, -9 -9" transform="rotate(0,59.5,122.5)"/><rect x="55" y="127" width="9" height="9" transform="rotate(0,59.5,131.5)"/><path d="M 55 145v 9h 4.5a 4.5 4.5, 0, 0, 0, 0 -9" transform="rotate(180,59.5,149.5)"/><path d="M 55 181v 9h 9a 9 9, 0, 0, 0, -9 -9" transform="rotate(0,59.5,185.5)"/><path d="M 55 190v 9h 4.5a 4.5 4.5, 0, 0, 0, 0 -9" transform="rotate(90,59.5,194.5)"/><path d="M 64 100v 9h 4.5a 4.5 4.5, 0, 0, 0, 0 -9" transform="rotate(-90,68.5,104.5)"/><path d="M 64 109v 9h 9a 9 9, 0, 0, 0, -9 -9" transform="rotate(180,68.5,113.5)"/><rect x="64" y="127" width="9" height="9" transform="rotate(0,68.5,131.5)"/><rect x="64" y="136" width="9" height="9" transform="rotate(0,68.5,140.5)"/><rect x="64" y="145" width="9" height="9" transform="rotate(0,68.5,149.5)"/><path d="M 64 199v 9h 4.5a 4.5 4.5, 0, 0, 0, 0 -9" transform="rotate(180,68.5,203.5)"/><path d="M 73 91v 9h 4.5a 4.5 4.5, 0, 0, 0, 0 -9" transform="rotate(180,77.5,95.5)"/><rect x="73" y="109" width="9" height="9" transform="rotate(0,77.5,113.5)"/><path d="M 73 127v 9h 4.5a 4.5 4.5, 0, 0, 0, 0 -9" transform="rotate(0,77.5,131.5)"/><path d="M 73 145v 9h 4.5a 4.5 4.5, 0, 0, 0, 0 -9" transform="rotate(0,77.5,149.5)"/><circle cx="77.5" cy="167.5" r="4.5" transform="rotate(0,77.5,167.5)"/><path d="M 73 181v 9h 4.5a 4.5 4.5, 0, 0, 0, 0 -9" transform="rotate(180,77.5,185.5)"/><path d="M 73 199v 9h 4.5a 4.5 4.5, 0, 0, 0, 0 -9" transform="rotate(0,77.5,203.5)"/><rect x="82" y="91" width="9" height="9" transform="rotate(0,86.5,95.5)"/><rect x="82" y="100" width="9" height="9" transform="rotate(0,86.5,104.5)"/><rect x="82" y="109" width="9" height="9" transform="rotate(0,86.5,113.5)"/><path d="M 82 172v 9h 4.5a 4.5 4.5, 0, 0, 0, 0 -9" transform="rotate(-90,86.5,176.5)"/><rect x="82" y="181" width="9" height="9" transform="rotate(0,86.5,185.5)"/><path d="M 82 190v 9h 9a 9 9, 0, 0, 0, -9 -9" transform="rotate(180,86.5,194.5)"/><circle cx="95.5" cy="32.5" r="4.5" transform="rotate(0,95.5,32.5)"/><path d="M 91 46v 9h 9a 9 9, 0, 0, 0, -9 -9" transform="rotate(-90,95.5,50.5)"/><rect x="91" y="55" width="9" height="9" transform="rotate(0,95.5,59.5)"/><rect x="91" y="64" width="9" height="9" transform="rotate(0,95.5,68.5)"/><path d="M 91 73v 9h 4.5a 4.5 4.5, 0, 0, 0, 0 -9" transform="rotate(90,95.5,77.5)"/><rect x="91" y="91" width="9" height="9" transform="rotate(0,95.5,95.5)"/><rect x="91" y="100" width="9" height="9" transform="rotate(0,95.5,104.5)"/><rect x="91" y="109" width="9" height="9" transform="rotate(0,95.5,113.5)"/><path d="M 91 127v 9h 9a 9 9, 0, 0, 0, -9 -9" transform="rotate(-90,95.5,131.5)"/><path d="M 91 136v 9h 9a 9 9, 0, 0, 0, -9 -9" transform="rotate(180,95.5,140.5)"/><path d="M 91 190v 9h 4.5a 4.5 4.5, 0, 0, 0, 0 -9" transform="rotate(0,95.5,194.5)"/><path d="M 91 208v 9h 4.5a 4.5 4.5, 0, 0, 0, 0 -9" transform="rotate(-90,95.5,212.5)"/><path d="M 91 217v 9h 4.5a 4.5 4.5, 0, 0, 0, 0 -9" transform="rotate(90,95.5,221.5)"/><path d="M 91 235v 9h 9a 9 9, 0, 0, 0, -9 -9" transform="rotate(-90,95.5,239.5)"/><path d="M 91 244v 9h 9a 9 9, 0, 0, 0, -9 -9" transform="rotate(180,95.5,248.5)"/><path d="M 91 262v 9h 4.5a 4.5 4.5, 0, 0, 0, 0 -9" transform="rotate(180,95.5,266.5)"/><path d="M 100 37v 9h 4.5a 4.5 4.5, 0, 0, 0, 0 -9" transform="rotate(-90,104.5,41.5)"/><rect x="100" y="46" width="9" height="9" transform="rotate(0,104.5,50.5)"/><rect x="100" y="55" width="9" height="9" transform="rotate(0,104.5,59.5)"/><path d="M 100 82v 9h 9a 9 9, 0, 0, 0, -9 -9" transform="rotate(-90,104.5,86.5)"/><rect x="100" y="91" width="9" height="9" transform="rotate(0,104.5,95.5)"/><path d="M 100 109v 9h 9a 9 9, 0, 0, 0, -9 -9" transform="rotate(0,104.5,113.5)"/><rect x="100" y="118" width="9" height="9" transform="rotate(0,104.5,122.5)"/><rect x="100" y="127" width="9" height="9" transform="rotate(0,104.5,131.5)"/><path d="M 100 136v 9h 9a 9 9, 0, 0, 0, -9 -9" transform="rotate(90,104.5,140.5)"/><path d="M 100 163v 9h 9a 9 9, 0, 0, 0, -9 -9" transform="rotate(-90,104.5,167.5)"/><rect x="100" y="172" width="9" height="9" transform="rotate(0,104.5,176.5)"/><path d="M 100 181v 9h 4.5a 4.5 4.5, 0, 0, 0, 0 -9" transform="rotate(90,104.5,185.5)"/><path d="M 100 226v 9h 9a 9 9, 0, 0, 0, -9 -9" transform="rotate(-90,104.5,230.5)"/><rect x="100" y="235" width="9" height="9" transform="rotate(0,104.5,239.5)"/><rect x="100" y="244" width="9" height="9" transform="rotate(0,104.5,248.5)"/><path d="M 100 262v 9h 4.5a 4.5 4.5, 0, 0, 0, 0 -9" transform="rotate(0,104.5,266.5)"/><path d="M 109 19v 9h 9a 9 9, 0, 0, 0, -9 -9" transform="rotate(-90,113.5,23.5)"/><path d="M 109 28v 9h 4.5a 4.5 4.5, 0, 0, 0, 0 -9" transform="rotate(90,113.5,32.5)"/><path d="M 109 55v 9h 9a 9 9, 0, 0, 0, -9 -9" transform="rotate(0,113.5,59.5)"/><rect x="109" y="64" width="9" height="9" transform="rotate(0,113.5,68.5)"/><rect x="109" y="73" width="9" height="9" transform="rotate(0,113.5,77.5)"/><rect x="109" y="82" width="9" height="9" transform="rotate(0,113.5,86.5)"/><path d="M 109 91v 9h 9a 9 9, 0, 0, 0, -9 -9" transform="rotate(90,113.5,95.5)"/><path d="M 109 118v 9h 4.5a 4.5 4.5, 0, 0, 0, 0 -9" transform="rotate(0,113.5,122.5)"/><path d="M 109 145v 9h 4.5a 4.5 4.5, 0, 0, 0, 0 -9" transform="rotate(180,113.5,149.5)"/><rect x="109" y="163" width="9" height="9" transform="rotate(0,113.5,167.5)"/><rect x="109" y="172" width="9" height="9" transform="rotate(0,113.5,176.5)"/><path d="M 109 190v 9h 9a 9 9, 0, 0, 0, -9 -9" transform="rotate(-90,113.5,194.5)"/><rect x="109" y="199" width="9" height="9" transform="rotate(0,113.5,203.5)"/><rect x="109" y="208" width="9" height="9" transform="rotate(0,113.5,212.5)"/><rect x="109" y="217" width="9" height="9" transform="rotate(0,113.5,221.5)"/><rect x="109" y="226" width="9" height="9" transform="rotate(0,113.5,230.5)"/><rect x="109" y="235" width="9" height="9" transform="rotate(0,113.5,239.5)"/><rect x="109" y="244" width="9" height="9" transform="rotate(0,113.5,248.5)"/><path d="M 109 253v 9h 4.5a 4.5 4.5, 0, 0, 0, 0 -9" transform="rotate(90,113.5,257.5)"/><path d="M 118 19v 9h 4.5a 4.5 4.5, 0, 0, 0, 0 -9" transform="rotate(0,122.5,23.5)"/><circle cx="122.5" cy="50.5" r="4.5" transform="rotate(0,122.5,50.5)"/><path d="M 118 64v 9h 4.5a 4.5 4.5, 0, 0, 0, 0 -9" transform="rotate(0,122.5,68.5)"/><rect x="118" y="82" width="9" height="9" transform="rotate(0,122.5,86.5)"/><circle cx="122.5" cy="104.5" r="4.5" transform="rotate(0,122.5,104.5)"/><path d="M 118 136v 9h 4.5a 4.5 4.5, 0, 0, 0, 0 -9" transform="rotate(-90,122.5,140.5)"/><rect x="118" y="145" width="9" height="9" transform="rotate(0,122.5,149.5)"/><rect x="118" y="154" width="9" height="9" transform="rotate(0,122.5,158.5)"/><rect x="118" y="163" width="9" height="9" transform="rotate(0,122.5,167.5)"/><path d="M 118 172v 9h 9a 9 9, 0, 0, 0, -9 -9" transform="rotate(90,122.5,176.5)"/><path d="M 118 190v 9h 9a 9 9, 0, 0, 0, -9 -9" transform="rotate(0,122.5,194.5)"/><rect x="118" y="199" width="9" height="9" transform="rotate(0,122.5,203.5)"/><circle cx="122.5" cy="275.5" r="4.5" transform="rotate(0,122.5,275.5)"/><path d="M 127 28v 9h 9a 9 9, 0, 0, 0, -9 -9" transform="rotate(-90,131.5,32.5)"/><path d="M 127 37v 9h 9a 9 9, 0, 0, 0, -9 -9" transform="rotate(180,131.5,41.5)"/><path d="M 127 73v 9h 4.5a 4.5 4.5, 0, 0, 0, 0 -9" transform="rotate(-90,131.5,77.5)"/><path d="M 127 82v 9h 9a 9 9, 0, 0, 0, -9 -9" transform="rotate(90,131.5,86.5)"/><circle cx="131.5" cy="113.5" r="4.5" transform="rotate(0,131.5,113.5)"/><circle cx="131.5" cy="131.5" r="4.5" transform="rotate(0,131.5,131.5)"/><rect x="127" y="145" width="9" height="9" transform="rotate(0,131.5,149.5)"/><path d="M 127 163v 9h 4.5a 4.5 4.5, 0, 0, 0, 0 -9" transform="rotate(0,131.5,167.5)"/><path d="M 127 199v 9h 9a 9 9, 0, 0, 0, -9 -9" transform="rotate(0,131.5,203.5)"/><rect x="127" y="208" width="9" height="9" transform="rotate(0,131.5,212.5)"/><path d="M 127 217v 9h 9a 9 9, 0, 0, 0, -9 -9" transform="rotate(180,131.5,221.5)"/><circle cx="131.5" cy="248.5" r="4.5" transform="rotate(0,131.5,248.5)"/><circle cx="131.5" cy="266.5" r="4.5" transform="rotate(0,131.5,266.5)"/><path d="M 136 28v 9h 9a 9 9, 0, 0, 0, -9 -9" transform="rotate(0,140.5,32.5)"/><rect x="136" y="37" width="9" height="9" transform="rotate(0,140.5,41.5)"/><rect x="136" y="46" width="9" height="9" transform="rotate(0,140.5,50.5)"/><rect x="136" y="55" width="9" height="9" transform="rotate(0,140.5,59.5)"/><path d="M 136 64v 9h 4.5a 4.5 4.5, 0, 0, 0, 0 -9" transform="rotate(90,140.5,68.5)"/><path d="M 136 100v 9h 4.5a 4.5 4.5, 0, 0, 0, 0 -9" transform="rotate(180,140.5,104.5)"/><path d="M 136 118v 9h 4.5a 4.5 4.5, 0, 0, 0, 0 -9" transform="rotate(180,140.5,122.5)"/><rect x="136" y="145" width="9" height="9" transform="rotate(0,140.5,149.5)"/><path d="M 136 154v 9h 9a 9 9, 0, 0, 0, -9 -9" transform="rotate(180,140.5,158.5)"/><path d="M 136 217v 9h 4.5a 4.5 4.5, 0, 0, 0, 0 -9" transform="rotate(0,140.5,221.5)"/><circle cx="140.5" cy="239.5" r="4.5" transform="rotate(0,140.5,239.5)"/><circle cx="140.5" cy="257.5" r="4.5" transform="rotate(0,140.5,257.5)"/><path d="M 136 271v 9h 4.5a 4.5 4.5, 0, 0, 0, 0 -9" transform="rotate(180,140.5,275.5)"/><path d="M 145 73v 9h 4.5a 4.5 4.5, 0, 0, 0, 0 -9" transform="rotate(-90,149.5,77.5)"/><rect x="145" y="82" width="9" height="9" transform="rotate(0,149.5,86.5)"/><rect x="145" y="91" width="9" height="9" transform="rotate(0,149.5,95.5)"/><rect x="145" y="100" width="9" height="9" transform="rotate(0,149.5,104.5)"/><rect x="145" y="109" width="9" height="9" transform="rotate(0,149.5,113.5)"/><rect x="145" y="118" width="9" height="9" transform="rotate(0,149.5,122.5)"/><rect x="145" y="145" width="9" height="9" transform="rotate(0,149.5,149.5)"/><rect x="145" y="154" width="9" height="9" transform="rotate(0,149.5,158.5)"/><path d="M 145 163v 9h 4.5a 4.5 4.5, 0, 0, 0, 0 -9" transform="rotate(90,149.5,167.5)"/><path d="M 145 181v 9h 4.5a 4.5 4.5, 0, 0, 0, 0 -9" transform="rotate(-90,149.5,185.5)"/><rect x="145" y="190" width="9" height="9" transform="rotate(0,149.5,194.5)"/><rect x="145" y="199" width="9" height="9" transform="rotate(0,149.5,203.5)"/><path d="M 145 208v 9h 4.5a 4.5 4.5, 0, 0, 0, 0 -9" transform="rotate(90,149.5,212.5)"/><circle cx="149.5" cy="230.5" r="4.5" transform="rotate(0,149.5,230.5)"/><path d="M 145 244v 9h 4.5a 4.5 4.5, 0, 0, 0, 0 -9" transform="rotate(180,149.5,248.5)"/><path d="M 145 271v 9h 4.5a 4.5 4.5, 0, 0, 0, 0 -9" transform="rotate(0,149.5,275.5)"/><path d="M 154 19v 9h 4.5a 4.5 4.5, 0, 0, 0, 0 -9" transform="rotate(-90,158.5,23.5)"/><rect x="154" y="28" width="9" height="9" transform="rotate(0,158.5,32.5)"/><path d="M 154 37v 9h 9a 9 9, 0, 0, 0, -9 -9" transform="rotate(180,158.5,41.5)"/><circle cx="158.5" cy="59.5" r="4.5" transform="rotate(0,158.5,59.5)"/><rect x="154" y="82" width="9" height="9" transform="rotate(0,158.5,86.5)"/><rect x="154" y="91" width="9" height="9" transform="rotate(0,158.5,95.5)"/><path d="M 154 100v 9h 9a 9 9, 0, 0, 0, -9 -9" transform="rotate(90,158.5,104.5)"/><rect x="154" y="118" width="9" height="9" transform="rotate(0,158.5,122.5)"/><path d="M 154 145v 9h 4.5a 4.5 4.5, 0, 0, 0, 0 -9" transform="rotate(0,158.5,149.5)"/><path d="M 154 190v 9h 4.5a 4.5 4.5, 0, 0, 0, 0 -9" transform="rotate(0,158.5,194.5)"/><path d="M 154 235v 9h 4.5a 4.5 4.5, 0, 0, 0, 0 -9" transform="rotate(-90,158.5,239.5)"/><rect x="154" y="244" width="9" height="9" transform="rotate(0,158.5,248.5)"/><rect x="154" y="253" width="9" height="9" transform="rotate(0,158.5,257.5)"/><path d="M 154 262v 9h 4.5a 4.5 4.5, 0, 0, 0, 0 -9" transform="rotate(90,158.5,266.5)"/><rect x="163" y="28" width="9" height="9" transform="rotate(0,167.5,32.5)"/><rect x="163" y="37" width="9" height="9" transform="rotate(0,167.5,41.5)"/><path d="M 163 46v 9h 4.5a 4.5 4.5, 0, 0, 0, 0 -9" transform="rotate(90,167.5,50.5)"/><path d="M 163 64v 9h 4.5a 4.5 4.5, 0, 0, 0, 0 -9" transform="rotate(-90,167.5,68.5)"/><rect x="163" y="73" width="9" height="9" transform="rotate(0,167.5,77.5)"/><rect x="163" y="82" width="9" height="9" transform="rotate(0,167.5,86.5)"/><rect x="163" y="91" width="9" height="9" transform="rotate(0,167.5,95.5)"/><path d="M 163 109v 9h 9a 9 9, 0, 0, 0, -9 -9" transform="rotate(-90,167.5,113.5)"/><rect x="163" y="118" width="9" height="9" transform="rotate(0,167.5,122.5)"/><circle cx="167.5" cy="158.5" r="4.5" transform="rotate(0,167.5,158.5)"/><path d="M 163 172v 9h 9a 9 9, 0, 0, 0, -9 -9" transform="rotate(-90,167.5,176.5)"/><path d="M 163 181v 9h 4.5a 4.5 4.5, 0, 0, 0, 0 -9" transform="rotate(90,167.5,185.5)"/><circle cx="167.5" cy="203.5" r="4.5" transform="rotate(0,167.5,203.5)"/><circle cx="167.5" cy="230.5" r="4.5" transform="rotate(0,167.5,230.5)"/><rect x="163" y="244" width="9" height="9" transform="rotate(0,167.5,248.5)"/><circle cx="167.5" cy="275.5" r="4.5" transform="rotate(0,167.5,275.5)"/><path d="M 172 19v 9h 9a 9 9, 0, 0, 0, -9 -9" transform="rotate(-90,176.5,23.5)"/><rect x="172" y="28" width="9" height="9" transform="rotate(0,176.5,32.5)"/><rect x="172" y="37" width="9" height="9" transform="rotate(0,176.5,41.5)"/><path d="M 172 91v 9h 4.5a 4.5 4.5, 0, 0, 0, 0 -9" transform="rotate(0,176.5,95.5)"/><rect x="172" y="109" width="9" height="9" transform="rotate(0,176.5,113.5)"/><path d="M 172 118v 9h 9a 9 9, 0, 0, 0, -9 -9" transform="rotate(90,176.5,122.5)"/><path d="M 172 136v 9h 4.5a 4.5 4.5, 0, 0, 0, 0 -9" transform="rotate(-90,176.5,140.5)"/><path d="M 172 145v 9h 4.5a 4.5 4.5, 0, 0, 0, 0 -9" transform="rotate(90,176.5,149.5)"/><rect x="172" y="172" width="9" height="9" transform="rotate(0,176.5,176.5)"/><circle cx="176.5" cy="212.5" r="4.5" transform="rotate(0,176.5,212.5)"/><path d="M 172 235v 9h 9a 9 9, 0, 0, 0, -9 -9" transform="rotate(-90,176.5,239.5)"/><rect x="172" y="244" width="9" height="9" transform="rotate(0,176.5,248.5)"/><path d="M 172 253v 9h 4.5a 4.5 4.5, 0, 0, 0, 0 -9" transform="rotate(90,176.5,257.5)"/><rect x="181" y="19" width="9" height="9" transform="rotate(0,185.5,23.5)"/><rect x="181" y="28" width="9" height="9" transform="rotate(0,185.5,32.5)"/><path d="M 181 37v 9h 9a 9 9, 0, 0, 0, -9 -9" transform="rotate(90,185.5,41.5)"/><circle cx="185.5" cy="77.5" r="4.5" transform="rotate(0,185.5,77.5)"/><rect x="181" y="109" width="9" height="9" transform="rotate(0,185.5,113.5)"/><path d="M 181 163v 9h 9a 9 9, 0, 0, 0, -9 -9" transform="rotate(-90,185.5,167.5)"/><rect x="181" y="172" width="9" height="9" transform="rotate(0,185.5,176.5)"/><rect x="181" y="181" width="9" height="9" transform="rotate(0,185.5,185.5)"/><path d="M 181 190v 9h 4.5a 4.5 4.5, 0, 0, 0, 0 -9" transform="rotate(90,185.5,194.5)"/><rect x="181" y="235" width="9" height="9" transform="rotate(0,185.5,239.5)"/><circle cx="185.5" cy="275.5" r="4.5" transform="rotate(0,185.5,275.5)"/><rect x="190" y="19" width="9" height="9" transform="rotate(0,194.5,23.5)"/><rect x="190" y="28" width="9" height="9" transform="rotate(0,194.5,32.5)"/><path d="M 190 46v 9h 4.5a 4.5 4.5, 0, 0, 0, 0 -9" transform="rotate(-90,194.5,50.5)"/><path d="M 190 55v 9h 9a 9 9, 0, 0, 0, -9 -9" transform="rotate(180,194.5,59.5)"/><path d="M 190 91v 9h 9a 9 9, 0, 0, 0, -9 -9" transform="rotate(-90,194.5,95.5)"/><rect x="190" y="100" width="9" height="9" transform="rotate(0,194.5,104.5)"/><rect x="190" y="109" width="9" height="9" transform="rotate(0,194.5,113.5)"/><rect x="190" y="118" width="9" height="9" transform="rotate(0,194.5,122.5)"/><path d="M 190 127v 9h 4.5a 4.5 4.5, 0, 0, 0, 0 -9" transform="rotate(90,194.5,131.5)"/><path d="M 190 145v 9h 9a 9 9, 0, 0, 0, -9 -9" transform="rotate(-90,194.5,149.5)"/><rect x="190" y="154" width="9" height="9" transform="rotate(0,194.5,158.5)"/><rect x="190" y="163" width="9" height="9" transform="rotate(0,194.5,167.5)"/><path d="M 190 199v 9h 9a 9 9, 0, 0, 0, -9 -9" transform="rotate(-90,194.5,203.5)"/><rect x="190" y="208" width="9" height="9" transform="rotate(0,194.5,212.5)"/><rect x="190" y="217" width="9" height="9" transform="rotate(0,194.5,221.5)"/><rect x="190" y="226" width="9" height="9" transform="rotate(0,194.5,230.5)"/><rect x="190" y="235" width="9" height="9" transform="rotate(0,194.5,239.5)"/><path d="M 190 253v 9h 4.5a 4.5 4.5, 0, 0, 0, 0 -9" transform="rotate(-90,194.5,257.5)"/><path d="M 190 262v 9h 9a 9 9, 0, 0, 0, -9 -9" transform="rotate(180,194.5,266.5)"/><path d="M 199 19v 9h 9a 9 9, 0, 0, 0, -9 -9" transform="rotate(0,203.5,23.5)"/><rect x="199" y="28" width="9" height="9" transform="rotate(0,203.5,32.5)"/><path d="M 199 37v 9h 4.5a 4.5 4.5, 0, 0, 0, 0 -9" transform="rotate(90,203.5,41.5)"/><path d="M 199 55v 9h 9a 9 9, 0, 0, 0, -9 -9" transform="rotate(0,203.5,59.5)"/><rect x="199" y="64" width="9" height="9" transform="rotate(0,203.5,68.5)"/><rect x="199" y="73" width="9" height="9" transform="rotate(0,203.5,77.5)"/><rect x="199" y="82" width="9" height="9" transform="rotate(0,203.5,86.5)"/><rect x="199" y="91" width="9" height="9" transform="rotate(0,203.5,95.5)"/><path d="M 199 136v 9h 4.5a 4.5 4.5, 0, 0, 0, 0 -9" transform="rotate(-90,203.5,140.5)"/><rect x="199" y="145" width="9" height="9" transform="rotate(0,203.5,149.5)"/><path d="M 199 163v 9h 9a 9 9, 0, 0, 0, -9 -9" transform="rotate(0,203.5,167.5)"/><path d="M 199 172v 9h 9a 9 9, 0, 0, 0, -9 -9" transform="rotate(180,203.5,176.5)"/><path d="M 199 190v 9h 4.5a 4.5 4.5, 0, 0, 0, 0 -9" transform="rotate(-90,203.5,194.5)"/><rect x="199" y="199" width="9" height="9" transform="rotate(0,203.5,203.5)"/><rect x="199" y="208" width="9" height="9" transform="rotate(0,203.5,212.5)"/><rect x="199" y="217" width="9" height="9" transform="rotate(0,203.5,221.5)"/><rect x="199" y="226" width="9" height="9" transform="rotate(0,203.5,230.5)"/><rect x="199" y="235" width="9" height="9" transform="rotate(0,203.5,239.5)"/><path d="M 199 244v 9h 9a 9 9, 0, 0, 0, -9 -9" transform="rotate(180,203.5,248.5)"/><path d="M 199 262v 9h 4.5a 4.5 4.5, 0, 0, 0, 0 -9" transform="rotate(0,203.5,266.5)"/><path d="M 208 91v 9h 9a 9 9, 0, 0, 0, -9 -9" transform="rotate(0,212.5,95.5)"/><rect x="208" y="100" width="9" height="9" transform="rotate(0,212.5,104.5)"/><rect x="208" y="109" width="9" height="9" transform="rotate(0,212.5,113.5)"/><path d="M 208 118v 9h 4.5a 4.5 4.5, 0, 0, 0, 0 -9" transform="rotate(90,212.5,122.5)"/><path d="M 208 145v 9h 9a 9 9, 0, 0, 0, -9 -9" transform="rotate(0,212.5,149.5)"/><path d="M 208 154v 9h 9a 9 9, 0, 0, 0, -9 -9" transform="rotate(180,212.5,158.5)"/><path d="M 208 172v 9h 4.5a 4.5 4.5, 0, 0, 0, 0 -9" transform="rotate(0,212.5,176.5)"/><rect x="208" y="199" width="9" height="9" transform="rotate(0,212.5,203.5)"/><rect x="208" y="235" width="9" height="9" transform="rotate(0,212.5,239.5)"/><rect x="208" y="244" width="9" height="9" transform="rotate(0,212.5,248.5)"/><path d="M 208 253v 9h 9a 9 9, 0, 0, 0, -9 -9" transform="rotate(180,212.5,257.5)"/><path d="M 217 100v 9h 4.5a 4.5 4.5, 0, 0, 0, 0 -9" transform="rotate(0,221.5,104.5)"/><circle cx="221.5" cy="140.5" r="4.5" transform="rotate(0,221.5,140.5)"/><rect x="217" y="154" width="9" height="9" transform="rotate(0,221.5,158.5)"/><path d="M 217 190v 9h 9a 9 9, 0, 0, 0, -9 -9" transform="rotate(-90,221.5,194.5)"/><rect x="217" y="199" width="9" height="9" transform="rotate(0,221.5,203.5)"/><circle cx="221.5" cy="221.5" r="4.5" transform="rotate(0,221.5,221.5)"/><rect x="217" y="235" width="9" height="9" transform="rotate(0,221.5,239.5)"/><path d="M 217 253v 9h 4.5a 4.5 4.5, 0, 0, 0, 0 -9" transform="rotate(0,221.5,257.5)"/><path d="M 226 91v 9h 4.5a 4.5 4.5, 0, 0, 0, 0 -9" transform="rotate(180,230.5,95.5)"/><path d="M 226 118v 9h 9a 9 9, 0, 0, 0, -9 -9" transform="rotate(-90,230.5,122.5)"/><path d="M 226 127v 9h 4.5a 4.5 4.5, 0, 0, 0, 0 -9" transform="rotate(90,230.5,131.5)"/><path d="M 226 154v 9h 4.5a 4.5 4.5, 0, 0, 0, 0 -9" transform="rotate(0,230.5,158.5)"/><path d="M 226 181v 9h 4.5a 4.5 4.5, 0, 0, 0, 0 -9" transform="rotate(-90,230.5,185.5)"/><rect x="226" y="190" width="9" height="9" transform="rotate(0,230.5,194.5)"/><rect x="226" y="199" width="9" height="9" transform="rotate(0,230.5,203.5)"/><rect x="226" y="235" width="9" height="9" transform="rotate(0,230.5,239.5)"/><path d="M 226 244v 9h 4.5a 4.5 4.5, 0, 0, 0, 0 -9" transform="rotate(90,230.5,248.5)"/><path d="M 226 262v 9h 4.5a 4.5 4.5, 0, 0, 0, 0 -9" transform="rotate(180,230.5,266.5)"/><rect x="235" y="91" width="9" height="9" transform="rotate(0,239.5,95.5)"/><path d="M 235 109v 9h 4.5a 4.5 4.5, 0, 0, 0, 0 -9" transform="rotate(-90,239.5,113.5)"/><rect x="235" y="118" width="9" height="9" transform="rotate(0,239.5,122.5)"/><circle cx="239.5" cy="149.5" r="4.5" transform="rotate(0,239.5,149.5)"/><circle cx="239.5" cy="176.5" r="4.5" transform="rotate(0,239.5,176.5)"/><path d="M 235 190v 9h 9a 9 9, 0, 0, 0, -9 -9" transform="rotate(0,239.5,194.5)"/><rect x="235" y="199" width="9" height="9" transform="rotate(0,239.5,203.5)"/><rect x="235" y="208" width="9" height="9" transform="rotate(0,239.5,212.5)"/><rect x="235" y="217" width="9" height="9" transform="rotate(0,239.5,221.5)"/><rect x="235" y="226" width="9" height="9" transform="rotate(0,239.5,230.5)"/><path d="M 235 235v 9h 9a 9 9, 0, 0, 0, -9 -9" transform="rotate(90,239.5,239.5)"/><rect x="235" y="262" width="9" height="9" transform="rotate(0,239.5,266.5)"/><path d="M 235 271v 9h 4.5a 4.5 4.5, 0, 0, 0, 0 -9" transform="rotate(90,239.5,275.5)"/><path d="M 244 91v 9h 4.5a 4.5 4.5, 0, 0, 0, 0 -9" transform="rotate(0,248.5,95.5)"/><path d="M 244 118v 9h 9a 9 9, 0, 0, 0, -9 -9" transform="rotate(0,248.5,122.5)"/><rect x="244" y="127" width="9" height="9" transform="rotate(0,248.5,131.5)"/><path d="M 244 136v 9h 4.5a 4.5 4.5, 0, 0, 0, 0 -9" transform="rotate(90,248.5,140.5)"/><path d="M 244 181v 9h 4.5a 4.5 4.5, 0, 0, 0, 0 -9" transform="rotate(180,248.5,185.5)"/><rect x="244" y="226" width="9" height="9" transform="rotate(0,248.5,230.5)"/><circle cx="248.5" cy="248.5" r="4.5" transform="rotate(0,248.5,248.5)"/><rect x="244" y="262" width="9" height="9" transform="rotate(0,248.5,266.5)"/><circle cx="257.5" cy="104.5" r="4.5" transform="rotate(0,257.5,104.5)"/><path d="M 253 145v 9h 9a 9 9, 0, 0, 0, -9 -9" transform="rotate(-90,257.5,149.5)"/><path d="M 253 154v 9h 4.5a 4.5 4.5, 0, 0, 0, 0 -9" transform="rotate(90,257.5,158.5)"/><path d="M 253 172v 9h 4.5a 4.5 4.5, 0, 0, 0, 0 -9" transform="rotate(-90,257.5,176.5)"/><rect x="253" y="181" width="9" height="9" transform="rotate(0,257.5,185.5)"/><path d="M 253 199v 9h 4.5a 4.5 4.5, 0, 0, 0, 0 -9" transform="rotate(-90,257.5,203.5)"/><path d="M 253 208v 9h 4.5a 4.5 4.5, 0, 0, 0, 0 -9" transform="rotate(90,257.5,212.5)"/><path d="M 253 226v 9h 9a 9 9, 0, 0, 0, -9 -9" transform="rotate(0,257.5,230.5)"/><path d="M 253 235v 9h 9a 9 9, 0, 0, 0, -9 -9" transform="rotate(180,257.5,239.5)"/><path d="M 253 262v 9h 9a 9 9, 0, 0, 0, -9 -9" transform="rotate(0,257.5,266.5)"/><path d="M 253 271v 9h 9a 9 9, 0, 0, 0, -9 -9" transform="rotate(180,257.5,275.5)"/><circle cx="266.5" cy="95.5" r="4.5" transform="rotate(0,266.5,95.5)"/><path d="M 262 109v 9h 9a 9 9, 0, 0, 0, -9 -9" transform="rotate(-90,266.5,113.5)"/><rect x="262" y="118" width="9" height="9" transform="rotate(0,266.5,122.5)"/><rect x="262" y="127" width="9" height="9" transform="rotate(0,266.5,131.5)"/><rect x="262" y="136" width="9" height="9" transform="rotate(0,266.5,140.5)"/><path d="M 262 145v 9h 9a 9 9, 0, 0, 0, -9 -9" transform="rotate(90,266.5,149.5)"/><circle cx="266.5" cy="167.5" r="4.5" transform="rotate(0,266.5,167.5)"/><rect x="262" y="181" width="9" height="9" transform="rotate(0,266.5,185.5)"/><path d="M 262 190v 9h 9a 9 9, 0, 0, 0, -9 -9" transform="rotate(180,266.5,194.5)"/><rect x="262" y="235" width="9" height="9" transform="rotate(0,266.5,239.5)"/><rect x="262" y="244" width="9" height="9" transform="rotate(0,266.5,248.5)"/><path d="M 262 253v 9h 9a 9 9, 0, 0, 0, -9 -9" transform="rotate(180,266.5,257.5)"/><path d="M 262 271v 9h 4.5a 4.5 4.5, 0, 0, 0, 0 -9" transform="rotate(0,266.5,275.5)"/><path d="M 271 109v 9h 9a 9 9, 0, 0, 0, -9 -9" transform="rotate(0,275.5,113.5)"/><path d="M 271 118v 9h 9a 9 9, 0, 0, 0, -9 -9" transform="rotate(90,275.5,122.5)"/><circle cx="275.5" cy="158.5" r="4.5" transform="rotate(0,275.5,158.5)"/><path d="M 271 181v 9h 9a 9 9, 0, 0, 0, -9 -9" transform="rotate(0,275.5,185.5)"/><rect x="271" y="190" width="9" height="9" transform="rotate(0,275.5,194.5)"/><path d="M 271 199v 9h 4.5a 4.5 4.5, 0, 0, 0, 0 -9" transform="rotate(90,275.5,203.5)"/><path d="M 271 226v 9h 4.5a 4.5 4.5, 0, 0, 0, 0 -9" transform="rotate(-90,275.5,230.5)"/><rect x="271" y="235" width="9" height="9" transform="rotate(0,275.5,239.5)"/><rect x="271" y="244" width="9" height="9" transform="rotate(0,275.5,248.5)"/><path d="M 271 253v 9h 9a 9 9, 0, 0, 0, -9 -9" transform="rotate(90,275.5,257.5)"/></clipPath><clipPath id="clip-path-corners-square-color-0-0"><path clip-rule="evenodd" d="M 19 41.5v 18a 22.5 22.5, 0, 0, 0, 22.5 22.5h 18a 22.5 22.5, 0, 0, 0, 22.5 -22.5v -18a 22.5 22.5, 0, 0, 0, -22.5 -22.5h -18a 22.5 22.5, 0, 0, 0, -22.5 22.5M 41.5 28h 18a 13.5 13.5, 0, 0, 1, 13.5 13.5v 18a 13.5 13.5, 0, 0, 1, -13.5 13.5h -18a 13.5 13.5, 0, 0, 1, -13.5 -13.5v -18a 13.5 13.5, 0, 0, 1, 13.5 -13.5" transform="rotate(0,50.5,50.5)"/></clipPath><clipPath id="clip-path-corners-dot-color-0-0"><rect x="37" y="37" width="27" height="27" transform="rotate(0,50.5,50.5)"/></clipPath><clipPath id="clip-path-corners-square-color-1-0"><path clip-rule="evenodd" d="M 217 41.5v 18a 22.5 22.5, 0, 0, 0, 22.5 22.5h 18a 22.5 22.5, 0, 0, 0, 22.5 -22.5v -18a 22.5 22.5, 0, 0, 0, -22.5 -22.5h -18a 22.5 22.5, 0, 0, 0, -22.5 22.5M 239.5 28h 18a 13.5 13.5, 0, 0, 1, 13.5 13.5v 18a 13.5 13.5, 0, 0, 1, -13.5 13.5h -18a 13.5 13.5, 0, 0, 1, -13.5 -13.5v -18a 13.5 13.5, 0, 0, 1, 13.5 -13.5" transform="rotate(90,248.5,50.5)"/></clipPath><clipPath id="clip-path-corners-dot-color-1-0"><rect x="235" y="37" width="27" height="27" transform="rotate(90,248.5,50.5)"/></clipPath><clipPath id="clip-path-corners-square-color-0-1"><path clip-rule="evenodd" d="M 19 239.5v 18a 22.5 22.5, 0, 0, 0, 22.5 22.5h 18a 22.5 22.5, 0, 0, 0, 22.5 -22.5v -18a 22.5 22.5, 0, 0, 0, -22.5 -22.5h -18a 22.5 22.5, 0, 0, 0, -22.5 22.5M 41.5 226h 18a 13.5 13.5, 0, 0, 1, 13.5 13.5v 18a 13.5 13.5, 0, 0, 1, -13.5 13.5h -18a 13.5 13.5, 0, 0, 1, -13.5 -13.5v -18a 13.5 13.5, 0, 0, 1, 13.5 -13.5" transform="rotate(-90,50.5,248.5)"/></clipPath><clipPath id="clip-path-corners-dot-color-0-1"><rect x="37" y="235" width="27" height="27" transform="rotate(-90,50.5,248.5)"/></clipPath></defs><rect x="0" y="0" height="300" width="300" clip-path="url('#clip-path-background-color')" fill="#ffffff" style="transform: scale(1) translate(0px, 0px);"/><rect x="0" y="0" height="300" width="300" clip-path="url('#clip-path-dot-color')" fill="#000000" style="transform: scale(1) translate(0px, 0px);"/><rect x="19" y="19" height="63" width="63" clip-path="url('#clip-path-corners-square-color-0-0')" fill="#000000" style="transform: scale(1) translate(0px, 0px);"/><rect x="37" y="37" height="27" width="27" clip-path="url('#clip-path-corners-dot-color-0-0')" fill="#000000" style="transform: scale(1) translate(0px, 0px);"/><rect x="217" y="19" height="63" width="63" clip-path="url('#clip-path-corners-square-color-1-0')" fill="#000000" style="transform: scale(1) translate(0px, 0px);"/><rect x="235" y="37" height="27" width="27" clip-path="url('#clip-path-corners-dot-color-1-0')" fill="#000000" style="transform: scale(1) translate(0px, 0px);"/><rect x="19" y="217" height="63" width="63" clip-path="url('#clip-path-corners-square-color-0-1')" fill="#000000" style="transform: scale(1) translate(0px, 0px);"/><rect x="37" y="235" height="27" width="27" clip-path="url('#clip-path-corners-dot-color-0-1')" fill="#000000" style="transform: scale(1) translate(0px, 0px);"/></svg></svg></svg>