<svg width="31" height="32" viewBox="0 0 31 32" fill="none" xmlns="http://www.w3.org/2000/svg">
<path d="M23.2897 21.9637L28.8219 27.4946L26.9942 29.3223L21.4633 23.7901C19.4053 25.4398 16.8456 26.3371 14.208 26.3334C7.79101 26.3334 2.58301 21.1254 2.58301 14.7084C2.58301 8.29137 7.79101 3.08337 14.208 3.08337C20.625 3.08337 25.833 8.29137 25.833 14.7084C25.8368 17.346 24.9395 19.9057 23.2897 21.9637ZM20.6986 21.0053C22.3376 19.3192 23.253 17.0597 23.2497 14.7084C23.2497 9.7135 19.2029 5.66671 14.208 5.66671C9.21313 5.66671 5.16634 9.7135 5.16634 14.7084C5.16634 19.7033 9.21313 23.75 14.208 23.75C16.5593 23.7533 18.8189 22.8379 20.5049 21.199L20.6986 21.0053Z" fill="#CECBFF"/>
</svg>
