<svg width="45" height="39" viewBox="0 0 45 39" fill="none" xmlns="http://www.w3.org/2000/svg">
<path d="M41 17.6667V13.3333C41 10.4602 39.8586 7.70465 37.827 5.67301C35.7953 3.64137 33.0398 2.5 30.1667 2.5H12.8333C9.96015 2.5 7.20465 3.64137 5.17301 5.67301C3.14137 7.70465 2 10.4602 2 13.3333C2 16.2065 3.14137 18.962 5.17301 20.9937C7.20465 23.0253 9.96015 24.1667 12.8333 24.1667H21.5M39.102 33.0912C39.7128 32.4886 40.1982 31.771 40.5303 30.9799C40.8624 30.1888 41.0345 29.3398 41.0369 28.4818C41.0392 27.6238 40.8717 26.7738 40.5439 25.9809C40.2161 25.188 39.7346 24.4678 39.1271 23.8619C38.5197 23.256 37.7982 22.7764 37.0045 22.4507C36.2107 22.125 35.3603 21.9596 34.5023 21.9642C33.6444 21.9687 32.7958 22.1431 32.0055 22.4773C31.2153 22.8114 30.499 23.2987 29.898 23.911C28.6968 25.1349 28.0279 26.7838 28.037 28.4986C28.0461 30.2135 28.7325 31.8552 29.9467 33.0662C31.1608 34.2772 32.8044 34.9594 34.5192 34.9641C36.234 34.9687 37.8813 34.2955 39.102 33.0912ZM39.102 33.0912L43.1667 37.1667" stroke="url(#paint0_linear_3031_9506)" stroke-width="3.4" stroke-linecap="round" stroke-linejoin="round"/>
<defs>
<linearGradient id="paint0_linear_3031_9506" x1="6.90746" y1="2.5" x2="27.7712" y2="42.6207" gradientUnits="userSpaceOnUse">
<stop stop-color="#E5D4FE"/>
<stop offset="0.525" stop-color="white"/>
<stop offset="1" stop-color="#E8DFF4"/>
</linearGradient>
</defs>
</svg>
