<svg width="14" height="14" viewBox="0 0 14 14" fill="none" xmlns="http://www.w3.org/2000/svg">
<path fill-rule="evenodd" clip-rule="evenodd" d="M8.05208 3.11125C8.05208 2.03792 8.92708 1.167 10.0051 1.167C10.261 1.16631 10.5146 1.21606 10.7513 1.31341C10.9881 1.41076 11.2033 1.5538 11.3847 1.73435C11.5661 1.91491 11.7102 2.12944 11.8087 2.36569C11.9072 2.60195 11.9581 2.85529 11.9587 3.11125C11.9587 4.18517 11.0837 5.05608 10.0051 5.05608C9.74644 5.05627 9.49033 5.00512 9.25161 4.90558C9.01289 4.80605 8.79631 4.66012 8.61441 4.47625L5.91066 6.31725C5.98582 6.69234 5.9489 7.08126 5.80449 7.4355L8.76899 9.38383C9.11826 9.09924 9.55513 8.94407 10.0057 8.94458C10.2616 8.94397 10.5152 8.9938 10.7519 9.09122C10.9886 9.18863 11.2038 9.33174 11.3851 9.51235C11.5665 9.69296 11.7105 9.90753 11.8089 10.1438C11.9073 10.3801 11.9582 10.6335 11.9587 10.8894C11.9587 11.9627 11.0837 12.8337 10.0051 12.8337C9.74917 12.8343 9.49565 12.7845 9.25899 12.6871C9.02233 12.5897 8.80718 12.4467 8.62582 12.2661C8.44446 12.0856 8.30045 11.8711 8.202 11.6348C8.10356 11.3986 8.05261 11.1453 8.05208 10.8894C8.05162 10.6168 8.10909 10.3472 8.22066 10.0984L5.27949 8.167C4.92321 8.47651 4.46694 8.64663 3.99499 8.64592C3.73904 8.64653 3.48547 8.5967 3.24877 8.49928C3.01208 8.40187 2.7969 8.25876 2.61553 8.07815C2.43416 7.89754 2.29016 7.68297 2.19175 7.44668C2.09334 7.2104 2.04245 6.95704 2.04199 6.70108C2.04253 6.44518 2.09347 6.19188 2.19192 5.95566C2.29036 5.71945 2.43438 5.50494 2.61574 5.32439C2.7971 5.14384 3.01225 5.00079 3.24891 4.90341C3.48556 4.80603 3.73908 4.75622 3.99499 4.75683C4.61566 4.75683 5.16749 5.04442 5.52508 5.49242L8.14599 3.708C8.08348 3.51526 8.05178 3.31387 8.05208 3.11125Z" fill="#CECBFF"/>
</svg>
