<svg width="33" height="33" viewBox="0 0 33 33" fill="none" xmlns="http://www.w3.org/2000/svg">
<g clip-path="url(#clip0_3650_34288)">
<rect width="33" height="33" rx="8" fill="#CECBFF" fill-opacity="0.24"/>
<path d="M21.9843 10.784L22.0071 19.4716L22.0202 19.4585L22.0223 19.9384C22.0231 20.17 21.9313 20.3928 21.7681 20.5571L21.7046 20.6152C21.5718 20.7247 21.4097 20.7929 21.2385 20.8106L21.1522 20.8154C20.9496 20.8161 20.7542 20.7459 20.5984 20.6193L20.5335 20.5613C20.3899 20.4186 20.3007 20.2313 20.28 20.0316L20.2759 19.9446L20.249 13.5538L11.4854 22.3173C11.3423 22.4604 11.1547 22.5488 10.9551 22.5687L10.8681 22.5728C10.6367 22.5727 10.4144 22.481 10.2507 22.3173C10.1076 22.1741 10.0199 21.986 10.0001 21.7863L9.99522 21.7C9.99524 21.4685 10.0871 21.2463 10.2507 21.0826L19.0143 12.3191L12.6393 12.2915C12.5514 12.3031 12.4626 12.3024 12.3755 12.2873L12.2837 12.2659C12.1937 12.2401 12.1085 12.2004 12.0316 12.1478L11.957 12.0912C11.862 12.0099 11.7853 11.9084 11.7326 11.795C11.6931 11.7099 11.6679 11.6191 11.6573 11.5263L11.6518 11.4338C11.6511 11.3402 11.6652 11.247 11.6939 11.1583L11.7278 11.0706C11.7788 10.9566 11.8537 10.8548 11.9474 10.7723L12.0213 10.7136C12.0975 10.6598 12.1822 10.6185 12.2719 10.5914L12.3631 10.5693C12.4467 10.5535 12.5323 10.5505 12.6172 10.5596L21.7847 10.5845H21.9836L21.9843 10.784Z" fill="#CECBFF" stroke="#CECBFF" stroke-width="0.4"/>
</g>
<defs>
<clipPath id="clip0_3650_34288">
<rect width="33" height="33" rx="8" fill="white"/>
</clipPath>
</defs>
</svg>
